<svg width="226" height="94" viewBox="0 0 226 94" fill="none" xmlns="http://www.w3.org/2000/svg">
<path d="M226 46.9998C226 85.634 210.534 94 116.531 94C22.5289 94 0 85.634 0 46.9998C0 8.3655 22.5289 0 116.531 0C210.534 0 226 8.3655 226 46.9998Z" fill="#0C0C0C"/>
<path d="M65.0854 19.8V31H63.9174V20.824H56.8294V31H55.6614V19.8H65.0854ZM72.0646 31.08C71.2539 31.08 70.5232 30.8987 69.8726 30.536C69.2219 30.1627 68.7099 29.6507 68.3366 29C67.9632 28.3493 67.7766 27.6133 67.7766 26.792C67.7766 25.9707 67.9632 25.2347 68.3366 24.584C68.7099 23.9333 69.2219 23.4267 69.8726 23.064C70.5232 22.7013 71.2539 22.52 72.0646 22.52C72.8752 22.52 73.6059 22.7013 74.2566 23.064C74.9072 23.4267 75.4139 23.9333 75.7766 24.584C76.1499 25.2347 76.3366 25.9707 76.3366 26.792C76.3366 27.6133 76.1499 28.3493 75.7766 29C75.4139 29.6507 74.9072 30.1627 74.2566 30.536C73.6059 30.8987 72.8752 31.08 72.0646 31.08ZM72.0646 30.072C72.6619 30.072 73.1952 29.9387 73.6646 29.672C74.1446 29.3947 74.5179 29.0053 74.7846 28.504C75.0512 28.0027 75.1846 27.432 75.1846 26.792C75.1846 26.152 75.0512 25.5813 74.7846 25.08C74.5179 24.5787 74.1446 24.1947 73.6646 23.928C73.1952 23.6507 72.6619 23.512 72.0646 23.512C71.4672 23.512 70.9286 23.6507 70.4486 23.928C69.9792 24.1947 69.6059 24.5787 69.3286 25.08C69.0619 25.5813 68.9286 26.152 68.9286 26.792C68.9286 27.432 69.0619 28.0027 69.3286 28.504C69.6059 29.0053 69.9792 29.3947 70.4486 29.672C70.9286 29.9387 71.4672 30.072 72.0646 30.072ZM78.7644 22.584H79.9004V26.312H85.1964V22.584H86.3324V31H85.1964V27.288H79.9004V31H78.7644V22.584ZM96.9213 27.144H89.8813C89.9453 28.0187 90.2813 28.728 90.8893 29.272C91.4973 29.8053 92.2653 30.072 93.1933 30.072C93.716 30.072 94.196 29.9813 94.6333 29.8C95.0706 29.608 95.4493 29.3307 95.7693 28.968L96.4093 29.704C96.036 30.152 95.5666 30.4933 95.0013 30.728C94.4466 30.9627 93.8333 31.08 93.1613 31.08C92.2973 31.08 91.5293 30.8987 90.8573 30.536C90.196 30.1627 89.6786 29.6507 89.3053 29C88.932 28.3493 88.7453 27.6133 88.7453 26.792C88.7453 25.9707 88.9213 25.2347 89.2733 24.584C89.636 23.9333 90.1266 23.4267 90.7453 23.064C91.3746 22.7013 92.0786 22.52 92.8573 22.52C93.636 22.52 94.3346 22.7013 94.9533 23.064C95.572 23.4267 96.0573 23.9333 96.4093 24.584C96.7613 25.224 96.9373 25.96 96.9373 26.792L96.9213 27.144ZM92.8573 23.496C92.0466 23.496 91.364 23.7573 90.8093 24.28C90.2653 24.792 89.956 25.464 89.8813 26.296H95.8493C95.7746 25.464 95.46 24.792 94.9053 24.28C94.3613 23.7573 93.6786 23.496 92.8573 23.496ZM107.488 30.008V33.032H106.416V31H98.8801V33.032H97.8081V30.008H98.2881C98.8534 29.976 99.2374 29.56 99.4401 28.76C99.6427 27.96 99.7814 26.84 99.8561 25.4L99.9681 22.584H106.176V30.008H107.488ZM100.896 25.464C100.843 26.6587 100.741 27.6453 100.592 28.424C100.443 29.192 100.176 29.72 99.7921 30.008H105.04V23.592H100.992L100.896 25.464ZM117.062 27.144H110.022C110.086 28.0187 110.422 28.728 111.03 29.272C111.638 29.8053 112.406 30.072 113.334 30.072C113.857 30.072 114.337 29.9813 114.774 29.8C115.211 29.608 115.59 29.3307 115.91 28.968L116.55 29.704C116.177 30.152 115.707 30.4933 115.142 30.728C114.587 30.9627 113.974 31.08 113.302 31.08C112.438 31.08 111.67 30.8987 110.998 30.536C110.337 30.1627 109.819 29.6507 109.446 29C109.073 28.3493 108.886 27.6133 108.886 26.792C108.886 25.9707 109.062 25.2347 109.414 24.584C109.777 23.9333 110.267 23.4267 110.886 23.064C111.515 22.7013 112.219 22.52 112.998 22.52C113.777 22.52 114.475 22.7013 115.094 23.064C115.713 23.4267 116.198 23.9333 116.55 24.584C116.902 25.224 117.078 25.96 117.078 26.792L117.062 27.144ZM112.998 23.496C112.187 23.496 111.505 23.7573 110.95 24.28C110.406 24.792 110.097 25.464 110.022 26.296H115.99C115.915 25.464 115.601 24.792 115.046 24.28C114.502 23.7573 113.819 23.496 112.998 23.496ZM126.301 22.584V31H125.165V23.592H121.133L121.021 25.672C120.935 27.4213 120.733 28.7653 120.413 29.704C120.093 30.6427 119.522 31.112 118.701 31.112C118.477 31.112 118.205 31.0693 117.885 30.984L117.965 30.008C118.157 30.0507 118.29 30.072 118.365 30.072C118.802 30.072 119.133 29.8693 119.357 29.464C119.581 29.0587 119.73 28.5573 119.805 27.96C119.879 27.3627 119.943 26.5733 119.997 25.592L120.141 22.584H126.301ZM133.146 25.56C134.202 25.5707 135.002 25.8053 135.546 26.264C136.101 26.7227 136.378 27.384 136.378 28.248C136.378 29.144 136.079 29.832 135.482 30.312C134.895 30.792 134.042 31.0267 132.922 31.016L129.53 31V22.584H130.666V25.528L133.146 25.56ZM132.858 30.152C133.637 30.1627 134.223 30.008 134.618 29.688C135.023 29.3573 135.226 28.8773 135.226 28.248C135.226 27.6293 135.029 27.1707 134.634 26.872C134.239 26.5733 133.647 26.4187 132.858 26.408L130.666 26.376V30.12L132.858 30.152ZM138.546 22.584H139.682V26.312H144.978V22.584H146.114V31H144.978V27.288H139.682V31H138.546V22.584ZM149.343 22.584H150.479V29.272L156.095 22.584H157.103V31H155.967V24.312L150.367 31H149.343V22.584ZM163.414 27.256H161.494V31H160.358V22.584H161.494V26.28H163.43L166.39 22.584H167.622L164.31 26.664L167.862 31H166.518L163.414 27.256ZM42.6673 39.8V51H41.8513V45.672H34.3633V51H33.5473V39.8H34.3633V44.952H41.8513V39.8H42.6673ZM53.5355 47.016H46.3515C46.3728 47.6667 46.5382 48.248 46.8475 48.76C47.1568 49.2613 47.5728 49.6507 48.0955 49.928C48.6288 50.2053 49.2262 50.344 49.8875 50.344C50.4315 50.344 50.9328 50.248 51.3915 50.056C51.8608 49.8533 52.2502 49.56 52.5595 49.176L53.0235 49.704C52.6608 50.1413 52.2022 50.4773 51.6475 50.712C51.1035 50.9467 50.5115 51.064 49.8715 51.064C49.0395 51.064 48.2982 50.8827 47.6475 50.52C46.9968 50.1573 46.4848 49.656 46.1115 49.016C45.7488 48.376 45.5675 47.6453 45.5675 46.824C45.5675 46.0133 45.7382 45.288 46.0795 44.648C46.4315 43.9973 46.9115 43.4907 47.5195 43.128C48.1275 42.7653 48.8102 42.584 49.5675 42.584C50.3248 42.584 51.0022 42.7653 51.5995 43.128C52.2075 43.48 52.6822 43.976 53.0235 44.616C53.3755 45.256 53.5515 45.9813 53.5515 46.792L53.5355 47.016ZM49.5675 43.288C48.9808 43.288 48.4528 43.4213 47.9835 43.688C47.5142 43.944 47.1355 44.312 46.8475 44.792C46.5702 45.2613 46.4102 45.7947 46.3675 46.392H52.7675C52.7355 45.7947 52.5755 45.2613 52.2875 44.792C51.9995 44.3227 51.6208 43.9547 51.1515 43.688C50.6822 43.4213 50.1542 43.288 49.5675 43.288ZM60.0375 42.776C60.8162 42.776 61.5042 42.952 62.1015 43.304C62.7095 43.6453 63.1842 44.1253 63.5255 44.744C63.8668 45.3627 64.0375 46.0773 64.0375 46.888C64.0375 47.6987 63.8615 48.424 63.5095 49.064C63.1682 49.6933 62.6828 50.1893 62.0535 50.552C61.4348 50.904 60.7255 51.08 59.9255 51.08C59.0082 51.08 58.2242 50.856 57.5735 50.408C56.9335 49.96 56.4428 49.3253 56.1015 48.504C55.7708 47.6827 55.6055 46.7227 55.6055 45.624C55.6055 44.376 55.7548 43.3413 56.0535 42.52C56.3628 41.6987 56.8215 41.0533 57.4295 40.584C58.0482 40.104 58.8375 39.7467 59.7975 39.512L63.4935 38.616L63.6215 39.368L60.1015 40.2C59.2375 40.4027 58.5335 40.7013 57.9895 41.096C57.4562 41.48 57.0562 42.008 56.7895 42.68C56.5228 43.352 56.3842 44.2107 56.3735 45.256C56.6508 44.488 57.1148 43.8853 57.7655 43.448C58.4162 43 59.1735 42.776 60.0375 42.776ZM59.9415 50.392C60.5708 50.392 61.1362 50.2427 61.6375 49.944C62.1388 49.6453 62.5282 49.2347 62.8055 48.712C63.0828 48.1787 63.2215 47.576 63.2215 46.904C63.2215 46.232 63.0828 45.64 62.8055 45.128C62.5282 44.6053 62.1388 44.2053 61.6375 43.928C61.1468 43.64 60.5815 43.496 59.9415 43.496C59.3015 43.496 58.7308 43.64 58.2295 43.928C57.7282 44.2053 57.3388 44.6053 57.0615 45.128C56.7842 45.64 56.6455 46.232 56.6455 46.904C56.6455 47.576 56.7842 48.1787 57.0615 48.712C57.3388 49.2347 57.7282 49.6453 58.2295 49.944C58.7308 50.2427 59.3015 50.392 59.9415 50.392ZM73.7855 47.016H66.6015C66.6228 47.6667 66.7882 48.248 67.0975 48.76C67.4068 49.2613 67.8228 49.6507 68.3455 49.928C68.8788 50.2053 69.4762 50.344 70.1375 50.344C70.6815 50.344 71.1828 50.248 71.6415 50.056C72.1108 49.8533 72.5002 49.56 72.8095 49.176L73.2735 49.704C72.9108 50.1413 72.4522 50.4773 71.8975 50.712C71.3535 50.9467 70.7615 51.064 70.1215 51.064C69.2895 51.064 68.5482 50.8827 67.8975 50.52C67.2468 50.1573 66.7348 49.656 66.3615 49.016C65.9988 48.376 65.8175 47.6453 65.8175 46.824C65.8175 46.0133 65.9882 45.288 66.3295 44.648C66.6815 43.9973 67.1615 43.4907 67.7695 43.128C68.3775 42.7653 69.0602 42.584 69.8175 42.584C70.5748 42.584 71.2522 42.7653 71.8495 43.128C72.4575 43.48 72.9322 43.976 73.2735 44.616C73.6255 45.256 73.8015 45.9813 73.8015 46.792L73.7855 47.016ZM69.8175 43.288C69.2308 43.288 68.7028 43.4213 68.2335 43.688C67.7642 43.944 67.3855 44.312 67.0975 44.792C66.8202 45.2613 66.6602 45.7947 66.6175 46.392H73.0175C72.9855 45.7947 72.8255 45.2613 72.5375 44.792C72.2495 44.3227 71.8708 43.9547 71.4015 43.688C70.9322 43.4213 70.4042 43.288 69.8175 43.288ZM79.7915 51.064C78.9808 51.064 78.2555 50.8827 77.6155 50.52C76.9755 50.1573 76.4742 49.656 76.1115 49.016C75.7488 48.3653 75.5675 47.6347 75.5675 46.824C75.5675 46.0027 75.7488 45.272 76.1115 44.632C76.4742 43.9813 76.9755 43.48 77.6155 43.128C78.2555 42.7653 78.9808 42.584 79.7915 42.584C80.4635 42.584 81.0715 42.7173 81.6155 42.984C82.1702 43.24 82.6182 43.6187 82.9595 44.12L82.3675 44.552C82.0688 44.136 81.6955 43.8267 81.2475 43.624C80.8102 43.4107 80.3248 43.304 79.7915 43.304C79.1408 43.304 78.5542 43.4533 78.0315 43.752C77.5195 44.04 77.1142 44.4507 76.8155 44.984C76.5275 45.5173 76.3835 46.1307 76.3835 46.824C76.3835 47.5173 76.5275 48.1307 76.8155 48.664C77.1142 49.1973 77.5195 49.6133 78.0315 49.912C78.5542 50.2 79.1408 50.344 79.7915 50.344C80.3248 50.344 80.8102 50.2427 81.2475 50.04C81.6955 49.8267 82.0688 49.512 82.3675 49.096L82.9595 49.528C82.6182 50.0293 82.1702 50.4133 81.6155 50.68C81.0715 50.936 80.4635 51.064 79.7915 51.064ZM85.3218 42.648H86.1218V46.456H91.7858V42.648H92.5858V51H91.7858V47.16H86.1218V51H85.3218V42.648ZM99.3685 51.064C98.5792 51.064 97.8645 50.8827 97.2245 50.52C96.5952 50.1573 96.0992 49.656 95.7365 49.016C95.3738 48.3653 95.1925 47.6347 95.1925 46.824C95.1925 46.0133 95.3738 45.288 95.7365 44.648C96.0992 43.9973 96.5952 43.4907 97.2245 43.128C97.8645 42.7653 98.5792 42.584 99.3685 42.584C100.158 42.584 100.867 42.7653 101.497 43.128C102.137 43.4907 102.638 43.9973 103.001 44.648C103.363 45.288 103.545 46.0133 103.545 46.824C103.545 47.6347 103.363 48.3653 103.001 49.016C102.638 49.656 102.137 50.1573 101.497 50.52C100.867 50.8827 100.158 51.064 99.3685 51.064ZM99.3685 50.344C100.009 50.344 100.579 50.1947 101.081 49.896C101.593 49.5973 101.993 49.1813 102.281 48.648C102.579 48.1147 102.729 47.5067 102.729 46.824C102.729 46.1413 102.579 45.5333 102.281 45C101.993 44.4667 101.593 44.0507 101.081 43.752C100.579 43.4533 100.009 43.304 99.3685 43.304C98.7285 43.304 98.1525 43.4533 97.6405 43.752C97.1392 44.0507 96.7392 44.4667 96.4405 45C96.1525 45.5333 96.0085 46.1413 96.0085 46.824C96.0085 47.5067 96.1525 48.1147 96.4405 48.648C96.7392 49.1813 97.1392 49.5973 97.6405 49.896C98.1525 50.1947 98.7285 50.344 99.3685 50.344ZM113.27 47.016H106.086C106.107 47.6667 106.273 48.248 106.582 48.76C106.891 49.2613 107.307 49.6507 107.83 49.928C108.363 50.2053 108.961 50.344 109.622 50.344C110.166 50.344 110.667 50.248 111.126 50.056C111.595 49.8533 111.985 49.56 112.294 49.176L112.758 49.704C112.395 50.1413 111.937 50.4773 111.382 50.712C110.838 50.9467 110.246 51.064 109.606 51.064C108.774 51.064 108.033 50.8827 107.382 50.52C106.731 50.1573 106.219 49.656 105.846 49.016C105.483 48.376 105.302 47.6453 105.302 46.824C105.302 46.0133 105.473 45.288 105.814 44.648C106.166 43.9973 106.646 43.4907 107.254 43.128C107.862 42.7653 108.545 42.584 109.302 42.584C110.059 42.584 110.737 42.7653 111.334 43.128C111.942 43.48 112.417 43.976 112.758 44.616C113.11 45.256 113.286 45.9813 113.286 46.792L113.27 47.016ZM109.302 43.288C108.715 43.288 108.187 43.4213 107.718 43.688C107.249 43.944 106.87 44.312 106.582 44.792C106.305 45.2613 106.145 45.7947 106.102 46.392H112.502C112.47 45.7947 112.31 45.2613 112.022 44.792C111.734 44.3227 111.355 43.9547 110.886 43.688C110.417 43.4213 109.889 43.288 109.302 43.288ZM125.593 43.368H122.329V51H121.529V43.368H118.265V42.648H125.593V43.368ZM134.036 47.016H126.852C126.873 47.6667 127.038 48.248 127.348 48.76C127.657 49.2613 128.073 49.6507 128.596 49.928C129.129 50.2053 129.726 50.344 130.388 50.344C130.932 50.344 131.433 50.248 131.892 50.056C132.361 49.8533 132.75 49.56 133.06 49.176L133.524 49.704C133.161 50.1413 132.702 50.4773 132.148 50.712C131.604 50.9467 131.012 51.064 130.372 51.064C129.54 51.064 128.798 50.8827 128.148 50.52C127.497 50.1573 126.985 49.656 126.612 49.016C126.249 48.376 126.068 47.6453 126.068 46.824C126.068 46.0133 126.238 45.288 126.58 44.648C126.932 43.9973 127.412 43.4907 128.02 43.128C128.628 42.7653 129.31 42.584 130.068 42.584C130.825 42.584 131.502 42.7653 132.1 43.128C132.708 43.48 133.182 43.976 133.524 44.616C133.876 45.256 134.052 45.9813 134.052 46.792L134.036 47.016ZM130.068 43.288C129.481 43.288 128.953 43.4213 128.484 43.688C128.014 43.944 127.636 44.312 127.348 44.792C127.07 45.2613 126.91 45.7947 126.868 46.392H133.267C133.236 45.7947 133.076 45.2613 132.788 44.792C132.5 44.3227 132.121 43.9547 131.652 43.688C131.182 43.4213 130.654 43.288 130.068 43.288ZM142.99 42.648V51H142.19V43.368H137.838L137.726 45.592C137.662 46.744 137.566 47.7093 137.438 48.488C137.31 49.2667 137.092 49.896 136.782 50.376C136.473 50.856 136.046 51.096 135.502 51.096C135.342 51.096 135.113 51.0587 134.814 50.984L134.894 50.296C135.065 50.3387 135.193 50.36 135.278 50.36C135.726 50.36 136.068 50.1413 136.302 49.704C136.537 49.2667 136.697 48.7227 136.782 48.072C136.868 47.4213 136.937 46.5733 136.99 45.528L137.134 42.648H142.99ZM149.775 51.064C148.985 51.064 148.271 50.8827 147.631 50.52C147.001 50.1573 146.505 49.656 146.143 49.016C145.78 48.3653 145.599 47.6347 145.599 46.824C145.599 46.0133 145.78 45.288 146.143 44.648C146.505 43.9973 147.001 43.4907 147.631 43.128C148.271 42.7653 148.985 42.584 149.775 42.584C150.564 42.584 151.273 42.7653 151.903 43.128C152.543 43.4907 153.044 43.9973 153.407 44.648C153.769 45.288 153.951 46.0133 153.951 46.824C153.951 47.6347 153.769 48.3653 153.407 49.016C153.044 49.656 152.543 50.1573 151.903 50.52C151.273 50.8827 150.564 51.064 149.775 51.064ZM149.775 50.344C150.415 50.344 150.985 50.1947 151.487 49.896C151.999 49.5973 152.399 49.1813 152.687 48.648C152.985 48.1147 153.135 47.5067 153.135 46.824C153.135 46.1413 152.985 45.5333 152.687 45C152.399 44.4667 151.999 44.0507 151.487 43.752C150.985 43.4533 150.415 43.304 149.775 43.304C149.135 43.304 148.559 43.4533 148.047 43.752C147.545 44.0507 147.145 44.4667 146.847 45C146.559 45.5333 146.415 46.1413 146.415 46.824C146.415 47.5067 146.559 48.1147 146.847 48.648C147.145 49.1813 147.545 49.5973 148.047 49.896C148.559 50.1947 149.135 50.344 149.775 50.344ZM156.428 43.944C156.247 43.944 156.087 43.88 155.948 43.752C155.82 43.6133 155.756 43.448 155.756 43.256C155.756 43.064 155.82 42.904 155.948 42.776C156.087 42.648 156.247 42.584 156.428 42.584C156.609 42.584 156.764 42.648 156.892 42.776C157.031 42.904 157.1 43.064 157.1 43.256C157.1 43.448 157.031 43.6133 156.892 43.752C156.764 43.88 156.609 43.944 156.428 43.944ZM156.428 51.064C156.247 51.064 156.087 51 155.948 50.872C155.82 50.7333 155.756 50.568 155.756 50.376C155.756 50.184 155.82 50.024 155.948 49.896C156.087 49.768 156.247 49.704 156.428 49.704C156.609 49.704 156.764 49.768 156.892 49.896C157.031 50.024 157.1 50.184 157.1 50.376C157.1 50.568 157.031 50.7333 156.892 50.872C156.764 51 156.609 51.064 156.428 51.064ZM170.749 45.224C171.549 45.3733 172.157 45.688 172.573 46.168C172.999 46.648 173.213 47.272 173.213 48.04C173.213 48.9893 172.866 49.72 172.173 50.232C171.479 50.744 170.45 51 169.085 51H164.093V39.8H168.765C169.981 39.8 170.925 40.0507 171.597 40.552C172.279 41.0427 172.621 41.7467 172.621 42.664C172.621 43.304 172.45 43.8427 172.109 44.28C171.778 44.7173 171.325 45.032 170.749 45.224ZM164.909 40.504V44.968H168.733C169.714 44.968 170.466 44.7813 170.989 44.408C171.522 44.024 171.789 43.464 171.789 42.728C171.789 42.0027 171.522 41.4533 170.989 41.08C170.466 40.696 169.714 40.504 168.733 40.504H164.909ZM169.085 50.296C170.173 50.296 170.994 50.1093 171.549 49.736C172.114 49.352 172.397 48.7653 172.397 47.976C172.397 47.1867 172.114 46.6053 171.549 46.232C170.994 45.8587 170.173 45.672 169.085 45.672H164.909V50.296H169.085ZM177.868 39.8V51H177.052V40.536H174.316V39.8H177.868ZM183.509 39.8V51H182.693V40.536H179.957V39.8H183.509ZM193.805 50.264V51H186.109V50.424L190.845 45.72C191.464 45.1013 191.88 44.5733 192.093 44.136C192.317 43.688 192.429 43.2293 192.429 42.76C192.429 42.0453 192.184 41.4853 191.693 41.08C191.213 40.6747 190.514 40.472 189.597 40.472C188.893 40.472 188.274 40.5787 187.741 40.792C187.218 41.0053 186.765 41.3307 186.381 41.768L185.805 41.256C186.232 40.7653 186.77 40.3867 187.421 40.12C188.082 39.8533 188.829 39.72 189.661 39.72C190.76 39.72 191.634 39.9867 192.285 40.52C192.936 41.0533 193.261 41.7733 193.261 42.68C193.261 43.256 193.133 43.8053 192.877 44.328C192.621 44.8507 192.141 45.4587 191.437 46.152L187.309 50.264H193.805ZM27.1403 65.24C27.9723 65.3787 28.5963 65.6827 29.0123 66.152C29.439 66.6213 29.6523 67.2453 29.6523 68.024C29.6523 68.984 29.3163 69.72 28.6443 70.232C27.9723 70.744 26.975 71 25.6523 71H20.8363V59.8H25.3483C26.5216 59.8 27.4336 60.0453 28.0843 60.536C28.7456 61.0267 29.0763 61.7307 29.0763 62.648C29.0763 63.2987 28.9056 63.8427 28.5643 64.28C28.223 64.7173 27.7483 65.0373 27.1403 65.24ZM21.6523 64.984H25.3323C26.271 64.984 26.991 64.792 27.4923 64.408C27.9936 64.024 28.2443 63.4693 28.2443 62.744C28.2443 62.008 27.9936 61.448 27.4923 61.064C26.991 60.68 26.271 60.488 25.3323 60.488H21.6523V64.984ZM25.6683 70.312C27.7803 70.312 28.8363 69.5333 28.8363 67.976C28.8363 67.176 28.5696 66.5893 28.0363 66.216C27.503 65.8427 26.7136 65.656 25.6683 65.656H21.6523V70.312H25.6683ZM36.7563 62.584C37.535 62.584 38.239 62.7653 38.8683 63.128C39.4976 63.4907 39.9883 63.992 40.3403 64.632C40.703 65.272 40.8843 66.0027 40.8843 66.824C40.8843 67.6453 40.703 68.3813 40.3403 69.032C39.9883 69.672 39.4976 70.1733 38.8683 70.536C38.239 70.888 37.535 71.064 36.7563 71.064C36.0203 71.064 35.3536 70.8933 34.7563 70.552C34.159 70.2 33.695 69.7147 33.3643 69.096V74.104H32.5643V62.648H33.3323V64.616C33.663 63.976 34.127 63.48 34.7243 63.128C35.3323 62.7653 36.0096 62.584 36.7563 62.584ZM36.7083 70.344C37.3483 70.344 37.9243 70.1947 38.4363 69.896C38.9483 69.5973 39.3483 69.1813 39.6363 68.648C39.935 68.1147 40.0843 67.5067 40.0843 66.824C40.0843 66.1413 39.935 65.5333 39.6363 65C39.3483 64.4667 38.9483 64.0507 38.4363 63.752C37.9243 63.4533 37.3483 63.304 36.7083 63.304C36.0683 63.304 35.4923 63.4533 34.9803 63.752C34.479 64.0507 34.079 64.4667 33.7803 65C33.4923 65.5333 33.3483 66.1413 33.3483 66.824C33.3483 67.5067 33.4923 68.1147 33.7803 68.648C34.079 69.1813 34.479 69.5973 34.9803 69.896C35.4923 70.1947 36.0683 70.344 36.7083 70.344ZM50.6058 67.016H43.4218C43.4431 67.6667 43.6085 68.248 43.9178 68.76C44.2271 69.2613 44.6431 69.6507 45.1658 69.928C45.6991 70.2053 46.2965 70.344 46.9578 70.344C47.5018 70.344 48.0031 70.248 48.4618 70.056C48.9311 69.8533 49.3205 69.56 49.6298 69.176L50.0938 69.704C49.7311 70.1413 49.2725 70.4773 48.7178 70.712C48.1738 70.9467 47.5818 71.064 46.9418 71.064C46.1098 71.064 45.3685 70.8827 44.7178 70.52C44.0671 70.1573 43.5551 69.656 43.1818 69.016C42.8191 68.376 42.6378 67.6453 42.6378 66.824C42.6378 66.0133 42.8085 65.288 43.1498 64.648C43.5018 63.9973 43.9818 63.4907 44.5898 63.128C45.1978 62.7653 45.8805 62.584 46.6378 62.584C47.3951 62.584 48.0725 62.7653 48.6698 63.128C49.2778 63.48 49.7525 63.976 50.0938 64.616C50.4458 65.256 50.6218 65.9813 50.6218 66.792L50.6058 67.016ZM46.6378 63.288C46.0511 63.288 45.5231 63.4213 45.0538 63.688C44.5845 63.944 44.2058 64.312 43.9178 64.792C43.6405 65.2613 43.4805 65.7947 43.4378 66.392H49.8378C49.8058 65.7947 49.6458 65.2613 49.3578 64.792C49.0698 64.3227 48.6911 63.9547 48.2218 63.688C47.7525 63.4213 47.2245 63.288 46.6378 63.288ZM62.3238 62.648V71H61.5878V63.928L57.9558 69.928H57.5878L53.9718 63.944V71H53.2358V62.648H54.0198L57.7958 68.968L61.5878 62.648H62.3238ZM71.9427 62.648V71H71.2067V68.12H68.4227C68.2307 68.12 68.092 68.1147 68.0067 68.104L65.9427 71H65.0627L67.2227 68.008C66.54 67.8587 66.0174 67.5653 65.6547 67.128C65.292 66.6907 65.1107 66.1253 65.1107 65.432C65.1107 64.5147 65.4147 63.8213 66.0227 63.352C66.6414 62.8827 67.484 62.648 68.5507 62.648H71.9427ZM65.9107 65.464C65.9107 66.8293 66.7747 67.512 68.5027 67.512H71.2067V63.352H68.5987C66.8067 63.352 65.9107 64.056 65.9107 65.464ZM86.7974 62.648V71H85.9974V63.368H80.3014V71H79.5014V62.648H86.7974ZM94.4594 62.584C95.2381 62.584 95.9421 62.7653 96.5714 63.128C97.2008 63.4907 97.6914 63.992 98.0434 64.632C98.4061 65.272 98.5874 66.0027 98.5874 66.824C98.5874 67.6453 98.4061 68.3813 98.0434 69.032C97.6914 69.672 97.2008 70.1733 96.5714 70.536C95.9421 70.888 95.2381 71.064 94.4594 71.064C93.7234 71.064 93.0568 70.8933 92.4594 70.552C91.8621 70.2 91.3981 69.7147 91.0674 69.096V74.104H90.2674V62.648H91.0354V64.616C91.3661 63.976 91.8301 63.48 92.4274 63.128C93.0354 62.7653 93.7128 62.584 94.4594 62.584ZM94.4114 70.344C95.0514 70.344 95.6274 70.1947 96.1394 69.896C96.6514 69.5973 97.0514 69.1813 97.3394 68.648C97.6381 68.1147 97.7874 67.5067 97.7874 66.824C97.7874 66.1413 97.6381 65.5333 97.3394 65C97.0514 64.4667 96.6514 64.0507 96.1394 63.752C95.6274 63.4533 95.0514 63.304 94.4114 63.304C93.7714 63.304 93.1954 63.4533 92.6834 63.752C92.1821 64.0507 91.7821 64.4667 91.4834 65C91.1954 65.5333 91.0514 66.1413 91.0514 66.824C91.0514 67.5067 91.1954 68.1147 91.4834 68.648C91.7821 69.1813 92.1821 69.5973 92.6834 69.896C93.1954 70.1947 93.7714 70.344 94.4114 70.344ZM104.517 71.064C103.728 71.064 103.013 70.8827 102.373 70.52C101.744 70.1573 101.248 69.656 100.885 69.016C100.522 68.3653 100.341 67.6347 100.341 66.824C100.341 66.0133 100.522 65.288 100.885 64.648C101.248 63.9973 101.744 63.4907 102.373 63.128C103.013 62.7653 103.728 62.584 104.517 62.584C105.306 62.584 106.016 62.7653 106.645 63.128C107.285 63.4907 107.786 63.9973 108.149 64.648C108.512 65.288 108.693 66.0133 108.693 66.824C108.693 67.6347 108.512 68.3653 108.149 69.016C107.786 69.656 107.285 70.1573 106.645 70.52C106.016 70.8827 105.306 71.064 104.517 71.064ZM104.517 70.344C105.157 70.344 105.728 70.1947 106.229 69.896C106.741 69.5973 107.141 69.1813 107.429 68.648C107.728 68.1147 107.877 67.5067 107.877 66.824C107.877 66.1413 107.728 65.5333 107.429 65C107.141 64.4667 106.741 64.0507 106.229 63.752C105.728 63.4533 105.157 63.304 104.517 63.304C103.877 63.304 103.301 63.4533 102.789 63.752C102.288 64.0507 101.888 64.4667 101.589 65C101.301 65.5333 101.157 66.1413 101.157 66.824C101.157 67.5067 101.301 68.1147 101.589 68.648C101.888 69.1813 102.288 69.5973 102.789 69.896C103.301 70.1947 103.877 70.344 104.517 70.344ZM117.795 62.648V71H116.995V63.368H112.643L112.531 65.592C112.467 66.744 112.371 67.7093 112.243 68.488C112.115 69.2667 111.896 69.896 111.587 70.376C111.278 70.856 110.851 71.096 110.307 71.096C110.147 71.096 109.918 71.0587 109.619 70.984L109.699 70.296C109.87 70.3387 109.998 70.36 110.083 70.36C110.531 70.36 110.872 70.1413 111.107 69.704C111.342 69.2667 111.502 68.7227 111.587 68.072C111.672 67.4213 111.742 66.5733 111.795 65.528L111.939 62.648H117.795ZM128.371 67.016H121.187C121.209 67.6667 121.374 68.248 121.683 68.76C121.993 69.2613 122.409 69.6507 122.931 69.928C123.465 70.2053 124.062 70.344 124.723 70.344C125.267 70.344 125.769 70.248 126.227 70.056C126.697 69.8533 127.086 69.56 127.395 69.176L127.859 69.704C127.497 70.1413 127.038 70.4773 126.483 70.712C125.939 70.9467 125.347 71.064 124.707 71.064C123.875 71.064 123.134 70.8827 122.483 70.52C121.833 70.1573 121.321 69.656 120.947 69.016C120.585 68.376 120.403 67.6453 120.403 66.824C120.403 66.0133 120.574 65.288 120.915 64.648C121.267 63.9973 121.747 63.4907 122.355 63.128C122.963 62.7653 123.646 62.584 124.403 62.584C125.161 62.584 125.838 62.7653 126.435 63.128C127.043 63.48 127.518 63.976 127.859 64.616C128.211 65.256 128.387 65.9813 128.387 66.792L128.371 67.016ZM124.403 63.288C123.817 63.288 123.289 63.4213 122.819 63.688C122.35 63.944 121.971 64.312 121.683 64.792C121.406 65.2613 121.246 65.7947 121.203 66.392H127.603C127.571 65.7947 127.411 65.2613 127.123 64.792C126.835 64.3227 126.457 63.9547 125.987 63.688C125.518 63.4213 124.99 63.288 124.403 63.288ZM123.027 60.856C122.867 60.856 122.729 60.8027 122.611 60.696C122.505 60.5787 122.451 60.44 122.451 60.28C122.451 60.1093 122.505 59.9707 122.611 59.864C122.729 59.7573 122.867 59.704 123.027 59.704C123.187 59.704 123.321 59.7627 123.427 59.88C123.545 59.9867 123.603 60.12 123.603 60.28C123.603 60.44 123.545 60.5787 123.427 60.696C123.31 60.8027 123.177 60.856 123.027 60.856ZM125.779 60.856C125.63 60.856 125.497 60.8027 125.379 60.696C125.262 60.5787 125.203 60.44 125.203 60.28C125.203 60.12 125.257 59.9867 125.363 59.88C125.481 59.7627 125.619 59.704 125.779 59.704C125.939 59.704 126.073 59.7573 126.179 59.864C126.297 59.9707 126.355 60.1093 126.355 60.28C126.355 60.44 126.297 60.5787 126.179 60.696C126.073 60.8027 125.939 60.856 125.779 60.856ZM136.195 63.368H132.931V71H132.131V63.368H128.867V62.648H136.195V63.368ZM140.676 62.584C141.71 62.584 142.505 62.8507 143.06 63.384C143.614 63.9067 143.892 64.68 143.892 65.704V71H143.124V69.512C142.857 70.0027 142.468 70.3867 141.956 70.664C141.444 70.9307 140.83 71.064 140.116 71.064C139.188 71.064 138.452 70.8453 137.908 70.408C137.374 69.9707 137.108 69.3947 137.108 68.68C137.108 67.9867 137.353 67.4267 137.844 67C138.345 66.5627 139.14 66.344 140.228 66.344H143.092V65.672C143.092 64.8933 142.878 64.3013 142.452 63.896C142.036 63.4907 141.422 63.288 140.612 63.288C140.057 63.288 139.524 63.384 139.012 63.576C138.51 63.768 138.084 64.024 137.732 64.344L137.332 63.768C137.748 63.3947 138.249 63.1067 138.836 62.904C139.422 62.6907 140.036 62.584 140.676 62.584ZM140.228 70.408C140.921 70.408 141.508 70.248 141.988 69.928C142.478 69.608 142.846 69.144 143.092 68.536V66.968H140.244C139.422 66.968 138.825 67.1173 138.452 67.416C138.089 67.7147 137.908 68.1253 137.908 68.648C137.908 69.192 138.11 69.624 138.516 69.944C138.921 70.2533 139.492 70.408 140.228 70.408ZM147.014 63.944C146.833 63.944 146.673 63.88 146.534 63.752C146.406 63.6133 146.342 63.448 146.342 63.256C146.342 63.064 146.406 62.904 146.534 62.776C146.673 62.648 146.833 62.584 147.014 62.584C147.195 62.584 147.35 62.648 147.478 62.776C147.617 62.904 147.686 63.064 147.686 63.256C147.686 63.448 147.617 63.6133 147.478 63.752C147.35 63.88 147.195 63.944 147.014 63.944ZM147.014 71.064C146.833 71.064 146.673 71 146.534 70.872C146.406 70.7333 146.342 70.568 146.342 70.376C146.342 70.184 146.406 70.024 146.534 69.896C146.673 69.768 146.833 69.704 147.014 69.704C147.195 69.704 147.35 69.768 147.478 69.896C147.617 70.024 147.686 70.184 147.686 70.376C147.686 70.568 147.617 70.7333 147.478 70.872C147.35 71 147.195 71.064 147.014 71.064ZM156.423 59.8V71H155.607V60.536H152.871V59.8H156.423ZM163.631 71.08C162.778 71.08 162.015 70.8507 161.343 70.392C160.682 69.9227 160.165 69.2613 159.791 68.408C159.429 67.5547 159.247 66.552 159.247 65.4C159.247 64.248 159.429 63.2453 159.791 62.392C160.165 61.5387 160.682 60.8827 161.343 60.424C162.015 59.9547 162.778 59.72 163.631 59.72C164.485 59.72 165.242 59.9547 165.903 60.424C166.575 60.8827 167.093 61.5387 167.455 62.392C167.829 63.2453 168.015 64.248 168.015 65.4C168.015 66.552 167.829 67.5547 167.455 68.408C167.093 69.2613 166.575 69.9227 165.903 70.392C165.242 70.8507 164.485 71.08 163.631 71.08ZM163.631 70.328C164.335 70.328 164.954 70.136 165.487 69.752C166.031 69.3573 166.453 68.792 166.751 68.056C167.05 67.3093 167.199 66.424 167.199 65.4C167.199 64.376 167.05 63.496 166.751 62.76C166.453 62.0133 166.031 61.448 165.487 61.064C164.954 60.6693 164.335 60.472 163.631 60.472C162.927 60.472 162.303 60.6693 161.759 61.064C161.226 61.448 160.81 62.0133 160.511 62.76C160.213 63.496 160.063 64.376 160.063 65.4C160.063 66.424 160.213 67.3093 160.511 68.056C160.81 68.792 161.226 69.3573 161.759 69.752C162.303 70.136 162.927 70.328 163.631 70.328ZM183.824 62.648V71H183.088V63.928L179.456 69.928H179.088L175.472 63.944V71H174.736V62.648H175.52L179.296 68.968L183.088 62.648H183.824ZM187.283 62.648H188.083V69.768L194.035 62.648H194.739V71H193.939V63.88L187.987 71H187.283V62.648ZM198.189 62.648H198.989V66.456H204.653V62.648H205.453V71H204.653V67.16H198.989V71H198.189V62.648Z" fill="white"/>
</svg>
