<svg width="226" height="97" viewBox="0 0 226 97" fill="none" xmlns="http://www.w3.org/2000/svg">
<path d="M226 48.4997C226 88.367 210.534 97 116.531 97C22.5289 97 0 88.367 0 48.4997C0 8.63249 22.5289 0 116.531 0C210.534 0 226 8.63249 226 48.4997Z" fill="#0C0C0C"/>
<path d="M51.2729 17.8V29H50.1049V18.824H43.0169V29H41.8489V17.8H51.2729ZM58.2521 29.08C57.4414 29.08 56.7107 28.8987 56.0601 28.536C55.4094 28.1627 54.8974 27.6507 54.5241 27C54.1507 26.3493 53.9641 25.6133 53.9641 24.792C53.9641 23.9707 54.1507 23.2347 54.5241 22.584C54.8974 21.9333 55.4094 21.4267 56.0601 21.064C56.7107 20.7013 57.4414 20.52 58.2521 20.52C59.0627 20.52 59.7934 20.7013 60.4441 21.064C61.0947 21.4267 61.6014 21.9333 61.9641 22.584C62.3374 23.2347 62.5241 23.9707 62.5241 24.792C62.5241 25.6133 62.3374 26.3493 61.9641 27C61.6014 27.6507 61.0947 28.1627 60.4441 28.536C59.7934 28.8987 59.0627 29.08 58.2521 29.08ZM58.2521 28.072C58.8494 28.072 59.3827 27.9387 59.8521 27.672C60.3321 27.3947 60.7054 27.0053 60.9721 26.504C61.2387 26.0027 61.3721 25.432 61.3721 24.792C61.3721 24.152 61.2387 23.5813 60.9721 23.08C60.7054 22.5787 60.3321 22.1947 59.8521 21.928C59.3827 21.6507 58.8494 21.512 58.2521 21.512C57.6547 21.512 57.1161 21.6507 56.6361 21.928C56.1667 22.1947 55.7934 22.5787 55.5161 23.08C55.2494 23.5813 55.1161 24.152 55.1161 24.792C55.1161 25.432 55.2494 26.0027 55.5161 26.504C55.7934 27.0053 56.1667 27.3947 56.6361 27.672C57.1161 27.9387 57.6547 28.072 58.2521 28.072ZM64.9519 20.584H66.0879V24.312H71.3839V20.584H72.5199V29H71.3839V25.288H66.0879V29H64.9519V20.584ZM83.1088 25.144H76.0688C76.1328 26.0187 76.4688 26.728 77.0768 27.272C77.6848 27.8053 78.4528 28.072 79.3808 28.072C79.9035 28.072 80.3835 27.9813 80.8208 27.8C81.2581 27.608 81.6368 27.3307 81.9568 26.968L82.5968 27.704C82.2235 28.152 81.7541 28.4933 81.1888 28.728C80.6341 28.9627 80.0208 29.08 79.3488 29.08C78.4848 29.08 77.7168 28.8987 77.0448 28.536C76.3835 28.1627 75.8661 27.6507 75.4928 27C75.1195 26.3493 74.9328 25.6133 74.9328 24.792C74.9328 23.9707 75.1088 23.2347 75.4608 22.584C75.8235 21.9333 76.3141 21.4267 76.9328 21.064C77.5621 20.7013 78.2661 20.52 79.0448 20.52C79.8235 20.52 80.5221 20.7013 81.1408 21.064C81.7595 21.4267 82.2448 21.9333 82.5968 22.584C82.9488 23.224 83.1248 23.96 83.1248 24.792L83.1088 25.144ZM79.0448 21.496C78.2341 21.496 77.5515 21.7573 76.9968 22.28C76.4528 22.792 76.1435 23.464 76.0688 24.296H82.0368C81.9621 23.464 81.6475 22.792 81.0928 22.28C80.5488 21.7573 79.8661 21.496 79.0448 21.496ZM93.6756 28.008V31.032H92.6036V29H85.0676V31.032H83.9956V28.008H84.4756C85.0409 27.976 85.4249 27.56 85.6276 26.76C85.8302 25.96 85.9689 24.84 86.0436 23.4L86.1556 20.584H92.3636V28.008H93.6756ZM87.0836 23.464C87.0302 24.6587 86.9289 25.6453 86.7796 26.424C86.6302 27.192 86.3636 27.72 85.9796 28.008H91.2276V21.592H87.1796L87.0836 23.464ZM103.249 25.144H96.2094C96.2734 26.0187 96.6094 26.728 97.2174 27.272C97.8254 27.8053 98.5934 28.072 99.5214 28.072C100.044 28.072 100.524 27.9813 100.961 27.8C101.399 27.608 101.777 27.3307 102.097 26.968L102.737 27.704C102.364 28.152 101.895 28.4933 101.329 28.728C100.775 28.9627 100.161 29.08 99.4894 29.08C98.6254 29.08 97.8574 28.8987 97.1854 28.536C96.5241 28.1627 96.0068 27.6507 95.6334 27C95.2601 26.3493 95.0734 25.6133 95.0734 24.792C95.0734 23.9707 95.2494 23.2347 95.6014 22.584C95.9641 21.9333 96.4548 21.4267 97.0734 21.064C97.7028 20.7013 98.4068 20.52 99.1854 20.52C99.9641 20.52 100.663 20.7013 101.281 21.064C101.9 21.4267 102.385 21.9333 102.737 22.584C103.089 23.224 103.265 23.96 103.265 24.792L103.249 25.144ZM99.1854 21.496C98.3748 21.496 97.6921 21.7573 97.1374 22.28C96.5934 22.792 96.2841 23.464 96.2094 24.296H102.177C102.103 23.464 101.788 22.792 101.233 22.28C100.689 21.7573 100.007 21.496 99.1854 21.496ZM112.488 20.584V29H111.352V21.592H107.32L107.208 23.672C107.123 25.4213 106.92 26.7653 106.6 27.704C106.28 28.6427 105.71 29.112 104.888 29.112C104.664 29.112 104.392 29.0693 104.072 28.984L104.152 28.008C104.344 28.0507 104.478 28.072 104.552 28.072C104.99 28.072 105.32 27.8693 105.544 27.464C105.768 27.0587 105.918 26.5573 105.992 25.96C106.067 25.3627 106.131 24.5733 106.184 23.592L106.328 20.584H112.488ZM119.334 23.56C120.39 23.5707 121.19 23.8053 121.734 24.264C122.288 24.7227 122.566 25.384 122.566 26.248C122.566 27.144 122.267 27.832 121.67 28.312C121.083 28.792 120.23 29.0267 119.11 29.016L115.718 29V20.584H116.854V23.528L119.334 23.56ZM119.046 28.152C119.824 28.1627 120.411 28.008 120.806 27.688C121.211 27.3573 121.414 26.8773 121.414 26.248C121.414 25.6293 121.216 25.1707 120.822 24.872C120.427 24.5733 119.835 24.4187 119.046 24.408L116.854 24.376V28.12L119.046 28.152ZM124.733 20.584H125.869V24.312H131.165V20.584H132.301V29H131.165V25.288H125.869V29H124.733V20.584ZM135.53 20.584H136.666V27.272L142.282 20.584H143.29V29H142.154V22.312L136.554 29H135.53V20.584ZM149.602 25.256H147.682V29H146.546V20.584H147.682V24.28H149.618L152.578 20.584H153.81L150.498 24.664L154.05 29H152.706L149.602 25.256ZM161.934 32.104C161.337 31.1227 160.878 29.9973 160.558 28.728C160.238 27.448 160.078 26.0773 160.078 24.616C160.078 23.1547 160.238 21.784 160.558 20.504C160.878 19.2133 161.337 18.088 161.934 17.128H163.022C162.393 18.2053 161.929 19.3627 161.63 20.6C161.342 21.8373 161.198 23.176 161.198 24.616C161.198 26.056 161.342 27.3947 161.63 28.632C161.929 29.8693 162.393 31.0267 163.022 32.104H161.934ZM172.16 27.976V29H164.304V28.184L168.96 23.624C169.546 23.048 169.941 22.552 170.144 22.136C170.357 21.7093 170.464 21.2827 170.464 20.856C170.464 20.1947 170.234 19.6827 169.776 19.32C169.328 18.9467 168.682 18.76 167.84 18.76C166.528 18.76 165.509 19.176 164.784 20.008L163.968 19.304C164.405 18.792 164.96 18.3973 165.632 18.12C166.314 17.8427 167.082 17.704 167.936 17.704C169.077 17.704 169.978 17.976 170.64 18.52C171.312 19.0533 171.648 19.7893 171.648 20.728C171.648 21.304 171.52 21.8587 171.264 22.392C171.008 22.9253 170.522 23.5387 169.808 24.232L166 27.976H172.16ZM173.413 32.104C174.043 31.0267 174.507 29.8747 174.805 28.648C175.104 27.4107 175.253 26.0667 175.253 24.616C175.253 23.1653 175.104 21.8267 174.805 20.6C174.507 19.3627 174.043 18.2053 173.413 17.128H174.501C175.099 18.088 175.557 19.2133 175.877 20.504C176.208 21.784 176.373 23.1547 176.373 24.616C176.373 26.0773 176.213 27.448 175.893 28.728C175.573 30.008 175.109 31.1333 174.501 32.104H173.413ZM38.7454 37.8V49H37.9294V43.672H30.4414V49H29.6254V37.8H30.4414V42.952H37.9294V37.8H38.7454ZM49.6136 45.016H42.4296C42.451 45.6667 42.6163 46.248 42.9256 46.76C43.235 47.2613 43.651 47.6507 44.1736 47.928C44.707 48.2053 45.3043 48.344 45.9656 48.344C46.5096 48.344 47.011 48.248 47.4696 48.056C47.939 47.8533 48.3283 47.56 48.6376 47.176L49.1016 47.704C48.739 48.1413 48.2803 48.4773 47.7256 48.712C47.1816 48.9467 46.5896 49.064 45.9496 49.064C45.1176 49.064 44.3763 48.8827 43.7256 48.52C43.075 48.1573 42.563 47.656 42.1896 47.016C41.827 46.376 41.6456 45.6453 41.6456 44.824C41.6456 44.0133 41.8163 43.288 42.1576 42.648C42.5096 41.9973 42.9896 41.4907 43.5976 41.128C44.2056 40.7653 44.8883 40.584 45.6456 40.584C46.403 40.584 47.0803 40.7653 47.6776 41.128C48.2856 41.48 48.7603 41.976 49.1016 42.616C49.4536 43.256 49.6296 43.9813 49.6296 44.792L49.6136 45.016ZM45.6456 41.288C45.059 41.288 44.531 41.4213 44.0616 41.688C43.5923 41.944 43.2136 42.312 42.9256 42.792C42.6483 43.2613 42.4883 43.7947 42.4456 44.392H48.8456C48.8136 43.7947 48.6536 43.2613 48.3656 42.792C48.0776 42.3227 47.699 41.9547 47.2296 41.688C46.7603 41.4213 46.2323 41.288 45.6456 41.288ZM56.1156 40.776C56.8943 40.776 57.5823 40.952 58.1796 41.304C58.7876 41.6453 59.2623 42.1253 59.6036 42.744C59.945 43.3627 60.1156 44.0773 60.1156 44.888C60.1156 45.6987 59.9396 46.424 59.5876 47.064C59.2463 47.6933 58.761 48.1893 58.1316 48.552C57.513 48.904 56.8036 49.08 56.0036 49.08C55.0863 49.08 54.3023 48.856 53.6516 48.408C53.0116 47.96 52.521 47.3253 52.1796 46.504C51.849 45.6827 51.6836 44.7227 51.6836 43.624C51.6836 42.376 51.833 41.3413 52.1316 40.52C52.441 39.6987 52.8996 39.0533 53.5076 38.584C54.1263 38.104 54.9156 37.7467 55.8756 37.512L59.5716 36.616L59.6996 37.368L56.1796 38.2C55.3156 38.4027 54.6116 38.7013 54.0676 39.096C53.5343 39.48 53.1343 40.008 52.8676 40.68C52.601 41.352 52.4623 42.2107 52.4516 43.256C52.729 42.488 53.193 41.8853 53.8436 41.448C54.4943 41 55.2516 40.776 56.1156 40.776ZM56.0196 48.392C56.649 48.392 57.2143 48.2427 57.7156 47.944C58.217 47.6453 58.6063 47.2347 58.8836 46.712C59.161 46.1787 59.2996 45.576 59.2996 44.904C59.2996 44.232 59.161 43.64 58.8836 43.128C58.6063 42.6053 58.217 42.2053 57.7156 41.928C57.225 41.64 56.6596 41.496 56.0196 41.496C55.3796 41.496 54.809 41.64 54.3076 41.928C53.8063 42.2053 53.417 42.6053 53.1396 43.128C52.8623 43.64 52.7236 44.232 52.7236 44.904C52.7236 45.576 52.8623 46.1787 53.1396 46.712C53.417 47.2347 53.8063 47.6453 54.3076 47.944C54.809 48.2427 55.3796 48.392 56.0196 48.392ZM69.8636 45.016H62.6796C62.701 45.6667 62.8663 46.248 63.1756 46.76C63.485 47.2613 63.901 47.6507 64.4236 47.928C64.957 48.2053 65.5543 48.344 66.2156 48.344C66.7596 48.344 67.261 48.248 67.7196 48.056C68.189 47.8533 68.5783 47.56 68.8876 47.176L69.3516 47.704C68.989 48.1413 68.5303 48.4773 67.9756 48.712C67.4316 48.9467 66.8396 49.064 66.1996 49.064C65.3676 49.064 64.6263 48.8827 63.9756 48.52C63.325 48.1573 62.813 47.656 62.4396 47.016C62.077 46.376 61.8956 45.6453 61.8956 44.824C61.8956 44.0133 62.0663 43.288 62.4076 42.648C62.7596 41.9973 63.2396 41.4907 63.8476 41.128C64.4556 40.7653 65.1383 40.584 65.8956 40.584C66.653 40.584 67.3303 40.7653 67.9276 41.128C68.5356 41.48 69.0103 41.976 69.3516 42.616C69.7036 43.256 69.8796 43.9813 69.8796 44.792L69.8636 45.016ZM65.8956 41.288C65.309 41.288 64.781 41.4213 64.3116 41.688C63.8423 41.944 63.4636 42.312 63.1756 42.792C62.8983 43.2613 62.7383 43.7947 62.6956 44.392H69.0956C69.0636 43.7947 68.9036 43.2613 68.6156 42.792C68.3276 42.3227 67.949 41.9547 67.4796 41.688C67.0103 41.4213 66.4823 41.288 65.8956 41.288ZM75.8696 49.064C75.059 49.064 74.3336 48.8827 73.6936 48.52C73.0536 48.1573 72.5523 47.656 72.1896 47.016C71.827 46.3653 71.6456 45.6347 71.6456 44.824C71.6456 44.0027 71.827 43.272 72.1896 42.632C72.5523 41.9813 73.0536 41.48 73.6936 41.128C74.3336 40.7653 75.059 40.584 75.8696 40.584C76.5416 40.584 77.1496 40.7173 77.6936 40.984C78.2483 41.24 78.6963 41.6187 79.0376 42.12L78.4456 42.552C78.147 42.136 77.7736 41.8267 77.3256 41.624C76.8883 41.4107 76.403 41.304 75.8696 41.304C75.219 41.304 74.6323 41.4533 74.1096 41.752C73.5976 42.04 73.1923 42.4507 72.8936 42.984C72.6056 43.5173 72.4616 44.1307 72.4616 44.824C72.4616 45.5173 72.6056 46.1307 72.8936 46.664C73.1923 47.1973 73.5976 47.6133 74.1096 47.912C74.6323 48.2 75.219 48.344 75.8696 48.344C76.403 48.344 76.8883 48.2427 77.3256 48.04C77.7736 47.8267 78.147 47.512 78.4456 47.096L79.0376 47.528C78.6963 48.0293 78.2483 48.4133 77.6936 48.68C77.1496 48.936 76.5416 49.064 75.8696 49.064ZM81.3999 40.648H82.1999V44.456H87.8639V40.648H88.6639V49H87.8639V45.16H82.1999V49H81.3999V40.648ZM95.4466 49.064C94.6573 49.064 93.9426 48.8827 93.3026 48.52C92.6733 48.1573 92.1773 47.656 91.8146 47.016C91.452 46.3653 91.2706 45.6347 91.2706 44.824C91.2706 44.0133 91.452 43.288 91.8146 42.648C92.1773 41.9973 92.6733 41.4907 93.3026 41.128C93.9426 40.7653 94.6573 40.584 95.4466 40.584C96.236 40.584 96.9453 40.7653 97.5746 41.128C98.2146 41.4907 98.716 41.9973 99.0786 42.648C99.4413 43.288 99.6226 44.0133 99.6226 44.824C99.6226 45.6347 99.4413 46.3653 99.0786 47.016C98.716 47.656 98.2146 48.1573 97.5746 48.52C96.9453 48.8827 96.236 49.064 95.4466 49.064ZM95.4466 48.344C96.0866 48.344 96.6573 48.1947 97.1586 47.896C97.6706 47.5973 98.0706 47.1813 98.3586 46.648C98.6573 46.1147 98.8066 45.5067 98.8066 44.824C98.8066 44.1413 98.6573 43.5333 98.3586 43C98.0706 42.4667 97.6706 42.0507 97.1586 41.752C96.6573 41.4533 96.0866 41.304 95.4466 41.304C94.8066 41.304 94.2306 41.4533 93.7186 41.752C93.2173 42.0507 92.8173 42.4667 92.5186 43C92.2306 43.5333 92.0866 44.1413 92.0866 44.824C92.0866 45.5067 92.2306 46.1147 92.5186 46.648C92.8173 47.1813 93.2173 47.5973 93.7186 47.896C94.2306 48.1947 94.8066 48.344 95.4466 48.344ZM109.348 45.016H102.164C102.185 45.6667 102.351 46.248 102.66 46.76C102.969 47.2613 103.385 47.6507 103.908 47.928C104.441 48.2053 105.039 48.344 105.7 48.344C106.244 48.344 106.745 48.248 107.204 48.056C107.673 47.8533 108.063 47.56 108.372 47.176L108.836 47.704C108.473 48.1413 108.015 48.4773 107.46 48.712C106.916 48.9467 106.324 49.064 105.684 49.064C104.852 49.064 104.111 48.8827 103.46 48.52C102.809 48.1573 102.297 47.656 101.924 47.016C101.561 46.376 101.38 45.6453 101.38 44.824C101.38 44.0133 101.551 43.288 101.892 42.648C102.244 41.9973 102.724 41.4907 103.332 41.128C103.94 40.7653 104.623 40.584 105.38 40.584C106.137 40.584 106.815 40.7653 107.412 41.128C108.02 41.48 108.495 41.976 108.836 42.616C109.188 43.256 109.364 43.9813 109.364 44.792L109.348 45.016ZM105.38 41.288C104.793 41.288 104.265 41.4213 103.796 41.688C103.327 41.944 102.948 42.312 102.66 42.792C102.383 43.2613 102.223 43.7947 102.18 44.392H108.58C108.548 43.7947 108.388 43.2613 108.1 42.792C107.812 42.3227 107.433 41.9547 106.964 41.688C106.495 41.4213 105.967 41.288 105.38 41.288ZM121.671 41.368H118.407V49H117.607V41.368H114.343V40.648H121.671V41.368ZM130.114 45.016H122.93C122.951 45.6667 123.116 46.248 123.426 46.76C123.735 47.2613 124.151 47.6507 124.674 47.928C125.207 48.2053 125.804 48.344 126.466 48.344C127.01 48.344 127.511 48.248 127.97 48.056C128.439 47.8533 128.828 47.56 129.138 47.176L129.602 47.704C129.239 48.1413 128.78 48.4773 128.226 48.712C127.682 48.9467 127.09 49.064 126.45 49.064C125.618 49.064 124.876 48.8827 124.226 48.52C123.575 48.1573 123.063 47.656 122.69 47.016C122.327 46.376 122.146 45.6453 122.146 44.824C122.146 44.0133 122.316 43.288 122.658 42.648C123.01 41.9973 123.49 41.4907 124.098 41.128C124.706 40.7653 125.388 40.584 126.146 40.584C126.903 40.584 127.58 40.7653 128.178 41.128C128.786 41.48 129.26 41.976 129.602 42.616C129.954 43.256 130.13 43.9813 130.13 44.792L130.114 45.016ZM126.146 41.288C125.559 41.288 125.031 41.4213 124.562 41.688C124.092 41.944 123.714 42.312 123.426 42.792C123.148 43.2613 122.988 43.7947 122.946 44.392H129.346C129.314 43.7947 129.154 43.2613 128.866 42.792C128.578 42.3227 128.199 41.9547 127.73 41.688C127.26 41.4213 126.732 41.288 126.146 41.288ZM139.069 40.648V49H138.269V41.368H133.917L133.805 43.592C133.741 44.744 133.645 45.7093 133.517 46.488C133.389 47.2667 133.17 47.896 132.861 48.376C132.551 48.856 132.125 49.096 131.581 49.096C131.421 49.096 131.191 49.0587 130.893 48.984L130.973 48.296C131.143 48.3387 131.271 48.36 131.357 48.36C131.805 48.36 132.146 48.1413 132.381 47.704C132.615 47.2667 132.775 46.7227 132.861 46.072C132.946 45.4213 133.015 44.5733 133.069 43.528L133.213 40.648H139.069ZM145.853 49.064C145.064 49.064 144.349 48.8827 143.709 48.52C143.08 48.1573 142.584 47.656 142.221 47.016C141.858 46.3653 141.677 45.6347 141.677 44.824C141.677 44.0133 141.858 43.288 142.221 42.648C142.584 41.9973 143.08 41.4907 143.709 41.128C144.349 40.7653 145.064 40.584 145.853 40.584C146.642 40.584 147.352 40.7653 147.981 41.128C148.621 41.4907 149.122 41.9973 149.485 42.648C149.848 43.288 150.029 44.0133 150.029 44.824C150.029 45.6347 149.848 46.3653 149.485 47.016C149.122 47.656 148.621 48.1573 147.981 48.52C147.352 48.8827 146.642 49.064 145.853 49.064ZM145.853 48.344C146.493 48.344 147.064 48.1947 147.565 47.896C148.077 47.5973 148.477 47.1813 148.765 46.648C149.064 46.1147 149.213 45.5067 149.213 44.824C149.213 44.1413 149.064 43.5333 148.765 43C148.477 42.4667 148.077 42.0507 147.565 41.752C147.064 41.4533 146.493 41.304 145.853 41.304C145.213 41.304 144.637 41.4533 144.125 41.752C143.624 42.0507 143.224 42.4667 142.925 43C142.637 43.5333 142.493 44.1413 142.493 44.824C142.493 45.5067 142.637 46.1147 142.925 46.648C143.224 47.1813 143.624 47.5973 144.125 47.896C144.637 48.1947 145.213 48.344 145.853 48.344ZM152.506 41.944C152.325 41.944 152.165 41.88 152.026 41.752C151.898 41.6133 151.834 41.448 151.834 41.256C151.834 41.064 151.898 40.904 152.026 40.776C152.165 40.648 152.325 40.584 152.506 40.584C152.688 40.584 152.842 40.648 152.97 40.776C153.109 40.904 153.178 41.064 153.178 41.256C153.178 41.448 153.109 41.6133 152.97 41.752C152.842 41.88 152.688 41.944 152.506 41.944ZM152.506 49.064C152.325 49.064 152.165 49 152.026 48.872C151.898 48.7333 151.834 48.568 151.834 48.376C151.834 48.184 151.898 48.024 152.026 47.896C152.165 47.768 152.325 47.704 152.506 47.704C152.688 47.704 152.842 47.768 152.97 47.896C153.109 48.024 153.178 48.184 153.178 48.376C153.178 48.568 153.109 48.7333 152.97 48.872C152.842 49 152.688 49.064 152.506 49.064ZM163.739 43.688H161.051V49H160.235V37.8H161.051V42.952H163.755L167.771 37.8H168.683L164.395 43.256L168.971 49H168.011L163.739 43.688ZM170.905 37.8H171.721V48.264H178.169V49H170.905V37.8ZM181.362 38.536H177.33V37.8H186.21V38.536H182.178V49H181.362V38.536ZM23.7575 63.24C24.5895 63.3787 25.2135 63.6827 25.6295 64.152C26.0562 64.6213 26.2695 65.2453 26.2695 66.024C26.2695 66.984 25.9335 67.72 25.2615 68.232C24.5895 68.744 23.5922 69 22.2695 69H17.4535V57.8H21.9655C23.1388 57.8 24.0508 58.0453 24.7015 58.536C25.3628 59.0267 25.6935 59.7307 25.6935 60.648C25.6935 61.2987 25.5228 61.8427 25.1815 62.28C24.8402 62.7173 24.3655 63.0373 23.7575 63.24ZM18.2695 62.984H21.9495C22.8882 62.984 23.6082 62.792 24.1095 62.408C24.6108 62.024 24.8615 61.4693 24.8615 60.744C24.8615 60.008 24.6108 59.448 24.1095 59.064C23.6082 58.68 22.8882 58.488 21.9495 58.488H18.2695V62.984ZM22.2855 68.312C24.3975 68.312 25.4535 67.5333 25.4535 65.976C25.4535 65.176 25.1868 64.5893 24.6535 64.216C24.1202 63.8427 23.3308 63.656 22.2855 63.656H18.2695V68.312H22.2855ZM33.3735 60.584C34.1522 60.584 34.8562 60.7653 35.4855 61.128C36.1148 61.4907 36.6055 61.992 36.9575 62.632C37.3202 63.272 37.5015 64.0027 37.5015 64.824C37.5015 65.6453 37.3202 66.3813 36.9575 67.032C36.6055 67.672 36.1148 68.1733 35.4855 68.536C34.8562 68.888 34.1522 69.064 33.3735 69.064C32.6375 69.064 31.9708 68.8933 31.3735 68.552C30.7762 68.2 30.3122 67.7147 29.9815 67.096V72.104H29.1815V60.648H29.9495V62.616C30.2802 61.976 30.7442 61.48 31.3415 61.128C31.9495 60.7653 32.6268 60.584 33.3735 60.584ZM33.3255 68.344C33.9655 68.344 34.5415 68.1947 35.0535 67.896C35.5655 67.5973 35.9655 67.1813 36.2535 66.648C36.5522 66.1147 36.7015 65.5067 36.7015 64.824C36.7015 64.1413 36.5522 63.5333 36.2535 63C35.9655 62.4667 35.5655 62.0507 35.0535 61.752C34.5415 61.4533 33.9655 61.304 33.3255 61.304C32.6855 61.304 32.1095 61.4533 31.5975 61.752C31.0962 62.0507 30.6962 62.4667 30.3975 63C30.1095 63.5333 29.9655 64.1413 29.9655 64.824C29.9655 65.5067 30.1095 66.1147 30.3975 66.648C30.6962 67.1813 31.0962 67.5973 31.5975 67.896C32.1095 68.1947 32.6855 68.344 33.3255 68.344ZM47.223 65.016H40.039C40.0603 65.6667 40.2257 66.248 40.535 66.76C40.8443 67.2613 41.2603 67.6507 41.783 67.928C42.3163 68.2053 42.9137 68.344 43.575 68.344C44.119 68.344 44.6203 68.248 45.079 68.056C45.5483 67.8533 45.9377 67.56 46.247 67.176L46.711 67.704C46.3483 68.1413 45.8897 68.4773 45.335 68.712C44.791 68.9467 44.199 69.064 43.559 69.064C42.727 69.064 41.9857 68.8827 41.335 68.52C40.6843 68.1573 40.1723 67.656 39.799 67.016C39.4363 66.376 39.255 65.6453 39.255 64.824C39.255 64.0133 39.4257 63.288 39.767 62.648C40.119 61.9973 40.599 61.4907 41.207 61.128C41.815 60.7653 42.4977 60.584 43.255 60.584C44.0123 60.584 44.6897 60.7653 45.287 61.128C45.895 61.48 46.3697 61.976 46.711 62.616C47.063 63.256 47.239 63.9813 47.239 64.792L47.223 65.016ZM43.255 61.288C42.6683 61.288 42.1403 61.4213 41.671 61.688C41.2017 61.944 40.823 62.312 40.535 62.792C40.2577 63.2613 40.0977 63.7947 40.055 64.392H46.455C46.423 63.7947 46.263 63.2613 45.975 62.792C45.687 62.3227 45.3083 61.9547 44.839 61.688C44.3697 61.4213 43.8417 61.288 43.255 61.288ZM58.941 60.648V69H58.205V61.928L54.573 67.928H54.205L50.589 61.944V69H49.853V60.648H50.637L54.413 66.968L58.205 60.648H58.941ZM68.5599 60.648V69H67.8239V66.12H65.0399C64.8479 66.12 64.7092 66.1147 64.6239 66.104L62.5599 69H61.6799L63.8399 66.008C63.1572 65.8587 62.6345 65.5653 62.2719 65.128C61.9092 64.6907 61.7279 64.1253 61.7279 63.432C61.7279 62.5147 62.0319 61.8213 62.6399 61.352C63.2585 60.8827 64.1012 60.648 65.1679 60.648H68.5599ZM62.5279 63.464C62.5279 64.8293 63.3919 65.512 65.1199 65.512H67.8239V61.352H65.2159C63.4239 61.352 62.5279 62.056 62.5279 63.464ZM83.4146 60.648V69H82.6146V61.368H76.9186V69H76.1186V60.648H83.4146ZM91.0766 60.584C91.8553 60.584 92.5593 60.7653 93.1886 61.128C93.818 61.4907 94.3086 61.992 94.6606 62.632C95.0233 63.272 95.2046 64.0027 95.2046 64.824C95.2046 65.6453 95.0233 66.3813 94.6606 67.032C94.3086 67.672 93.818 68.1733 93.1886 68.536C92.5593 68.888 91.8553 69.064 91.0766 69.064C90.3406 69.064 89.674 68.8933 89.0766 68.552C88.4793 68.2 88.0153 67.7147 87.6846 67.096V72.104H86.8846V60.648H87.6526V62.616C87.9833 61.976 88.4473 61.48 89.0446 61.128C89.6526 60.7653 90.33 60.584 91.0766 60.584ZM91.0286 68.344C91.6686 68.344 92.2446 68.1947 92.7566 67.896C93.2686 67.5973 93.6686 67.1813 93.9566 66.648C94.2553 66.1147 94.4046 65.5067 94.4046 64.824C94.4046 64.1413 94.2553 63.5333 93.9566 63C93.6686 62.4667 93.2686 62.0507 92.7566 61.752C92.2446 61.4533 91.6686 61.304 91.0286 61.304C90.3886 61.304 89.8126 61.4533 89.3006 61.752C88.7993 62.0507 88.3993 62.4667 88.1006 63C87.8126 63.5333 87.6686 64.1413 87.6686 64.824C87.6686 65.5067 87.8126 66.1147 88.1006 66.648C88.3993 67.1813 88.7993 67.5973 89.3006 67.896C89.8126 68.1947 90.3886 68.344 91.0286 68.344ZM101.134 69.064C100.345 69.064 99.6301 68.8827 98.9901 68.52C98.3608 68.1573 97.8648 67.656 97.5021 67.016C97.1395 66.3653 96.9581 65.6347 96.9581 64.824C96.9581 64.0133 97.1395 63.288 97.5021 62.648C97.8648 61.9973 98.3608 61.4907 98.9901 61.128C99.6301 60.7653 100.345 60.584 101.134 60.584C101.923 60.584 102.633 60.7653 103.262 61.128C103.902 61.4907 104.403 61.9973 104.766 62.648C105.129 63.288 105.31 64.0133 105.31 64.824C105.31 65.6347 105.129 66.3653 104.766 67.016C104.403 67.656 103.902 68.1573 103.262 68.52C102.633 68.8827 101.923 69.064 101.134 69.064ZM101.134 68.344C101.774 68.344 102.345 68.1947 102.846 67.896C103.358 67.5973 103.758 67.1813 104.046 66.648C104.345 66.1147 104.494 65.5067 104.494 64.824C104.494 64.1413 104.345 63.5333 104.046 63C103.758 62.4667 103.358 62.0507 102.846 61.752C102.345 61.4533 101.774 61.304 101.134 61.304C100.494 61.304 99.9181 61.4533 99.4061 61.752C98.9048 62.0507 98.5048 62.4667 98.2061 63C97.9181 63.5333 97.7741 64.1413 97.7741 64.824C97.7741 65.5067 97.9181 66.1147 98.2061 66.648C98.5048 67.1813 98.9048 67.5973 99.4061 67.896C99.9181 68.1947 100.494 68.344 101.134 68.344ZM114.412 60.648V69H113.612V61.368H109.26L109.148 63.592C109.084 64.744 108.988 65.7093 108.86 66.488C108.732 67.2667 108.514 67.896 108.204 68.376C107.895 68.856 107.468 69.096 106.924 69.096C106.764 69.096 106.535 69.0587 106.236 68.984L106.316 68.296C106.487 68.3387 106.615 68.36 106.7 68.36C107.148 68.36 107.49 68.1413 107.724 67.704C107.959 67.2667 108.119 66.7227 108.204 66.072C108.29 65.4213 108.359 64.5733 108.412 63.528L108.556 60.648H114.412ZM124.989 65.016H117.805C117.826 65.6667 117.991 66.248 118.301 66.76C118.61 67.2613 119.026 67.6507 119.549 67.928C120.082 68.2053 120.679 68.344 121.341 68.344C121.885 68.344 122.386 68.248 122.845 68.056C123.314 67.8533 123.703 67.56 124.013 67.176L124.477 67.704C124.114 68.1413 123.655 68.4773 123.101 68.712C122.557 68.9467 121.965 69.064 121.325 69.064C120.493 69.064 119.751 68.8827 119.101 68.52C118.45 68.1573 117.938 67.656 117.565 67.016C117.202 66.376 117.021 65.6453 117.021 64.824C117.021 64.0133 117.191 63.288 117.533 62.648C117.885 61.9973 118.365 61.4907 118.973 61.128C119.581 60.7653 120.263 60.584 121.021 60.584C121.778 60.584 122.455 60.7653 123.053 61.128C123.661 61.48 124.135 61.976 124.477 62.616C124.829 63.256 125.005 63.9813 125.005 64.792L124.989 65.016ZM121.021 61.288C120.434 61.288 119.906 61.4213 119.437 61.688C118.967 61.944 118.589 62.312 118.301 62.792C118.023 63.2613 117.863 63.7947 117.821 64.392H124.221C124.189 63.7947 124.029 63.2613 123.741 62.792C123.453 62.3227 123.074 61.9547 122.605 61.688C122.135 61.4213 121.607 61.288 121.021 61.288ZM119.645 58.856C119.485 58.856 119.346 58.8027 119.229 58.696C119.122 58.5787 119.069 58.44 119.069 58.28C119.069 58.1093 119.122 57.9707 119.229 57.864C119.346 57.7573 119.485 57.704 119.645 57.704C119.805 57.704 119.938 57.7627 120.045 57.88C120.162 57.9867 120.221 58.12 120.221 58.28C120.221 58.44 120.162 58.5787 120.045 58.696C119.927 58.8027 119.794 58.856 119.645 58.856ZM122.397 58.856C122.247 58.856 122.114 58.8027 121.997 58.696C121.879 58.5787 121.821 58.44 121.821 58.28C121.821 58.12 121.874 57.9867 121.981 57.88C122.098 57.7627 122.237 57.704 122.397 57.704C122.557 57.704 122.69 57.7573 122.797 57.864C122.914 57.9707 122.973 58.1093 122.973 58.28C122.973 58.44 122.914 58.5787 122.797 58.696C122.69 58.8027 122.557 58.856 122.397 58.856ZM132.812 61.368H129.548V69H128.748V61.368H125.484V60.648H132.812V61.368ZM137.293 60.584C138.328 60.584 139.122 60.8507 139.677 61.384C140.232 61.9067 140.509 62.68 140.509 63.704V69H139.741V67.512C139.474 68.0027 139.085 68.3867 138.573 68.664C138.061 68.9307 137.448 69.064 136.733 69.064C135.805 69.064 135.069 68.8453 134.525 68.408C133.992 67.9707 133.725 67.3947 133.725 66.68C133.725 65.9867 133.97 65.4267 134.461 65C134.962 64.5627 135.757 64.344 136.845 64.344H139.709V63.672C139.709 62.8933 139.496 62.3013 139.069 61.896C138.653 61.4907 138.04 61.288 137.229 61.288C136.674 61.288 136.141 61.384 135.629 61.576C135.128 61.768 134.701 62.024 134.349 62.344L133.949 61.768C134.365 61.3947 134.866 61.1067 135.453 60.904C136.04 60.6907 136.653 60.584 137.293 60.584ZM136.845 68.408C137.538 68.408 138.125 68.248 138.605 67.928C139.096 67.608 139.464 67.144 139.709 66.536V64.968H136.861C136.04 64.968 135.442 65.1173 135.069 65.416C134.706 65.7147 134.525 66.1253 134.525 66.648C134.525 67.192 134.728 67.624 135.133 67.944C135.538 68.2533 136.109 68.408 136.845 68.408ZM147.741 61.944C147.559 61.944 147.399 61.88 147.261 61.752C147.133 61.6133 147.069 61.448 147.069 61.256C147.069 61.064 147.133 60.904 147.261 60.776C147.399 60.648 147.559 60.584 147.741 60.584C147.922 60.584 148.077 60.648 148.205 60.776C148.343 60.904 148.413 61.064 148.413 61.256C148.413 61.448 148.343 61.6133 148.205 61.752C148.077 61.88 147.922 61.944 147.741 61.944ZM147.741 69.064C147.559 69.064 147.399 69 147.261 68.872C147.133 68.7333 147.069 68.568 147.069 68.376C147.069 68.184 147.133 68.024 147.261 67.896C147.399 67.768 147.559 67.704 147.741 67.704C147.922 67.704 148.077 67.768 148.205 67.896C148.343 68.024 148.413 68.184 148.413 68.376C148.413 68.568 148.343 68.7333 148.205 68.872C148.077 69 147.922 69.064 147.741 69.064ZM153.04 57.8V69H152.224V58.536H149.488V57.8H153.04ZM163.56 57.8V58.376L158.744 69H157.848L162.616 58.536H156.328V60.68H155.528V57.8H163.56ZM179.207 60.648V69H178.471V61.928L174.839 67.928H174.471L170.855 61.944V69H170.119V60.648H170.903L174.679 66.968L178.471 60.648H179.207ZM182.666 60.648H183.466V67.768L189.418 60.648H190.122V69H189.322V61.88L183.37 69H182.666V60.648ZM193.572 60.648H194.372V64.456H200.036V60.648H200.836V69H200.036V65.16H194.372V69H193.572V60.648Z" fill="white"/>
</svg>
