<svg width="226" height="97" viewBox="0 0 226 97" fill="none" xmlns="http://www.w3.org/2000/svg">
<path d="M226 48.4997C226 88.367 210.534 97 116.531 97C22.5289 97 0 88.367 0 48.4997C0 8.63249 22.5289 0 116.531 0C210.534 0 226 8.63249 226 48.4997Z" fill="#0C0C0C"/>
<path d="M85.7371 29.096C84.6278 29.096 83.6251 28.8507 82.7291 28.36C81.8438 27.8693 81.1451 27.192 80.6331 26.328C80.1318 25.4533 79.8811 24.4773 79.8811 23.4C79.8811 22.3227 80.1318 21.352 80.6331 20.488C81.1451 19.6133 81.8491 18.9307 82.7451 18.44C83.6411 17.9493 84.6438 17.704 85.7531 17.704C86.5851 17.704 87.3531 17.8427 88.0571 18.12C88.7611 18.3973 89.3585 18.8027 89.8491 19.336L89.0971 20.088C88.2225 19.2027 87.1185 18.76 85.7851 18.76C84.8998 18.76 84.0945 18.9627 83.3691 19.368C82.6438 19.7733 82.0731 20.328 81.6571 21.032C81.2518 21.736 81.0491 22.5253 81.0491 23.4C81.0491 24.2747 81.2518 25.064 81.6571 25.768C82.0731 26.472 82.6438 27.0267 83.3691 27.432C84.0945 27.8373 84.8998 28.04 85.7851 28.04C87.1291 28.04 88.2331 27.592 89.0971 26.696L89.8491 27.448C89.3585 27.9813 88.7558 28.392 88.0411 28.68C87.3371 28.9573 86.5691 29.096 85.7371 29.096ZM99.1743 20.584L94.9663 30.008C94.6249 30.7973 94.2303 31.3573 93.7823 31.688C93.3343 32.0187 92.7956 32.184 92.1663 32.184C91.7609 32.184 91.3823 32.12 91.0303 31.992C90.6783 31.864 90.3742 31.672 90.1182 31.416L90.6463 30.568C91.0729 30.9947 91.5849 31.208 92.1823 31.208C92.5663 31.208 92.8916 31.1013 93.1583 30.888C93.4356 30.6747 93.6916 30.312 93.9263 29.8L94.2943 28.984L90.5343 20.584H91.7183L94.8863 27.736L98.0543 20.584H99.1743ZM104.899 20.792C105.678 20.792 106.371 20.968 106.979 21.32C107.598 21.6613 108.078 22.1467 108.419 22.776C108.76 23.3947 108.931 24.104 108.931 24.904C108.931 25.7253 108.75 26.456 108.387 27.096C108.035 27.7253 107.539 28.216 106.899 28.568C106.259 28.92 105.523 29.096 104.691 29.096C103.294 29.096 102.211 28.6053 101.443 27.624C100.675 26.6427 100.291 25.288 100.291 23.56C100.291 21.7573 100.632 20.376 101.315 19.416C102.008 18.456 103.086 17.8053 104.547 17.464L108.323 16.6L108.515 17.64L104.963 18.456C103.758 18.7227 102.872 19.1973 102.307 19.88C101.742 20.552 101.432 21.5493 101.379 22.872C101.72 22.2213 102.195 21.7147 102.803 21.352C103.411 20.9787 104.11 20.792 104.899 20.792ZM104.723 28.152C105.31 28.152 105.832 28.0187 106.291 27.752C106.76 27.4747 107.123 27.0907 107.379 26.6C107.646 26.1093 107.779 25.5547 107.779 24.936C107.779 24.3173 107.651 23.7733 107.395 23.304C107.139 22.8347 106.776 22.472 106.307 22.216C105.848 21.9493 105.32 21.816 104.723 21.816C104.126 21.816 103.592 21.9493 103.123 22.216C102.664 22.472 102.302 22.8347 102.035 23.304C101.779 23.7733 101.651 24.3173 101.651 24.936C101.651 25.5547 101.779 26.1093 102.035 26.6C102.302 27.0907 102.67 27.4747 103.139 27.752C103.608 28.0187 104.136 28.152 104.723 28.152ZM115.446 20.792C116.225 20.792 116.918 20.968 117.526 21.32C118.145 21.6613 118.625 22.1467 118.966 22.776C119.307 23.3947 119.478 24.104 119.478 24.904C119.478 25.7253 119.297 26.456 118.934 27.096C118.582 27.7253 118.086 28.216 117.446 28.568C116.806 28.92 116.07 29.096 115.238 29.096C113.841 29.096 112.758 28.6053 111.99 27.624C111.222 26.6427 110.838 25.288 110.838 23.56C110.838 21.7573 111.179 20.376 111.862 19.416C112.555 18.456 113.633 17.8053 115.094 17.464L118.87 16.6L119.062 17.64L115.51 18.456C114.305 18.7227 113.419 19.1973 112.854 19.88C112.289 20.552 111.979 21.5493 111.926 22.872C112.267 22.2213 112.742 21.7147 113.35 21.352C113.958 20.9787 114.657 20.792 115.446 20.792ZM115.27 28.152C115.857 28.152 116.379 28.0187 116.838 27.752C117.307 27.4747 117.67 27.0907 117.926 26.6C118.193 26.1093 118.326 25.5547 118.326 24.936C118.326 24.3173 118.198 23.7733 117.942 23.304C117.686 22.8347 117.323 22.472 116.854 22.216C116.395 21.9493 115.867 21.816 115.27 21.816C114.673 21.816 114.139 21.9493 113.67 22.216C113.211 22.472 112.849 22.8347 112.582 23.304C112.326 23.7733 112.198 24.3173 112.198 24.936C112.198 25.5547 112.326 26.1093 112.582 26.6C112.849 27.0907 113.217 27.4747 113.686 27.752C114.155 28.0187 114.683 28.152 115.27 28.152ZM125.385 29.08C124.574 29.08 123.844 28.8987 123.193 28.536C122.542 28.1627 122.03 27.6507 121.657 27C121.284 26.3493 121.097 25.6133 121.097 24.792C121.097 23.9707 121.284 23.2347 121.657 22.584C122.03 21.9333 122.542 21.4267 123.193 21.064C123.844 20.7013 124.574 20.52 125.385 20.52C126.196 20.52 126.926 20.7013 127.577 21.064C128.228 21.4267 128.734 21.9333 129.097 22.584C129.47 23.2347 129.657 23.9707 129.657 24.792C129.657 25.6133 129.47 26.3493 129.097 27C128.734 27.6507 128.228 28.1627 127.577 28.536C126.926 28.8987 126.196 29.08 125.385 29.08ZM125.385 28.072C125.982 28.072 126.516 27.9387 126.985 27.672C127.465 27.3947 127.838 27.0053 128.105 26.504C128.372 26.0027 128.505 25.432 128.505 24.792C128.505 24.152 128.372 23.5813 128.105 23.08C127.838 22.5787 127.465 22.1947 126.985 21.928C126.516 21.6507 125.982 21.512 125.385 21.512C124.788 21.512 124.249 21.6507 123.769 21.928C123.3 22.1947 122.926 22.5787 122.649 23.08C122.382 23.5813 122.249 24.152 122.249 24.792C122.249 25.432 122.382 26.0027 122.649 26.504C122.926 27.0053 123.3 27.3947 123.769 27.672C124.249 27.9387 124.788 28.072 125.385 28.072ZM137.692 21.592H134.508V29H133.372V21.592H130.188V20.584H137.692V21.592ZM142.231 20.52C143.329 20.52 144.172 20.7973 144.759 21.352C145.345 21.896 145.639 22.7067 145.639 23.784V29H144.551V27.688C144.295 28.1253 143.916 28.4667 143.415 28.712C142.924 28.9573 142.337 29.08 141.655 29.08C140.716 29.08 139.969 28.856 139.415 28.408C138.86 27.96 138.583 27.368 138.583 26.632C138.583 25.9173 138.839 25.3413 139.351 24.904C139.873 24.4667 140.7 24.248 141.831 24.248H144.503V23.736C144.503 23.0107 144.3 22.4613 143.895 22.088C143.489 21.704 142.897 21.512 142.119 21.512C141.585 21.512 141.073 21.6027 140.583 21.784C140.092 21.9547 139.671 22.1947 139.319 22.504L138.807 21.656C139.233 21.2933 139.745 21.016 140.343 20.824C140.94 20.6213 141.569 20.52 142.231 20.52ZM141.831 28.184C142.471 28.184 143.02 28.04 143.479 27.752C143.937 27.4533 144.279 27.0267 144.503 26.472V25.096H141.863C140.423 25.096 139.703 25.5973 139.703 26.6C139.703 27.0907 139.889 27.48 140.263 27.768C140.636 28.0453 141.159 28.184 141.831 28.184ZM36.1673 37.8V49H35.3513V43.672H27.8633V49H27.0473V37.8H27.8633V42.952H35.3513V37.8H36.1673ZM47.0355 45.016H39.8515C39.8728 45.6667 40.0382 46.248 40.3475 46.76C40.6568 47.2613 41.0728 47.6507 41.5955 47.928C42.1288 48.2053 42.7262 48.344 43.3875 48.344C43.9315 48.344 44.4328 48.248 44.8915 48.056C45.3608 47.8533 45.7502 47.56 46.0595 47.176L46.5235 47.704C46.1608 48.1413 45.7022 48.4773 45.1475 48.712C44.6035 48.9467 44.0115 49.064 43.3715 49.064C42.5395 49.064 41.7982 48.8827 41.1475 48.52C40.4968 48.1573 39.9848 47.656 39.6115 47.016C39.2488 46.376 39.0675 45.6453 39.0675 44.824C39.0675 44.0133 39.2382 43.288 39.5795 42.648C39.9315 41.9973 40.4115 41.4907 41.0195 41.128C41.6275 40.7653 42.3102 40.584 43.0675 40.584C43.8248 40.584 44.5022 40.7653 45.0995 41.128C45.7075 41.48 46.1822 41.976 46.5235 42.616C46.8755 43.256 47.0515 43.9813 47.0515 44.792L47.0355 45.016ZM43.0675 41.288C42.4808 41.288 41.9528 41.4213 41.4835 41.688C41.0142 41.944 40.6355 42.312 40.3475 42.792C40.0702 43.2613 39.9102 43.7947 39.8675 44.392H46.2675C46.2355 43.7947 46.0755 43.2613 45.7875 42.792C45.4995 42.3227 45.1208 41.9547 44.6515 41.688C44.1822 41.4213 43.6542 41.288 43.0675 41.288ZM53.5375 40.776C54.3162 40.776 55.0042 40.952 55.6015 41.304C56.2095 41.6453 56.6842 42.1253 57.0255 42.744C57.3668 43.3627 57.5375 44.0773 57.5375 44.888C57.5375 45.6987 57.3615 46.424 57.0095 47.064C56.6682 47.6933 56.1828 48.1893 55.5535 48.552C54.9348 48.904 54.2255 49.08 53.4255 49.08C52.5082 49.08 51.7242 48.856 51.0735 48.408C50.4335 47.96 49.9428 47.3253 49.6015 46.504C49.2708 45.6827 49.1055 44.7227 49.1055 43.624C49.1055 42.376 49.2548 41.3413 49.5535 40.52C49.8628 39.6987 50.3215 39.0533 50.9295 38.584C51.5482 38.104 52.3375 37.7467 53.2975 37.512L56.9935 36.616L57.1215 37.368L53.6015 38.2C52.7375 38.4027 52.0335 38.7013 51.4895 39.096C50.9562 39.48 50.5562 40.008 50.2895 40.68C50.0228 41.352 49.8842 42.2107 49.8735 43.256C50.1508 42.488 50.6148 41.8853 51.2655 41.448C51.9162 41 52.6735 40.776 53.5375 40.776ZM53.4415 48.392C54.0708 48.392 54.6362 48.2427 55.1375 47.944C55.6388 47.6453 56.0282 47.2347 56.3055 46.712C56.5828 46.1787 56.7215 45.576 56.7215 44.904C56.7215 44.232 56.5828 43.64 56.3055 43.128C56.0282 42.6053 55.6388 42.2053 55.1375 41.928C54.6468 41.64 54.0815 41.496 53.4415 41.496C52.8015 41.496 52.2308 41.64 51.7295 41.928C51.2282 42.2053 50.8388 42.6053 50.5615 43.128C50.2842 43.64 50.1455 44.232 50.1455 44.904C50.1455 45.576 50.2842 46.1787 50.5615 46.712C50.8388 47.2347 51.2282 47.6453 51.7295 47.944C52.2308 48.2427 52.8015 48.392 53.4415 48.392ZM67.2855 45.016H60.1015C60.1228 45.6667 60.2882 46.248 60.5975 46.76C60.9068 47.2613 61.3228 47.6507 61.8455 47.928C62.3788 48.2053 62.9762 48.344 63.6375 48.344C64.1815 48.344 64.6828 48.248 65.1415 48.056C65.6108 47.8533 66.0002 47.56 66.3095 47.176L66.7735 47.704C66.4108 48.1413 65.9522 48.4773 65.3975 48.712C64.8535 48.9467 64.2615 49.064 63.6215 49.064C62.7895 49.064 62.0482 48.8827 61.3975 48.52C60.7468 48.1573 60.2348 47.656 59.8615 47.016C59.4988 46.376 59.3175 45.6453 59.3175 44.824C59.3175 44.0133 59.4882 43.288 59.8295 42.648C60.1815 41.9973 60.6615 41.4907 61.2695 41.128C61.8775 40.7653 62.5602 40.584 63.3175 40.584C64.0748 40.584 64.7522 40.7653 65.3495 41.128C65.9575 41.48 66.4322 41.976 66.7735 42.616C67.1255 43.256 67.3015 43.9813 67.3015 44.792L67.2855 45.016ZM63.3175 41.288C62.7308 41.288 62.2028 41.4213 61.7335 41.688C61.2642 41.944 60.8855 42.312 60.5975 42.792C60.3202 43.2613 60.1602 43.7947 60.1175 44.392H66.5175C66.4855 43.7947 66.3255 43.2613 66.0375 42.792C65.7495 42.3227 65.3708 41.9547 64.9015 41.688C64.4322 41.4213 63.9042 41.288 63.3175 41.288ZM73.2915 49.064C72.4808 49.064 71.7555 48.8827 71.1155 48.52C70.4755 48.1573 69.9742 47.656 69.6115 47.016C69.2488 46.3653 69.0675 45.6347 69.0675 44.824C69.0675 44.0027 69.2488 43.272 69.6115 42.632C69.9742 41.9813 70.4755 41.48 71.1155 41.128C71.7555 40.7653 72.4808 40.584 73.2915 40.584C73.9635 40.584 74.5715 40.7173 75.1155 40.984C75.6702 41.24 76.1182 41.6187 76.4595 42.12L75.8675 42.552C75.5688 42.136 75.1955 41.8267 74.7475 41.624C74.3102 41.4107 73.8248 41.304 73.2915 41.304C72.6408 41.304 72.0542 41.4533 71.5315 41.752C71.0195 42.04 70.6142 42.4507 70.3155 42.984C70.0275 43.5173 69.8835 44.1307 69.8835 44.824C69.8835 45.5173 70.0275 46.1307 70.3155 46.664C70.6142 47.1973 71.0195 47.6133 71.5315 47.912C72.0542 48.2 72.6408 48.344 73.2915 48.344C73.8248 48.344 74.3102 48.2427 74.7475 48.04C75.1955 47.8267 75.5688 47.512 75.8675 47.096L76.4595 47.528C76.1182 48.0293 75.6702 48.4133 75.1155 48.68C74.5715 48.936 73.9635 49.064 73.2915 49.064ZM78.8218 40.648H79.6218V44.456H85.2858V40.648H86.0858V49H85.2858V45.16H79.6218V49H78.8218V40.648ZM92.8685 49.064C92.0792 49.064 91.3645 48.8827 90.7245 48.52C90.0952 48.1573 89.5992 47.656 89.2365 47.016C88.8738 46.3653 88.6925 45.6347 88.6925 44.824C88.6925 44.0133 88.8738 43.288 89.2365 42.648C89.5992 41.9973 90.0952 41.4907 90.7245 41.128C91.3645 40.7653 92.0792 40.584 92.8685 40.584C93.6578 40.584 94.3672 40.7653 94.9965 41.128C95.6365 41.4907 96.1378 41.9973 96.5005 42.648C96.8632 43.288 97.0445 44.0133 97.0445 44.824C97.0445 45.6347 96.8632 46.3653 96.5005 47.016C96.1378 47.656 95.6365 48.1573 94.9965 48.52C94.3672 48.8827 93.6578 49.064 92.8685 49.064ZM92.8685 48.344C93.5085 48.344 94.0792 48.1947 94.5805 47.896C95.0925 47.5973 95.4925 47.1813 95.7805 46.648C96.0792 46.1147 96.2285 45.5067 96.2285 44.824C96.2285 44.1413 96.0792 43.5333 95.7805 43C95.4925 42.4667 95.0925 42.0507 94.5805 41.752C94.0792 41.4533 93.5085 41.304 92.8685 41.304C92.2285 41.304 91.6525 41.4533 91.1405 41.752C90.6392 42.0507 90.2392 42.4667 89.9405 43C89.6525 43.5333 89.5085 44.1413 89.5085 44.824C89.5085 45.5067 89.6525 46.1147 89.9405 46.648C90.2392 47.1813 90.6392 47.5973 91.1405 47.896C91.6525 48.1947 92.2285 48.344 92.8685 48.344ZM106.77 45.016H99.5859C99.6072 45.6667 99.7725 46.248 100.082 46.76C100.391 47.2613 100.807 47.6507 101.33 47.928C101.863 48.2053 102.461 48.344 103.122 48.344C103.666 48.344 104.167 48.248 104.626 48.056C105.095 47.8533 105.485 47.56 105.794 47.176L106.258 47.704C105.895 48.1413 105.437 48.4773 104.882 48.712C104.338 48.9467 103.746 49.064 103.106 49.064C102.274 49.064 101.533 48.8827 100.882 48.52C100.231 48.1573 99.7192 47.656 99.3459 47.016C98.9832 46.376 98.8019 45.6453 98.8019 44.824C98.8019 44.0133 98.9725 43.288 99.3139 42.648C99.6659 41.9973 100.146 41.4907 100.754 41.128C101.362 40.7653 102.045 40.584 102.802 40.584C103.559 40.584 104.237 40.7653 104.834 41.128C105.442 41.48 105.917 41.976 106.258 42.616C106.61 43.256 106.786 43.9813 106.786 44.792L106.77 45.016ZM102.802 41.288C102.215 41.288 101.687 41.4213 101.218 41.688C100.749 41.944 100.37 42.312 100.082 42.792C99.8045 43.2613 99.6445 43.7947 99.6019 44.392H106.002C105.97 43.7947 105.81 43.2613 105.522 42.792C105.234 42.3227 104.855 41.9547 104.386 41.688C103.917 41.4213 103.389 41.288 102.802 41.288ZM119.093 41.368H115.829V49H115.029V41.368H111.765V40.648H119.093V41.368ZM127.536 45.016H120.352C120.373 45.6667 120.538 46.248 120.848 46.76C121.157 47.2613 121.573 47.6507 122.096 47.928C122.629 48.2053 123.226 48.344 123.888 48.344C124.432 48.344 124.933 48.248 125.392 48.056C125.861 47.8533 126.25 47.56 126.56 47.176L127.024 47.704C126.661 48.1413 126.202 48.4773 125.648 48.712C125.104 48.9467 124.512 49.064 123.872 49.064C123.04 49.064 122.298 48.8827 121.648 48.52C120.997 48.1573 120.485 47.656 120.112 47.016C119.749 46.376 119.568 45.6453 119.568 44.824C119.568 44.0133 119.738 43.288 120.08 42.648C120.432 41.9973 120.912 41.4907 121.52 41.128C122.128 40.7653 122.81 40.584 123.568 40.584C124.325 40.584 125.002 40.7653 125.6 41.128C126.208 41.48 126.682 41.976 127.024 42.616C127.376 43.256 127.552 43.9813 127.552 44.792L127.536 45.016ZM123.568 41.288C122.981 41.288 122.453 41.4213 121.984 41.688C121.514 41.944 121.136 42.312 120.848 42.792C120.57 43.2613 120.41 43.7947 120.368 44.392H126.767C126.736 43.7947 126.576 43.2613 126.288 42.792C126 42.3227 125.621 41.9547 125.152 41.688C124.682 41.4213 124.154 41.288 123.568 41.288ZM136.49 40.648V49H135.69V41.368H131.338L131.226 43.592C131.162 44.744 131.066 45.7093 130.938 46.488C130.81 47.2667 130.592 47.896 130.282 48.376C129.973 48.856 129.546 49.096 129.002 49.096C128.842 49.096 128.613 49.0587 128.314 48.984L128.394 48.296C128.565 48.3387 128.693 48.36 128.778 48.36C129.226 48.36 129.568 48.1413 129.802 47.704C130.037 47.2667 130.197 46.7227 130.282 46.072C130.368 45.4213 130.437 44.5733 130.49 43.528L130.634 40.648H136.49ZM143.275 49.064C142.485 49.064 141.771 48.8827 141.131 48.52C140.501 48.1573 140.005 47.656 139.643 47.016C139.28 46.3653 139.099 45.6347 139.099 44.824C139.099 44.0133 139.28 43.288 139.643 42.648C140.005 41.9973 140.501 41.4907 141.131 41.128C141.771 40.7653 142.485 40.584 143.275 40.584C144.064 40.584 144.773 40.7653 145.403 41.128C146.043 41.4907 146.544 41.9973 146.907 42.648C147.269 43.288 147.451 44.0133 147.451 44.824C147.451 45.6347 147.269 46.3653 146.907 47.016C146.544 47.656 146.043 48.1573 145.403 48.52C144.773 48.8827 144.064 49.064 143.275 49.064ZM143.275 48.344C143.915 48.344 144.485 48.1947 144.987 47.896C145.499 47.5973 145.899 47.1813 146.187 46.648C146.485 46.1147 146.635 45.5067 146.635 44.824C146.635 44.1413 146.485 43.5333 146.187 43C145.899 42.4667 145.499 42.0507 144.987 41.752C144.485 41.4533 143.915 41.304 143.275 41.304C142.635 41.304 142.059 41.4533 141.547 41.752C141.045 42.0507 140.645 42.4667 140.347 43C140.059 43.5333 139.915 44.1413 139.915 44.824C139.915 45.5067 140.059 46.1147 140.347 46.648C140.645 47.1813 141.045 47.5973 141.547 47.896C142.059 48.1947 142.635 48.344 143.275 48.344ZM149.928 41.944C149.747 41.944 149.587 41.88 149.448 41.752C149.32 41.6133 149.256 41.448 149.256 41.256C149.256 41.064 149.32 40.904 149.448 40.776C149.587 40.648 149.747 40.584 149.928 40.584C150.109 40.584 150.264 40.648 150.392 40.776C150.531 40.904 150.6 41.064 150.6 41.256C150.6 41.448 150.531 41.6133 150.392 41.752C150.264 41.88 150.109 41.944 149.928 41.944ZM149.928 49.064C149.747 49.064 149.587 49 149.448 48.872C149.32 48.7333 149.256 48.568 149.256 48.376C149.256 48.184 149.32 48.024 149.448 47.896C149.587 47.768 149.747 47.704 149.928 47.704C150.109 47.704 150.264 47.768 150.392 47.896C150.531 48.024 150.6 48.184 150.6 48.376C150.6 48.568 150.531 48.7333 150.392 48.872C150.264 49 150.109 49.064 149.928 49.064ZM164.617 49L160.761 43.816L156.921 49H155.961L160.265 43.224L156.265 37.8H157.225L160.793 42.616L164.361 37.8H165.273L161.273 43.208L165.577 49H164.617ZM168.284 38.536V43.32H174.252V44.056H168.284V49H167.468V37.8H174.956V38.536H168.284ZM179.54 37.8V49H178.724V38.536H175.988V37.8H179.54ZM189.836 48.264V49H182.14V48.424L186.876 43.72C187.495 43.1013 187.911 42.5733 188.124 42.136C188.348 41.688 188.46 41.2293 188.46 40.76C188.46 40.0453 188.215 39.4853 187.724 39.08C187.244 38.6747 186.546 38.472 185.628 38.472C184.924 38.472 184.306 38.5787 183.772 38.792C183.25 39.0053 182.796 39.3307 182.412 39.768L181.836 39.256C182.263 38.7653 182.802 38.3867 183.452 38.12C184.114 37.8533 184.86 37.72 185.692 37.72C186.791 37.72 187.666 37.9867 188.316 38.52C188.967 39.0533 189.292 39.7733 189.292 40.68C189.292 41.256 189.164 41.8053 188.908 42.328C188.652 42.8507 188.172 43.4587 187.468 44.152L183.34 48.264H189.836ZM195.702 49.08C194.848 49.08 194.086 48.8507 193.414 48.392C192.752 47.9227 192.235 47.2613 191.862 46.408C191.499 45.5547 191.318 44.552 191.318 43.4C191.318 42.248 191.499 41.2453 191.862 40.392C192.235 39.5387 192.752 38.8827 193.414 38.424C194.086 37.9547 194.848 37.72 195.702 37.72C196.555 37.72 197.312 37.9547 197.974 38.424C198.646 38.8827 199.163 39.5387 199.526 40.392C199.899 41.2453 200.086 42.248 200.086 43.4C200.086 44.552 199.899 45.5547 199.526 46.408C199.163 47.2613 198.646 47.9227 197.974 48.392C197.312 48.8507 196.555 49.08 195.702 49.08ZM195.702 48.328C196.406 48.328 197.024 48.136 197.558 47.752C198.102 47.3573 198.523 46.792 198.822 46.056C199.12 45.3093 199.27 44.424 199.27 43.4C199.27 42.376 199.12 41.496 198.822 40.76C198.523 40.0133 198.102 39.448 197.558 39.064C197.024 38.6693 196.406 38.472 195.702 38.472C194.998 38.472 194.374 38.6693 193.83 39.064C193.296 39.448 192.88 40.0133 192.582 40.76C192.283 41.496 192.134 42.376 192.134 43.4C192.134 44.424 192.283 45.3093 192.582 46.056C192.88 46.792 193.296 47.3573 193.83 47.752C194.374 48.136 194.998 48.328 195.702 48.328ZM27.3513 63.24C28.1833 63.3787 28.8073 63.6827 29.2233 64.152C29.6499 64.6213 29.8633 65.2453 29.8633 66.024C29.8633 66.984 29.5273 67.72 28.8553 68.232C28.1833 68.744 27.1859 69 25.8633 69H21.0473V57.8H25.5593C26.7326 57.8 27.6446 58.0453 28.2953 58.536C28.9566 59.0267 29.2873 59.7307 29.2873 60.648C29.2873 61.2987 29.1166 61.8427 28.7753 62.28C28.4339 62.7173 27.9593 63.0373 27.3513 63.24ZM21.8633 62.984H25.5433C26.4819 62.984 27.2019 62.792 27.7033 62.408C28.2046 62.024 28.4553 61.4693 28.4553 60.744C28.4553 60.008 28.2046 59.448 27.7033 59.064C27.2019 58.68 26.4819 58.488 25.5433 58.488H21.8633V62.984ZM25.8793 68.312C27.9913 68.312 29.0473 67.5333 29.0473 65.976C29.0473 65.176 28.7806 64.5893 28.2473 64.216C27.7139 63.8427 26.9246 63.656 25.8793 63.656H21.8633V68.312H25.8793ZM36.9673 60.584C37.7459 60.584 38.4499 60.7653 39.0793 61.128C39.7086 61.4907 40.1993 61.992 40.5513 62.632C40.9139 63.272 41.0953 64.0027 41.0953 64.824C41.0953 65.6453 40.9139 66.3813 40.5513 67.032C40.1993 67.672 39.7086 68.1733 39.0793 68.536C38.4499 68.888 37.7459 69.064 36.9673 69.064C36.2313 69.064 35.5646 68.8933 34.9673 68.552C34.3699 68.2 33.9059 67.7147 33.5753 67.096V72.104H32.7753V60.648H33.5433V62.616C33.8739 61.976 34.3379 61.48 34.9353 61.128C35.5433 60.7653 36.2206 60.584 36.9673 60.584ZM36.9193 68.344C37.5593 68.344 38.1353 68.1947 38.6473 67.896C39.1593 67.5973 39.5593 67.1813 39.8472 66.648C40.1459 66.1147 40.2953 65.5067 40.2953 64.824C40.2953 64.1413 40.1459 63.5333 39.8472 63C39.5593 62.4667 39.1593 62.0507 38.6473 61.752C38.1353 61.4533 37.5593 61.304 36.9193 61.304C36.2793 61.304 35.7033 61.4533 35.1913 61.752C34.6899 62.0507 34.2899 62.4667 33.9913 63C33.7033 63.5333 33.5593 64.1413 33.5593 64.824C33.5593 65.5067 33.7033 66.1147 33.9913 66.648C34.2899 67.1813 34.6899 67.5973 35.1913 67.896C35.7033 68.1947 36.2793 68.344 36.9193 68.344ZM50.8168 65.016H43.6328C43.6541 65.6667 43.8194 66.248 44.1288 66.76C44.4381 67.2613 44.8541 67.6507 45.3768 67.928C45.9101 68.2053 46.5074 68.344 47.1688 68.344C47.7128 68.344 48.2141 68.248 48.6728 68.056C49.1421 67.8533 49.5314 67.56 49.8408 67.176L50.3048 67.704C49.9421 68.1413 49.4834 68.4773 48.9288 68.712C48.3848 68.9467 47.7928 69.064 47.1528 69.064C46.3208 69.064 45.5794 68.8827 44.9288 68.52C44.2781 68.1573 43.7661 67.656 43.3928 67.016C43.0301 66.376 42.8488 65.6453 42.8488 64.824C42.8488 64.0133 43.0194 63.288 43.3608 62.648C43.7128 61.9973 44.1928 61.4907 44.8008 61.128C45.4088 60.7653 46.0914 60.584 46.8488 60.584C47.6061 60.584 48.2834 60.7653 48.8808 61.128C49.4888 61.48 49.9634 61.976 50.3048 62.616C50.6568 63.256 50.8328 63.9813 50.8328 64.792L50.8168 65.016ZM46.8488 61.288C46.2621 61.288 45.7341 61.4213 45.2648 61.688C44.7954 61.944 44.4168 62.312 44.1288 62.792C43.8514 63.2613 43.6914 63.7947 43.6488 64.392H50.0487C50.0168 63.7947 49.8568 63.2613 49.5688 62.792C49.2808 62.3227 48.9021 61.9547 48.4328 61.688C47.9634 61.4213 47.4354 61.288 46.8488 61.288ZM62.5348 60.648V69H61.7988V61.928L58.1668 67.928H57.7988L54.1828 61.944V69H53.4468V60.648H54.2308L58.0068 66.968L61.7988 60.648H62.5348ZM72.1536 60.648V69H71.4176V66.12H68.6336C68.4416 66.12 68.303 66.1147 68.2176 66.104L66.1536 69H65.2736L67.4336 66.008C66.751 65.8587 66.2283 65.5653 65.8656 65.128C65.503 64.6907 65.3216 64.1253 65.3216 63.432C65.3216 62.5147 65.6256 61.8213 66.2336 61.352C66.8523 60.8827 67.695 60.648 68.7616 60.648H72.1536ZM66.1216 63.464C66.1216 64.8293 66.9856 65.512 68.7136 65.512H71.4176V61.352H68.8096C67.0176 61.352 66.1216 62.056 66.1216 63.464ZM87.0084 60.648V69H86.2084V61.368H80.5124V69H79.7124V60.648H87.0084ZM94.6704 60.584C95.449 60.584 96.153 60.7653 96.7824 61.128C97.4117 61.4907 97.9024 61.992 98.2544 62.632C98.617 63.272 98.7984 64.0027 98.7984 64.824C98.7984 65.6453 98.617 66.3813 98.2544 67.032C97.9024 67.672 97.4117 68.1733 96.7824 68.536C96.153 68.888 95.449 69.064 94.6704 69.064C93.9344 69.064 93.2677 68.8933 92.6704 68.552C92.073 68.2 91.609 67.7147 91.2784 67.096V72.104H90.4784V60.648H91.2464V62.616C91.577 61.976 92.041 61.48 92.6384 61.128C93.2464 60.7653 93.9237 60.584 94.6704 60.584ZM94.6224 68.344C95.2624 68.344 95.8384 68.1947 96.3504 67.896C96.8624 67.5973 97.2624 67.1813 97.5504 66.648C97.849 66.1147 97.9984 65.5067 97.9984 64.824C97.9984 64.1413 97.849 63.5333 97.5504 63C97.2624 62.4667 96.8624 62.0507 96.3504 61.752C95.8384 61.4533 95.2624 61.304 94.6224 61.304C93.9824 61.304 93.4064 61.4533 92.8944 61.752C92.393 62.0507 91.993 62.4667 91.6944 63C91.4064 63.5333 91.2624 64.1413 91.2624 64.824C91.2624 65.5067 91.4064 66.1147 91.6944 66.648C91.993 67.1813 92.393 67.5973 92.8944 67.896C93.4064 68.1947 93.9824 68.344 94.6224 68.344ZM104.728 69.064C103.939 69.064 103.224 68.8827 102.584 68.52C101.955 68.1573 101.459 67.656 101.096 67.016C100.733 66.3653 100.552 65.6347 100.552 64.824C100.552 64.0133 100.733 63.288 101.096 62.648C101.459 61.9973 101.955 61.4907 102.584 61.128C103.224 60.7653 103.939 60.584 104.728 60.584C105.517 60.584 106.227 60.7653 106.856 61.128C107.496 61.4907 107.997 61.9973 108.36 62.648C108.723 63.288 108.904 64.0133 108.904 64.824C108.904 65.6347 108.723 66.3653 108.36 67.016C107.997 67.656 107.496 68.1573 106.856 68.52C106.227 68.8827 105.517 69.064 104.728 69.064ZM104.728 68.344C105.368 68.344 105.939 68.1947 106.44 67.896C106.952 67.5973 107.352 67.1813 107.64 66.648C107.939 66.1147 108.088 65.5067 108.088 64.824C108.088 64.1413 107.939 63.5333 107.64 63C107.352 62.4667 106.952 62.0507 106.44 61.752C105.939 61.4533 105.368 61.304 104.728 61.304C104.088 61.304 103.512 61.4533 103 61.752C102.499 62.0507 102.099 62.4667 101.8 63C101.512 63.5333 101.368 64.1413 101.368 64.824C101.368 65.5067 101.512 66.1147 101.8 66.648C102.099 67.1813 102.499 67.5973 103 67.896C103.512 68.1947 104.088 68.344 104.728 68.344ZM118.006 60.648V69H117.206V61.368H112.854L112.742 63.592C112.678 64.744 112.582 65.7093 112.454 66.488C112.326 67.2667 112.107 67.896 111.798 68.376C111.489 68.856 111.062 69.096 110.518 69.096C110.358 69.096 110.129 69.0587 109.83 68.984L109.91 68.296C110.081 68.3387 110.209 68.36 110.294 68.36C110.742 68.36 111.083 68.1413 111.318 67.704C111.553 67.2667 111.713 66.7227 111.798 66.072C111.883 65.4213 111.953 64.5733 112.006 63.528L112.15 60.648H118.006ZM128.582 65.016H121.398C121.42 65.6667 121.585 66.248 121.894 66.76C122.204 67.2613 122.62 67.6507 123.142 67.928C123.676 68.2053 124.273 68.344 124.934 68.344C125.478 68.344 125.98 68.248 126.438 68.056C126.908 67.8533 127.297 67.56 127.606 67.176L128.07 67.704C127.708 68.1413 127.249 68.4773 126.694 68.712C126.15 68.9467 125.558 69.064 124.918 69.064C124.086 69.064 123.345 68.8827 122.694 68.52C122.044 68.1573 121.532 67.656 121.158 67.016C120.796 66.376 120.614 65.6453 120.614 64.824C120.614 64.0133 120.785 63.288 121.126 62.648C121.478 61.9973 121.958 61.4907 122.566 61.128C123.174 60.7653 123.857 60.584 124.614 60.584C125.372 60.584 126.049 60.7653 126.646 61.128C127.254 61.48 127.729 61.976 128.07 62.616C128.422 63.256 128.598 63.9813 128.598 64.792L128.582 65.016ZM124.614 61.288C124.028 61.288 123.5 61.4213 123.03 61.688C122.561 61.944 122.182 62.312 121.894 62.792C121.617 63.2613 121.457 63.7947 121.414 64.392H127.814C127.782 63.7947 127.622 63.2613 127.334 62.792C127.046 62.3227 126.668 61.9547 126.198 61.688C125.729 61.4213 125.201 61.288 124.614 61.288ZM123.238 58.856C123.078 58.856 122.94 58.8027 122.822 58.696C122.716 58.5787 122.662 58.44 122.662 58.28C122.662 58.1093 122.716 57.9707 122.822 57.864C122.94 57.7573 123.078 57.704 123.238 57.704C123.398 57.704 123.532 57.7627 123.638 57.88C123.756 57.9867 123.814 58.12 123.814 58.28C123.814 58.44 123.756 58.5787 123.638 58.696C123.521 58.8027 123.388 58.856 123.238 58.856ZM125.99 58.856C125.841 58.856 125.708 58.8027 125.59 58.696C125.473 58.5787 125.414 58.44 125.414 58.28C125.414 58.12 125.468 57.9867 125.574 57.88C125.692 57.7627 125.83 57.704 125.99 57.704C126.15 57.704 126.284 57.7573 126.39 57.864C126.508 57.9707 126.566 58.1093 126.566 58.28C126.566 58.44 126.508 58.5787 126.39 58.696C126.284 58.8027 126.15 58.856 125.99 58.856ZM136.406 61.368H133.142V69H132.342V61.368H129.078V60.648H136.406V61.368ZM140.887 60.584C141.921 60.584 142.716 60.8507 143.271 61.384C143.825 61.9067 144.103 62.68 144.103 63.704V69H143.335V67.512C143.068 68.0027 142.679 68.3867 142.167 68.664C141.655 68.9307 141.041 69.064 140.327 69.064C139.399 69.064 138.663 68.8453 138.119 68.408C137.585 67.9707 137.319 67.3947 137.319 66.68C137.319 65.9867 137.564 65.4267 138.055 65C138.556 64.5627 139.351 64.344 140.439 64.344H143.303V63.672C143.303 62.8933 143.089 62.3013 142.663 61.896C142.247 61.4907 141.633 61.288 140.823 61.288C140.268 61.288 139.735 61.384 139.223 61.576C138.721 61.768 138.295 62.024 137.943 62.344L137.543 61.768C137.959 61.3947 138.46 61.1067 139.047 60.904C139.633 60.6907 140.247 60.584 140.887 60.584ZM140.439 68.408C141.132 68.408 141.719 68.248 142.199 67.928C142.689 67.608 143.057 67.144 143.303 66.536V64.968H140.455C139.633 64.968 139.036 65.1173 138.663 65.416C138.3 65.7147 138.119 66.1253 138.119 66.648C138.119 67.192 138.321 67.624 138.727 67.944C139.132 68.2533 139.703 68.408 140.439 68.408ZM147.225 61.944C147.044 61.944 146.884 61.88 146.745 61.752C146.617 61.6133 146.553 61.448 146.553 61.256C146.553 61.064 146.617 60.904 146.745 60.776C146.884 60.648 147.044 60.584 147.225 60.584C147.406 60.584 147.561 60.648 147.689 60.776C147.828 60.904 147.897 61.064 147.897 61.256C147.897 61.448 147.828 61.6133 147.689 61.752C147.561 61.88 147.406 61.944 147.225 61.944ZM147.225 69.064C147.044 69.064 146.884 69 146.745 68.872C146.617 68.7333 146.553 68.568 146.553 68.376C146.553 68.184 146.617 68.024 146.745 67.896C146.884 67.768 147.044 67.704 147.225 67.704C147.406 67.704 147.561 67.768 147.689 67.896C147.828 68.024 147.897 68.184 147.897 68.376C147.897 68.568 147.828 68.7333 147.689 68.872C147.561 69 147.406 69.064 147.225 69.064ZM156.634 57.8V69H155.818V58.536H153.082V57.8H156.634ZM165.458 63.144C166.226 63.3467 166.818 63.688 167.234 64.168C167.661 64.648 167.874 65.2347 167.874 65.928C167.874 66.9093 167.495 67.6827 166.738 68.248C165.981 68.8027 164.941 69.08 163.618 69.08C162.306 69.08 161.271 68.8027 160.514 68.248C159.767 67.6827 159.394 66.9093 159.394 65.928C159.394 65.224 159.597 64.6373 160.002 64.168C160.418 63.688 161.01 63.3467 161.778 63.144C161.138 62.9307 160.647 62.6107 160.306 62.184C159.965 61.7573 159.794 61.2347 159.794 60.616C159.794 59.72 160.141 59.016 160.834 58.504C161.527 57.9813 162.455 57.72 163.618 57.72C164.781 57.72 165.714 57.9813 166.418 58.504C167.122 59.0267 167.474 59.7307 167.474 60.616C167.474 61.224 167.298 61.7467 166.946 62.184C166.605 62.6107 166.109 62.9307 165.458 63.144ZM160.61 60.632C160.61 61.304 160.871 61.8373 161.394 62.232C161.927 62.6267 162.669 62.824 163.618 62.824C164.567 62.824 165.309 62.632 165.842 62.248C166.386 61.8533 166.658 61.32 166.658 60.648C166.658 59.9653 166.381 59.4267 165.826 59.032C165.282 58.6267 164.546 58.424 163.618 58.424C162.69 58.424 161.954 58.6213 161.41 59.016C160.877 59.4107 160.61 59.9493 160.61 60.632ZM163.618 68.376C164.695 68.376 165.538 68.1573 166.146 67.72C166.754 67.2827 167.058 66.6853 167.058 65.928C167.058 65.1813 166.754 64.5893 166.146 64.152C165.538 63.7147 164.695 63.496 163.618 63.496C162.551 63.496 161.714 63.7147 161.106 64.152C160.509 64.5893 160.21 65.1813 160.21 65.928C160.21 66.6853 160.509 67.2827 161.106 67.72C161.703 68.1573 162.541 68.376 163.618 68.376ZM183.613 60.648V69H182.877V61.928L179.245 67.928H178.877L175.261 61.944V69H174.525V60.648H175.309L179.085 66.968L182.877 60.648H183.613ZM187.072 60.648H187.872V67.768L193.824 60.648H194.528V69H193.728V61.88L187.776 69H187.072V60.648ZM197.978 60.648H198.778V64.456H204.442V60.648H205.242V69H204.442V65.16H198.778V69H197.978V60.648Z" fill="white"/>
</svg>
