<svg width="226" height="97" viewBox="0 0 226 97" fill="none" xmlns="http://www.w3.org/2000/svg">
<path d="M226 48.4997C226 88.367 210.534 97 116.531 97C22.5289 97 0 88.367 0 48.4997C0 8.63249 22.5289 0 116.531 0C210.534 0 226 8.63249 226 48.4997Z" fill="#0C0C0C"/>
<path d="M81.813 33.096C80.7037 33.096 79.701 32.8507 78.805 32.36C77.9197 31.8693 77.221 31.192 76.709 30.328C76.2077 29.4533 75.957 28.4773 75.957 27.4C75.957 26.3227 76.2077 25.352 76.709 24.488C77.221 23.6133 77.925 22.9307 78.821 22.44C79.717 21.9493 80.7197 21.704 81.829 21.704C82.661 21.704 83.429 21.8427 84.133 22.12C84.837 22.3973 85.4343 22.8027 85.925 23.336L85.173 24.088C84.2983 23.2027 83.1943 22.76 81.861 22.76C80.9757 22.76 80.1703 22.9627 79.445 23.368C78.7197 23.7733 78.149 24.328 77.733 25.032C77.3277 25.736 77.125 26.5253 77.125 27.4C77.125 28.2747 77.3277 29.064 77.733 29.768C78.149 30.472 78.7197 31.0267 79.445 31.432C80.1703 31.8373 80.9757 32.04 81.861 32.04C83.205 32.04 84.309 31.592 85.173 30.696L85.925 31.448C85.4343 31.9813 84.8317 32.392 84.117 32.68C83.413 32.9573 82.645 33.096 81.813 33.096ZM92.577 24.52C93.3663 24.52 94.081 24.7013 94.721 25.064C95.361 25.416 95.8623 25.9173 96.225 26.568C96.5877 27.2187 96.769 27.96 96.769 28.792C96.769 29.6347 96.5877 30.3813 96.225 31.032C95.8623 31.6827 95.361 32.1893 94.721 32.552C94.0917 32.904 93.377 33.08 92.577 33.08C91.8943 33.08 91.2757 32.9413 90.721 32.664C90.177 32.376 89.729 31.96 89.377 31.416V36.104H88.241V24.584H89.329V26.248C89.6703 25.6933 90.1183 25.2667 90.673 24.968C91.2383 24.6693 91.873 24.52 92.577 24.52ZM92.497 32.072C93.0837 32.072 93.617 31.9387 94.097 31.672C94.577 31.3947 94.9503 31.0053 95.217 30.504C95.4943 30.0027 95.633 29.432 95.633 28.792C95.633 28.152 95.4943 27.5867 95.217 27.096C94.9503 26.5947 94.577 26.2053 94.097 25.928C93.617 25.6507 93.0837 25.512 92.497 25.512C91.8997 25.512 91.361 25.6507 90.881 25.928C90.4117 26.2053 90.0383 26.5947 89.761 27.096C89.4943 27.5867 89.361 28.152 89.361 28.792C89.361 29.432 89.4943 30.0027 89.761 30.504C90.0383 31.0053 90.4117 31.3947 90.881 31.672C91.361 31.9387 91.8997 32.072 92.497 32.072ZM106.57 29.144H99.5298C99.5938 30.0187 99.9298 30.728 100.538 31.272C101.146 31.8053 101.914 32.072 102.842 32.072C103.364 32.072 103.844 31.9813 104.282 31.8C104.719 31.608 105.098 31.3307 105.418 30.968L106.058 31.704C105.684 32.152 105.215 32.4933 104.65 32.728C104.095 32.9627 103.482 33.08 102.81 33.08C101.946 33.08 101.178 32.8987 100.506 32.536C99.8444 32.1627 99.3271 31.6507 98.9538 31C98.5804 30.3493 98.3938 29.6133 98.3938 28.792C98.3938 27.9707 98.5698 27.2347 98.9218 26.584C99.2844 25.9333 99.7751 25.4267 100.394 25.064C101.023 24.7013 101.727 24.52 102.506 24.52C103.284 24.52 103.983 24.7013 104.602 25.064C105.22 25.4267 105.706 25.9333 106.058 26.584C106.41 27.224 106.586 27.96 106.586 28.792L106.57 29.144ZM102.506 25.496C101.695 25.496 101.012 25.7573 100.458 26.28C99.9138 26.792 99.6044 27.464 99.5298 28.296H105.498C105.423 27.464 105.108 26.792 104.554 26.28C104.01 25.7573 103.327 25.496 102.506 25.496ZM117.137 32.008V35.032H116.065V33H108.529V35.032H107.457V32.008H107.937C108.502 31.976 108.886 31.56 109.089 30.76C109.291 29.96 109.43 28.84 109.505 27.4L109.617 24.584H115.825V32.008H117.137ZM110.545 27.464C110.491 28.6587 110.39 29.6453 110.241 30.424C110.091 31.192 109.825 31.72 109.441 32.008H114.689V25.592H110.641L110.545 27.464ZM122.246 24.52C123.345 24.52 124.188 24.7973 124.774 25.352C125.361 25.896 125.654 26.7067 125.654 27.784V33H124.566V31.688C124.31 32.1253 123.932 32.4667 123.43 32.712C122.94 32.9573 122.353 33.08 121.67 33.08C120.732 33.08 119.985 32.856 119.43 32.408C118.876 31.96 118.598 31.368 118.598 30.632C118.598 29.9173 118.854 29.3413 119.366 28.904C119.889 28.4667 120.716 28.248 121.846 28.248H124.518V27.736C124.518 27.0107 124.316 26.4613 123.91 26.088C123.505 25.704 122.913 25.512 122.134 25.512C121.601 25.512 121.089 25.6027 120.598 25.784C120.108 25.9547 119.686 26.1947 119.334 26.504L118.822 25.656C119.249 25.2933 119.761 25.016 120.358 24.824C120.956 24.6213 121.585 24.52 122.246 24.52ZM121.846 32.184C122.486 32.184 123.036 32.04 123.494 31.752C123.953 31.4533 124.294 31.0267 124.518 30.472V29.096H121.878C120.438 29.096 119.718 29.5973 119.718 30.6C119.718 31.0907 119.905 31.48 120.278 31.768C120.652 32.0453 121.174 32.184 121.846 32.184ZM134.77 36.104C134.173 35.1227 133.714 33.9973 133.394 32.728C133.074 31.448 132.914 30.0773 132.914 28.616C132.914 27.1547 133.074 25.784 133.394 24.504C133.714 23.2133 134.173 22.088 134.77 21.128H135.858C135.229 22.2053 134.765 23.3627 134.466 24.6C134.178 25.8373 134.034 27.176 134.034 28.616C134.034 30.056 134.178 31.3947 134.466 32.632C134.765 33.8693 135.229 35.0267 135.858 36.104H134.77ZM144.996 31.976V33H137.14V32.184L141.796 27.624C142.382 27.048 142.777 26.552 142.98 26.136C143.193 25.7093 143.3 25.2827 143.3 24.856C143.3 24.1947 143.07 23.6827 142.612 23.32C142.164 22.9467 141.518 22.76 140.676 22.76C139.364 22.76 138.345 23.176 137.62 24.008L136.804 23.304C137.241 22.792 137.796 22.3973 138.468 22.12C139.15 21.8427 139.918 21.704 140.772 21.704C141.913 21.704 142.814 21.976 143.476 22.52C144.148 23.0533 144.484 23.7893 144.484 24.728C144.484 25.304 144.356 25.8587 144.1 26.392C143.844 26.9253 143.358 27.5387 142.644 28.232L138.836 31.976H144.996ZM146.249 36.104C146.879 35.0267 147.343 33.8747 147.641 32.648C147.94 31.4107 148.089 30.0667 148.089 28.616C148.089 27.1653 147.94 25.8267 147.641 24.6C147.343 23.3627 146.879 22.2053 146.249 21.128H147.337C147.935 22.088 148.393 23.2133 148.713 24.504C149.044 25.784 149.209 27.1547 149.209 28.616C149.209 30.0773 149.049 31.448 148.729 32.728C148.409 34.008 147.945 35.1333 147.337 36.104H146.249ZM36.1985 41.8V53H35.3825V47.672H27.8945V53H27.0785V41.8H27.8945V46.952H35.3825V41.8H36.1985ZM47.0668 49.016H39.8828C39.9041 49.6667 40.0694 50.248 40.3788 50.76C40.6881 51.2613 41.1041 51.6507 41.6268 51.928C42.1601 52.2053 42.7574 52.344 43.4188 52.344C43.9628 52.344 44.4641 52.248 44.9228 52.056C45.3921 51.8533 45.7814 51.56 46.0908 51.176L46.5548 51.704C46.1921 52.1413 45.7334 52.4773 45.1788 52.712C44.6348 52.9467 44.0428 53.064 43.4028 53.064C42.5708 53.064 41.8294 52.8827 41.1788 52.52C40.5281 52.1573 40.0161 51.656 39.6428 51.016C39.2801 50.376 39.0988 49.6453 39.0988 48.824C39.0988 48.0133 39.2694 47.288 39.6108 46.648C39.9628 45.9973 40.4428 45.4907 41.0508 45.128C41.6588 44.7653 42.3414 44.584 43.0988 44.584C43.8561 44.584 44.5334 44.7653 45.1308 45.128C45.7388 45.48 46.2134 45.976 46.5548 46.616C46.9068 47.256 47.0828 47.9813 47.0828 48.792L47.0668 49.016ZM43.0988 45.288C42.5121 45.288 41.9841 45.4213 41.5148 45.688C41.0454 45.944 40.6668 46.312 40.3788 46.792C40.1014 47.2613 39.9414 47.7947 39.8988 48.392H46.2987C46.2668 47.7947 46.1068 47.2613 45.8188 46.792C45.5308 46.3227 45.1521 45.9547 44.6828 45.688C44.2134 45.4213 43.6854 45.288 43.0988 45.288ZM53.5688 44.776C54.3474 44.776 55.0354 44.952 55.6328 45.304C56.2408 45.6453 56.7154 46.1253 57.0568 46.744C57.3981 47.3627 57.5688 48.0773 57.5688 48.888C57.5688 49.6987 57.3928 50.424 57.0408 51.064C56.6994 51.6933 56.2141 52.1893 55.5848 52.552C54.9661 52.904 54.2568 53.08 53.4568 53.08C52.5394 53.08 51.7554 52.856 51.1048 52.408C50.4648 51.96 49.9741 51.3253 49.6328 50.504C49.3021 49.6827 49.1368 48.7227 49.1368 47.624C49.1368 46.376 49.2861 45.3413 49.5848 44.52C49.8941 43.6987 50.3528 43.0533 50.9608 42.584C51.5794 42.104 52.3688 41.7467 53.3288 41.512L57.0248 40.616L57.1528 41.368L53.6328 42.2C52.7688 42.4027 52.0648 42.7013 51.5208 43.096C50.9874 43.48 50.5874 44.008 50.3207 44.68C50.0541 45.352 49.9154 46.2107 49.9048 47.256C50.1821 46.488 50.6461 45.8853 51.2968 45.448C51.9474 45 52.7048 44.776 53.5688 44.776ZM53.4728 52.392C54.1021 52.392 54.6674 52.2427 55.1688 51.944C55.6701 51.6453 56.0594 51.2347 56.3368 50.712C56.6141 50.1787 56.7528 49.576 56.7528 48.904C56.7528 48.232 56.6141 47.64 56.3368 47.128C56.0594 46.6053 55.6701 46.2053 55.1688 45.928C54.6781 45.64 54.1128 45.496 53.4728 45.496C52.8328 45.496 52.2621 45.64 51.7608 45.928C51.2594 46.2053 50.8701 46.6053 50.5928 47.128C50.3154 47.64 50.1768 48.232 50.1768 48.904C50.1768 49.576 50.3154 50.1787 50.5928 50.712C50.8701 51.2347 51.2594 51.6453 51.7608 51.944C52.2621 52.2427 52.8328 52.392 53.4728 52.392ZM67.3168 49.016H60.1328C60.1541 49.6667 60.3194 50.248 60.6288 50.76C60.9381 51.2613 61.3541 51.6507 61.8768 51.928C62.4101 52.2053 63.0074 52.344 63.6688 52.344C64.2128 52.344 64.7141 52.248 65.1728 52.056C65.6421 51.8533 66.0314 51.56 66.3408 51.176L66.8048 51.704C66.4421 52.1413 65.9834 52.4773 65.4288 52.712C64.8848 52.9467 64.2928 53.064 63.6528 53.064C62.8208 53.064 62.0794 52.8827 61.4288 52.52C60.7781 52.1573 60.2661 51.656 59.8928 51.016C59.5301 50.376 59.3488 49.6453 59.3488 48.824C59.3488 48.0133 59.5194 47.288 59.8608 46.648C60.2128 45.9973 60.6928 45.4907 61.3008 45.128C61.9088 44.7653 62.5914 44.584 63.3488 44.584C64.1061 44.584 64.7834 44.7653 65.3808 45.128C65.9888 45.48 66.4634 45.976 66.8048 46.616C67.1568 47.256 67.3328 47.9813 67.3328 48.792L67.3168 49.016ZM63.3488 45.288C62.7621 45.288 62.2341 45.4213 61.7648 45.688C61.2954 45.944 60.9168 46.312 60.6288 46.792C60.3514 47.2613 60.1914 47.7947 60.1488 48.392H66.5487C66.5168 47.7947 66.3568 47.2613 66.0688 46.792C65.7808 46.3227 65.4021 45.9547 64.9328 45.688C64.4634 45.4213 63.9354 45.288 63.3488 45.288ZM73.3228 53.064C72.5121 53.064 71.7868 52.8827 71.1468 52.52C70.5068 52.1573 70.0054 51.656 69.6428 51.016C69.2801 50.3653 69.0988 49.6347 69.0988 48.824C69.0988 48.0027 69.2801 47.272 69.6428 46.632C70.0054 45.9813 70.5068 45.48 71.1468 45.128C71.7868 44.7653 72.5121 44.584 73.3228 44.584C73.9948 44.584 74.6028 44.7173 75.1468 44.984C75.7014 45.24 76.1494 45.6187 76.4908 46.12L75.8988 46.552C75.6001 46.136 75.2268 45.8267 74.7788 45.624C74.3414 45.4107 73.8561 45.304 73.3228 45.304C72.6721 45.304 72.0854 45.4533 71.5628 45.752C71.0508 46.04 70.6454 46.4507 70.3468 46.984C70.0588 47.5173 69.9148 48.1307 69.9148 48.824C69.9148 49.5173 70.0588 50.1307 70.3468 50.664C70.6454 51.1973 71.0508 51.6133 71.5628 51.912C72.0854 52.2 72.6721 52.344 73.3228 52.344C73.8561 52.344 74.3414 52.2427 74.7788 52.04C75.2268 51.8267 75.6001 51.512 75.8988 51.096L76.4908 51.528C76.1494 52.0293 75.7014 52.4133 75.1468 52.68C74.6028 52.936 73.9948 53.064 73.3228 53.064ZM78.853 44.648H79.653V48.456H85.317V44.648H86.117V53H85.317V49.16H79.653V53H78.853V44.648ZM92.8998 53.064C92.1104 53.064 91.3958 52.8827 90.7558 52.52C90.1264 52.1573 89.6304 51.656 89.2678 51.016C88.9051 50.3653 88.7238 49.6347 88.7238 48.824C88.7238 48.0133 88.9051 47.288 89.2678 46.648C89.6304 45.9973 90.1264 45.4907 90.7558 45.128C91.3958 44.7653 92.1104 44.584 92.8998 44.584C93.6891 44.584 94.3984 44.7653 95.0278 45.128C95.6678 45.4907 96.1691 45.9973 96.5318 46.648C96.8944 47.288 97.0758 48.0133 97.0758 48.824C97.0758 49.6347 96.8944 50.3653 96.5318 51.016C96.1691 51.656 95.6678 52.1573 95.0278 52.52C94.3984 52.8827 93.6891 53.064 92.8998 53.064ZM92.8998 52.344C93.5398 52.344 94.1104 52.1947 94.6118 51.896C95.1238 51.5973 95.5238 51.1813 95.8118 50.648C96.1104 50.1147 96.2598 49.5067 96.2598 48.824C96.2598 48.1413 96.1104 47.5333 95.8118 47C95.5238 46.4667 95.1238 46.0507 94.6118 45.752C94.1104 45.4533 93.5398 45.304 92.8998 45.304C92.2598 45.304 91.6838 45.4533 91.1718 45.752C90.6704 46.0507 90.2704 46.4667 89.9718 47C89.6838 47.5333 89.5398 48.1413 89.5398 48.824C89.5398 49.5067 89.6838 50.1147 89.9718 50.648C90.2704 51.1813 90.6704 51.5973 91.1718 51.896C91.6838 52.1947 92.2598 52.344 92.8998 52.344ZM106.801 49.016H99.6171C99.6385 49.6667 99.8038 50.248 100.113 50.76C100.422 51.2613 100.838 51.6507 101.361 51.928C101.894 52.2053 102.492 52.344 103.153 52.344C103.697 52.344 104.198 52.248 104.657 52.056C105.126 51.8533 105.516 51.56 105.825 51.176L106.289 51.704C105.926 52.1413 105.468 52.4773 104.913 52.712C104.369 52.9467 103.777 53.064 103.137 53.064C102.305 53.064 101.564 52.8827 100.913 52.52C100.262 52.1573 99.7505 51.656 99.3771 51.016C99.0145 50.376 98.8331 49.6453 98.8331 48.824C98.8331 48.0133 99.0038 47.288 99.3451 46.648C99.6971 45.9973 100.177 45.4907 100.785 45.128C101.393 44.7653 102.076 44.584 102.833 44.584C103.59 44.584 104.268 44.7653 104.865 45.128C105.473 45.48 105.948 45.976 106.289 46.616C106.641 47.256 106.817 47.9813 106.817 48.792L106.801 49.016ZM102.833 45.288C102.246 45.288 101.718 45.4213 101.249 45.688C100.78 45.944 100.401 46.312 100.113 46.792C99.8358 47.2613 99.6758 47.7947 99.6331 48.392H106.033C106.001 47.7947 105.841 47.2613 105.553 46.792C105.265 46.3227 104.886 45.9547 104.417 45.688C103.948 45.4213 103.42 45.288 102.833 45.288ZM119.125 45.368H115.861V53H115.061V45.368H111.796V44.648H119.125V45.368ZM127.567 49.016H120.383C120.404 49.6667 120.569 50.248 120.879 50.76C121.188 51.2613 121.604 51.6507 122.127 51.928C122.66 52.2053 123.257 52.344 123.919 52.344C124.463 52.344 124.964 52.248 125.423 52.056C125.892 51.8533 126.281 51.56 126.591 51.176L127.055 51.704C126.692 52.1413 126.233 52.4773 125.679 52.712C125.135 52.9467 124.543 53.064 123.903 53.064C123.071 53.064 122.329 52.8827 121.679 52.52C121.028 52.1573 120.516 51.656 120.143 51.016C119.78 50.376 119.599 49.6453 119.599 48.824C119.599 48.0133 119.769 47.288 120.111 46.648C120.463 45.9973 120.943 45.4907 121.551 45.128C122.159 44.7653 122.841 44.584 123.599 44.584C124.356 44.584 125.033 44.7653 125.631 45.128C126.239 45.48 126.713 45.976 127.055 46.616C127.407 47.256 127.583 47.9813 127.583 48.792L127.567 49.016ZM123.599 45.288C123.012 45.288 122.484 45.4213 122.015 45.688C121.545 45.944 121.167 46.312 120.879 46.792C120.601 47.2613 120.441 47.7947 120.399 48.392H126.799C126.767 47.7947 126.607 47.2613 126.319 46.792C126.031 46.3227 125.652 45.9547 125.183 45.688C124.713 45.4213 124.185 45.288 123.599 45.288ZM136.522 44.648V53H135.722V45.368H131.37L131.258 47.592C131.194 48.744 131.098 49.7093 130.97 50.488C130.842 51.2667 130.623 51.896 130.314 52.376C130.004 52.856 129.578 53.096 129.034 53.096C128.874 53.096 128.644 53.0587 128.346 52.984L128.426 52.296C128.596 52.3387 128.724 52.36 128.81 52.36C129.258 52.36 129.599 52.1413 129.834 51.704C130.068 51.2667 130.228 50.7227 130.314 50.072C130.399 49.4213 130.468 48.5733 130.522 47.528L130.666 44.648H136.522ZM143.306 53.064C142.517 53.064 141.802 52.8827 141.162 52.52C140.533 52.1573 140.037 51.656 139.674 51.016C139.311 50.3653 139.13 49.6347 139.13 48.824C139.13 48.0133 139.311 47.288 139.674 46.648C140.037 45.9973 140.533 45.4907 141.162 45.128C141.802 44.7653 142.517 44.584 143.306 44.584C144.095 44.584 144.805 44.7653 145.434 45.128C146.074 45.4907 146.575 45.9973 146.938 46.648C147.301 47.288 147.482 48.0133 147.482 48.824C147.482 49.6347 147.301 50.3653 146.938 51.016C146.575 51.656 146.074 52.1573 145.434 52.52C144.805 52.8827 144.095 53.064 143.306 53.064ZM143.306 52.344C143.946 52.344 144.517 52.1947 145.018 51.896C145.53 51.5973 145.93 51.1813 146.218 50.648C146.517 50.1147 146.666 49.5067 146.666 48.824C146.666 48.1413 146.517 47.5333 146.218 47C145.93 46.4667 145.53 46.0507 145.018 45.752C144.517 45.4533 143.946 45.304 143.306 45.304C142.666 45.304 142.09 45.4533 141.578 45.752C141.077 46.0507 140.677 46.4667 140.378 47C140.09 47.5333 139.946 48.1413 139.946 48.824C139.946 49.5067 140.09 50.1147 140.378 50.648C140.677 51.1813 141.077 51.5973 141.578 51.896C142.09 52.1947 142.666 52.344 143.306 52.344ZM149.959 45.944C149.778 45.944 149.618 45.88 149.479 45.752C149.351 45.6133 149.287 45.448 149.287 45.256C149.287 45.064 149.351 44.904 149.479 44.776C149.618 44.648 149.778 44.584 149.959 44.584C150.141 44.584 150.295 44.648 150.423 44.776C150.562 44.904 150.631 45.064 150.631 45.256C150.631 45.448 150.562 45.6133 150.423 45.752C150.295 45.88 150.141 45.944 149.959 45.944ZM149.959 53.064C149.778 53.064 149.618 53 149.479 52.872C149.351 52.7333 149.287 52.568 149.287 52.376C149.287 52.184 149.351 52.024 149.479 51.896C149.618 51.768 149.778 51.704 149.959 51.704C150.141 51.704 150.295 51.768 150.423 51.896C150.562 52.024 150.631 52.184 150.631 52.376C150.631 52.568 150.562 52.7333 150.423 52.872C150.295 53 150.141 53.064 149.959 53.064ZM162.488 53.08C161.389 53.08 160.397 52.8347 159.512 52.344C158.637 51.8533 157.944 51.176 157.432 50.312C156.931 49.448 156.68 48.4773 156.68 47.4C156.68 46.3227 156.931 45.352 157.432 44.488C157.944 43.624 158.637 42.9467 159.512 42.456C160.397 41.9653 161.389 41.72 162.488 41.72C163.299 41.72 164.045 41.8533 164.728 42.12C165.411 42.376 165.992 42.76 166.472 43.272L165.96 43.8C165.064 42.9147 163.917 42.472 162.52 42.472C161.581 42.472 160.728 42.6853 159.96 43.112C159.192 43.5387 158.589 44.1307 158.152 44.888C157.715 45.6347 157.496 46.472 157.496 47.4C157.496 48.328 157.715 49.1707 158.152 49.928C158.589 50.6747 159.192 51.2613 159.96 51.688C160.728 52.1147 161.581 52.328 162.52 52.328C163.907 52.328 165.053 51.88 165.96 50.984L166.472 51.512C165.992 52.024 165.405 52.4133 164.712 52.68C164.029 52.9467 163.288 53.08 162.488 53.08ZM173.675 53.08C172.577 53.08 171.585 52.8347 170.699 52.344C169.825 51.8533 169.131 51.176 168.619 50.312C168.118 49.448 167.867 48.4773 167.867 47.4C167.867 46.3227 168.118 45.352 168.619 44.488C169.131 43.624 169.825 42.9467 170.699 42.456C171.585 41.9653 172.577 41.72 173.675 41.72C174.486 41.72 175.233 41.8533 175.915 42.12C176.598 42.376 177.179 42.76 177.659 43.272L177.147 43.8C176.251 42.9147 175.105 42.472 173.707 42.472C172.769 42.472 171.915 42.6853 171.147 43.112C170.379 43.5387 169.777 44.1307 169.339 44.888C168.902 45.6347 168.683 46.472 168.683 47.4C168.683 48.328 168.902 49.1707 169.339 49.928C169.777 50.6747 170.379 51.2613 171.147 51.688C171.915 52.1147 172.769 52.328 173.707 52.328C175.094 52.328 176.241 51.88 177.147 50.984L177.659 51.512C177.179 52.024 176.593 52.4133 175.899 52.68C175.217 52.9467 174.475 53.08 173.675 53.08ZM186.007 46.488C187.639 46.488 188.823 46.776 189.559 47.352C190.295 47.9173 190.663 48.7227 190.663 49.768C190.663 50.408 190.513 50.9787 190.215 51.48C189.927 51.9707 189.489 52.36 188.903 52.648C188.316 52.936 187.596 53.08 186.743 53.08C185.932 53.08 185.169 52.9413 184.455 52.664C183.751 52.3867 183.201 52.024 182.807 51.576L183.223 50.952C183.575 51.3573 184.06 51.688 184.679 51.944C185.308 52.2 185.991 52.328 186.727 52.328C187.729 52.328 188.497 52.0987 189.031 51.64C189.575 51.1813 189.847 50.568 189.847 49.8C189.847 48.9573 189.537 48.3173 188.919 47.88C188.311 47.4427 187.281 47.224 185.831 47.224H183.559L184.151 41.8H190.087V42.536H184.839L184.407 46.488H186.007ZM196.673 46.376C197.409 46.376 198.059 46.5147 198.625 46.792C199.201 47.0587 199.643 47.448 199.953 47.96C200.262 48.4613 200.417 49.0427 200.417 49.704C200.417 50.376 200.257 50.968 199.937 51.48C199.617 51.992 199.174 52.3867 198.609 52.664C198.043 52.9413 197.403 53.08 196.689 53.08C195.238 53.08 194.123 52.5893 193.345 51.608C192.577 50.616 192.193 49.2347 192.193 47.464C192.193 46.2267 192.395 45.1813 192.801 44.328C193.217 43.464 193.798 42.8133 194.545 42.376C195.291 41.9387 196.166 41.72 197.169 41.72C198.225 41.72 199.073 41.912 199.713 42.296L199.377 42.952C198.843 42.6107 198.107 42.44 197.169 42.44C195.878 42.44 194.859 42.8613 194.113 43.704C193.377 44.536 193.009 45.7467 193.009 47.336C193.009 47.8267 193.041 48.2747 193.105 48.68C193.329 47.9547 193.761 47.3893 194.401 46.984C195.051 46.5787 195.809 46.376 196.673 46.376ZM196.657 52.376C197.531 52.376 198.241 52.136 198.785 51.656C199.329 51.1653 199.601 50.52 199.601 49.72C199.601 48.92 199.329 48.28 198.785 47.8C198.241 47.32 197.499 47.08 196.561 47.08C195.963 47.08 195.425 47.1973 194.945 47.432C194.475 47.6667 194.107 47.9867 193.841 48.392C193.585 48.7973 193.457 49.2507 193.457 49.752C193.457 50.2 193.579 50.6267 193.825 51.032C194.081 51.4373 194.449 51.7627 194.929 52.008C195.409 52.2533 195.985 52.376 196.657 52.376ZM30.1716 67.24C31.0036 67.3787 31.6276 67.6827 32.0436 68.152C32.4702 68.6213 32.6836 69.2453 32.6836 70.024C32.6836 70.984 32.3476 71.72 31.6756 72.232C31.0036 72.744 30.0062 73 28.6836 73H23.8676V61.8H28.3796C29.5529 61.8 30.4649 62.0453 31.1156 62.536C31.7769 63.0267 32.1076 63.7307 32.1076 64.648C32.1076 65.2987 31.9369 65.8427 31.5956 66.28C31.2542 66.7173 30.7796 67.0373 30.1716 67.24ZM24.6836 66.984H28.3636C29.3022 66.984 30.0222 66.792 30.5236 66.408C31.0249 66.024 31.2756 65.4693 31.2756 64.744C31.2756 64.008 31.0249 63.448 30.5236 63.064C30.0222 62.68 29.3022 62.488 28.3636 62.488H24.6836V66.984ZM28.6996 72.312C30.8116 72.312 31.8676 71.5333 31.8676 69.976C31.8676 69.176 31.6009 68.5893 31.0676 68.216C30.5342 67.8427 29.7449 67.656 28.6996 67.656H24.6836V72.312H28.6996ZM39.7876 64.584C40.5662 64.584 41.2702 64.7653 41.8996 65.128C42.5289 65.4907 43.0196 65.992 43.3716 66.632C43.7342 67.272 43.9156 68.0027 43.9156 68.824C43.9156 69.6453 43.7342 70.3813 43.3716 71.032C43.0196 71.672 42.5289 72.1733 41.8996 72.536C41.2702 72.888 40.5662 73.064 39.7876 73.064C39.0516 73.064 38.3849 72.8933 37.7876 72.552C37.1902 72.2 36.7262 71.7147 36.3956 71.096V76.104H35.5956V64.648H36.3636V66.616C36.6942 65.976 37.1582 65.48 37.7556 65.128C38.3636 64.7653 39.0409 64.584 39.7876 64.584ZM39.7396 72.344C40.3796 72.344 40.9556 72.1947 41.4676 71.896C41.9796 71.5973 42.3796 71.1813 42.6676 70.648C42.9662 70.1147 43.1156 69.5067 43.1156 68.824C43.1156 68.1413 42.9662 67.5333 42.6676 67C42.3796 66.4667 41.9796 66.0507 41.4676 65.752C40.9556 65.4533 40.3796 65.304 39.7396 65.304C39.0996 65.304 38.5236 65.4533 38.0116 65.752C37.5102 66.0507 37.1102 66.4667 36.8116 67C36.5236 67.5333 36.3796 68.1413 36.3796 68.824C36.3796 69.5067 36.5236 70.1147 36.8116 70.648C37.1102 71.1813 37.5102 71.5973 38.0116 71.896C38.5236 72.1947 39.0996 72.344 39.7396 72.344ZM53.6371 69.016H46.4531C46.4744 69.6667 46.6397 70.248 46.9491 70.76C47.2584 71.2613 47.6744 71.6507 48.1971 71.928C48.7304 72.2053 49.3277 72.344 49.9891 72.344C50.5331 72.344 51.0344 72.248 51.4931 72.056C51.9624 71.8533 52.3517 71.56 52.6611 71.176L53.1251 71.704C52.7624 72.1413 52.3037 72.4773 51.7491 72.712C51.2051 72.9467 50.6131 73.064 49.9731 73.064C49.1411 73.064 48.3997 72.8827 47.7491 72.52C47.0984 72.1573 46.5864 71.656 46.2131 71.016C45.8504 70.376 45.6691 69.6453 45.6691 68.824C45.6691 68.0133 45.8397 67.288 46.1811 66.648C46.5331 65.9973 47.0131 65.4907 47.6211 65.128C48.2291 64.7653 48.9117 64.584 49.6691 64.584C50.4264 64.584 51.1037 64.7653 51.7011 65.128C52.3091 65.48 52.7837 65.976 53.1251 66.616C53.4771 67.256 53.6531 67.9813 53.6531 68.792L53.6371 69.016ZM49.6691 65.288C49.0824 65.288 48.5544 65.4213 48.0851 65.688C47.6157 65.944 47.2371 66.312 46.9491 66.792C46.6717 67.2613 46.5117 67.7947 46.4691 68.392H52.8691C52.8371 67.7947 52.6771 67.2613 52.3891 66.792C52.1011 66.3227 51.7224 65.9547 51.2531 65.688C50.7837 65.4213 50.2557 65.288 49.6691 65.288ZM65.3551 64.648V73H64.6191V65.928L60.9871 71.928H60.6191L57.0031 65.944V73H56.2671V64.648H57.0511L60.8271 70.968L64.6191 64.648H65.3551ZM74.9739 64.648V73H74.2379V70.12H71.4539C71.2619 70.12 71.1233 70.1147 71.0379 70.104L68.9739 73H68.0939L70.2539 70.008C69.5713 69.8587 69.0486 69.5653 68.6859 69.128C68.3233 68.6907 68.1419 68.1253 68.1419 67.432C68.1419 66.5147 68.4459 65.8213 69.0539 65.352C69.6726 64.8827 70.5153 64.648 71.5819 64.648H74.9739ZM68.9419 67.464C68.9419 68.8293 69.8059 69.512 71.5339 69.512H74.2379V65.352H71.6299C69.8379 65.352 68.9419 66.056 68.9419 67.464ZM89.8287 64.648V73H89.0287V65.368H83.3327V73H82.5327V64.648H89.8287ZM97.4907 64.584C98.2694 64.584 98.9734 64.7653 99.6027 65.128C100.232 65.4907 100.723 65.992 101.075 66.632C101.437 67.272 101.619 68.0027 101.619 68.824C101.619 69.6453 101.437 70.3813 101.075 71.032C100.723 71.672 100.232 72.1733 99.6027 72.536C98.9734 72.888 98.2694 73.064 97.4907 73.064C96.7547 73.064 96.088 72.8933 95.4907 72.552C94.8934 72.2 94.4294 71.7147 94.0987 71.096V76.104H93.2987V64.648H94.0667V66.616C94.3974 65.976 94.8614 65.48 95.4587 65.128C96.0667 64.7653 96.744 64.584 97.4907 64.584ZM97.4427 72.344C98.0827 72.344 98.6587 72.1947 99.1707 71.896C99.6827 71.5973 100.083 71.1813 100.371 70.648C100.669 70.1147 100.819 69.5067 100.819 68.824C100.819 68.1413 100.669 67.5333 100.371 67C100.083 66.4667 99.6827 66.0507 99.1707 65.752C98.6587 65.4533 98.0827 65.304 97.4427 65.304C96.8027 65.304 96.2267 65.4533 95.7147 65.752C95.2134 66.0507 94.8134 66.4667 94.5147 67C94.2267 67.5333 94.0827 68.1413 94.0827 68.824C94.0827 69.5067 94.2267 70.1147 94.5147 70.648C94.8134 71.1813 95.2134 71.5973 95.7147 71.896C96.2267 72.1947 96.8027 72.344 97.4427 72.344ZM107.548 73.064C106.759 73.064 106.044 72.8827 105.404 72.52C104.775 72.1573 104.279 71.656 103.916 71.016C103.554 70.3653 103.372 69.6347 103.372 68.824C103.372 68.0133 103.554 67.288 103.916 66.648C104.279 65.9973 104.775 65.4907 105.404 65.128C106.044 64.7653 106.759 64.584 107.548 64.584C108.338 64.584 109.047 64.7653 109.676 65.128C110.316 65.4907 110.818 65.9973 111.18 66.648C111.543 67.288 111.724 68.0133 111.724 68.824C111.724 69.6347 111.543 70.3653 111.18 71.016C110.818 71.656 110.316 72.1573 109.676 72.52C109.047 72.8827 108.338 73.064 107.548 73.064ZM107.548 72.344C108.188 72.344 108.759 72.1947 109.26 71.896C109.772 71.5973 110.172 71.1813 110.46 70.648C110.759 70.1147 110.908 69.5067 110.908 68.824C110.908 68.1413 110.759 67.5333 110.46 67C110.172 66.4667 109.772 66.0507 109.26 65.752C108.759 65.4533 108.188 65.304 107.548 65.304C106.908 65.304 106.332 65.4533 105.82 65.752C105.319 66.0507 104.919 66.4667 104.62 67C104.332 67.5333 104.188 68.1413 104.188 68.824C104.188 69.5067 104.332 70.1147 104.62 70.648C104.919 71.1813 105.319 71.5973 105.82 71.896C106.332 72.1947 106.908 72.344 107.548 72.344ZM120.826 64.648V73H120.026V65.368H115.674L115.562 67.592C115.498 68.744 115.402 69.7093 115.274 70.488C115.146 71.2667 114.928 71.896 114.618 72.376C114.309 72.856 113.882 73.096 113.338 73.096C113.178 73.096 112.949 73.0587 112.65 72.984L112.73 72.296C112.901 72.3387 113.029 72.36 113.114 72.36C113.562 72.36 113.904 72.1413 114.138 71.704C114.373 71.2667 114.533 70.7227 114.618 70.072C114.704 69.4213 114.773 68.5733 114.826 67.528L114.97 64.648H120.826ZM131.403 69.016H124.219C124.24 69.6667 124.405 70.248 124.715 70.76C125.024 71.2613 125.44 71.6507 125.963 71.928C126.496 72.2053 127.093 72.344 127.755 72.344C128.299 72.344 128.8 72.248 129.259 72.056C129.728 71.8533 130.117 71.56 130.427 71.176L130.891 71.704C130.528 72.1413 130.069 72.4773 129.515 72.712C128.971 72.9467 128.379 73.064 127.739 73.064C126.907 73.064 126.165 72.8827 125.515 72.52C124.864 72.1573 124.352 71.656 123.979 71.016C123.616 70.376 123.435 69.6453 123.435 68.824C123.435 68.0133 123.605 67.288 123.947 66.648C124.299 65.9973 124.779 65.4907 125.387 65.128C125.995 64.7653 126.677 64.584 127.435 64.584C128.192 64.584 128.869 64.7653 129.467 65.128C130.075 65.48 130.549 65.976 130.891 66.616C131.243 67.256 131.419 67.9813 131.419 68.792L131.403 69.016ZM127.435 65.288C126.848 65.288 126.32 65.4213 125.851 65.688C125.381 65.944 125.003 66.312 124.715 66.792C124.437 67.2613 124.277 67.7947 124.235 68.392H130.635C130.603 67.7947 130.443 67.2613 130.155 66.792C129.867 66.3227 129.488 65.9547 129.019 65.688C128.549 65.4213 128.021 65.288 127.435 65.288ZM126.059 62.856C125.899 62.856 125.76 62.8027 125.643 62.696C125.536 62.5787 125.483 62.44 125.483 62.28C125.483 62.1093 125.536 61.9707 125.643 61.864C125.76 61.7573 125.899 61.704 126.059 61.704C126.219 61.704 126.352 61.7627 126.459 61.88C126.576 61.9867 126.635 62.12 126.635 62.28C126.635 62.44 126.576 62.5787 126.459 62.696C126.341 62.8027 126.208 62.856 126.059 62.856ZM128.811 62.856C128.661 62.856 128.528 62.8027 128.411 62.696C128.293 62.5787 128.235 62.44 128.235 62.28C128.235 62.12 128.288 61.9867 128.395 61.88C128.512 61.7627 128.651 61.704 128.811 61.704C128.971 61.704 129.104 61.7573 129.211 61.864C129.328 61.9707 129.387 62.1093 129.387 62.28C129.387 62.44 129.328 62.5787 129.211 62.696C129.104 62.8027 128.971 62.856 128.811 62.856ZM139.226 65.368H135.962V73H135.162V65.368H131.898V64.648H139.226V65.368ZM143.707 64.584C144.742 64.584 145.536 64.8507 146.091 65.384C146.646 65.9067 146.923 66.68 146.923 67.704V73H146.155V71.512C145.888 72.0027 145.499 72.3867 144.987 72.664C144.475 72.9307 143.862 73.064 143.147 73.064C142.219 73.064 141.483 72.8453 140.939 72.408C140.406 71.9707 140.139 71.3947 140.139 70.68C140.139 69.9867 140.384 69.4267 140.875 69C141.376 68.5627 142.171 68.344 143.259 68.344H146.123V67.672C146.123 66.8933 145.91 66.3013 145.483 65.896C145.067 65.4907 144.454 65.288 143.643 65.288C143.088 65.288 142.555 65.384 142.043 65.576C141.542 65.768 141.115 66.024 140.763 66.344L140.363 65.768C140.779 65.3947 141.28 65.1067 141.867 64.904C142.454 64.6907 143.067 64.584 143.707 64.584ZM143.259 72.408C143.952 72.408 144.539 72.248 145.019 71.928C145.51 71.608 145.878 71.144 146.123 70.536V68.968H143.275C142.454 68.968 141.856 69.1173 141.483 69.416C141.12 69.7147 140.939 70.1253 140.939 70.648C140.939 71.192 141.142 71.624 141.547 71.944C141.952 72.2533 142.523 72.408 143.259 72.408ZM150.045 65.944C149.864 65.944 149.704 65.88 149.565 65.752C149.437 65.6133 149.373 65.448 149.373 65.256C149.373 65.064 149.437 64.904 149.565 64.776C149.704 64.648 149.864 64.584 150.045 64.584C150.227 64.584 150.381 64.648 150.509 64.776C150.648 64.904 150.717 65.064 150.717 65.256C150.717 65.448 150.648 65.6133 150.509 65.752C150.381 65.88 150.227 65.944 150.045 65.944ZM150.045 73.064C149.864 73.064 149.704 73 149.565 72.872C149.437 72.7333 149.373 72.568 149.373 72.376C149.373 72.184 149.437 72.024 149.565 71.896C149.704 71.768 149.864 71.704 150.045 71.704C150.227 71.704 150.381 71.768 150.509 71.896C150.648 72.024 150.717 72.184 150.717 72.376C150.717 72.568 150.648 72.7333 150.509 72.872C150.381 73 150.227 73.064 150.045 73.064ZM162.638 67.144C163.406 67.3467 163.998 67.688 164.414 68.168C164.84 68.648 165.054 69.2347 165.054 69.928C165.054 70.9093 164.675 71.6827 163.918 72.248C163.16 72.8027 162.12 73.08 160.798 73.08C159.486 73.08 158.451 72.8027 157.694 72.248C156.947 71.6827 156.574 70.9093 156.574 69.928C156.574 69.224 156.776 68.6373 157.182 68.168C157.598 67.688 158.19 67.3467 158.958 67.144C158.318 66.9307 157.827 66.6107 157.486 66.184C157.144 65.7573 156.974 65.2347 156.974 64.616C156.974 63.72 157.32 63.016 158.014 62.504C158.707 61.9813 159.635 61.72 160.798 61.72C161.96 61.72 162.894 61.9813 163.598 62.504C164.302 63.0267 164.654 63.7307 164.654 64.616C164.654 65.224 164.478 65.7467 164.126 66.184C163.784 66.6107 163.288 66.9307 162.638 67.144ZM157.79 64.632C157.79 65.304 158.051 65.8373 158.574 66.232C159.107 66.6267 159.848 66.824 160.798 66.824C161.747 66.824 162.488 66.632 163.022 66.248C163.566 65.8533 163.838 65.32 163.838 64.648C163.838 63.9653 163.56 63.4267 163.006 63.032C162.462 62.6267 161.726 62.424 160.798 62.424C159.87 62.424 159.134 62.6213 158.59 63.016C158.056 63.4107 157.79 63.9493 157.79 64.632ZM160.798 72.376C161.875 72.376 162.718 72.1573 163.326 71.72C163.934 71.2827 164.238 70.6853 164.238 69.928C164.238 69.1813 163.934 68.5893 163.326 68.152C162.718 67.7147 161.875 67.496 160.798 67.496C159.731 67.496 158.894 67.7147 158.286 68.152C157.688 68.5893 157.39 69.1813 157.39 69.928C157.39 70.6853 157.688 71.2827 158.286 71.72C158.883 72.1573 159.72 72.376 160.798 72.376ZM180.793 64.648V73H180.057V65.928L176.425 71.928H176.057L172.441 65.944V73H171.705V64.648H172.489L176.265 70.968L180.057 64.648H180.793ZM184.251 64.648H185.051V71.768L191.003 64.648H191.707V73H190.907V65.88L184.955 73H184.251V64.648ZM195.158 64.648H195.958V68.456H201.622V64.648H202.422V73H201.622V69.16H195.958V73H195.158V64.648Z" fill="white"/>
</svg>
