<svg width="226" height="97" viewBox="0 0 226 97" fill="none" xmlns="http://www.w3.org/2000/svg">
<path d="M226 48.4997C226 88.367 210.534 97 116.531 97C22.5289 97 0 88.367 0 48.4997C0 8.63249 22.5289 0 116.531 0C210.534 0 226 8.63249 226 48.4997Z" fill="#0C0C0C"/>
<path d="M71.6296 31.224C72.4082 31.384 73.0002 31.6987 73.4056 32.168C73.8109 32.6267 74.0136 33.2293 74.0136 33.976C74.0136 34.9467 73.6669 35.6933 72.9736 36.216C72.2909 36.7387 71.2829 37 69.9496 37H64.9896V25.8H69.6456C70.8402 25.8 71.7736 26.0453 72.4456 26.536C73.1176 27.0267 73.4536 27.736 73.4536 28.664C73.4536 29.2933 73.2936 29.8267 72.9736 30.264C72.6536 30.6907 72.2056 31.0107 71.6296 31.224ZM66.1576 30.872H69.5816C70.4456 30.872 71.1069 30.696 71.5656 30.344C72.0349 29.992 72.2696 29.48 72.2696 28.808C72.2696 28.136 72.0349 27.624 71.5656 27.272C71.1069 26.92 70.4456 26.744 69.5816 26.744H66.1576V30.872ZM69.9496 36.056C71.8802 36.056 72.8456 35.336 72.8456 33.896C72.8456 32.488 71.8802 31.784 69.9496 31.784H66.1576V36.056H69.9496ZM80.1739 37.08C79.3633 37.08 78.6326 36.8987 77.9819 36.536C77.3313 36.1627 76.8193 35.6507 76.4459 35C76.0726 34.3493 75.8859 33.6133 75.8859 32.792C75.8859 31.9707 76.0726 31.2347 76.4459 30.584C76.8193 29.9333 77.3313 29.4267 77.9819 29.064C78.6326 28.7013 79.3633 28.52 80.1739 28.52C80.9846 28.52 81.7153 28.7013 82.3659 29.064C83.0166 29.4267 83.5233 29.9333 83.8859 30.584C84.2593 31.2347 84.4459 31.9707 84.4459 32.792C84.4459 33.6133 84.2593 34.3493 83.8859 35C83.5233 35.6507 83.0166 36.1627 82.3659 36.536C81.7153 36.8987 80.9846 37.08 80.1739 37.08ZM80.1739 36.072C80.7713 36.072 81.3046 35.9387 81.7739 35.672C82.2539 35.3947 82.6273 35.0053 82.8939 34.504C83.1606 34.0027 83.2939 33.432 83.2939 32.792C83.2939 32.152 83.1606 31.5813 82.8939 31.08C82.6273 30.5787 82.2539 30.1947 81.7739 29.928C81.3046 29.6507 80.7713 29.512 80.1739 29.512C79.5766 29.512 79.0379 29.6507 78.5579 29.928C78.0886 30.1947 77.7153 30.5787 77.4379 31.08C77.1713 31.5813 77.0379 32.152 77.0379 32.792C77.0379 33.432 77.1713 34.0027 77.4379 34.504C77.7153 35.0053 78.0886 35.3947 78.5579 35.672C79.0379 35.9387 79.5766 36.072 80.1739 36.072ZM90.3938 37.08C89.5618 37.08 88.8151 36.8987 88.1538 36.536C87.5031 36.1733 86.9911 35.6667 86.6178 35.016C86.2445 34.3547 86.0578 33.6133 86.0578 32.792C86.0578 31.9707 86.2445 31.2347 86.6178 30.584C86.9911 29.9333 87.5031 29.4267 88.1538 29.064C88.8151 28.7013 89.5618 28.52 90.3938 28.52C91.1191 28.52 91.7645 28.664 92.3298 28.952C92.9058 29.2293 93.3591 29.64 93.6898 30.184L92.8418 30.76C92.5645 30.344 92.2125 30.0347 91.7858 29.832C91.3591 29.6187 90.8951 29.512 90.3938 29.512C89.7858 29.512 89.2365 29.6507 88.7458 29.928C88.2658 30.1947 87.8871 30.5787 87.6098 31.08C87.3431 31.5813 87.2098 32.152 87.2098 32.792C87.2098 33.4427 87.3431 34.0187 87.6098 34.52C87.8871 35.0107 88.2658 35.3947 88.7458 35.672C89.2365 35.9387 89.7858 36.072 90.3938 36.072C90.8951 36.072 91.3591 35.9707 91.7858 35.768C92.2125 35.5653 92.5645 35.256 92.8418 34.84L93.6898 35.416C93.3591 35.96 92.9058 36.376 92.3298 36.664C91.7538 36.9413 91.1085 37.08 90.3938 37.08ZM98.9454 33.256H97.0254V37H95.8894V28.584H97.0254V32.28H98.9614L101.921 28.584H103.153L99.8414 32.664L103.393 37H102.049L98.9454 33.256ZM109.522 28.52C110.312 28.52 111.026 28.7013 111.666 29.064C112.306 29.416 112.808 29.9173 113.17 30.568C113.533 31.2187 113.714 31.96 113.714 32.792C113.714 33.6347 113.533 34.3813 113.17 35.032C112.808 35.6827 112.306 36.1893 111.666 36.552C111.037 36.904 110.322 37.08 109.522 37.08C108.84 37.08 108.221 36.9413 107.666 36.664C107.122 36.376 106.674 35.96 106.322 35.416V40.104H105.186V28.584H106.274V30.248C106.616 29.6933 107.064 29.2667 107.618 28.968C108.184 28.6693 108.818 28.52 109.522 28.52ZM109.442 36.072C110.029 36.072 110.562 35.9387 111.042 35.672C111.522 35.3947 111.896 35.0053 112.162 34.504C112.44 34.0027 112.578 33.432 112.578 32.792C112.578 32.152 112.44 31.5867 112.162 31.096C111.896 30.5947 111.522 30.2053 111.042 29.928C110.562 29.6507 110.029 29.512 109.442 29.512C108.845 29.512 108.306 29.6507 107.826 29.928C107.357 30.2053 106.984 30.5947 106.706 31.096C106.44 31.5867 106.306 32.152 106.306 32.792C106.306 33.432 106.44 34.0027 106.706 34.504C106.984 35.0053 107.357 35.3947 107.826 35.672C108.306 35.9387 108.845 36.072 109.442 36.072ZM123.515 33.144H116.475C116.539 34.0187 116.875 34.728 117.483 35.272C118.091 35.8053 118.859 36.072 119.787 36.072C120.31 36.072 120.79 35.9813 121.227 35.8C121.664 35.608 122.043 35.3307 122.363 34.968L123.003 35.704C122.63 36.152 122.16 36.4933 121.595 36.728C121.04 36.9627 120.427 37.08 119.755 37.08C118.891 37.08 118.123 36.8987 117.451 36.536C116.79 36.1627 116.272 35.6507 115.899 35C115.526 34.3493 115.339 33.6133 115.339 32.792C115.339 31.9707 115.515 31.2347 115.867 30.584C116.23 29.9333 116.72 29.4267 117.339 29.064C117.968 28.7013 118.672 28.52 119.451 28.52C120.23 28.52 120.928 28.7013 121.547 29.064C122.166 29.4267 122.651 29.9333 123.003 30.584C123.355 31.224 123.531 31.96 123.531 32.792L123.515 33.144ZM119.451 29.496C118.64 29.496 117.958 29.7573 117.403 30.28C116.859 30.792 116.55 31.464 116.475 32.296H122.443C122.368 31.464 122.054 30.792 121.499 30.28C120.955 29.7573 120.272 29.496 119.451 29.496ZM129.566 37.08C128.734 37.08 127.987 36.8987 127.326 36.536C126.675 36.1733 126.163 35.6667 125.79 35.016C125.416 34.3547 125.23 33.6133 125.23 32.792C125.23 31.9707 125.416 31.2347 125.79 30.584C126.163 29.9333 126.675 29.4267 127.326 29.064C127.987 28.7013 128.734 28.52 129.566 28.52C130.291 28.52 130.936 28.664 131.502 28.952C132.078 29.2293 132.531 29.64 132.862 30.184L132.014 30.76C131.736 30.344 131.384 30.0347 130.958 29.832C130.531 29.6187 130.067 29.512 129.566 29.512C128.958 29.512 128.408 29.6507 127.918 29.928C127.438 30.1947 127.059 30.5787 126.782 31.08C126.515 31.5813 126.382 32.152 126.382 32.792C126.382 33.4427 126.515 34.0187 126.782 34.52C127.059 35.0107 127.438 35.3947 127.918 35.672C128.408 35.9387 128.958 36.072 129.566 36.072C130.067 36.072 130.531 35.9707 130.958 35.768C131.384 35.5653 131.736 35.256 132.014 34.84L132.862 35.416C132.531 35.96 132.078 36.376 131.502 36.664C130.926 36.9413 130.28 37.08 129.566 37.08ZM142.281 33.144H135.241C135.305 34.0187 135.641 34.728 136.249 35.272C136.857 35.8053 137.625 36.072 138.553 36.072C139.075 36.072 139.555 35.9813 139.993 35.8C140.43 35.608 140.809 35.3307 141.129 34.968L141.769 35.704C141.395 36.152 140.926 36.4933 140.361 36.728C139.806 36.9627 139.193 37.08 138.521 37.08C137.657 37.08 136.889 36.8987 136.217 36.536C135.555 36.1627 135.038 35.6507 134.665 35C134.291 34.3493 134.105 33.6133 134.105 32.792C134.105 31.9707 134.281 31.2347 134.633 30.584C134.995 29.9333 135.486 29.4267 136.105 29.064C136.734 28.7013 137.438 28.52 138.217 28.52C138.995 28.52 139.694 28.7013 140.313 29.064C140.931 29.4267 141.417 29.9333 141.769 30.584C142.121 31.224 142.297 31.96 142.297 32.792L142.281 33.144ZM138.217 29.496C137.406 29.496 136.723 29.7573 136.169 30.28C135.625 30.792 135.315 31.464 135.241 32.296H141.209C141.134 31.464 140.819 30.792 140.265 30.28C139.721 29.7573 139.038 29.496 138.217 29.496ZM144.811 28.584H145.947V32.312H151.243V28.584H152.379V37H151.243V33.288H145.947V37H144.811V28.584ZM159.224 31.56C160.28 31.5707 161.08 31.8053 161.624 32.264C162.179 32.7227 162.456 33.384 162.456 34.248C162.456 35.144 162.158 35.832 161.56 36.312C160.974 36.792 160.12 37.0267 159 37.016L155.608 37V28.584H156.744V31.528L159.224 31.56ZM158.936 36.152C159.715 36.1627 160.302 36.008 160.696 35.688C161.102 35.3573 161.304 34.8773 161.304 34.248C161.304 33.6293 161.107 33.1707 160.712 32.872C160.318 32.5733 159.726 32.4187 158.936 32.408L156.744 32.376V36.12L158.936 36.152ZM171.984 33.144H164.944C165.008 34.0187 165.344 34.728 165.952 35.272C166.56 35.8053 167.328 36.072 168.256 36.072C168.778 36.072 169.258 35.9813 169.696 35.8C170.133 35.608 170.512 35.3307 170.832 34.968L171.472 35.704C171.098 36.152 170.629 36.4933 170.064 36.728C169.509 36.9627 168.896 37.08 168.224 37.08C167.36 37.08 166.592 36.8987 165.92 36.536C165.258 36.1627 164.741 35.6507 164.368 35C163.994 34.3493 163.808 33.6133 163.808 32.792C163.808 31.9707 163.984 31.2347 164.336 30.584C164.698 29.9333 165.189 29.4267 165.808 29.064C166.437 28.7013 167.141 28.52 167.92 28.52C168.698 28.52 169.397 28.7013 170.016 29.064C170.634 29.4267 171.12 29.9333 171.472 30.584C171.824 31.224 172 31.96 172 32.792L171.984 33.144ZM167.92 29.496C167.109 29.496 166.426 29.7573 165.872 30.28C165.328 30.792 165.018 31.464 164.944 32.296H170.912C170.837 31.464 170.522 30.792 169.968 30.28C169.424 29.7573 168.741 29.496 167.92 29.496ZM29.011 45.8V57H28.195V51.672H20.707V57H19.891V45.8H20.707V50.952H28.195V45.8H29.011ZM39.8793 53.016H32.6953C32.7166 53.6667 32.8819 54.248 33.1913 54.76C33.5006 55.2613 33.9166 55.6507 34.4393 55.928C34.9726 56.2053 35.5699 56.344 36.2313 56.344C36.7753 56.344 37.2766 56.248 37.7353 56.056C38.2046 55.8533 38.5939 55.56 38.9033 55.176L39.3673 55.704C39.0046 56.1413 38.5459 56.4773 37.9913 56.712C37.4473 56.9467 36.8553 57.064 36.2153 57.064C35.3833 57.064 34.6419 56.8827 33.9913 56.52C33.3406 56.1573 32.8286 55.656 32.4553 55.016C32.0926 54.376 31.9113 53.6453 31.9113 52.824C31.9113 52.0133 32.0819 51.288 32.4233 50.648C32.7753 49.9973 33.2553 49.4907 33.8633 49.128C34.4713 48.7653 35.1539 48.584 35.9113 48.584C36.6686 48.584 37.3459 48.7653 37.9433 49.128C38.5513 49.48 39.0259 49.976 39.3673 50.616C39.7193 51.256 39.8953 51.9813 39.8953 52.792L39.8793 53.016ZM35.9113 49.288C35.3246 49.288 34.7966 49.4213 34.3273 49.688C33.8579 49.944 33.4793 50.312 33.1913 50.792C32.9139 51.2613 32.7539 51.7947 32.7113 52.392H39.1112C39.0793 51.7947 38.9193 51.2613 38.6313 50.792C38.3433 50.3227 37.9646 49.9547 37.4953 49.688C37.0259 49.4213 36.4979 49.288 35.9113 49.288ZM46.3813 48.776C47.1599 48.776 47.8479 48.952 48.4453 49.304C49.0533 49.6453 49.5279 50.1253 49.8693 50.744C50.2106 51.3627 50.3813 52.0773 50.3813 52.888C50.3813 53.6987 50.2053 54.424 49.8533 55.064C49.5119 55.6933 49.0266 56.1893 48.3973 56.552C47.7786 56.904 47.0693 57.08 46.2693 57.08C45.3519 57.08 44.5679 56.856 43.9173 56.408C43.2773 55.96 42.7866 55.3253 42.4453 54.504C42.1146 53.6827 41.9493 52.7227 41.9493 51.624C41.9493 50.376 42.0986 49.3413 42.3973 48.52C42.7066 47.6987 43.1653 47.0533 43.7733 46.584C44.3919 46.104 45.1813 45.7467 46.1413 45.512L49.8373 44.616L49.9653 45.368L46.4453 46.2C45.5813 46.4027 44.8773 46.7013 44.3333 47.096C43.7999 47.48 43.3999 48.008 43.1332 48.68C42.8666 49.352 42.7279 50.2107 42.7173 51.256C42.9946 50.488 43.4586 49.8853 44.1093 49.448C44.7599 49 45.5173 48.776 46.3813 48.776ZM46.2853 56.392C46.9146 56.392 47.4799 56.2427 47.9813 55.944C48.4826 55.6453 48.8719 55.2347 49.1493 54.712C49.4266 54.1787 49.5653 53.576 49.5653 52.904C49.5653 52.232 49.4266 51.64 49.1493 51.128C48.8719 50.6053 48.4826 50.2053 47.9813 49.928C47.4906 49.64 46.9253 49.496 46.2853 49.496C45.6453 49.496 45.0746 49.64 44.5733 49.928C44.0719 50.2053 43.6826 50.6053 43.4053 51.128C43.1279 51.64 42.9893 52.232 42.9893 52.904C42.9893 53.576 43.1279 54.1787 43.4053 54.712C43.6826 55.2347 44.0719 55.6453 44.5733 55.944C45.0746 56.2427 45.6453 56.392 46.2853 56.392ZM60.1293 53.016H52.9453C52.9666 53.6667 53.1319 54.248 53.4413 54.76C53.7506 55.2613 54.1666 55.6507 54.6893 55.928C55.2226 56.2053 55.8199 56.344 56.4813 56.344C57.0253 56.344 57.5266 56.248 57.9853 56.056C58.4546 55.8533 58.8439 55.56 59.1533 55.176L59.6173 55.704C59.2546 56.1413 58.7959 56.4773 58.2413 56.712C57.6973 56.9467 57.1053 57.064 56.4653 57.064C55.6333 57.064 54.8919 56.8827 54.2413 56.52C53.5906 56.1573 53.0786 55.656 52.7053 55.016C52.3426 54.376 52.1613 53.6453 52.1613 52.824C52.1613 52.0133 52.3319 51.288 52.6733 50.648C53.0253 49.9973 53.5053 49.4907 54.1133 49.128C54.7213 48.7653 55.4039 48.584 56.1613 48.584C56.9186 48.584 57.5959 48.7653 58.1933 49.128C58.8013 49.48 59.2759 49.976 59.6173 50.616C59.9693 51.256 60.1453 51.9813 60.1453 52.792L60.1293 53.016ZM56.1613 49.288C55.5746 49.288 55.0466 49.4213 54.5773 49.688C54.1079 49.944 53.7293 50.312 53.4413 50.792C53.1639 51.2613 53.0039 51.7947 52.9613 52.392H59.3612C59.3293 51.7947 59.1693 51.2613 58.8813 50.792C58.5933 50.3227 58.2146 49.9547 57.7453 49.688C57.2759 49.4213 56.7479 49.288 56.1613 49.288ZM66.1353 57.064C65.3246 57.064 64.5993 56.8827 63.9593 56.52C63.3193 56.1573 62.8179 55.656 62.4553 55.016C62.0926 54.3653 61.9113 53.6347 61.9113 52.824C61.9113 52.0027 62.0926 51.272 62.4553 50.632C62.8179 49.9813 63.3193 49.48 63.9593 49.128C64.5993 48.7653 65.3246 48.584 66.1353 48.584C66.8073 48.584 67.4153 48.7173 67.9593 48.984C68.5139 49.24 68.9619 49.6187 69.3033 50.12L68.7113 50.552C68.4126 50.136 68.0393 49.8267 67.5913 49.624C67.1539 49.4107 66.6686 49.304 66.1353 49.304C65.4846 49.304 64.8979 49.4533 64.3753 49.752C63.8633 50.04 63.4579 50.4507 63.1593 50.984C62.8713 51.5173 62.7273 52.1307 62.7273 52.824C62.7273 53.5173 62.8713 54.1307 63.1593 54.664C63.4579 55.1973 63.8633 55.6133 64.3753 55.912C64.8979 56.2 65.4846 56.344 66.1353 56.344C66.6686 56.344 67.1539 56.2427 67.5913 56.04C68.0393 55.8267 68.4126 55.512 68.7113 55.096L69.3033 55.528C68.9619 56.0293 68.5139 56.4133 67.9593 56.68C67.4153 56.936 66.8073 57.064 66.1353 57.064ZM71.6655 48.648H72.4655V52.456H78.1295V48.648H78.9295V57H78.1295V53.16H72.4655V57H71.6655V48.648ZM85.7123 57.064C84.9229 57.064 84.2083 56.8827 83.5683 56.52C82.9389 56.1573 82.4429 55.656 82.0803 55.016C81.7176 54.3653 81.5363 53.6347 81.5363 52.824C81.5363 52.0133 81.7176 51.288 82.0803 50.648C82.4429 49.9973 82.9389 49.4907 83.5683 49.128C84.2083 48.7653 84.9229 48.584 85.7123 48.584C86.5016 48.584 87.2109 48.7653 87.8403 49.128C88.4803 49.4907 88.9816 49.9973 89.3443 50.648C89.7069 51.288 89.8883 52.0133 89.8883 52.824C89.8883 53.6347 89.7069 54.3653 89.3443 55.016C88.9816 55.656 88.4803 56.1573 87.8403 56.52C87.2109 56.8827 86.5016 57.064 85.7123 57.064ZM85.7123 56.344C86.3523 56.344 86.9229 56.1947 87.4243 55.896C87.9363 55.5973 88.3363 55.1813 88.6243 54.648C88.9229 54.1147 89.0723 53.5067 89.0723 52.824C89.0723 52.1413 88.9229 51.5333 88.6243 51C88.3363 50.4667 87.9363 50.0507 87.4243 49.752C86.9229 49.4533 86.3523 49.304 85.7123 49.304C85.0723 49.304 84.4963 49.4533 83.9843 49.752C83.4829 50.0507 83.0829 50.4667 82.7843 51C82.4963 51.5333 82.3523 52.1413 82.3523 52.824C82.3523 53.5067 82.4963 54.1147 82.7843 54.648C83.0829 55.1813 83.4829 55.5973 83.9843 55.896C84.4963 56.1947 85.0723 56.344 85.7123 56.344ZM99.6136 53.016H92.4296C92.451 53.6667 92.6163 54.248 92.9256 54.76C93.235 55.2613 93.651 55.6507 94.1736 55.928C94.707 56.2053 95.3043 56.344 95.9656 56.344C96.5096 56.344 97.011 56.248 97.4696 56.056C97.939 55.8533 98.3283 55.56 98.6376 55.176L99.1016 55.704C98.739 56.1413 98.2803 56.4773 97.7256 56.712C97.1816 56.9467 96.5896 57.064 95.9496 57.064C95.1176 57.064 94.3763 56.8827 93.7256 56.52C93.075 56.1573 92.563 55.656 92.1896 55.016C91.827 54.376 91.6456 53.6453 91.6456 52.824C91.6456 52.0133 91.8163 51.288 92.1576 50.648C92.5096 49.9973 92.9896 49.4907 93.5976 49.128C94.2056 48.7653 94.8883 48.584 95.6456 48.584C96.403 48.584 97.0803 48.7653 97.6776 49.128C98.2856 49.48 98.7603 49.976 99.1016 50.616C99.4536 51.256 99.6296 51.9813 99.6296 52.792L99.6136 53.016ZM95.6456 49.288C95.059 49.288 94.531 49.4213 94.0616 49.688C93.5923 49.944 93.2136 50.312 92.9256 50.792C92.6483 51.2613 92.4883 51.7947 92.4456 52.392H98.8456C98.8136 51.7947 98.6536 51.2613 98.3656 50.792C98.0776 50.3227 97.699 49.9547 97.2296 49.688C96.7603 49.4213 96.2323 49.288 95.6456 49.288ZM111.937 49.368H108.673V57H107.873V49.368H104.609V48.648H111.937V49.368ZM120.379 53.016H113.195C113.217 53.6667 113.382 54.248 113.691 54.76C114.001 55.2613 114.417 55.6507 114.939 55.928C115.473 56.2053 116.07 56.344 116.731 56.344C117.275 56.344 117.777 56.248 118.235 56.056C118.705 55.8533 119.094 55.56 119.403 55.176L119.867 55.704C119.505 56.1413 119.046 56.4773 118.491 56.712C117.947 56.9467 117.355 57.064 116.715 57.064C115.883 57.064 115.142 56.8827 114.491 56.52C113.841 56.1573 113.329 55.656 112.955 55.016C112.593 54.376 112.411 53.6453 112.411 52.824C112.411 52.0133 112.582 51.288 112.923 50.648C113.275 49.9973 113.755 49.4907 114.363 49.128C114.971 48.7653 115.654 48.584 116.411 48.584C117.169 48.584 117.846 48.7653 118.443 49.128C119.051 49.48 119.526 49.976 119.867 50.616C120.219 51.256 120.395 51.9813 120.395 52.792L120.379 53.016ZM116.411 49.288C115.825 49.288 115.297 49.4213 114.827 49.688C114.358 49.944 113.979 50.312 113.691 50.792C113.414 51.2613 113.254 51.7947 113.211 52.392H119.611C119.579 51.7947 119.419 51.2613 119.131 50.792C118.843 50.3227 118.465 49.9547 117.995 49.688C117.526 49.4213 116.998 49.288 116.411 49.288ZM129.334 48.648V57H128.534V49.368H124.182L124.07 51.592C124.006 52.744 123.91 53.7093 123.782 54.488C123.654 55.2667 123.435 55.896 123.126 56.376C122.817 56.856 122.39 57.096 121.846 57.096C121.686 57.096 121.457 57.0587 121.158 56.984L121.238 56.296C121.409 56.3387 121.537 56.36 121.622 56.36C122.07 56.36 122.411 56.1413 122.646 55.704C122.881 55.2667 123.041 54.7227 123.126 54.072C123.211 53.4213 123.281 52.5733 123.334 51.528L123.478 48.648H129.334ZM136.119 57.064C135.329 57.064 134.615 56.8827 133.975 56.52C133.345 56.1573 132.849 55.656 132.487 55.016C132.124 54.3653 131.943 53.6347 131.943 52.824C131.943 52.0133 132.124 51.288 132.487 50.648C132.849 49.9973 133.345 49.4907 133.975 49.128C134.615 48.7653 135.329 48.584 136.119 48.584C136.908 48.584 137.617 48.7653 138.247 49.128C138.887 49.4907 139.388 49.9973 139.751 50.648C140.113 51.288 140.295 52.0133 140.295 52.824C140.295 53.6347 140.113 54.3653 139.751 55.016C139.388 55.656 138.887 56.1573 138.247 56.52C137.617 56.8827 136.908 57.064 136.119 57.064ZM136.119 56.344C136.759 56.344 137.329 56.1947 137.831 55.896C138.343 55.5973 138.743 55.1813 139.031 54.648C139.329 54.1147 139.479 53.5067 139.479 52.824C139.479 52.1413 139.329 51.5333 139.031 51C138.743 50.4667 138.343 50.0507 137.831 49.752C137.329 49.4533 136.759 49.304 136.119 49.304C135.479 49.304 134.903 49.4533 134.391 49.752C133.889 50.0507 133.489 50.4667 133.191 51C132.903 51.5333 132.759 52.1413 132.759 52.824C132.759 53.5067 132.903 54.1147 133.191 54.648C133.489 55.1813 133.889 55.5973 134.391 55.896C134.903 56.1947 135.479 56.344 136.119 56.344ZM142.772 49.944C142.591 49.944 142.431 49.88 142.292 49.752C142.164 49.6133 142.1 49.448 142.1 49.256C142.1 49.064 142.164 48.904 142.292 48.776C142.431 48.648 142.591 48.584 142.772 48.584C142.953 48.584 143.108 48.648 143.236 48.776C143.375 48.904 143.444 49.064 143.444 49.256C143.444 49.448 143.375 49.6133 143.236 49.752C143.108 49.88 142.953 49.944 142.772 49.944ZM142.772 57.064C142.591 57.064 142.431 57 142.292 56.872C142.164 56.7333 142.1 56.568 142.1 56.376C142.1 56.184 142.164 56.024 142.292 55.896C142.431 55.768 142.591 55.704 142.772 55.704C142.953 55.704 143.108 55.768 143.236 55.896C143.375 56.024 143.444 56.184 143.444 56.376C143.444 56.568 143.375 56.7333 143.236 56.872C143.108 57 142.953 57.064 142.772 57.064ZM151.252 46.536V51.32H157.22V52.056H151.252V57H150.436V45.8H157.924V46.536H151.252ZM169.65 45.8V57H168.834V51.672H161.346V57H160.53V45.8H161.346V50.952H168.834V45.8H169.65ZM177.577 45.8C178.985 45.8 180.089 46.136 180.889 46.808C181.689 47.4693 182.089 48.392 182.089 49.576C182.089 50.7493 181.689 51.672 180.889 52.344C180.089 53.0053 178.985 53.336 177.577 53.336H174.377V57H173.561V45.8H177.577ZM177.577 52.6C178.772 52.6 179.684 52.3387 180.313 51.816C180.943 51.2933 181.257 50.5467 181.257 49.576C181.257 48.6053 180.943 47.8587 180.313 47.336C179.684 46.8027 178.772 46.536 177.577 46.536H174.377V52.6H177.577ZM195.108 51.752H192.068V54.712H191.348V51.752H188.308V51.064H191.348V48.088H192.068V51.064H195.108V51.752ZM211.447 45.8V57H210.631V51.672H203.143V57H202.327V45.8H203.143V50.952H210.631V45.8H211.447ZM215.358 45.8H216.174V57H215.358V45.8ZM31.1013 71.24C31.9333 71.3787 32.5573 71.6827 32.9733 72.152C33.3999 72.6213 33.6133 73.2453 33.6133 74.024C33.6133 74.984 33.2773 75.72 32.6053 76.232C31.9333 76.744 30.9359 77 29.6133 77H24.7973V65.8H29.3093C30.4826 65.8 31.3946 66.0453 32.0453 66.536C32.7066 67.0267 33.0373 67.7307 33.0373 68.648C33.0373 69.2987 32.8666 69.8427 32.5253 70.28C32.1839 70.7173 31.7093 71.0373 31.1013 71.24ZM25.6133 70.984H29.2933C30.2319 70.984 30.9519 70.792 31.4533 70.408C31.9546 70.024 32.2053 69.4693 32.2053 68.744C32.2053 68.008 31.9546 67.448 31.4533 67.064C30.9519 66.68 30.2319 66.488 29.2933 66.488H25.6133V70.984ZM29.6293 76.312C31.7413 76.312 32.7973 75.5333 32.7973 73.976C32.7973 73.176 32.5306 72.5893 31.9973 72.216C31.4639 71.8427 30.6746 71.656 29.6293 71.656H25.6133V76.312H29.6293ZM40.7173 68.584C41.4959 68.584 42.1999 68.7653 42.8293 69.128C43.4586 69.4907 43.9493 69.992 44.3013 70.632C44.6639 71.272 44.8453 72.0027 44.8453 72.824C44.8453 73.6453 44.6639 74.3813 44.3013 75.032C43.9493 75.672 43.4586 76.1733 42.8293 76.536C42.1999 76.888 41.4959 77.064 40.7173 77.064C39.9813 77.064 39.3146 76.8933 38.7173 76.552C38.1199 76.2 37.6559 75.7147 37.3253 75.096V80.104H36.5253V68.648H37.2933V70.616C37.6239 69.976 38.0879 69.48 38.6853 69.128C39.2933 68.7653 39.9706 68.584 40.7173 68.584ZM40.6693 76.344C41.3093 76.344 41.8853 76.1947 42.3973 75.896C42.9093 75.5973 43.3093 75.1813 43.5972 74.648C43.8959 74.1147 44.0453 73.5067 44.0453 72.824C44.0453 72.1413 43.8959 71.5333 43.5972 71C43.3093 70.4667 42.9093 70.0507 42.3973 69.752C41.8853 69.4533 41.3093 69.304 40.6693 69.304C40.0293 69.304 39.4533 69.4533 38.9413 69.752C38.4399 70.0507 38.0399 70.4667 37.7413 71C37.4533 71.5333 37.3093 72.1413 37.3093 72.824C37.3093 73.5067 37.4533 74.1147 37.7413 74.648C38.0399 75.1813 38.4399 75.5973 38.9413 75.896C39.4533 76.1947 40.0293 76.344 40.6693 76.344ZM54.5668 73.016H47.3828C47.4041 73.6667 47.5694 74.248 47.8788 74.76C48.1881 75.2613 48.6041 75.6507 49.1268 75.928C49.6601 76.2053 50.2574 76.344 50.9188 76.344C51.4628 76.344 51.9641 76.248 52.4228 76.056C52.8921 75.8533 53.2814 75.56 53.5908 75.176L54.0548 75.704C53.6921 76.1413 53.2334 76.4773 52.6788 76.712C52.1348 76.9467 51.5428 77.064 50.9028 77.064C50.0708 77.064 49.3294 76.8827 48.6788 76.52C48.0281 76.1573 47.5161 75.656 47.1428 75.016C46.7801 74.376 46.5988 73.6453 46.5988 72.824C46.5988 72.0133 46.7694 71.288 47.1108 70.648C47.4628 69.9973 47.9428 69.4907 48.5508 69.128C49.1588 68.7653 49.8414 68.584 50.5988 68.584C51.3561 68.584 52.0334 68.7653 52.6308 69.128C53.2388 69.48 53.7134 69.976 54.0548 70.616C54.4068 71.256 54.5828 71.9813 54.5828 72.792L54.5668 73.016ZM50.5988 69.288C50.0121 69.288 49.4841 69.4213 49.0148 69.688C48.5454 69.944 48.1668 70.312 47.8788 70.792C47.6014 71.2613 47.4414 71.7947 47.3988 72.392H53.7987C53.7668 71.7947 53.6068 71.2613 53.3188 70.792C53.0308 70.3227 52.6521 69.9547 52.1828 69.688C51.7134 69.4213 51.1854 69.288 50.5988 69.288ZM66.2848 68.648V77H65.5488V69.928L61.9168 75.928H61.5488L57.9328 69.944V77H57.1968V68.648H57.9808L61.7568 74.968L65.5488 68.648H66.2848ZM75.9036 68.648V77H75.1676V74.12H72.3836C72.1916 74.12 72.053 74.1147 71.9676 74.104L69.9036 77H69.0236L71.1836 74.008C70.501 73.8587 69.9783 73.5653 69.6156 73.128C69.253 72.6907 69.0716 72.1253 69.0716 71.432C69.0716 70.5147 69.3756 69.8213 69.9836 69.352C70.6023 68.8827 71.445 68.648 72.5116 68.648H75.9036ZM69.8716 71.464C69.8716 72.8293 70.7356 73.512 72.4636 73.512H75.1676V69.352H72.5596C70.7676 69.352 69.8716 70.056 69.8716 71.464ZM90.7584 68.648V77H89.9584V69.368H84.2624V77H83.4624V68.648H90.7584ZM98.4204 68.584C99.199 68.584 99.903 68.7653 100.532 69.128C101.162 69.4907 101.652 69.992 102.004 70.632C102.367 71.272 102.548 72.0027 102.548 72.824C102.548 73.6453 102.367 74.3813 102.004 75.032C101.652 75.672 101.162 76.1733 100.532 76.536C99.903 76.888 99.199 77.064 98.4204 77.064C97.6844 77.064 97.0177 76.8933 96.4204 76.552C95.823 76.2 95.359 75.7147 95.0284 75.096V80.104H94.2284V68.648H94.9964V70.616C95.327 69.976 95.791 69.48 96.3884 69.128C96.9964 68.7653 97.6737 68.584 98.4204 68.584ZM98.3724 76.344C99.0124 76.344 99.5884 76.1947 100.1 75.896C100.612 75.5973 101.012 75.1813 101.3 74.648C101.599 74.1147 101.748 73.5067 101.748 72.824C101.748 72.1413 101.599 71.5333 101.3 71C101.012 70.4667 100.612 70.0507 100.1 69.752C99.5884 69.4533 99.0124 69.304 98.3724 69.304C97.7324 69.304 97.1564 69.4533 96.6444 69.752C96.143 70.0507 95.743 70.4667 95.4444 71C95.1564 71.5333 95.0124 72.1413 95.0124 72.824C95.0124 73.5067 95.1564 74.1147 95.4444 74.648C95.743 75.1813 96.143 75.5973 96.6444 75.896C97.1564 76.1947 97.7324 76.344 98.3724 76.344ZM108.478 77.064C107.689 77.064 106.974 76.8827 106.334 76.52C105.705 76.1573 105.209 75.656 104.846 75.016C104.483 74.3653 104.302 73.6347 104.302 72.824C104.302 72.0133 104.483 71.288 104.846 70.648C105.209 69.9973 105.705 69.4907 106.334 69.128C106.974 68.7653 107.689 68.584 108.478 68.584C109.267 68.584 109.977 68.7653 110.606 69.128C111.246 69.4907 111.747 69.9973 112.11 70.648C112.473 71.288 112.654 72.0133 112.654 72.824C112.654 73.6347 112.473 74.3653 112.11 75.016C111.747 75.656 111.246 76.1573 110.606 76.52C109.977 76.8827 109.267 77.064 108.478 77.064ZM108.478 76.344C109.118 76.344 109.689 76.1947 110.19 75.896C110.702 75.5973 111.102 75.1813 111.39 74.648C111.689 74.1147 111.838 73.5067 111.838 72.824C111.838 72.1413 111.689 71.5333 111.39 71C111.102 70.4667 110.702 70.0507 110.19 69.752C109.689 69.4533 109.118 69.304 108.478 69.304C107.838 69.304 107.262 69.4533 106.75 69.752C106.249 70.0507 105.849 70.4667 105.55 71C105.262 71.5333 105.118 72.1413 105.118 72.824C105.118 73.5067 105.262 74.1147 105.55 74.648C105.849 75.1813 106.249 75.5973 106.75 75.896C107.262 76.1947 107.838 76.344 108.478 76.344ZM121.756 68.648V77H120.956V69.368H116.604L116.492 71.592C116.428 72.744 116.332 73.7093 116.204 74.488C116.076 75.2667 115.857 75.896 115.548 76.376C115.239 76.856 114.812 77.096 114.268 77.096C114.108 77.096 113.879 77.0587 113.58 76.984L113.66 76.296C113.831 76.3387 113.959 76.36 114.044 76.36C114.492 76.36 114.833 76.1413 115.068 75.704C115.303 75.2667 115.463 74.7227 115.548 74.072C115.633 73.4213 115.703 72.5733 115.756 71.528L115.9 68.648H121.756ZM132.332 73.016H125.148C125.17 73.6667 125.335 74.248 125.644 74.76C125.954 75.2613 126.37 75.6507 126.892 75.928C127.426 76.2053 128.023 76.344 128.684 76.344C129.228 76.344 129.73 76.248 130.188 76.056C130.658 75.8533 131.047 75.56 131.356 75.176L131.82 75.704C131.458 76.1413 130.999 76.4773 130.444 76.712C129.9 76.9467 129.308 77.064 128.668 77.064C127.836 77.064 127.095 76.8827 126.444 76.52C125.794 76.1573 125.282 75.656 124.908 75.016C124.546 74.376 124.364 73.6453 124.364 72.824C124.364 72.0133 124.535 71.288 124.876 70.648C125.228 69.9973 125.708 69.4907 126.316 69.128C126.924 68.7653 127.607 68.584 128.364 68.584C129.122 68.584 129.799 68.7653 130.396 69.128C131.004 69.48 131.479 69.976 131.82 70.616C132.172 71.256 132.348 71.9813 132.348 72.792L132.332 73.016ZM128.364 69.288C127.778 69.288 127.25 69.4213 126.78 69.688C126.311 69.944 125.932 70.312 125.644 70.792C125.367 71.2613 125.207 71.7947 125.164 72.392H131.564C131.532 71.7947 131.372 71.2613 131.084 70.792C130.796 70.3227 130.418 69.9547 129.948 69.688C129.479 69.4213 128.951 69.288 128.364 69.288ZM126.988 66.856C126.828 66.856 126.69 66.8027 126.572 66.696C126.466 66.5787 126.412 66.44 126.412 66.28C126.412 66.1093 126.466 65.9707 126.572 65.864C126.69 65.7573 126.828 65.704 126.988 65.704C127.148 65.704 127.282 65.7627 127.388 65.88C127.506 65.9867 127.564 66.12 127.564 66.28C127.564 66.44 127.506 66.5787 127.388 66.696C127.271 66.8027 127.138 66.856 126.988 66.856ZM129.74 66.856C129.591 66.856 129.458 66.8027 129.34 66.696C129.223 66.5787 129.164 66.44 129.164 66.28C129.164 66.12 129.218 65.9867 129.324 65.88C129.442 65.7627 129.58 65.704 129.74 65.704C129.9 65.704 130.034 65.7573 130.14 65.864C130.258 65.9707 130.316 66.1093 130.316 66.28C130.316 66.44 130.258 66.5787 130.14 66.696C130.034 66.8027 129.9 66.856 129.74 66.856ZM140.156 69.368H136.892V77H136.092V69.368H132.828V68.648H140.156V69.368ZM144.637 68.584C145.671 68.584 146.466 68.8507 147.021 69.384C147.575 69.9067 147.853 70.68 147.853 71.704V77H147.085V75.512C146.818 76.0027 146.429 76.3867 145.917 76.664C145.405 76.9307 144.791 77.064 144.077 77.064C143.149 77.064 142.413 76.8453 141.869 76.408C141.335 75.9707 141.069 75.3947 141.069 74.68C141.069 73.9867 141.314 73.4267 141.805 73C142.306 72.5627 143.101 72.344 144.189 72.344H147.053V71.672C147.053 70.8933 146.839 70.3013 146.413 69.896C145.997 69.4907 145.383 69.288 144.573 69.288C144.018 69.288 143.485 69.384 142.973 69.576C142.471 69.768 142.045 70.024 141.693 70.344L141.293 69.768C141.709 69.3947 142.21 69.1067 142.797 68.904C143.383 68.6907 143.997 68.584 144.637 68.584ZM144.189 76.408C144.882 76.408 145.469 76.248 145.949 75.928C146.439 75.608 146.807 75.144 147.053 74.536V72.968H144.205C143.383 72.968 142.786 73.1173 142.413 73.416C142.05 73.7147 141.869 74.1253 141.869 74.648C141.869 75.192 142.071 75.624 142.477 75.944C142.882 76.2533 143.453 76.408 144.189 76.408ZM150.975 69.944C150.794 69.944 150.634 69.88 150.495 69.752C150.367 69.6133 150.303 69.448 150.303 69.256C150.303 69.064 150.367 68.904 150.495 68.776C150.634 68.648 150.794 68.584 150.975 68.584C151.156 68.584 151.311 68.648 151.439 68.776C151.578 68.904 151.647 69.064 151.647 69.256C151.647 69.448 151.578 69.6133 151.439 69.752C151.311 69.88 151.156 69.944 150.975 69.944ZM150.975 77.064C150.794 77.064 150.634 77 150.495 76.872C150.367 76.7333 150.303 76.568 150.303 76.376C150.303 76.184 150.367 76.024 150.495 75.896C150.634 75.768 150.794 75.704 150.975 75.704C151.156 75.704 151.311 75.768 151.439 75.896C151.578 76.024 151.647 76.184 151.647 76.376C151.647 76.568 151.578 76.7333 151.439 76.872C151.311 77 151.156 77.064 150.975 77.064ZM165.04 76.264V77H157.344V76.424L162.08 71.72C162.698 71.1013 163.114 70.5733 163.328 70.136C163.552 69.688 163.664 69.2293 163.664 68.76C163.664 68.0453 163.418 67.4853 162.928 67.08C162.448 66.6747 161.749 66.472 160.832 66.472C160.128 66.472 159.509 66.5787 158.976 66.792C158.453 67.0053 158 67.3307 157.616 67.768L157.04 67.256C157.466 66.7653 158.005 66.3867 158.656 66.12C159.317 65.8533 160.064 65.72 160.896 65.72C161.994 65.72 162.869 65.9867 163.52 66.52C164.17 67.0533 164.496 67.7733 164.496 68.68C164.496 69.256 164.368 69.8053 164.112 70.328C163.856 70.8507 163.376 71.4587 162.672 72.152L158.544 76.264H165.04ZM174.217 65.8V66.376L169.401 77H168.505L173.273 66.536H166.985V68.68H166.185V65.8H174.217ZM189.863 68.648V77H189.127V69.928L185.495 75.928H185.127L181.511 69.944V77H180.775V68.648H181.559L185.335 74.968L189.127 68.648H189.863ZM193.322 68.648H194.122V75.768L200.074 68.648H200.778V77H199.978V69.88L194.026 77H193.322V68.648ZM204.228 68.648H205.028V72.456H210.692V68.648H211.492V77H210.692V73.16H205.028V77H204.228V68.648Z" fill="white"/>
</svg>
