<svg width="226" height="93" viewBox="0 0 226 93" fill="none" xmlns="http://www.w3.org/2000/svg">
<path d="M226 46.4998C226 84.723 210.534 93 116.531 93C22.5289 93 0 84.723 0 46.4998C0 8.27651 22.5289 0 116.531 0C210.534 0 226 8.27651 226 46.4998Z" fill="#0C0C0C"/>
<path d="M88.0386 15.8V27H86.8706V16.824H79.7826V27H78.6146V15.8H88.0386ZM98.0097 18.584V27H96.9697V24.216H94.3297H94.0097L92.0577 27H90.8257L92.9217 24.056C92.271 23.8747 91.7697 23.5653 91.4177 23.128C91.0657 22.6907 90.8897 22.136 90.8897 21.464C90.8897 20.5253 91.2097 19.8107 91.8497 19.32C92.4897 18.8293 93.3644 18.584 94.4737 18.584H98.0097ZM92.0417 21.496C92.0417 22.744 92.8364 23.368 94.4257 23.368H96.9697V19.592H94.5057C92.863 19.592 92.0417 20.2267 92.0417 21.496ZM107.169 19.592H103.985V27H102.849V19.592H99.6648V18.584H107.169V19.592ZM108.811 18.584H109.947V22.312H115.243V18.584H116.379V27H115.243V23.288H109.947V27H108.811V18.584ZM119.608 18.584H120.744V25.272L126.36 18.584H127.368V27H126.232V20.312L120.632 27H119.608V18.584ZM139.392 26.008V29.112H138.32V27H130.624V18.584H131.76V26.008H136.896V18.584H138.032V26.008H139.392ZM144.457 18.52C145.556 18.52 146.399 18.7973 146.985 19.352C147.572 19.896 147.865 20.7067 147.865 21.784V27H146.777V25.688C146.521 26.1253 146.143 26.4667 145.641 26.712C145.151 26.9573 144.564 27.08 143.881 27.08C142.943 27.08 142.196 26.856 141.641 26.408C141.087 25.96 140.809 25.368 140.809 24.632C140.809 23.9173 141.065 23.3413 141.577 22.904C142.1 22.4667 142.927 22.248 144.057 22.248H146.729V21.736C146.729 21.0107 146.527 20.4613 146.121 20.088C145.716 19.704 145.124 19.512 144.345 19.512C143.812 19.512 143.3 19.6027 142.809 19.784C142.319 19.9547 141.897 20.1947 141.545 20.504L141.033 19.656C141.46 19.2933 141.972 19.016 142.569 18.824C143.167 18.6213 143.796 18.52 144.457 18.52ZM144.057 26.184C144.697 26.184 145.247 26.04 145.705 25.752C146.164 25.4533 146.505 25.0267 146.729 24.472V23.096H144.089C142.649 23.096 141.929 23.5973 141.929 24.6C141.929 25.0907 142.116 25.48 142.489 25.768C142.863 26.0453 143.385 26.184 144.057 26.184ZM39.0501 35.8V47H38.2341V41.672H30.7461V47H29.9301V35.8H30.7461V40.952H38.2341V35.8H39.0501ZM49.9183 43.016H42.7343C42.7556 43.6667 42.921 44.248 43.2303 44.76C43.5396 45.2613 43.9556 45.6507 44.4783 45.928C45.0116 46.2053 45.609 46.344 46.2703 46.344C46.8143 46.344 47.3156 46.248 47.7743 46.056C48.2436 45.8533 48.633 45.56 48.9423 45.176L49.4063 45.704C49.0436 46.1413 48.585 46.4773 48.0303 46.712C47.4863 46.9467 46.8943 47.064 46.2543 47.064C45.4223 47.064 44.681 46.8827 44.0303 46.52C43.3796 46.1573 42.8676 45.656 42.4943 45.016C42.1316 44.376 41.9503 43.6453 41.9503 42.824C41.9503 42.0133 42.121 41.288 42.4623 40.648C42.8143 39.9973 43.2943 39.4907 43.9023 39.128C44.5103 38.7653 45.193 38.584 45.9503 38.584C46.7076 38.584 47.385 38.7653 47.9823 39.128C48.5903 39.48 49.065 39.976 49.4063 40.616C49.7583 41.256 49.9343 41.9813 49.9343 42.792L49.9183 43.016ZM45.9503 39.288C45.3636 39.288 44.8356 39.4213 44.3663 39.688C43.897 39.944 43.5183 40.312 43.2303 40.792C42.953 41.2613 42.793 41.7947 42.7503 42.392H49.1503C49.1183 41.7947 48.9583 41.2613 48.6703 40.792C48.3823 40.3227 48.0036 39.9547 47.5343 39.688C47.065 39.4213 46.537 39.288 45.9503 39.288ZM56.4203 38.776C57.199 38.776 57.887 38.952 58.4843 39.304C59.0923 39.6453 59.567 40.1253 59.9083 40.744C60.2496 41.3627 60.4203 42.0773 60.4203 42.888C60.4203 43.6987 60.2443 44.424 59.8923 45.064C59.551 45.6933 59.0656 46.1893 58.4363 46.552C57.8176 46.904 57.1083 47.08 56.3083 47.08C55.391 47.08 54.607 46.856 53.9563 46.408C53.3163 45.96 52.8256 45.3253 52.4843 44.504C52.1536 43.6827 51.9883 42.7227 51.9883 41.624C51.9883 40.376 52.1376 39.3413 52.4363 38.52C52.7456 37.6987 53.2043 37.0533 53.8123 36.584C54.431 36.104 55.2203 35.7467 56.1803 35.512L59.8763 34.616L60.0043 35.368L56.4843 36.2C55.6203 36.4027 54.9163 36.7013 54.3723 37.096C53.839 37.48 53.439 38.008 53.1723 38.68C52.9056 39.352 52.767 40.2107 52.7563 41.256C53.0336 40.488 53.4976 39.8853 54.1483 39.448C54.799 39 55.5563 38.776 56.4203 38.776ZM56.3243 46.392C56.9536 46.392 57.519 46.2427 58.0203 45.944C58.5216 45.6453 58.911 45.2347 59.1883 44.712C59.4656 44.1787 59.6043 43.576 59.6043 42.904C59.6043 42.232 59.4656 41.64 59.1883 41.128C58.911 40.6053 58.5216 40.2053 58.0203 39.928C57.5296 39.64 56.9643 39.496 56.3243 39.496C55.6843 39.496 55.1136 39.64 54.6123 39.928C54.111 40.2053 53.7216 40.6053 53.4443 41.128C53.167 41.64 53.0283 42.232 53.0283 42.904C53.0283 43.576 53.167 44.1787 53.4443 44.712C53.7216 45.2347 54.111 45.6453 54.6123 45.944C55.1136 46.2427 55.6843 46.392 56.3243 46.392ZM70.1683 43.016H62.9843C63.0056 43.6667 63.171 44.248 63.4803 44.76C63.7896 45.2613 64.2056 45.6507 64.7283 45.928C65.2616 46.2053 65.859 46.344 66.5203 46.344C67.0643 46.344 67.5656 46.248 68.0243 46.056C68.4936 45.8533 68.883 45.56 69.1923 45.176L69.6563 45.704C69.2936 46.1413 68.835 46.4773 68.2803 46.712C67.7363 46.9467 67.1443 47.064 66.5043 47.064C65.6723 47.064 64.931 46.8827 64.2803 46.52C63.6296 46.1573 63.1176 45.656 62.7443 45.016C62.3816 44.376 62.2003 43.6453 62.2003 42.824C62.2003 42.0133 62.371 41.288 62.7123 40.648C63.0643 39.9973 63.5443 39.4907 64.1523 39.128C64.7603 38.7653 65.443 38.584 66.2003 38.584C66.9576 38.584 67.635 38.7653 68.2323 39.128C68.8403 39.48 69.315 39.976 69.6563 40.616C70.0083 41.256 70.1843 41.9813 70.1843 42.792L70.1683 43.016ZM66.2003 39.288C65.6136 39.288 65.0856 39.4213 64.6163 39.688C64.147 39.944 63.7683 40.312 63.4803 40.792C63.203 41.2613 63.043 41.7947 63.0003 42.392H69.4003C69.3683 41.7947 69.2083 41.2613 68.9203 40.792C68.6323 40.3227 68.2536 39.9547 67.7843 39.688C67.315 39.4213 66.787 39.288 66.2003 39.288ZM76.1743 47.064C75.3636 47.064 74.6383 46.8827 73.9983 46.52C73.3583 46.1573 72.857 45.656 72.4943 45.016C72.1316 44.3653 71.9503 43.6347 71.9503 42.824C71.9503 42.0027 72.1316 41.272 72.4943 40.632C72.857 39.9813 73.3583 39.48 73.9983 39.128C74.6383 38.7653 75.3636 38.584 76.1743 38.584C76.8463 38.584 77.4543 38.7173 77.9983 38.984C78.553 39.24 79.001 39.6187 79.3423 40.12L78.7503 40.552C78.4516 40.136 78.0783 39.8267 77.6303 39.624C77.193 39.4107 76.7076 39.304 76.1743 39.304C75.5236 39.304 74.937 39.4533 74.4143 39.752C73.9023 40.04 73.497 40.4507 73.1983 40.984C72.9103 41.5173 72.7663 42.1307 72.7663 42.824C72.7663 43.5173 72.9103 44.1307 73.1983 44.664C73.497 45.1973 73.9023 45.6133 74.4143 45.912C74.937 46.2 75.5236 46.344 76.1743 46.344C76.7076 46.344 77.193 46.2427 77.6303 46.04C78.0783 45.8267 78.4516 45.512 78.7503 45.096L79.3423 45.528C79.001 46.0293 78.553 46.4133 77.9983 46.68C77.4543 46.936 76.8463 47.064 76.1743 47.064ZM81.7046 38.648H82.5046V42.456H88.1686V38.648H88.9686V47H88.1686V43.16H82.5046V47H81.7046V38.648ZM95.7513 47.064C94.962 47.064 94.2473 46.8827 93.6073 46.52C92.978 46.1573 92.482 45.656 92.1193 45.016C91.7566 44.3653 91.5753 43.6347 91.5753 42.824C91.5753 42.0133 91.7566 41.288 92.1193 40.648C92.482 39.9973 92.978 39.4907 93.6073 39.128C94.2473 38.7653 94.962 38.584 95.7513 38.584C96.5406 38.584 97.25 38.7653 97.8793 39.128C98.5193 39.4907 99.0206 39.9973 99.3833 40.648C99.746 41.288 99.9273 42.0133 99.9273 42.824C99.9273 43.6347 99.746 44.3653 99.3833 45.016C99.0206 45.656 98.5193 46.1573 97.8793 46.52C97.25 46.8827 96.5406 47.064 95.7513 47.064ZM95.7513 46.344C96.3913 46.344 96.962 46.1947 97.4633 45.896C97.9753 45.5973 98.3753 45.1813 98.6633 44.648C98.962 44.1147 99.1113 43.5067 99.1113 42.824C99.1113 42.1413 98.962 41.5333 98.6633 41C98.3753 40.4667 97.9753 40.0507 97.4633 39.752C96.962 39.4533 96.3913 39.304 95.7513 39.304C95.1113 39.304 94.5353 39.4533 94.0233 39.752C93.522 40.0507 93.122 40.4667 92.8233 41C92.5353 41.5333 92.3913 42.1413 92.3913 42.824C92.3913 43.5067 92.5353 44.1147 92.8233 44.648C93.122 45.1813 93.522 45.5973 94.0233 45.896C94.5353 46.1947 95.1113 46.344 95.7513 46.344ZM109.653 43.016H102.469C102.49 43.6667 102.655 44.248 102.965 44.76C103.274 45.2613 103.69 45.6507 104.213 45.928C104.746 46.2053 105.343 46.344 106.005 46.344C106.549 46.344 107.05 46.248 107.509 46.056C107.978 45.8533 108.367 45.56 108.677 45.176L109.141 45.704C108.778 46.1413 108.319 46.4773 107.765 46.712C107.221 46.9467 106.629 47.064 105.989 47.064C105.157 47.064 104.415 46.8827 103.765 46.52C103.114 46.1573 102.602 45.656 102.229 45.016C101.866 44.376 101.685 43.6453 101.685 42.824C101.685 42.0133 101.855 41.288 102.197 40.648C102.549 39.9973 103.029 39.4907 103.637 39.128C104.245 38.7653 104.927 38.584 105.685 38.584C106.442 38.584 107.119 38.7653 107.717 39.128C108.325 39.48 108.799 39.976 109.141 40.616C109.493 41.256 109.669 41.9813 109.669 42.792L109.653 43.016ZM105.685 39.288C105.098 39.288 104.57 39.4213 104.101 39.688C103.631 39.944 103.253 40.312 102.965 40.792C102.687 41.2613 102.527 41.7947 102.485 42.392H108.885C108.853 41.7947 108.693 41.2613 108.405 40.792C108.117 40.3227 107.738 39.9547 107.269 39.688C106.799 39.4213 106.271 39.288 105.685 39.288ZM121.976 39.368H118.712V47H117.912V39.368H114.648V38.648H121.976V39.368ZM130.418 43.016H123.234C123.256 43.6667 123.421 44.248 123.73 44.76C124.04 45.2613 124.456 45.6507 124.978 45.928C125.512 46.2053 126.109 46.344 126.77 46.344C127.314 46.344 127.816 46.248 128.274 46.056C128.744 45.8533 129.133 45.56 129.442 45.176L129.906 45.704C129.544 46.1413 129.085 46.4773 128.53 46.712C127.986 46.9467 127.394 47.064 126.754 47.064C125.922 47.064 125.181 46.8827 124.53 46.52C123.88 46.1573 123.368 45.656 122.994 45.016C122.632 44.376 122.45 43.6453 122.45 42.824C122.45 42.0133 122.621 41.288 122.962 40.648C123.314 39.9973 123.794 39.4907 124.402 39.128C125.01 38.7653 125.693 38.584 126.45 38.584C127.208 38.584 127.885 38.7653 128.482 39.128C129.09 39.48 129.565 39.976 129.906 40.616C130.258 41.256 130.434 41.9813 130.434 42.792L130.418 43.016ZM126.45 39.288C125.864 39.288 125.336 39.4213 124.866 39.688C124.397 39.944 124.018 40.312 123.73 40.792C123.453 41.2613 123.293 41.7947 123.25 42.392H129.65C129.618 41.7947 129.458 41.2613 129.17 40.792C128.882 40.3227 128.504 39.9547 128.034 39.688C127.565 39.4213 127.037 39.288 126.45 39.288ZM139.373 38.648V47H138.573V39.368H134.221L134.109 41.592C134.045 42.744 133.949 43.7093 133.821 44.488C133.693 45.2667 133.475 45.896 133.165 46.376C132.856 46.856 132.429 47.096 131.885 47.096C131.725 47.096 131.496 47.0587 131.197 46.984L131.277 46.296C131.448 46.3387 131.576 46.36 131.661 46.36C132.109 46.36 132.451 46.1413 132.685 45.704C132.92 45.2667 133.08 44.7227 133.165 44.072C133.251 43.4213 133.32 42.5733 133.373 41.528L133.517 38.648H139.373ZM146.158 47.064C145.368 47.064 144.654 46.8827 144.014 46.52C143.384 46.1573 142.888 45.656 142.526 45.016C142.163 44.3653 141.982 43.6347 141.982 42.824C141.982 42.0133 142.163 41.288 142.526 40.648C142.888 39.9973 143.384 39.4907 144.014 39.128C144.654 38.7653 145.368 38.584 146.158 38.584C146.947 38.584 147.656 38.7653 148.286 39.128C148.926 39.4907 149.427 39.9973 149.79 40.648C150.152 41.288 150.334 42.0133 150.334 42.824C150.334 43.6347 150.152 44.3653 149.79 45.016C149.427 45.656 148.926 46.1573 148.286 46.52C147.656 46.8827 146.947 47.064 146.158 47.064ZM146.158 46.344C146.798 46.344 147.368 46.1947 147.87 45.896C148.382 45.5973 148.782 45.1813 149.07 44.648C149.368 44.1147 149.518 43.5067 149.518 42.824C149.518 42.1413 149.368 41.5333 149.07 41C148.782 40.4667 148.382 40.0507 147.87 39.752C147.368 39.4533 146.798 39.304 146.158 39.304C145.518 39.304 144.942 39.4533 144.43 39.752C143.928 40.0507 143.528 40.4667 143.23 41C142.942 41.5333 142.798 42.1413 142.798 42.824C142.798 43.5067 142.942 44.1147 143.23 44.648C143.528 45.1813 143.928 45.5973 144.43 45.896C144.942 46.1947 145.518 46.344 146.158 46.344ZM152.811 39.944C152.63 39.944 152.47 39.88 152.331 39.752C152.203 39.6133 152.139 39.448 152.139 39.256C152.139 39.064 152.203 38.904 152.331 38.776C152.47 38.648 152.63 38.584 152.811 38.584C152.992 38.584 153.147 38.648 153.275 38.776C153.414 38.904 153.483 39.064 153.483 39.256C153.483 39.448 153.414 39.6133 153.275 39.752C153.147 39.88 152.992 39.944 152.811 39.944ZM152.811 47.064C152.63 47.064 152.47 47 152.331 46.872C152.203 46.7333 152.139 46.568 152.139 46.376C152.139 46.184 152.203 46.024 152.331 45.896C152.47 45.768 152.63 45.704 152.811 45.704C152.992 45.704 153.147 45.768 153.275 45.896C153.414 46.024 153.483 46.184 153.483 46.376C153.483 46.568 153.414 46.7333 153.275 46.872C153.147 47 152.992 47.064 152.811 47.064ZM161.291 36.536V41.32H167.259V42.056H161.291V47H160.475V35.8H167.963V36.536H161.291ZM174.025 43.144V47H173.209V43.144L168.697 35.8H169.593L173.641 42.392L177.689 35.8H178.537L174.025 43.144ZM182.983 40.68C184.221 40.712 185.159 41.016 185.799 41.592C186.45 42.1573 186.775 42.9093 186.775 43.848C186.775 44.4773 186.626 45.0373 186.327 45.528C186.029 46.008 185.581 46.3867 184.983 46.664C184.397 46.9413 183.687 47.08 182.855 47.08C182.045 47.08 181.282 46.9467 180.567 46.68C179.853 46.4027 179.298 46.0347 178.903 45.576L179.319 44.952C179.682 45.3573 180.173 45.688 180.791 45.944C181.421 46.2 182.109 46.328 182.855 46.328C183.847 46.328 184.61 46.1093 185.143 45.672C185.677 45.224 185.943 44.616 185.943 43.848C185.943 43.0693 185.671 42.4613 185.127 42.024C184.583 41.5867 183.767 41.368 182.679 41.368H181.975V40.776L185.287 36.536H179.319V35.8H186.343V36.376L182.983 40.68ZM197.841 43.896H195.489V47H194.689V43.896H188.305V43.304L194.385 35.8H195.297L189.329 43.176H194.705V40.44H195.489V43.176H197.841V43.896ZM27.1403 61.24C27.9723 61.3787 28.5963 61.6827 29.0123 62.152C29.439 62.6213 29.6523 63.2453 29.6523 64.024C29.6523 64.984 29.3163 65.72 28.6443 66.232C27.9723 66.744 26.975 67 25.6523 67H20.8363V55.8H25.3483C26.5216 55.8 27.4336 56.0453 28.0843 56.536C28.7456 57.0267 29.0763 57.7307 29.0763 58.648C29.0763 59.2987 28.9056 59.8427 28.5643 60.28C28.223 60.7173 27.7483 61.0373 27.1403 61.24ZM21.6523 60.984H25.3323C26.271 60.984 26.991 60.792 27.4923 60.408C27.9936 60.024 28.2443 59.4693 28.2443 58.744C28.2443 58.008 27.9936 57.448 27.4923 57.064C26.991 56.68 26.271 56.488 25.3323 56.488H21.6523V60.984ZM25.6683 66.312C27.7803 66.312 28.8363 65.5333 28.8363 63.976C28.8363 63.176 28.5696 62.5893 28.0363 62.216C27.503 61.8427 26.7136 61.656 25.6683 61.656H21.6523V66.312H25.6683ZM36.7563 58.584C37.535 58.584 38.239 58.7653 38.8683 59.128C39.4976 59.4907 39.9883 59.992 40.3403 60.632C40.703 61.272 40.8843 62.0027 40.8843 62.824C40.8843 63.6453 40.703 64.3813 40.3403 65.032C39.9883 65.672 39.4976 66.1733 38.8683 66.536C38.239 66.888 37.535 67.064 36.7563 67.064C36.0203 67.064 35.3536 66.8933 34.7563 66.552C34.159 66.2 33.695 65.7147 33.3643 65.096V70.104H32.5643V58.648H33.3323V60.616C33.663 59.976 34.127 59.48 34.7243 59.128C35.3323 58.7653 36.0096 58.584 36.7563 58.584ZM36.7083 66.344C37.3483 66.344 37.9243 66.1947 38.4363 65.896C38.9483 65.5973 39.3483 65.1813 39.6363 64.648C39.935 64.1147 40.0843 63.5067 40.0843 62.824C40.0843 62.1413 39.935 61.5333 39.6363 61C39.3483 60.4667 38.9483 60.0507 38.4363 59.752C37.9243 59.4533 37.3483 59.304 36.7083 59.304C36.0683 59.304 35.4923 59.4533 34.9803 59.752C34.479 60.0507 34.079 60.4667 33.7803 61C33.4923 61.5333 33.3483 62.1413 33.3483 62.824C33.3483 63.5067 33.4923 64.1147 33.7803 64.648C34.079 65.1813 34.479 65.5973 34.9803 65.896C35.4923 66.1947 36.0683 66.344 36.7083 66.344ZM50.6058 63.016H43.4218C43.4431 63.6667 43.6085 64.248 43.9178 64.76C44.2271 65.2613 44.6431 65.6507 45.1658 65.928C45.6991 66.2053 46.2965 66.344 46.9578 66.344C47.5018 66.344 48.0031 66.248 48.4618 66.056C48.9311 65.8533 49.3205 65.56 49.6298 65.176L50.0938 65.704C49.7311 66.1413 49.2725 66.4773 48.7178 66.712C48.1738 66.9467 47.5818 67.064 46.9418 67.064C46.1098 67.064 45.3685 66.8827 44.7178 66.52C44.0671 66.1573 43.5551 65.656 43.1818 65.016C42.8191 64.376 42.6378 63.6453 42.6378 62.824C42.6378 62.0133 42.8085 61.288 43.1498 60.648C43.5018 59.9973 43.9818 59.4907 44.5898 59.128C45.1978 58.7653 45.8805 58.584 46.6378 58.584C47.3951 58.584 48.0725 58.7653 48.6698 59.128C49.2778 59.48 49.7525 59.976 50.0938 60.616C50.4458 61.256 50.6218 61.9813 50.6218 62.792L50.6058 63.016ZM46.6378 59.288C46.0511 59.288 45.5231 59.4213 45.0538 59.688C44.5845 59.944 44.2058 60.312 43.9178 60.792C43.6405 61.2613 43.4805 61.7947 43.4378 62.392H49.8378C49.8058 61.7947 49.6458 61.2613 49.3578 60.792C49.0698 60.3227 48.6911 59.9547 48.2218 59.688C47.7525 59.4213 47.2245 59.288 46.6378 59.288ZM62.3238 58.648V67H61.5878V59.928L57.9558 65.928H57.5878L53.9718 59.944V67H53.2358V58.648H54.0198L57.7958 64.968L61.5878 58.648H62.3238ZM71.9427 58.648V67H71.2067V64.12H68.4227C68.2307 64.12 68.092 64.1147 68.0067 64.104L65.9427 67H65.0627L67.2227 64.008C66.54 63.8587 66.0174 63.5653 65.6547 63.128C65.292 62.6907 65.1107 62.1253 65.1107 61.432C65.1107 60.5147 65.4147 59.8213 66.0227 59.352C66.6414 58.8827 67.484 58.648 68.5507 58.648H71.9427ZM65.9107 61.464C65.9107 62.8293 66.7747 63.512 68.5027 63.512H71.2067V59.352H68.5987C66.8067 59.352 65.9107 60.056 65.9107 61.464ZM86.7974 58.648V67H85.9974V59.368H80.3014V67H79.5014V58.648H86.7974ZM94.4594 58.584C95.2381 58.584 95.9421 58.7653 96.5714 59.128C97.2008 59.4907 97.6914 59.992 98.0434 60.632C98.4061 61.272 98.5874 62.0027 98.5874 62.824C98.5874 63.6453 98.4061 64.3813 98.0434 65.032C97.6914 65.672 97.2008 66.1733 96.5714 66.536C95.9421 66.888 95.2381 67.064 94.4594 67.064C93.7234 67.064 93.0568 66.8933 92.4594 66.552C91.8621 66.2 91.3981 65.7147 91.0674 65.096V70.104H90.2674V58.648H91.0354V60.616C91.3661 59.976 91.8301 59.48 92.4274 59.128C93.0354 58.7653 93.7128 58.584 94.4594 58.584ZM94.4114 66.344C95.0514 66.344 95.6274 66.1947 96.1394 65.896C96.6514 65.5973 97.0514 65.1813 97.3394 64.648C97.6381 64.1147 97.7874 63.5067 97.7874 62.824C97.7874 62.1413 97.6381 61.5333 97.3394 61C97.0514 60.4667 96.6514 60.0507 96.1394 59.752C95.6274 59.4533 95.0514 59.304 94.4114 59.304C93.7714 59.304 93.1954 59.4533 92.6834 59.752C92.1821 60.0507 91.7821 60.4667 91.4834 61C91.1954 61.5333 91.0514 62.1413 91.0514 62.824C91.0514 63.5067 91.1954 64.1147 91.4834 64.648C91.7821 65.1813 92.1821 65.5973 92.6834 65.896C93.1954 66.1947 93.7714 66.344 94.4114 66.344ZM104.517 67.064C103.728 67.064 103.013 66.8827 102.373 66.52C101.744 66.1573 101.248 65.656 100.885 65.016C100.522 64.3653 100.341 63.6347 100.341 62.824C100.341 62.0133 100.522 61.288 100.885 60.648C101.248 59.9973 101.744 59.4907 102.373 59.128C103.013 58.7653 103.728 58.584 104.517 58.584C105.306 58.584 106.016 58.7653 106.645 59.128C107.285 59.4907 107.786 59.9973 108.149 60.648C108.512 61.288 108.693 62.0133 108.693 62.824C108.693 63.6347 108.512 64.3653 108.149 65.016C107.786 65.656 107.285 66.1573 106.645 66.52C106.016 66.8827 105.306 67.064 104.517 67.064ZM104.517 66.344C105.157 66.344 105.728 66.1947 106.229 65.896C106.741 65.5973 107.141 65.1813 107.429 64.648C107.728 64.1147 107.877 63.5067 107.877 62.824C107.877 62.1413 107.728 61.5333 107.429 61C107.141 60.4667 106.741 60.0507 106.229 59.752C105.728 59.4533 105.157 59.304 104.517 59.304C103.877 59.304 103.301 59.4533 102.789 59.752C102.288 60.0507 101.888 60.4667 101.589 61C101.301 61.5333 101.157 62.1413 101.157 62.824C101.157 63.5067 101.301 64.1147 101.589 64.648C101.888 65.1813 102.288 65.5973 102.789 65.896C103.301 66.1947 103.877 66.344 104.517 66.344ZM117.795 58.648V67H116.995V59.368H112.643L112.531 61.592C112.467 62.744 112.371 63.7093 112.243 64.488C112.115 65.2667 111.896 65.896 111.587 66.376C111.278 66.856 110.851 67.096 110.307 67.096C110.147 67.096 109.918 67.0587 109.619 66.984L109.699 66.296C109.87 66.3387 109.998 66.36 110.083 66.36C110.531 66.36 110.872 66.1413 111.107 65.704C111.342 65.2667 111.502 64.7227 111.587 64.072C111.672 63.4213 111.742 62.5733 111.795 61.528L111.939 58.648H117.795ZM128.371 63.016H121.187C121.209 63.6667 121.374 64.248 121.683 64.76C121.993 65.2613 122.409 65.6507 122.931 65.928C123.465 66.2053 124.062 66.344 124.723 66.344C125.267 66.344 125.769 66.248 126.227 66.056C126.697 65.8533 127.086 65.56 127.395 65.176L127.859 65.704C127.497 66.1413 127.038 66.4773 126.483 66.712C125.939 66.9467 125.347 67.064 124.707 67.064C123.875 67.064 123.134 66.8827 122.483 66.52C121.833 66.1573 121.321 65.656 120.947 65.016C120.585 64.376 120.403 63.6453 120.403 62.824C120.403 62.0133 120.574 61.288 120.915 60.648C121.267 59.9973 121.747 59.4907 122.355 59.128C122.963 58.7653 123.646 58.584 124.403 58.584C125.161 58.584 125.838 58.7653 126.435 59.128C127.043 59.48 127.518 59.976 127.859 60.616C128.211 61.256 128.387 61.9813 128.387 62.792L128.371 63.016ZM124.403 59.288C123.817 59.288 123.289 59.4213 122.819 59.688C122.35 59.944 121.971 60.312 121.683 60.792C121.406 61.2613 121.246 61.7947 121.203 62.392H127.603C127.571 61.7947 127.411 61.2613 127.123 60.792C126.835 60.3227 126.457 59.9547 125.987 59.688C125.518 59.4213 124.99 59.288 124.403 59.288ZM123.027 56.856C122.867 56.856 122.729 56.8027 122.611 56.696C122.505 56.5787 122.451 56.44 122.451 56.28C122.451 56.1093 122.505 55.9707 122.611 55.864C122.729 55.7573 122.867 55.704 123.027 55.704C123.187 55.704 123.321 55.7627 123.427 55.88C123.545 55.9867 123.603 56.12 123.603 56.28C123.603 56.44 123.545 56.5787 123.427 56.696C123.31 56.8027 123.177 56.856 123.027 56.856ZM125.779 56.856C125.63 56.856 125.497 56.8027 125.379 56.696C125.262 56.5787 125.203 56.44 125.203 56.28C125.203 56.12 125.257 55.9867 125.363 55.88C125.481 55.7627 125.619 55.704 125.779 55.704C125.939 55.704 126.073 55.7573 126.179 55.864C126.297 55.9707 126.355 56.1093 126.355 56.28C126.355 56.44 126.297 56.5787 126.179 56.696C126.073 56.8027 125.939 56.856 125.779 56.856ZM136.195 59.368H132.931V67H132.131V59.368H128.867V58.648H136.195V59.368ZM140.676 58.584C141.71 58.584 142.505 58.8507 143.06 59.384C143.614 59.9067 143.892 60.68 143.892 61.704V67H143.124V65.512C142.857 66.0027 142.468 66.3867 141.956 66.664C141.444 66.9307 140.83 67.064 140.116 67.064C139.188 67.064 138.452 66.8453 137.908 66.408C137.374 65.9707 137.108 65.3947 137.108 64.68C137.108 63.9867 137.353 63.4267 137.844 63C138.345 62.5627 139.14 62.344 140.228 62.344H143.092V61.672C143.092 60.8933 142.878 60.3013 142.452 59.896C142.036 59.4907 141.422 59.288 140.612 59.288C140.057 59.288 139.524 59.384 139.012 59.576C138.51 59.768 138.084 60.024 137.732 60.344L137.332 59.768C137.748 59.3947 138.249 59.1067 138.836 58.904C139.422 58.6907 140.036 58.584 140.676 58.584ZM140.228 66.408C140.921 66.408 141.508 66.248 141.988 65.928C142.478 65.608 142.846 65.144 143.092 64.536V62.968H140.244C139.422 62.968 138.825 63.1173 138.452 63.416C138.089 63.7147 137.908 64.1253 137.908 64.648C137.908 65.192 138.11 65.624 138.516 65.944C138.921 66.2533 139.492 66.408 140.228 66.408ZM147.014 59.944C146.833 59.944 146.673 59.88 146.534 59.752C146.406 59.6133 146.342 59.448 146.342 59.256C146.342 59.064 146.406 58.904 146.534 58.776C146.673 58.648 146.833 58.584 147.014 58.584C147.195 58.584 147.35 58.648 147.478 58.776C147.617 58.904 147.686 59.064 147.686 59.256C147.686 59.448 147.617 59.6133 147.478 59.752C147.35 59.88 147.195 59.944 147.014 59.944ZM147.014 67.064C146.833 67.064 146.673 67 146.534 66.872C146.406 66.7333 146.342 66.568 146.342 66.376C146.342 66.184 146.406 66.024 146.534 65.896C146.673 65.768 146.833 65.704 147.014 65.704C147.195 65.704 147.35 65.768 147.478 65.896C147.617 66.024 147.686 66.184 147.686 66.376C147.686 66.568 147.617 66.7333 147.478 66.872C147.35 67 147.195 67.064 147.014 67.064ZM156.423 55.8V67H155.607V56.536H152.871V55.8H156.423ZM163.631 67.08C162.778 67.08 162.015 66.8507 161.343 66.392C160.682 65.9227 160.165 65.2613 159.791 64.408C159.429 63.5547 159.247 62.552 159.247 61.4C159.247 60.248 159.429 59.2453 159.791 58.392C160.165 57.5387 160.682 56.8827 161.343 56.424C162.015 55.9547 162.778 55.72 163.631 55.72C164.485 55.72 165.242 55.9547 165.903 56.424C166.575 56.8827 167.093 57.5387 167.455 58.392C167.829 59.2453 168.015 60.248 168.015 61.4C168.015 62.552 167.829 63.5547 167.455 64.408C167.093 65.2613 166.575 65.9227 165.903 66.392C165.242 66.8507 164.485 67.08 163.631 67.08ZM163.631 66.328C164.335 66.328 164.954 66.136 165.487 65.752C166.031 65.3573 166.453 64.792 166.751 64.056C167.05 63.3093 167.199 62.424 167.199 61.4C167.199 60.376 167.05 59.496 166.751 58.76C166.453 58.0133 166.031 57.448 165.487 57.064C164.954 56.6693 164.335 56.472 163.631 56.472C162.927 56.472 162.303 56.6693 161.759 57.064C161.226 57.448 160.81 58.0133 160.511 58.76C160.213 59.496 160.063 60.376 160.063 61.4C160.063 62.424 160.213 63.3093 160.511 64.056C160.81 64.792 161.226 65.3573 161.759 65.752C162.303 66.136 162.927 66.328 163.631 66.328ZM183.824 58.648V67H183.088V59.928L179.456 65.928H179.088L175.472 59.944V67H174.736V58.648H175.52L179.296 64.968L183.088 58.648H183.824ZM187.283 58.648H188.083V65.768L194.035 58.648H194.739V67H193.939V59.88L187.987 67H187.283V58.648ZM198.189 58.648H198.989V62.456H204.653V58.648H205.453V67H204.653V63.16H198.989V67H198.189V58.648Z" fill="white"/>
</svg>
