<svg width="226" height="97" viewBox="0 0 226 97" fill="none" xmlns="http://www.w3.org/2000/svg">
<path d="M226 48.4997C226 88.367 210.534 97 116.531 97C22.5289 97 0 88.367 0 48.4997C0 8.63249 22.5289 0 116.531 0C210.534 0 226 8.63249 226 48.4997Z" fill="#0C0C0C"/>
<path d="M95.7193 29.096C94.6099 29.096 93.6073 28.8507 92.7113 28.36C91.8259 27.8693 91.1273 27.192 90.6153 26.328C90.1139 25.4533 89.8633 24.4773 89.8633 23.4C89.8633 22.3227 90.1139 21.352 90.6153 20.488C91.1273 19.6133 91.8313 18.9307 92.7273 18.44C93.6233 17.9493 94.6259 17.704 95.7353 17.704C96.5673 17.704 97.3353 17.8427 98.0393 18.12C98.7433 18.3973 99.3406 18.8027 99.8313 19.336L99.0793 20.088C98.2046 19.2027 97.1006 18.76 95.7673 18.76C94.8819 18.76 94.0766 18.9627 93.3513 19.368C92.6259 19.7733 92.0553 20.328 91.6393 21.032C91.2339 21.736 91.0312 22.5253 91.0312 23.4C91.0312 24.2747 91.2339 25.064 91.6393 25.768C92.0553 26.472 92.6259 27.0267 93.3513 27.432C94.0766 27.8373 94.8819 28.04 95.7673 28.04C97.1113 28.04 98.2153 27.592 99.0793 26.696L99.8313 27.448C99.3406 27.9813 98.7379 28.392 98.0233 28.68C97.3193 28.9573 96.5513 29.096 95.7193 29.096ZM106.483 20.52C107.273 20.52 107.987 20.7013 108.627 21.064C109.267 21.416 109.769 21.9173 110.131 22.568C110.494 23.2187 110.675 23.96 110.675 24.792C110.675 25.6347 110.494 26.3813 110.131 27.032C109.769 27.6827 109.267 28.1893 108.627 28.552C107.998 28.904 107.283 29.08 106.483 29.08C105.801 29.08 105.182 28.9413 104.627 28.664C104.083 28.376 103.635 27.96 103.283 27.416V32.104H102.147V20.584H103.235V22.248C103.577 21.6933 104.025 21.2667 104.579 20.968C105.145 20.6693 105.779 20.52 106.483 20.52ZM106.403 28.072C106.99 28.072 107.523 27.9387 108.003 27.672C108.483 27.3947 108.857 27.0053 109.123 26.504C109.401 26.0027 109.539 25.432 109.539 24.792C109.539 24.152 109.401 23.5867 109.123 23.096C108.857 22.5947 108.483 22.2053 108.003 21.928C107.523 21.6507 106.99 21.512 106.403 21.512C105.806 21.512 105.267 21.6507 104.787 21.928C104.318 22.2053 103.945 22.5947 103.667 23.096C103.401 23.5867 103.267 24.152 103.267 24.792C103.267 25.432 103.401 26.0027 103.667 26.504C103.945 27.0053 104.318 27.3947 104.787 27.672C105.267 27.9387 105.806 28.072 106.403 28.072ZM120.476 25.144H113.436C113.5 26.0187 113.836 26.728 114.444 27.272C115.052 27.8053 115.82 28.072 116.748 28.072C117.271 28.072 117.751 27.9813 118.188 27.8C118.625 27.608 119.004 27.3307 119.324 26.968L119.964 27.704C119.591 28.152 119.121 28.4933 118.556 28.728C118.001 28.9627 117.388 29.08 116.716 29.08C115.852 29.08 115.084 28.8987 114.412 28.536C113.751 28.1627 113.233 27.6507 112.86 27C112.487 26.3493 112.3 25.6133 112.3 24.792C112.3 23.9707 112.476 23.2347 112.828 22.584C113.191 21.9333 113.681 21.4267 114.3 21.064C114.929 20.7013 115.633 20.52 116.412 20.52C117.191 20.52 117.889 20.7013 118.508 21.064C119.127 21.4267 119.612 21.9333 119.964 22.584C120.316 23.224 120.492 23.96 120.492 24.792L120.476 25.144ZM116.412 21.496C115.601 21.496 114.919 21.7573 114.364 22.28C113.82 22.792 113.511 23.464 113.436 24.296H119.404C119.329 23.464 119.015 22.792 118.46 22.28C117.916 21.7573 117.233 21.496 116.412 21.496ZM131.043 28.008V31.032H129.971V29H122.435V31.032H121.363V28.008H121.843C122.408 27.976 122.792 27.56 122.995 26.76C123.197 25.96 123.336 24.84 123.411 23.4L123.523 20.584H129.731V28.008H131.043ZM124.451 23.464C124.397 24.6587 124.296 25.6453 124.147 26.424C123.997 27.192 123.731 27.72 123.347 28.008H128.595V21.592H124.547L124.451 23.464ZM136.153 20.52C137.251 20.52 138.094 20.7973 138.681 21.352C139.267 21.896 139.561 22.7067 139.561 23.784V29H138.473V27.688C138.217 28.1253 137.838 28.4667 137.337 28.712C136.846 28.9573 136.259 29.08 135.577 29.08C134.638 29.08 133.891 28.856 133.337 28.408C132.782 27.96 132.505 27.368 132.505 26.632C132.505 25.9173 132.761 25.3413 133.273 24.904C133.795 24.4667 134.622 24.248 135.753 24.248H138.425V23.736C138.425 23.0107 138.222 22.4613 137.817 22.088C137.411 21.704 136.819 21.512 136.041 21.512C135.507 21.512 134.995 21.6027 134.505 21.784C134.014 21.9547 133.593 22.1947 133.241 22.504L132.729 21.656C133.155 21.2933 133.667 21.016 134.265 20.824C134.862 20.6213 135.491 20.52 136.153 20.52ZM135.753 28.184C136.393 28.184 136.942 28.04 137.401 27.752C137.859 27.4533 138.201 27.0267 138.425 26.472V25.096H135.785C134.345 25.096 133.625 25.5973 133.625 26.6C133.625 27.0907 133.811 27.48 134.185 27.768C134.558 28.0453 135.081 28.184 135.753 28.184ZM40.2063 37.8V49H39.3903V43.672H31.9023V49H31.0863V37.8H31.9023V42.952H39.3903V37.8H40.2063ZM51.0746 45.016H43.8906C43.9119 45.6667 44.0772 46.248 44.3866 46.76C44.6959 47.2613 45.1119 47.6507 45.6346 47.928C46.1679 48.2053 46.7652 48.344 47.4266 48.344C47.9706 48.344 48.4719 48.248 48.9306 48.056C49.3999 47.8533 49.7892 47.56 50.0986 47.176L50.5626 47.704C50.1999 48.1413 49.7412 48.4773 49.1866 48.712C48.6426 48.9467 48.0506 49.064 47.4106 49.064C46.5786 49.064 45.8372 48.8827 45.1866 48.52C44.5359 48.1573 44.0239 47.656 43.6506 47.016C43.2879 46.376 43.1066 45.6453 43.1066 44.824C43.1066 44.0133 43.2772 43.288 43.6186 42.648C43.9706 41.9973 44.4506 41.4907 45.0586 41.128C45.6666 40.7653 46.3492 40.584 47.1066 40.584C47.8639 40.584 48.5412 40.7653 49.1386 41.128C49.7466 41.48 50.2212 41.976 50.5626 42.616C50.9146 43.256 51.0906 43.9813 51.0906 44.792L51.0746 45.016ZM47.1066 41.288C46.5199 41.288 45.9919 41.4213 45.5226 41.688C45.0532 41.944 44.6746 42.312 44.3866 42.792C44.1092 43.2613 43.9492 43.7947 43.9066 44.392H50.3066C50.2746 43.7947 50.1146 43.2613 49.8266 42.792C49.5386 42.3227 49.1599 41.9547 48.6906 41.688C48.2212 41.4213 47.6932 41.288 47.1066 41.288ZM57.5766 40.776C58.3552 40.776 59.0432 40.952 59.6406 41.304C60.2486 41.6453 60.7232 42.1253 61.0646 42.744C61.4059 43.3627 61.5766 44.0773 61.5766 44.888C61.5766 45.6987 61.4006 46.424 61.0486 47.064C60.7072 47.6933 60.2219 48.1893 59.5926 48.552C58.9739 48.904 58.2646 49.08 57.4646 49.08C56.5472 49.08 55.7632 48.856 55.1126 48.408C54.4726 47.96 53.9819 47.3253 53.6406 46.504C53.3099 45.6827 53.1446 44.7227 53.1446 43.624C53.1446 42.376 53.2939 41.3413 53.5926 40.52C53.9019 39.6987 54.3606 39.0533 54.9686 38.584C55.5872 38.104 56.3766 37.7467 57.3366 37.512L61.0326 36.616L61.1606 37.368L57.6406 38.2C56.7766 38.4027 56.0726 38.7013 55.5286 39.096C54.9952 39.48 54.5952 40.008 54.3286 40.68C54.0619 41.352 53.9232 42.2107 53.9126 43.256C54.1899 42.488 54.6539 41.8853 55.3046 41.448C55.9552 41 56.7126 40.776 57.5766 40.776ZM57.4806 48.392C58.1099 48.392 58.6752 48.2427 59.1766 47.944C59.6779 47.6453 60.0672 47.2347 60.3446 46.712C60.6219 46.1787 60.7606 45.576 60.7606 44.904C60.7606 44.232 60.6219 43.64 60.3446 43.128C60.0672 42.6053 59.6779 42.2053 59.1766 41.928C58.6859 41.64 58.1206 41.496 57.4806 41.496C56.8406 41.496 56.2699 41.64 55.7686 41.928C55.2672 42.2053 54.8779 42.6053 54.6006 43.128C54.3232 43.64 54.1846 44.232 54.1846 44.904C54.1846 45.576 54.3232 46.1787 54.6006 46.712C54.8779 47.2347 55.2672 47.6453 55.7686 47.944C56.2699 48.2427 56.8406 48.392 57.4806 48.392ZM71.3246 45.016H64.1406C64.1619 45.6667 64.3272 46.248 64.6366 46.76C64.9459 47.2613 65.3619 47.6507 65.8846 47.928C66.4179 48.2053 67.0152 48.344 67.6766 48.344C68.2206 48.344 68.7219 48.248 69.1806 48.056C69.6499 47.8533 70.0392 47.56 70.3486 47.176L70.8126 47.704C70.4499 48.1413 69.9912 48.4773 69.4366 48.712C68.8926 48.9467 68.3006 49.064 67.6606 49.064C66.8286 49.064 66.0872 48.8827 65.4366 48.52C64.7859 48.1573 64.2739 47.656 63.9006 47.016C63.5379 46.376 63.3566 45.6453 63.3566 44.824C63.3566 44.0133 63.5272 43.288 63.8686 42.648C64.2206 41.9973 64.7006 41.4907 65.3086 41.128C65.9166 40.7653 66.5992 40.584 67.3566 40.584C68.1139 40.584 68.7912 40.7653 69.3886 41.128C69.9966 41.48 70.4712 41.976 70.8126 42.616C71.1646 43.256 71.3406 43.9813 71.3406 44.792L71.3246 45.016ZM67.3566 41.288C66.7699 41.288 66.2419 41.4213 65.7726 41.688C65.3032 41.944 64.9246 42.312 64.6366 42.792C64.3592 43.2613 64.1992 43.7947 64.1566 44.392H70.5566C70.5246 43.7947 70.3646 43.2613 70.0766 42.792C69.7886 42.3227 69.4099 41.9547 68.9406 41.688C68.4712 41.4213 67.9432 41.288 67.3566 41.288ZM77.3306 49.064C76.5199 49.064 75.7946 48.8827 75.1546 48.52C74.5146 48.1573 74.0132 47.656 73.6506 47.016C73.2879 46.3653 73.1066 45.6347 73.1066 44.824C73.1066 44.0027 73.2879 43.272 73.6506 42.632C74.0132 41.9813 74.5146 41.48 75.1546 41.128C75.7946 40.7653 76.5199 40.584 77.3306 40.584C78.0026 40.584 78.6106 40.7173 79.1546 40.984C79.7092 41.24 80.1572 41.6187 80.4986 42.12L79.9066 42.552C79.6079 42.136 79.2346 41.8267 78.7866 41.624C78.3492 41.4107 77.8639 41.304 77.3306 41.304C76.6799 41.304 76.0932 41.4533 75.5706 41.752C75.0586 42.04 74.6532 42.4507 74.3546 42.984C74.0666 43.5173 73.9226 44.1307 73.9226 44.824C73.9226 45.5173 74.0666 46.1307 74.3546 46.664C74.6532 47.1973 75.0586 47.6133 75.5706 47.912C76.0932 48.2 76.6799 48.344 77.3306 48.344C77.8639 48.344 78.3492 48.2427 78.7866 48.04C79.2346 47.8267 79.6079 47.512 79.9066 47.096L80.4986 47.528C80.1572 48.0293 79.7092 48.4133 79.1546 48.68C78.6106 48.936 78.0026 49.064 77.3306 49.064ZM82.8608 40.648H83.6608V44.456H89.3248V40.648H90.1248V49H89.3248V45.16H83.6608V49H82.8608V40.648ZM96.9076 49.064C96.1182 49.064 95.4036 48.8827 94.7636 48.52C94.1342 48.1573 93.6382 47.656 93.2756 47.016C92.9129 46.3653 92.7316 45.6347 92.7316 44.824C92.7316 44.0133 92.9129 43.288 93.2756 42.648C93.6382 41.9973 94.1342 41.4907 94.7636 41.128C95.4036 40.7653 96.1182 40.584 96.9076 40.584C97.6969 40.584 98.4062 40.7653 99.0356 41.128C99.6756 41.4907 100.177 41.9973 100.54 42.648C100.902 43.288 101.084 44.0133 101.084 44.824C101.084 45.6347 100.902 46.3653 100.54 47.016C100.177 47.656 99.6756 48.1573 99.0356 48.52C98.4062 48.8827 97.6969 49.064 96.9076 49.064ZM96.9076 48.344C97.5476 48.344 98.1182 48.1947 98.6196 47.896C99.1316 47.5973 99.5316 47.1813 99.8196 46.648C100.118 46.1147 100.268 45.5067 100.268 44.824C100.268 44.1413 100.118 43.5333 99.8196 43C99.5316 42.4667 99.1316 42.0507 98.6196 41.752C98.1182 41.4533 97.5476 41.304 96.9076 41.304C96.2676 41.304 95.6916 41.4533 95.1796 41.752C94.6782 42.0507 94.2782 42.4667 93.9796 43C93.6916 43.5333 93.5476 44.1413 93.5476 44.824C93.5476 45.5067 93.6916 46.1147 93.9796 46.648C94.2782 47.1813 94.6782 47.5973 95.1796 47.896C95.6916 48.1947 96.2676 48.344 96.9076 48.344ZM110.809 45.016H103.625C103.646 45.6667 103.812 46.248 104.121 46.76C104.43 47.2613 104.846 47.6507 105.369 47.928C105.902 48.2053 106.5 48.344 107.161 48.344C107.705 48.344 108.206 48.248 108.665 48.056C109.134 47.8533 109.524 47.56 109.833 47.176L110.297 47.704C109.934 48.1413 109.476 48.4773 108.921 48.712C108.377 48.9467 107.785 49.064 107.145 49.064C106.313 49.064 105.572 48.8827 104.921 48.52C104.27 48.1573 103.758 47.656 103.385 47.016C103.022 46.376 102.841 45.6453 102.841 44.824C102.841 44.0133 103.012 43.288 103.353 42.648C103.705 41.9973 104.185 41.4907 104.793 41.128C105.401 40.7653 106.084 40.584 106.841 40.584C107.598 40.584 108.276 40.7653 108.873 41.128C109.481 41.48 109.956 41.976 110.297 42.616C110.649 43.256 110.825 43.9813 110.825 44.792L110.809 45.016ZM106.841 41.288C106.254 41.288 105.726 41.4213 105.257 41.688C104.788 41.944 104.409 42.312 104.121 42.792C103.844 43.2613 103.684 43.7947 103.641 44.392H110.041C110.009 43.7947 109.849 43.2613 109.561 42.792C109.273 42.3227 108.894 41.9547 108.425 41.688C107.956 41.4213 107.428 41.288 106.841 41.288ZM123.132 41.368H119.868V49H119.068V41.368H115.804V40.648H123.132V41.368ZM131.575 45.016H124.391C124.412 45.6667 124.577 46.248 124.887 46.76C125.196 47.2613 125.612 47.6507 126.135 47.928C126.668 48.2053 127.265 48.344 127.927 48.344C128.471 48.344 128.972 48.248 129.431 48.056C129.9 47.8533 130.289 47.56 130.599 47.176L131.063 47.704C130.7 48.1413 130.241 48.4773 129.687 48.712C129.143 48.9467 128.551 49.064 127.911 49.064C127.079 49.064 126.337 48.8827 125.687 48.52C125.036 48.1573 124.524 47.656 124.151 47.016C123.788 46.376 123.607 45.6453 123.607 44.824C123.607 44.0133 123.777 43.288 124.119 42.648C124.471 41.9973 124.951 41.4907 125.559 41.128C126.167 40.7653 126.849 40.584 127.607 40.584C128.364 40.584 129.041 40.7653 129.639 41.128C130.247 41.48 130.721 41.976 131.063 42.616C131.415 43.256 131.591 43.9813 131.591 44.792L131.575 45.016ZM127.607 41.288C127.02 41.288 126.492 41.4213 126.023 41.688C125.553 41.944 125.175 42.312 124.887 42.792C124.609 43.2613 124.449 43.7947 124.407 44.392H130.807C130.775 43.7947 130.615 43.2613 130.327 42.792C130.039 42.3227 129.66 41.9547 129.191 41.688C128.721 41.4213 128.193 41.288 127.607 41.288ZM140.529 40.648V49H139.729V41.368H135.377L135.265 43.592C135.201 44.744 135.105 45.7093 134.977 46.488C134.849 47.2667 134.631 47.896 134.321 48.376C134.012 48.856 133.585 49.096 133.041 49.096C132.881 49.096 132.652 49.0587 132.353 48.984L132.433 48.296C132.604 48.3387 132.732 48.36 132.817 48.36C133.265 48.36 133.607 48.1413 133.841 47.704C134.076 47.2667 134.236 46.7227 134.321 46.072C134.407 45.4213 134.476 44.5733 134.529 43.528L134.673 40.648H140.529ZM147.314 49.064C146.524 49.064 145.81 48.8827 145.17 48.52C144.54 48.1573 144.044 47.656 143.682 47.016C143.319 46.3653 143.138 45.6347 143.138 44.824C143.138 44.0133 143.319 43.288 143.682 42.648C144.044 41.9973 144.54 41.4907 145.17 41.128C145.81 40.7653 146.524 40.584 147.314 40.584C148.103 40.584 148.812 40.7653 149.442 41.128C150.082 41.4907 150.583 41.9973 150.946 42.648C151.308 43.288 151.49 44.0133 151.49 44.824C151.49 45.6347 151.308 46.3653 150.946 47.016C150.583 47.656 150.082 48.1573 149.442 48.52C148.812 48.8827 148.103 49.064 147.314 49.064ZM147.314 48.344C147.954 48.344 148.524 48.1947 149.026 47.896C149.538 47.5973 149.938 47.1813 150.226 46.648C150.524 46.1147 150.674 45.5067 150.674 44.824C150.674 44.1413 150.524 43.5333 150.226 43C149.938 42.4667 149.538 42.0507 149.026 41.752C148.524 41.4533 147.954 41.304 147.314 41.304C146.674 41.304 146.098 41.4533 145.586 41.752C145.084 42.0507 144.684 42.4667 144.386 43C144.098 43.5333 143.954 44.1413 143.954 44.824C143.954 45.5067 144.098 46.1147 144.386 46.648C144.684 47.1813 145.084 47.5973 145.586 47.896C146.098 48.1947 146.674 48.344 147.314 48.344ZM153.967 41.944C153.786 41.944 153.626 41.88 153.487 41.752C153.359 41.6133 153.295 41.448 153.295 41.256C153.295 41.064 153.359 40.904 153.487 40.776C153.626 40.648 153.786 40.584 153.967 40.584C154.149 40.584 154.303 40.648 154.431 40.776C154.57 40.904 154.639 41.064 154.639 41.256C154.639 41.448 154.57 41.6133 154.431 41.752C154.303 41.88 154.149 41.944 153.967 41.944ZM153.967 49.064C153.786 49.064 153.626 49 153.487 48.872C153.359 48.7333 153.295 48.568 153.295 48.376C153.295 48.184 153.359 48.024 153.487 47.896C153.626 47.768 153.786 47.704 153.967 47.704C154.149 47.704 154.303 47.768 154.431 47.896C154.57 48.024 154.639 48.184 154.639 48.376C154.639 48.568 154.57 48.7333 154.431 48.872C154.303 49 154.149 49.064 153.967 49.064ZM165.2 43.688H162.512V49H161.696V37.8H162.512V42.952H165.216L169.232 37.8H170.144L165.856 43.256L170.432 49H169.472L165.2 43.688ZM179.409 45.848H172.913L171.489 49H170.609L175.761 37.8H176.577L181.729 49H180.849L179.409 45.848ZM179.105 45.16L176.161 38.696L173.233 45.16H179.105ZM186.935 49.08C186.114 49.08 185.33 48.9413 184.583 48.664C183.847 48.376 183.271 48.008 182.855 47.56L183.223 46.952C183.618 47.368 184.146 47.7093 184.807 47.976C185.479 48.232 186.183 48.36 186.919 48.36C187.986 48.36 188.791 48.1573 189.335 47.752C189.879 47.3467 190.151 46.8187 190.151 46.168C190.151 45.6667 190.007 45.2667 189.719 44.968C189.431 44.6693 189.074 44.44 188.647 44.28C188.22 44.12 187.644 43.9547 186.919 43.784C186.098 43.5813 185.436 43.384 184.935 43.192C184.444 43 184.023 42.7067 183.671 42.312C183.33 41.9067 183.159 41.368 183.159 40.696C183.159 40.152 183.303 39.656 183.591 39.208C183.879 38.7493 184.316 38.3867 184.903 38.12C185.5 37.8533 186.242 37.72 187.127 37.72C187.746 37.72 188.354 37.8107 188.951 37.992C189.548 38.1733 190.066 38.4187 190.503 38.728L190.199 39.384C189.751 39.0747 189.255 38.84 188.711 38.68C188.178 38.52 187.65 38.44 187.127 38.44C186.092 38.44 185.308 38.648 184.775 39.064C184.242 39.48 183.975 40.0187 183.975 40.68C183.975 41.1813 184.119 41.5813 184.407 41.88C184.695 42.1787 185.052 42.408 185.479 42.568C185.906 42.728 186.487 42.8987 187.223 43.08C188.044 43.2827 188.7 43.48 189.191 43.672C189.682 43.864 190.098 44.1573 190.439 44.552C190.791 44.936 190.967 45.4587 190.967 46.12C190.967 46.664 190.818 47.16 190.519 47.608C190.231 48.056 189.783 48.4133 189.175 48.68C188.567 48.9467 187.82 49.08 186.935 49.08ZM200.209 37.8V38.376L195.393 49H194.497L199.265 38.536H192.977V40.68H192.177V37.8H200.209ZM29.945 63.24C30.777 63.3787 31.401 63.6827 31.817 64.152C32.2437 64.6213 32.457 65.2453 32.457 66.024C32.457 66.984 32.121 67.72 31.449 68.232C30.777 68.744 29.7797 69 28.457 69H23.641V57.8H28.153C29.3263 57.8 30.2383 58.0453 30.889 58.536C31.5503 59.0267 31.881 59.7307 31.881 60.648C31.881 61.2987 31.7103 61.8427 31.369 62.28C31.0277 62.7173 30.553 63.0373 29.945 63.24ZM24.457 62.984H28.137C29.0757 62.984 29.7957 62.792 30.297 62.408C30.7983 62.024 31.049 61.4693 31.049 60.744C31.049 60.008 30.7983 59.448 30.297 59.064C29.7957 58.68 29.0757 58.488 28.137 58.488H24.457V62.984ZM28.473 68.312C30.585 68.312 31.641 67.5333 31.641 65.976C31.641 65.176 31.3743 64.5893 30.841 64.216C30.3077 63.8427 29.5183 63.656 28.473 63.656H24.457V68.312H28.473ZM39.561 60.584C40.3397 60.584 41.0437 60.7653 41.673 61.128C42.3023 61.4907 42.793 61.992 43.145 62.632C43.5077 63.272 43.689 64.0027 43.689 64.824C43.689 65.6453 43.5077 66.3813 43.145 67.032C42.793 67.672 42.3023 68.1733 41.673 68.536C41.0437 68.888 40.3397 69.064 39.561 69.064C38.825 69.064 38.1583 68.8933 37.561 68.552C36.9637 68.2 36.4997 67.7147 36.169 67.096V72.104H35.369V60.648H36.137V62.616C36.4677 61.976 36.9317 61.48 37.529 61.128C38.137 60.7653 38.8143 60.584 39.561 60.584ZM39.513 68.344C40.153 68.344 40.729 68.1947 41.241 67.896C41.753 67.5973 42.153 67.1813 42.441 66.648C42.7397 66.1147 42.889 65.5067 42.889 64.824C42.889 64.1413 42.7397 63.5333 42.441 63C42.153 62.4667 41.753 62.0507 41.241 61.752C40.729 61.4533 40.153 61.304 39.513 61.304C38.873 61.304 38.297 61.4533 37.785 61.752C37.2837 62.0507 36.8837 62.4667 36.585 63C36.297 63.5333 36.153 64.1413 36.153 64.824C36.153 65.5067 36.297 66.1147 36.585 66.648C36.8837 67.1813 37.2837 67.5973 37.785 67.896C38.297 68.1947 38.873 68.344 39.513 68.344ZM53.4105 65.016H46.2265C46.2478 65.6667 46.4132 66.248 46.7225 66.76C47.0318 67.2613 47.4478 67.6507 47.9705 67.928C48.5038 68.2053 49.1012 68.344 49.7625 68.344C50.3065 68.344 50.8078 68.248 51.2665 68.056C51.7358 67.8533 52.1252 67.56 52.4345 67.176L52.8985 67.704C52.5358 68.1413 52.0772 68.4773 51.5225 68.712C50.9785 68.9467 50.3865 69.064 49.7465 69.064C48.9145 69.064 48.1732 68.8827 47.5225 68.52C46.8718 68.1573 46.3598 67.656 45.9865 67.016C45.6238 66.376 45.4425 65.6453 45.4425 64.824C45.4425 64.0133 45.6132 63.288 45.9545 62.648C46.3065 61.9973 46.7865 61.4907 47.3945 61.128C48.0025 60.7653 48.6852 60.584 49.4425 60.584C50.1998 60.584 50.8772 60.7653 51.4745 61.128C52.0825 61.48 52.5572 61.976 52.8985 62.616C53.2505 63.256 53.4265 63.9813 53.4265 64.792L53.4105 65.016ZM49.4425 61.288C48.8558 61.288 48.3278 61.4213 47.8585 61.688C47.3892 61.944 47.0105 62.312 46.7225 62.792C46.4452 63.2613 46.2852 63.7947 46.2425 64.392H52.6425C52.6105 63.7947 52.4505 63.2613 52.1625 62.792C51.8745 62.3227 51.4958 61.9547 51.0265 61.688C50.5572 61.4213 50.0292 61.288 49.4425 61.288ZM65.1285 60.648V69H64.3925V61.928L60.7605 67.928H60.3925L56.7765 61.944V69H56.0405V60.648H56.8245L60.6005 66.968L64.3925 60.648H65.1285ZM74.7474 60.648V69H74.0114V66.12H71.2274C71.0354 66.12 70.8967 66.1147 70.8114 66.104L68.7474 69H67.8674L70.0274 66.008C69.3447 65.8587 68.822 65.5653 68.4594 65.128C68.0967 64.6907 67.9154 64.1253 67.9154 63.432C67.9154 62.5147 68.2194 61.8213 68.8274 61.352C69.446 60.8827 70.2887 60.648 71.3554 60.648H74.7474ZM68.7154 63.464C68.7154 64.8293 69.5794 65.512 71.3074 65.512H74.0114V61.352H71.4034C69.6114 61.352 68.7154 62.056 68.7154 63.464ZM89.6021 60.648V69H88.8021V61.368H83.1061V69H82.3061V60.648H89.6021ZM97.2641 60.584C98.0428 60.584 98.7468 60.7653 99.3761 61.128C100.005 61.4907 100.496 61.992 100.848 62.632C101.211 63.272 101.392 64.0027 101.392 64.824C101.392 65.6453 101.211 66.3813 100.848 67.032C100.496 67.672 100.005 68.1733 99.3761 68.536C98.7468 68.888 98.0428 69.064 97.2641 69.064C96.5281 69.064 95.8615 68.8933 95.2641 68.552C94.6668 68.2 94.2028 67.7147 93.8721 67.096V72.104H93.0721V60.648H93.8401V62.616C94.1708 61.976 94.6348 61.48 95.2321 61.128C95.8401 60.7653 96.5175 60.584 97.2641 60.584ZM97.2161 68.344C97.8561 68.344 98.4321 68.1947 98.9441 67.896C99.4561 67.5973 99.8561 67.1813 100.144 66.648C100.443 66.1147 100.592 65.5067 100.592 64.824C100.592 64.1413 100.443 63.5333 100.144 63C99.8561 62.4667 99.4561 62.0507 98.9441 61.752C98.4321 61.4533 97.8561 61.304 97.2161 61.304C96.5761 61.304 96.0001 61.4533 95.4881 61.752C94.9868 62.0507 94.5868 62.4667 94.2881 63C94.0001 63.5333 93.8561 64.1413 93.8561 64.824C93.8561 65.5067 94.0001 66.1147 94.2881 66.648C94.5868 67.1813 94.9868 67.5973 95.4881 67.896C96.0001 68.1947 96.5761 68.344 97.2161 68.344ZM107.322 69.064C106.532 69.064 105.818 68.8827 105.178 68.52C104.548 68.1573 104.052 67.656 103.69 67.016C103.327 66.3653 103.146 65.6347 103.146 64.824C103.146 64.0133 103.327 63.288 103.69 62.648C104.052 61.9973 104.548 61.4907 105.178 61.128C105.818 60.7653 106.532 60.584 107.322 60.584C108.111 60.584 108.82 60.7653 109.45 61.128C110.09 61.4907 110.591 61.9973 110.954 62.648C111.316 63.288 111.498 64.0133 111.498 64.824C111.498 65.6347 111.316 66.3653 110.954 67.016C110.591 67.656 110.09 68.1573 109.45 68.52C108.82 68.8827 108.111 69.064 107.322 69.064ZM107.322 68.344C107.962 68.344 108.532 68.1947 109.034 67.896C109.546 67.5973 109.946 67.1813 110.234 66.648C110.532 66.1147 110.682 65.5067 110.682 64.824C110.682 64.1413 110.532 63.5333 110.234 63C109.946 62.4667 109.546 62.0507 109.034 61.752C108.532 61.4533 107.962 61.304 107.322 61.304C106.682 61.304 106.106 61.4533 105.594 61.752C105.092 62.0507 104.692 62.4667 104.394 63C104.106 63.5333 103.962 64.1413 103.962 64.824C103.962 65.5067 104.106 66.1147 104.394 66.648C104.692 67.1813 105.092 67.5973 105.594 67.896C106.106 68.1947 106.682 68.344 107.322 68.344ZM120.6 60.648V69H119.8V61.368H115.448L115.336 63.592C115.272 64.744 115.176 65.7093 115.048 66.488C114.92 67.2667 114.701 67.896 114.392 68.376C114.082 68.856 113.656 69.096 113.112 69.096C112.952 69.096 112.722 69.0587 112.424 68.984L112.504 68.296C112.674 68.3387 112.802 68.36 112.888 68.36C113.336 68.36 113.677 68.1413 113.912 67.704C114.146 67.2667 114.306 66.7227 114.392 66.072C114.477 65.4213 114.546 64.5733 114.6 63.528L114.744 60.648H120.6ZM131.176 65.016H123.992C124.013 65.6667 124.179 66.248 124.488 66.76C124.797 67.2613 125.213 67.6507 125.736 67.928C126.269 68.2053 126.867 68.344 127.528 68.344C128.072 68.344 128.573 68.248 129.032 68.056C129.501 67.8533 129.891 67.56 130.2 67.176L130.664 67.704C130.301 68.1413 129.843 68.4773 129.288 68.712C128.744 68.9467 128.152 69.064 127.512 69.064C126.68 69.064 125.939 68.8827 125.288 68.52C124.637 68.1573 124.125 67.656 123.752 67.016C123.389 66.376 123.208 65.6453 123.208 64.824C123.208 64.0133 123.379 63.288 123.72 62.648C124.072 61.9973 124.552 61.4907 125.16 61.128C125.768 60.7653 126.451 60.584 127.208 60.584C127.965 60.584 128.643 60.7653 129.24 61.128C129.848 61.48 130.323 61.976 130.664 62.616C131.016 63.256 131.192 63.9813 131.192 64.792L131.176 65.016ZM127.208 61.288C126.621 61.288 126.093 61.4213 125.624 61.688C125.155 61.944 124.776 62.312 124.488 62.792C124.211 63.2613 124.051 63.7947 124.008 64.392H130.408C130.376 63.7947 130.216 63.2613 129.928 62.792C129.64 62.3227 129.261 61.9547 128.792 61.688C128.323 61.4213 127.795 61.288 127.208 61.288ZM125.832 58.856C125.672 58.856 125.533 58.8027 125.416 58.696C125.309 58.5787 125.256 58.44 125.256 58.28C125.256 58.1093 125.309 57.9707 125.416 57.864C125.533 57.7573 125.672 57.704 125.832 57.704C125.992 57.704 126.125 57.7627 126.232 57.88C126.349 57.9867 126.408 58.12 126.408 58.28C126.408 58.44 126.349 58.5787 126.232 58.696C126.115 58.8027 125.981 58.856 125.832 58.856ZM128.584 58.856C128.435 58.856 128.301 58.8027 128.184 58.696C128.067 58.5787 128.008 58.44 128.008 58.28C128.008 58.12 128.061 57.9867 128.168 57.88C128.285 57.7627 128.424 57.704 128.584 57.704C128.744 57.704 128.877 57.7573 128.984 57.864C129.101 57.9707 129.16 58.1093 129.16 58.28C129.16 58.44 129.101 58.5787 128.984 58.696C128.877 58.8027 128.744 58.856 128.584 58.856ZM139 61.368H135.736V69H134.936V61.368H131.671V60.648H139V61.368ZM143.48 60.584C144.515 60.584 145.31 60.8507 145.864 61.384C146.419 61.9067 146.696 62.68 146.696 63.704V69H145.928V67.512C145.662 68.0027 145.272 68.3867 144.76 68.664C144.248 68.9307 143.635 69.064 142.92 69.064C141.992 69.064 141.256 68.8453 140.712 68.408C140.179 67.9707 139.912 67.3947 139.912 66.68C139.912 65.9867 140.158 65.4267 140.648 65C141.15 64.5627 141.944 64.344 143.032 64.344H145.896V63.672C145.896 62.8933 145.683 62.3013 145.256 61.896C144.84 61.4907 144.227 61.288 143.416 61.288C142.862 61.288 142.328 61.384 141.816 61.576C141.315 61.768 140.888 62.024 140.536 62.344L140.136 61.768C140.552 61.3947 141.054 61.1067 141.64 60.904C142.227 60.6907 142.84 60.584 143.48 60.584ZM143.032 68.408C143.726 68.408 144.312 68.248 144.792 67.928C145.283 67.608 145.651 67.144 145.896 66.536V64.968H143.048C142.227 64.968 141.63 65.1173 141.256 65.416C140.894 65.7147 140.712 66.1253 140.712 66.648C140.712 67.192 140.915 67.624 141.32 67.944C141.726 68.2533 142.296 68.408 143.032 68.408ZM149.819 61.944C149.637 61.944 149.477 61.88 149.339 61.752C149.211 61.6133 149.147 61.448 149.147 61.256C149.147 61.064 149.211 60.904 149.339 60.776C149.477 60.648 149.637 60.584 149.819 60.584C150 60.584 150.155 60.648 150.283 60.776C150.421 60.904 150.491 61.064 150.491 61.256C150.491 61.448 150.421 61.6133 150.283 61.752C150.155 61.88 150 61.944 149.819 61.944ZM149.819 69.064C149.637 69.064 149.477 69 149.339 68.872C149.211 68.7333 149.147 68.568 149.147 68.376C149.147 68.184 149.211 68.024 149.339 67.896C149.477 67.768 149.637 67.704 149.819 67.704C150 67.704 150.155 67.768 150.283 67.896C150.421 68.024 150.491 68.184 150.491 68.376C150.491 68.568 150.421 68.7333 150.283 68.872C150.155 69 150 69.064 149.819 69.064ZM159.227 57.8V69H158.411V58.536H155.675V57.8H159.227ZM164.788 62.488C166.42 62.488 167.604 62.776 168.34 63.352C169.076 63.9173 169.444 64.7227 169.444 65.768C169.444 66.408 169.295 66.9787 168.996 67.48C168.708 67.9707 168.271 68.36 167.684 68.648C167.097 68.936 166.377 69.08 165.524 69.08C164.713 69.08 163.951 68.9413 163.236 68.664C162.532 68.3867 161.983 68.024 161.588 67.576L162.004 66.952C162.356 67.3573 162.841 67.688 163.46 67.944C164.089 68.2 164.772 68.328 165.508 68.328C166.511 68.328 167.279 68.0987 167.812 67.64C168.356 67.1813 168.628 66.568 168.628 65.8C168.628 64.9573 168.319 64.3173 167.7 63.88C167.092 63.4427 166.063 63.224 164.612 63.224H162.34L162.932 57.8H168.868V58.536H163.62L163.188 62.488H164.788ZM185.019 60.648V69H184.283V61.928L180.651 67.928H180.283L176.667 61.944V69H175.931V60.648H176.715L180.491 66.968L184.283 60.648H185.019ZM188.478 60.648H189.278V67.768L195.23 60.648H195.934V69H195.134V61.88L189.182 69H188.478V60.648ZM199.384 60.648H200.184V64.456H205.848V60.648H206.648V69H205.848V65.16H200.184V69H199.384V60.648Z" fill="white"/>
</svg>
