<svg width="226" height="104" viewBox="0 0 226 104" fill="none" xmlns="http://www.w3.org/2000/svg">
<path d="M226 51.9997C226 94.744 210.534 104 116.531 104C22.5289 104 0 94.744 0 51.9997C0 9.25545 22.5289 0 116.531 0C210.534 0 226 9.25545 226 51.9997Z" fill="#0C0C0C"/>
<path d="M79.8249 25.224C80.6035 25.384 81.1955 25.6987 81.6009 26.168C82.0062 26.6267 82.2089 27.2293 82.2089 27.976C82.2089 28.9467 81.8622 29.6933 81.1689 30.216C80.4862 30.7387 79.4782 31 78.1449 31H73.1849V19.8H77.8409C79.0355 19.8 79.9689 20.0453 80.6409 20.536C81.3129 21.0267 81.6489 21.736 81.6489 22.664C81.6489 23.2933 81.4889 23.8267 81.1689 24.264C80.8489 24.6907 80.4009 25.0107 79.8249 25.224ZM74.3529 24.872H77.7769C78.6409 24.872 79.3022 24.696 79.7609 24.344C80.2302 23.992 80.4649 23.48 80.4649 22.808C80.4649 22.136 80.2302 21.624 79.7609 21.272C79.3022 20.92 78.6409 20.744 77.7769 20.744H74.3529V24.872ZM78.1449 30.056C80.0755 30.056 81.0409 29.336 81.0409 27.896C81.0409 26.488 80.0755 25.784 78.1449 25.784H74.3529V30.056H78.1449ZM90.8173 23.592H87.6333V31H86.4973V23.592H83.3133V22.584H90.8173V23.592ZM95.5411 31.08C94.7305 31.08 93.9998 30.8987 93.3491 30.536C92.6985 30.1627 92.1865 29.6507 91.8131 29C91.4398 28.3493 91.2531 27.6133 91.2531 26.792C91.2531 25.9707 91.4398 25.2347 91.8131 24.584C92.1865 23.9333 92.6985 23.4267 93.3491 23.064C93.9998 22.7013 94.7305 22.52 95.5411 22.52C96.3518 22.52 97.0825 22.7013 97.7331 23.064C98.3838 23.4267 98.8905 23.9333 99.2531 24.584C99.6265 25.2347 99.8131 25.9707 99.8131 26.792C99.8131 27.6133 99.6265 28.3493 99.2531 29C98.8905 29.6507 98.3838 30.1627 97.7331 30.536C97.0825 30.8987 96.3518 31.08 95.5411 31.08ZM95.5411 30.072C96.1385 30.072 96.6718 29.9387 97.1411 29.672C97.6211 29.3947 97.9945 29.0053 98.2611 28.504C98.5278 28.0027 98.6611 27.432 98.6611 26.792C98.6611 26.152 98.5278 25.5813 98.2611 25.08C97.9945 24.5787 97.6211 24.1947 97.1411 23.928C96.6718 23.6507 96.1385 23.512 95.5411 23.512C94.9438 23.512 94.4051 23.6507 93.9251 23.928C93.4558 24.1947 93.0825 24.5787 92.8051 25.08C92.5385 25.5813 92.4051 26.152 92.4051 26.792C92.4051 27.432 92.5385 28.0027 92.8051 28.504C93.0825 29.0053 93.4558 29.3947 93.9251 29.672C94.4051 29.9387 94.9438 30.072 95.5411 30.072ZM106.577 22.52C107.366 22.52 108.081 22.7013 108.721 23.064C109.361 23.416 109.862 23.9173 110.225 24.568C110.588 25.2187 110.769 25.96 110.769 26.792C110.769 27.6347 110.588 28.3813 110.225 29.032C109.862 29.6827 109.361 30.1893 108.721 30.552C108.092 30.904 107.377 31.08 106.577 31.08C105.894 31.08 105.276 30.9413 104.721 30.664C104.177 30.376 103.729 29.96 103.377 29.416V34.104H102.241V22.584H103.329V24.248C103.67 23.6933 104.118 23.2667 104.673 22.968C105.238 22.6693 105.873 22.52 106.577 22.52ZM106.497 30.072C107.084 30.072 107.617 29.9387 108.097 29.672C108.577 29.3947 108.95 29.0053 109.217 28.504C109.494 28.0027 109.633 27.432 109.633 26.792C109.633 26.152 109.494 25.5867 109.217 25.096C108.95 24.5947 108.577 24.2053 108.097 23.928C107.617 23.6507 107.084 23.512 106.497 23.512C105.9 23.512 105.361 23.6507 104.881 23.928C104.412 24.2053 104.038 24.5947 103.761 25.096C103.494 25.5867 103.361 26.152 103.361 26.792C103.361 27.432 103.494 28.0027 103.761 28.504C104.038 29.0053 104.412 29.3947 104.881 29.672C105.361 29.9387 105.9 30.072 106.497 30.072ZM113.21 22.584H114.346V26.312H119.642V22.584H120.778V31H119.642V27.288H114.346V31H113.21V22.584ZM124.007 22.584H125.143V29.272L130.759 22.584H131.767V31H130.631V24.312L125.031 31H124.007V22.584ZM138.078 27.256H136.158V31H135.022V22.584H136.158V26.28H138.094L141.054 22.584H142.286L138.974 26.664L142.526 31H141.182L138.078 27.256ZM38.6048 39.8V51H37.7888V45.672H30.3008V51H29.4848V39.8H30.3008V44.952H37.7888V39.8H38.6048ZM49.473 47.016H42.289C42.3103 47.6667 42.4757 48.248 42.785 48.76C43.0943 49.2613 43.5103 49.6507 44.033 49.928C44.5663 50.2053 45.1637 50.344 45.825 50.344C46.369 50.344 46.8703 50.248 47.329 50.056C47.7983 49.8533 48.1877 49.56 48.497 49.176L48.961 49.704C48.5983 50.1413 48.1397 50.4773 47.585 50.712C47.041 50.9467 46.449 51.064 45.809 51.064C44.977 51.064 44.2357 50.8827 43.585 50.52C42.9343 50.1573 42.4223 49.656 42.049 49.016C41.6863 48.376 41.505 47.6453 41.505 46.824C41.505 46.0133 41.6757 45.288 42.017 44.648C42.369 43.9973 42.849 43.4907 43.457 43.128C44.065 42.7653 44.7477 42.584 45.505 42.584C46.2623 42.584 46.9397 42.7653 47.537 43.128C48.145 43.48 48.6197 43.976 48.961 44.616C49.313 45.256 49.489 45.9813 49.489 46.792L49.473 47.016ZM45.505 43.288C44.9183 43.288 44.3903 43.4213 43.921 43.688C43.4517 43.944 43.073 44.312 42.785 44.792C42.5077 45.2613 42.3477 45.7947 42.305 46.392H48.705C48.673 45.7947 48.513 45.2613 48.225 44.792C47.937 44.3227 47.5583 43.9547 47.089 43.688C46.6197 43.4213 46.0917 43.288 45.505 43.288ZM55.975 42.776C56.7537 42.776 57.4417 42.952 58.039 43.304C58.647 43.6453 59.1217 44.1253 59.463 44.744C59.8043 45.3627 59.975 46.0773 59.975 46.888C59.975 47.6987 59.799 48.424 59.447 49.064C59.1057 49.6933 58.6203 50.1893 57.991 50.552C57.3723 50.904 56.663 51.08 55.863 51.08C54.9457 51.08 54.1617 50.856 53.511 50.408C52.871 49.96 52.3803 49.3253 52.039 48.504C51.7083 47.6827 51.543 46.7227 51.543 45.624C51.543 44.376 51.6923 43.3413 51.991 42.52C52.3003 41.6987 52.759 41.0533 53.367 40.584C53.9857 40.104 54.775 39.7467 55.735 39.512L59.431 38.616L59.559 39.368L56.039 40.2C55.175 40.4027 54.471 40.7013 53.927 41.096C53.3937 41.48 52.9937 42.008 52.727 42.68C52.4603 43.352 52.3217 44.2107 52.311 45.256C52.5883 44.488 53.0523 43.8853 53.703 43.448C54.3537 43 55.111 42.776 55.975 42.776ZM55.879 50.392C56.5083 50.392 57.0737 50.2427 57.575 49.944C58.0763 49.6453 58.4657 49.2347 58.743 48.712C59.0203 48.1787 59.159 47.576 59.159 46.904C59.159 46.232 59.0203 45.64 58.743 45.128C58.4657 44.6053 58.0763 44.2053 57.575 43.928C57.0843 43.64 56.519 43.496 55.879 43.496C55.239 43.496 54.6683 43.64 54.167 43.928C53.6657 44.2053 53.2763 44.6053 52.999 45.128C52.7217 45.64 52.583 46.232 52.583 46.904C52.583 47.576 52.7217 48.1787 52.999 48.712C53.2763 49.2347 53.6657 49.6453 54.167 49.944C54.6683 50.2427 55.239 50.392 55.879 50.392ZM69.723 47.016H62.539C62.5603 47.6667 62.7257 48.248 63.035 48.76C63.3443 49.2613 63.7603 49.6507 64.283 49.928C64.8163 50.2053 65.4137 50.344 66.075 50.344C66.619 50.344 67.1203 50.248 67.579 50.056C68.0483 49.8533 68.4377 49.56 68.747 49.176L69.211 49.704C68.8483 50.1413 68.3897 50.4773 67.835 50.712C67.291 50.9467 66.699 51.064 66.059 51.064C65.227 51.064 64.4857 50.8827 63.835 50.52C63.1843 50.1573 62.6723 49.656 62.299 49.016C61.9363 48.376 61.755 47.6453 61.755 46.824C61.755 46.0133 61.9257 45.288 62.267 44.648C62.619 43.9973 63.099 43.4907 63.707 43.128C64.315 42.7653 64.9977 42.584 65.755 42.584C66.5123 42.584 67.1897 42.7653 67.787 43.128C68.395 43.48 68.8697 43.976 69.211 44.616C69.563 45.256 69.739 45.9813 69.739 46.792L69.723 47.016ZM65.755 43.288C65.1683 43.288 64.6403 43.4213 64.171 43.688C63.7017 43.944 63.323 44.312 63.035 44.792C62.7577 45.2613 62.5977 45.7947 62.555 46.392H68.955C68.923 45.7947 68.763 45.2613 68.475 44.792C68.187 44.3227 67.8083 43.9547 67.339 43.688C66.8697 43.4213 66.3417 43.288 65.755 43.288ZM75.729 51.064C74.9183 51.064 74.193 50.8827 73.553 50.52C72.913 50.1573 72.4117 49.656 72.049 49.016C71.6863 48.3653 71.505 47.6347 71.505 46.824C71.505 46.0027 71.6863 45.272 72.049 44.632C72.4117 43.9813 72.913 43.48 73.553 43.128C74.193 42.7653 74.9183 42.584 75.729 42.584C76.401 42.584 77.009 42.7173 77.553 42.984C78.1077 43.24 78.5557 43.6187 78.897 44.12L78.305 44.552C78.0063 44.136 77.633 43.8267 77.185 43.624C76.7477 43.4107 76.2623 43.304 75.729 43.304C75.0783 43.304 74.4917 43.4533 73.969 43.752C73.457 44.04 73.0517 44.4507 72.753 44.984C72.465 45.5173 72.321 46.1307 72.321 46.824C72.321 47.5173 72.465 48.1307 72.753 48.664C73.0517 49.1973 73.457 49.6133 73.969 49.912C74.4917 50.2 75.0783 50.344 75.729 50.344C76.2623 50.344 76.7477 50.2427 77.185 50.04C77.633 49.8267 78.0063 49.512 78.305 49.096L78.897 49.528C78.5557 50.0293 78.1077 50.4133 77.553 50.68C77.009 50.936 76.401 51.064 75.729 51.064ZM81.2593 42.648H82.0593V46.456H87.7233V42.648H88.5233V51H87.7233V47.16H82.0593V51H81.2593V42.648ZM95.306 51.064C94.5167 51.064 93.802 50.8827 93.162 50.52C92.5327 50.1573 92.0367 49.656 91.674 49.016C91.3113 48.3653 91.13 47.6347 91.13 46.824C91.13 46.0133 91.3113 45.288 91.674 44.648C92.0367 43.9973 92.5327 43.4907 93.162 43.128C93.802 42.7653 94.5167 42.584 95.306 42.584C96.0953 42.584 96.8047 42.7653 97.434 43.128C98.074 43.4907 98.5753 43.9973 98.938 44.648C99.3007 45.288 99.482 46.0133 99.482 46.824C99.482 47.6347 99.3007 48.3653 98.938 49.016C98.5753 49.656 98.074 50.1573 97.434 50.52C96.8047 50.8827 96.0953 51.064 95.306 51.064ZM95.306 50.344C95.946 50.344 96.5167 50.1947 97.018 49.896C97.53 49.5973 97.93 49.1813 98.218 48.648C98.5167 48.1147 98.666 47.5067 98.666 46.824C98.666 46.1413 98.5167 45.5333 98.218 45C97.93 44.4667 97.53 44.0507 97.018 43.752C96.5167 43.4533 95.946 43.304 95.306 43.304C94.666 43.304 94.09 43.4533 93.578 43.752C93.0767 44.0507 92.6767 44.4667 92.378 45C92.09 45.5333 91.946 46.1413 91.946 46.824C91.946 47.5067 92.09 48.1147 92.378 48.648C92.6767 49.1813 93.0767 49.5973 93.578 49.896C94.09 50.1947 94.666 50.344 95.306 50.344ZM109.207 47.016H102.023C102.045 47.6667 102.21 48.248 102.519 48.76C102.829 49.2613 103.245 49.6507 103.767 49.928C104.301 50.2053 104.898 50.344 105.559 50.344C106.103 50.344 106.605 50.248 107.063 50.056C107.533 49.8533 107.922 49.56 108.231 49.176L108.695 49.704C108.333 50.1413 107.874 50.4773 107.319 50.712C106.775 50.9467 106.183 51.064 105.543 51.064C104.711 51.064 103.97 50.8827 103.319 50.52C102.669 50.1573 102.157 49.656 101.783 49.016C101.421 48.376 101.239 47.6453 101.239 46.824C101.239 46.0133 101.41 45.288 101.751 44.648C102.103 43.9973 102.583 43.4907 103.191 43.128C103.799 42.7653 104.482 42.584 105.239 42.584C105.997 42.584 106.674 42.7653 107.271 43.128C107.879 43.48 108.354 43.976 108.695 44.616C109.047 45.256 109.223 45.9813 109.223 46.792L109.207 47.016ZM105.239 43.288C104.653 43.288 104.125 43.4213 103.655 43.688C103.186 43.944 102.807 44.312 102.519 44.792C102.242 45.2613 102.082 45.7947 102.039 46.392H108.439C108.407 45.7947 108.247 45.2613 107.959 44.792C107.671 44.3227 107.293 43.9547 106.823 43.688C106.354 43.4213 105.826 43.288 105.239 43.288ZM121.531 43.368H118.267V51H117.467V43.368H114.203V42.648H121.531V43.368ZM129.973 47.016H122.789C122.81 47.6667 122.976 48.248 123.285 48.76C123.594 49.2613 124.01 49.6507 124.533 49.928C125.066 50.2053 125.664 50.344 126.325 50.344C126.869 50.344 127.37 50.248 127.829 50.056C128.298 49.8533 128.688 49.56 128.997 49.176L129.461 49.704C129.098 50.1413 128.64 50.4773 128.085 50.712C127.541 50.9467 126.949 51.064 126.309 51.064C125.477 51.064 124.736 50.8827 124.085 50.52C123.434 50.1573 122.922 49.656 122.549 49.016C122.186 48.376 122.005 47.6453 122.005 46.824C122.005 46.0133 122.176 45.288 122.517 44.648C122.869 43.9973 123.349 43.4907 123.957 43.128C124.565 42.7653 125.248 42.584 126.005 42.584C126.762 42.584 127.44 42.7653 128.037 43.128C128.645 43.48 129.12 43.976 129.461 44.616C129.813 45.256 129.989 45.9813 129.989 46.792L129.973 47.016ZM126.005 43.288C125.418 43.288 124.89 43.4213 124.421 43.688C123.952 43.944 123.573 44.312 123.285 44.792C123.008 45.2613 122.848 45.7947 122.805 46.392H129.205C129.173 45.7947 129.013 45.2613 128.725 44.792C128.437 44.3227 128.058 43.9547 127.589 43.688C127.12 43.4213 126.592 43.288 126.005 43.288ZM138.928 42.648V51H138.128V43.368H133.776L133.664 45.592C133.6 46.744 133.504 47.7093 133.376 48.488C133.248 49.2667 133.029 49.896 132.72 50.376C132.411 50.856 131.984 51.096 131.44 51.096C131.28 51.096 131.051 51.0587 130.752 50.984L130.832 50.296C131.003 50.3387 131.131 50.36 131.216 50.36C131.664 50.36 132.005 50.1413 132.24 49.704C132.475 49.2667 132.635 48.7227 132.72 48.072C132.805 47.4213 132.875 46.5733 132.928 45.528L133.072 42.648H138.928ZM145.712 51.064C144.923 51.064 144.208 50.8827 143.568 50.52C142.939 50.1573 142.443 49.656 142.08 49.016C141.718 48.3653 141.536 47.6347 141.536 46.824C141.536 46.0133 141.718 45.288 142.08 44.648C142.443 43.9973 142.939 43.4907 143.568 43.128C144.208 42.7653 144.923 42.584 145.712 42.584C146.502 42.584 147.211 42.7653 147.84 43.128C148.48 43.4907 148.982 43.9973 149.344 44.648C149.707 45.288 149.888 46.0133 149.888 46.824C149.888 47.6347 149.707 48.3653 149.344 49.016C148.982 49.656 148.48 50.1573 147.84 50.52C147.211 50.8827 146.502 51.064 145.712 51.064ZM145.712 50.344C146.352 50.344 146.923 50.1947 147.424 49.896C147.936 49.5973 148.336 49.1813 148.624 48.648C148.923 48.1147 149.072 47.5067 149.072 46.824C149.072 46.1413 148.923 45.5333 148.624 45C148.336 44.4667 147.936 44.0507 147.424 43.752C146.923 43.4533 146.352 43.304 145.712 43.304C145.072 43.304 144.496 43.4533 143.984 43.752C143.483 44.0507 143.083 44.4667 142.784 45C142.496 45.5333 142.352 46.1413 142.352 46.824C142.352 47.5067 142.496 48.1147 142.784 48.648C143.083 49.1813 143.483 49.5973 143.984 49.896C144.496 50.1947 145.072 50.344 145.712 50.344ZM152.366 43.944C152.184 43.944 152.024 43.88 151.886 43.752C151.758 43.6133 151.694 43.448 151.694 43.256C151.694 43.064 151.758 42.904 151.886 42.776C152.024 42.648 152.184 42.584 152.366 42.584C152.547 42.584 152.702 42.648 152.83 42.776C152.968 42.904 153.038 43.064 153.038 43.256C153.038 43.448 152.968 43.6133 152.83 43.752C152.702 43.88 152.547 43.944 152.366 43.944ZM152.366 51.064C152.184 51.064 152.024 51 151.886 50.872C151.758 50.7333 151.694 50.568 151.694 50.376C151.694 50.184 151.758 50.024 151.886 49.896C152.024 49.768 152.184 49.704 152.366 49.704C152.547 49.704 152.702 49.768 152.83 49.896C152.968 50.024 153.038 50.184 153.038 50.376C153.038 50.568 152.968 50.7333 152.83 50.872C152.702 51 152.547 51.064 152.366 51.064ZM160.03 39.8H164.462C165.625 39.8 166.654 40.04 167.55 40.52C168.457 41 169.161 41.6667 169.662 42.52C170.163 43.3627 170.414 44.3227 170.414 45.4C170.414 46.4773 170.163 47.4427 169.662 48.296C169.161 49.1387 168.457 49.8 167.55 50.28C166.654 50.76 165.625 51 164.462 51H160.03V39.8ZM164.398 50.264C165.433 50.264 166.345 50.0613 167.134 49.656C167.923 49.24 168.531 48.664 168.958 47.928C169.385 47.192 169.598 46.3493 169.598 45.4C169.598 44.4507 169.385 43.608 168.958 42.872C168.531 42.136 167.923 41.5653 167.134 41.16C166.345 40.744 165.433 40.536 164.398 40.536H160.846V50.264H164.398ZM176.193 51.08C175.372 51.08 174.588 50.9413 173.841 50.664C173.105 50.376 172.529 50.008 172.113 49.56L172.481 48.952C172.876 49.368 173.404 49.7093 174.065 49.976C174.737 50.232 175.441 50.36 176.177 50.36C177.244 50.36 178.049 50.1573 178.593 49.752C179.137 49.3467 179.409 48.8187 179.409 48.168C179.409 47.6667 179.265 47.2667 178.977 46.968C178.689 46.6693 178.332 46.44 177.905 46.28C177.478 46.12 176.902 45.9547 176.177 45.784C175.356 45.5813 174.694 45.384 174.193 45.192C173.702 45 173.281 44.7067 172.929 44.312C172.588 43.9067 172.417 43.368 172.417 42.696C172.417 42.152 172.561 41.656 172.849 41.208C173.137 40.7493 173.574 40.3867 174.161 40.12C174.758 39.8533 175.5 39.72 176.385 39.72C177.004 39.72 177.612 39.8107 178.209 39.992C178.806 40.1733 179.324 40.4187 179.761 40.728L179.457 41.384C179.009 41.0747 178.513 40.84 177.969 40.68C177.436 40.52 176.908 40.44 176.385 40.44C175.35 40.44 174.566 40.648 174.033 41.064C173.5 41.48 173.233 42.0187 173.233 42.68C173.233 43.1813 173.377 43.5813 173.665 43.88C173.953 44.1787 174.31 44.408 174.737 44.568C175.164 44.728 175.745 44.8987 176.481 45.08C177.302 45.2827 177.958 45.48 178.449 45.672C178.94 45.864 179.356 46.1573 179.697 46.552C180.049 46.936 180.225 47.4587 180.225 48.12C180.225 48.664 180.076 49.16 179.777 49.608C179.489 50.056 179.041 50.4133 178.433 50.68C177.825 50.9467 177.078 51.08 176.193 51.08ZM184.587 39.8V51H183.771V40.536H181.035V39.8H184.587ZM19.4841 65.24C20.3161 65.3787 20.9401 65.6827 21.3561 66.152C21.7827 66.6213 21.9961 67.2453 21.9961 68.024C21.9961 68.984 21.6601 69.72 20.9881 70.232C20.3161 70.744 19.3187 71 17.9961 71H13.1801V59.8H17.6921C18.8654 59.8 19.7774 60.0453 20.4281 60.536C21.0894 61.0267 21.4201 61.7307 21.4201 62.648C21.4201 63.2987 21.2494 63.8427 20.9081 64.28C20.5667 64.7173 20.0921 65.0373 19.4841 65.24ZM13.9961 64.984H17.6761C18.6147 64.984 19.3347 64.792 19.8361 64.408C20.3374 64.024 20.5881 63.4693 20.5881 62.744C20.5881 62.008 20.3374 61.448 19.8361 61.064C19.3347 60.68 18.6147 60.488 17.6761 60.488H13.9961V64.984ZM18.0121 70.312C20.1241 70.312 21.1801 69.5333 21.1801 67.976C21.1801 67.176 20.9134 66.5893 20.3801 66.216C19.8467 65.8427 19.0574 65.656 18.0121 65.656H13.9961V70.312H18.0121ZM29.1001 62.584C29.8787 62.584 30.5827 62.7653 31.2121 63.128C31.8414 63.4907 32.3321 63.992 32.6841 64.632C33.0467 65.272 33.2281 66.0027 33.2281 66.824C33.2281 67.6453 33.0467 68.3813 32.6841 69.032C32.3321 69.672 31.8414 70.1733 31.2121 70.536C30.5827 70.888 29.8787 71.064 29.1001 71.064C28.3641 71.064 27.6974 70.8933 27.1001 70.552C26.5027 70.2 26.0387 69.7147 25.7081 69.096V74.104H24.9081V62.648H25.6761V64.616C26.0067 63.976 26.4707 63.48 27.0681 63.128C27.6761 62.7653 28.3534 62.584 29.1001 62.584ZM29.0521 70.344C29.6921 70.344 30.2681 70.1947 30.7801 69.896C31.2921 69.5973 31.6921 69.1813 31.9801 68.648C32.2787 68.1147 32.4281 67.5067 32.4281 66.824C32.4281 66.1413 32.2787 65.5333 31.9801 65C31.6921 64.4667 31.2921 64.0507 30.7801 63.752C30.2681 63.4533 29.6921 63.304 29.0521 63.304C28.4121 63.304 27.8361 63.4533 27.3241 63.752C26.8227 64.0507 26.4227 64.4667 26.1241 65C25.8361 65.5333 25.6921 66.1413 25.6921 66.824C25.6921 67.5067 25.8361 68.1147 26.1241 68.648C26.4227 69.1813 26.8227 69.5973 27.3241 69.896C27.8361 70.1947 28.4121 70.344 29.0521 70.344ZM42.9496 67.016H35.7656C35.7869 67.6667 35.9522 68.248 36.2616 68.76C36.5709 69.2613 36.9869 69.6507 37.5096 69.928C38.0429 70.2053 38.6402 70.344 39.3016 70.344C39.8456 70.344 40.3469 70.248 40.8056 70.056C41.2749 69.8533 41.6642 69.56 41.9736 69.176L42.4376 69.704C42.0749 70.1413 41.6162 70.4773 41.0616 70.712C40.5176 70.9467 39.9256 71.064 39.2856 71.064C38.4536 71.064 37.7122 70.8827 37.0616 70.52C36.4109 70.1573 35.8989 69.656 35.5256 69.016C35.1629 68.376 34.9816 67.6453 34.9816 66.824C34.9816 66.0133 35.1522 65.288 35.4936 64.648C35.8456 63.9973 36.3256 63.4907 36.9336 63.128C37.5416 62.7653 38.2242 62.584 38.9816 62.584C39.7389 62.584 40.4162 62.7653 41.0136 63.128C41.6216 63.48 42.0962 63.976 42.4376 64.616C42.7896 65.256 42.9656 65.9813 42.9656 66.792L42.9496 67.016ZM38.9816 63.288C38.3949 63.288 37.8669 63.4213 37.3976 63.688C36.9282 63.944 36.5496 64.312 36.2616 64.792C35.9842 65.2613 35.8242 65.7947 35.7816 66.392H42.1816C42.1496 65.7947 41.9896 65.2613 41.7016 64.792C41.4136 64.3227 41.0349 63.9547 40.5656 63.688C40.0962 63.4213 39.5682 63.288 38.9816 63.288ZM54.6676 62.648V71H53.9316V63.928L50.2996 69.928H49.9316L46.3156 63.944V71H45.5796V62.648H46.3636L50.1396 68.968L53.9316 62.648H54.6676ZM64.2864 62.648V71H63.5504V68.12H60.7664C60.5744 68.12 60.4358 68.1147 60.3504 68.104L58.2864 71H57.4064L59.5664 68.008C58.8838 67.8587 58.3611 67.5653 57.9984 67.128C57.6358 66.6907 57.4544 66.1253 57.4544 65.432C57.4544 64.5147 57.7584 63.8213 58.3664 63.352C58.9851 62.8827 59.8278 62.648 60.8944 62.648H64.2864ZM58.2544 65.464C58.2544 66.8293 59.1184 67.512 60.8464 67.512H63.5504V63.352H60.9424C59.1504 63.352 58.2544 64.056 58.2544 65.464ZM79.1412 62.648V71H78.3412V63.368H72.6452V71H71.8452V62.648H79.1412ZM86.8032 62.584C87.5819 62.584 88.2859 62.7653 88.9152 63.128C89.5445 63.4907 90.0352 63.992 90.3872 64.632C90.7499 65.272 90.9312 66.0027 90.9312 66.824C90.9312 67.6453 90.7499 68.3813 90.3872 69.032C90.0352 69.672 89.5445 70.1733 88.9152 70.536C88.2859 70.888 87.5819 71.064 86.8032 71.064C86.0672 71.064 85.4005 70.8933 84.8032 70.552C84.2059 70.2 83.7419 69.7147 83.4112 69.096V74.104H82.6112V62.648H83.3792V64.616C83.7099 63.976 84.1739 63.48 84.7712 63.128C85.3792 62.7653 86.0565 62.584 86.8032 62.584ZM86.7552 70.344C87.3952 70.344 87.9712 70.1947 88.4832 69.896C88.9952 69.5973 89.3952 69.1813 89.6832 68.648C89.9819 68.1147 90.1312 67.5067 90.1312 66.824C90.1312 66.1413 89.9819 65.5333 89.6832 65C89.3952 64.4667 88.9952 64.0507 88.4832 63.752C87.9712 63.4533 87.3952 63.304 86.7552 63.304C86.1152 63.304 85.5392 63.4533 85.0272 63.752C84.5259 64.0507 84.1259 64.4667 83.8272 65C83.5392 65.5333 83.3952 66.1413 83.3952 66.824C83.3952 67.5067 83.5392 68.1147 83.8272 68.648C84.1259 69.1813 84.5259 69.5973 85.0272 69.896C85.5392 70.1947 86.1152 70.344 86.7552 70.344ZM96.8607 71.064C96.0714 71.064 95.3567 70.8827 94.7167 70.52C94.0874 70.1573 93.5914 69.656 93.2287 69.016C92.866 68.3653 92.6847 67.6347 92.6847 66.824C92.6847 66.0133 92.866 65.288 93.2287 64.648C93.5914 63.9973 94.0874 63.4907 94.7167 63.128C95.3567 62.7653 96.0714 62.584 96.8607 62.584C97.65 62.584 98.3594 62.7653 98.9887 63.128C99.6287 63.4907 100.13 63.9973 100.493 64.648C100.855 65.288 101.037 66.0133 101.037 66.824C101.037 67.6347 100.855 68.3653 100.493 69.016C100.13 69.656 99.6287 70.1573 98.9887 70.52C98.3594 70.8827 97.65 71.064 96.8607 71.064ZM96.8607 70.344C97.5007 70.344 98.0714 70.1947 98.5727 69.896C99.0847 69.5973 99.4847 69.1813 99.7727 68.648C100.071 68.1147 100.221 67.5067 100.221 66.824C100.221 66.1413 100.071 65.5333 99.7727 65C99.4847 64.4667 99.0847 64.0507 98.5727 63.752C98.0714 63.4533 97.5007 63.304 96.8607 63.304C96.2207 63.304 95.6447 63.4533 95.1327 63.752C94.6314 64.0507 94.2314 64.4667 93.9327 65C93.6447 65.5333 93.5007 66.1413 93.5007 66.824C93.5007 67.5067 93.6447 68.1147 93.9327 68.648C94.2314 69.1813 94.6314 69.5973 95.1327 69.896C95.6447 70.1947 96.2207 70.344 96.8607 70.344ZM110.139 62.648V71H109.339V63.368H104.987L104.875 65.592C104.811 66.744 104.715 67.7093 104.587 68.488C104.459 69.2667 104.24 69.896 103.931 70.376C103.621 70.856 103.195 71.096 102.651 71.096C102.491 71.096 102.261 71.0587 101.963 70.984L102.043 70.296C102.213 70.3387 102.341 70.36 102.427 70.36C102.875 70.36 103.216 70.1413 103.451 69.704C103.685 69.2667 103.845 68.7227 103.931 68.072C104.016 67.4213 104.085 66.5733 104.139 65.528L104.283 62.648H110.139ZM120.715 67.016H113.531C113.553 67.6667 113.718 68.248 114.027 68.76C114.337 69.2613 114.753 69.6507 115.275 69.928C115.809 70.2053 116.406 70.344 117.067 70.344C117.611 70.344 118.113 70.248 118.571 70.056C119.041 69.8533 119.43 69.56 119.739 69.176L120.203 69.704C119.841 70.1413 119.382 70.4773 118.827 70.712C118.283 70.9467 117.691 71.064 117.051 71.064C116.219 71.064 115.478 70.8827 114.827 70.52C114.177 70.1573 113.665 69.656 113.291 69.016C112.929 68.376 112.747 67.6453 112.747 66.824C112.747 66.0133 112.918 65.288 113.259 64.648C113.611 63.9973 114.091 63.4907 114.699 63.128C115.307 62.7653 115.99 62.584 116.747 62.584C117.505 62.584 118.182 62.7653 118.779 63.128C119.387 63.48 119.862 63.976 120.203 64.616C120.555 65.256 120.731 65.9813 120.731 66.792L120.715 67.016ZM116.747 63.288C116.161 63.288 115.633 63.4213 115.163 63.688C114.694 63.944 114.315 64.312 114.027 64.792C113.75 65.2613 113.59 65.7947 113.547 66.392H119.947C119.915 65.7947 119.755 65.2613 119.467 64.792C119.179 64.3227 118.801 63.9547 118.331 63.688C117.862 63.4213 117.334 63.288 116.747 63.288ZM115.371 60.856C115.211 60.856 115.073 60.8027 114.955 60.696C114.849 60.5787 114.795 60.44 114.795 60.28C114.795 60.1093 114.849 59.9707 114.955 59.864C115.073 59.7573 115.211 59.704 115.371 59.704C115.531 59.704 115.665 59.7627 115.771 59.88C115.889 59.9867 115.947 60.12 115.947 60.28C115.947 60.44 115.889 60.5787 115.771 60.696C115.654 60.8027 115.521 60.856 115.371 60.856ZM118.123 60.856C117.974 60.856 117.841 60.8027 117.723 60.696C117.606 60.5787 117.547 60.44 117.547 60.28C117.547 60.12 117.601 59.9867 117.707 59.88C117.825 59.7627 117.963 59.704 118.123 59.704C118.283 59.704 118.417 59.7573 118.523 59.864C118.641 59.9707 118.699 60.1093 118.699 60.28C118.699 60.44 118.641 60.5787 118.523 60.696C118.417 60.8027 118.283 60.856 118.123 60.856ZM128.539 63.368H125.275V71H124.475V63.368H121.211V62.648H128.539V63.368ZM133.019 62.584C134.054 62.584 134.849 62.8507 135.403 63.384C135.958 63.9067 136.235 64.68 136.235 65.704V71H135.467V69.512C135.201 70.0027 134.811 70.3867 134.299 70.664C133.787 70.9307 133.174 71.064 132.459 71.064C131.531 71.064 130.795 70.8453 130.251 70.408C129.718 69.9707 129.451 69.3947 129.451 68.68C129.451 67.9867 129.697 67.4267 130.187 67C130.689 66.5627 131.483 66.344 132.571 66.344H135.435V65.672C135.435 64.8933 135.222 64.3013 134.795 63.896C134.379 63.4907 133.766 63.288 132.955 63.288C132.401 63.288 131.867 63.384 131.355 63.576C130.854 63.768 130.427 64.024 130.075 64.344L129.675 63.768C130.091 63.3947 130.593 63.1067 131.179 62.904C131.766 62.6907 132.379 62.584 133.019 62.584ZM132.571 70.408C133.265 70.408 133.851 70.248 134.331 69.928C134.822 69.608 135.19 69.144 135.435 68.536V66.968H132.587C131.766 66.968 131.169 67.1173 130.795 67.416C130.433 67.7147 130.251 68.1253 130.251 68.648C130.251 69.192 130.454 69.624 130.859 69.944C131.265 70.2533 131.835 70.408 132.571 70.408ZM139.358 63.944C139.176 63.944 139.016 63.88 138.878 63.752C138.75 63.6133 138.686 63.448 138.686 63.256C138.686 63.064 138.75 62.904 138.878 62.776C139.016 62.648 139.176 62.584 139.358 62.584C139.539 62.584 139.694 62.648 139.822 62.776C139.96 62.904 140.03 63.064 140.03 63.256C140.03 63.448 139.96 63.6133 139.822 63.752C139.694 63.88 139.539 63.944 139.358 63.944ZM139.358 71.064C139.176 71.064 139.016 71 138.878 70.872C138.75 70.7333 138.686 70.568 138.686 70.376C138.686 70.184 138.75 70.024 138.878 69.896C139.016 69.768 139.176 69.704 139.358 69.704C139.539 69.704 139.694 69.768 139.822 69.896C139.96 70.024 140.03 70.184 140.03 70.376C140.03 70.568 139.96 70.7333 139.822 70.872C139.694 71 139.539 71.064 139.358 71.064ZM153.422 70.264V71H145.726V70.424L150.462 65.72C151.081 65.1013 151.497 64.5733 151.71 64.136C151.934 63.688 152.046 63.2293 152.046 62.76C152.046 62.0453 151.801 61.4853 151.31 61.08C150.83 60.6747 150.132 60.472 149.214 60.472C148.51 60.472 147.892 60.5787 147.358 60.792C146.836 61.0053 146.382 61.3307 145.998 61.768L145.422 61.256C145.849 60.7653 146.388 60.3867 147.038 60.12C147.7 59.8533 148.446 59.72 149.278 59.72C150.377 59.72 151.252 59.9867 151.902 60.52C152.553 61.0533 152.878 61.7733 152.878 62.68C152.878 63.256 152.75 63.8053 152.494 64.328C152.238 64.8507 151.758 65.4587 151.054 66.152L146.926 70.264H153.422ZM159.287 71.08C158.434 71.08 157.671 70.8507 156.999 70.392C156.338 69.9227 155.821 69.2613 155.447 68.408C155.085 67.5547 154.903 66.552 154.903 65.4C154.903 64.248 155.085 63.2453 155.447 62.392C155.821 61.5387 156.338 60.8827 156.999 60.424C157.671 59.9547 158.434 59.72 159.287 59.72C160.141 59.72 160.898 59.9547 161.559 60.424C162.231 60.8827 162.749 61.5387 163.111 62.392C163.485 63.2453 163.671 64.248 163.671 65.4C163.671 66.552 163.485 67.5547 163.111 68.408C162.749 69.2613 162.231 69.9227 161.559 70.392C160.898 70.8507 160.141 71.08 159.287 71.08ZM159.287 70.328C159.991 70.328 160.61 70.136 161.143 69.752C161.687 69.3573 162.109 68.792 162.407 68.056C162.706 67.3093 162.855 66.424 162.855 65.4C162.855 64.376 162.706 63.496 162.407 62.76C162.109 62.0133 161.687 61.448 161.143 61.064C160.61 60.6693 159.991 60.472 159.287 60.472C158.583 60.472 157.959 60.6693 157.415 61.064C156.882 61.448 156.466 62.0133 156.167 62.76C155.869 63.496 155.719 64.376 155.719 65.4C155.719 66.424 155.869 67.3093 156.167 68.056C156.466 68.792 156.882 69.3573 157.415 69.752C157.959 70.136 158.583 70.328 159.287 70.328ZM179.48 62.648V71H178.744V63.928L175.112 69.928H174.744L171.128 63.944V71H170.392V62.648H171.176L174.952 68.968L178.744 62.648H179.48ZM182.939 62.648H183.739V69.768L189.691 62.648H190.395V71H189.595V63.88L183.643 71H182.939V62.648ZM193.845 62.648H194.645V66.456H200.309V62.648H201.109V71H200.309V67.16H194.645V71H193.845V62.648Z" fill="white"/>
</svg>
