<svg width="226" height="97" viewBox="0 0 226 97" fill="none" xmlns="http://www.w3.org/2000/svg">
<path d="M226 48.4997C226 88.367 210.534 97 116.531 97C22.5289 97 0 88.367 0 48.4997C0 8.63249 22.5289 0 116.531 0C210.534 0 226 8.63249 226 48.4997Z" fill="#0C0C0C"/>
<path d="M76.0124 22.224C76.791 22.384 77.383 22.6987 77.7884 23.168C78.1937 23.6267 78.3964 24.2293 78.3964 24.976C78.3964 25.9467 78.0497 26.6933 77.3564 27.216C76.6737 27.7387 75.6657 28 74.3324 28H69.3724V16.8H74.0284C75.223 16.8 76.1564 17.0453 76.8284 17.536C77.5004 18.0267 77.8364 18.736 77.8364 19.664C77.8364 20.2933 77.6764 20.8267 77.3564 21.264C77.0364 21.6907 76.5884 22.0107 76.0124 22.224ZM70.5404 21.872H73.9644C74.8284 21.872 75.4897 21.696 75.9484 21.344C76.4177 20.992 76.6524 20.48 76.6524 19.808C76.6524 19.136 76.4177 18.624 75.9484 18.272C75.4897 17.92 74.8284 17.744 73.9644 17.744H70.5404V21.872ZM74.3324 27.056C76.263 27.056 77.2284 26.336 77.2284 24.896C77.2284 23.488 76.263 22.784 74.3324 22.784H70.5404V27.056H74.3324ZM87.0048 20.592H83.8208V28H82.6848V20.592H79.5008V19.584H87.0048V20.592ZM91.7286 28.08C90.918 28.08 90.1873 27.8987 89.5366 27.536C88.886 27.1627 88.374 26.6507 88.0006 26C87.6273 25.3493 87.4406 24.6133 87.4406 23.792C87.4406 22.9707 87.6273 22.2347 88.0006 21.584C88.374 20.9333 88.886 20.4267 89.5366 20.064C90.1873 19.7013 90.918 19.52 91.7286 19.52C92.5393 19.52 93.27 19.7013 93.9206 20.064C94.5713 20.4267 95.078 20.9333 95.4406 21.584C95.814 22.2347 96.0006 22.9707 96.0006 23.792C96.0006 24.6133 95.814 25.3493 95.4406 26C95.078 26.6507 94.5713 27.1627 93.9206 27.536C93.27 27.8987 92.5393 28.08 91.7286 28.08ZM91.7286 27.072C92.326 27.072 92.8593 26.9387 93.3286 26.672C93.8086 26.3947 94.182 26.0053 94.4486 25.504C94.7153 25.0027 94.8486 24.432 94.8486 23.792C94.8486 23.152 94.7153 22.5813 94.4486 22.08C94.182 21.5787 93.8086 21.1947 93.3286 20.928C92.8593 20.6507 92.326 20.512 91.7286 20.512C91.1313 20.512 90.5926 20.6507 90.1126 20.928C89.6433 21.1947 89.27 21.5787 88.9926 22.08C88.726 22.5813 88.5926 23.152 88.5926 23.792C88.5926 24.432 88.726 25.0027 88.9926 25.504C89.27 26.0053 89.6433 26.3947 90.1126 26.672C90.5926 26.9387 91.1313 27.072 91.7286 27.072ZM102.765 19.52C103.554 19.52 104.269 19.7013 104.909 20.064C105.549 20.416 106.05 20.9173 106.413 21.568C106.775 22.2187 106.957 22.96 106.957 23.792C106.957 24.6347 106.775 25.3813 106.413 26.032C106.05 26.6827 105.549 27.1893 104.909 27.552C104.279 27.904 103.565 28.08 102.765 28.08C102.082 28.08 101.463 27.9413 100.909 27.664C100.365 27.376 99.9165 26.96 99.5645 26.416V31.104H98.4285V19.584H99.5165V21.248C99.8578 20.6933 100.306 20.2667 100.861 19.968C101.426 19.6693 102.061 19.52 102.765 19.52ZM102.685 27.072C103.271 27.072 103.805 26.9387 104.285 26.672C104.765 26.3947 105.138 26.0053 105.405 25.504C105.682 25.0027 105.821 24.432 105.821 23.792C105.821 23.152 105.682 22.5867 105.405 22.096C105.138 21.5947 104.765 21.2053 104.285 20.928C103.805 20.6507 103.271 20.512 102.685 20.512C102.087 20.512 101.549 20.6507 101.069 20.928C100.599 21.2053 100.226 21.5947 99.9485 22.096C99.6818 22.5867 99.5485 23.152 99.5485 23.792C99.5485 24.432 99.6818 25.0027 99.9485 25.504C100.226 26.0053 100.599 26.3947 101.069 26.672C101.549 26.9387 102.087 27.072 102.685 27.072ZM109.397 19.584H110.533V23.312H115.829V19.584H116.965V28H115.829V24.288H110.533V28H109.397V19.584ZM120.194 19.584H121.33V26.272L126.946 19.584H127.954V28H126.818V21.312L121.218 28H120.194V19.584ZM134.266 24.256H132.346V28H131.21V19.584H132.346V23.28H134.282L137.242 19.584H138.474L135.162 23.664L138.714 28H137.37L134.266 24.256ZM146.598 31.104C146.001 30.1227 145.542 28.9973 145.222 27.728C144.902 26.448 144.742 25.0773 144.742 23.616C144.742 22.1547 144.902 20.784 145.222 19.504C145.542 18.2133 146.001 17.088 146.598 16.128H147.686C147.057 17.2053 146.593 18.3627 146.294 19.6C146.006 20.8373 145.862 22.176 145.862 23.616C145.862 25.056 146.006 26.3947 146.294 27.632C146.593 28.8693 147.057 30.0267 147.686 31.104H146.598ZM156.824 26.976V28H148.968V27.184L153.624 22.624C154.21 22.048 154.605 21.552 154.808 21.136C155.021 20.7093 155.128 20.2827 155.128 19.856C155.128 19.1947 154.898 18.6827 154.44 18.32C153.992 17.9467 153.346 17.76 152.504 17.76C151.192 17.76 150.173 18.176 149.448 19.008L148.632 18.304C149.069 17.792 149.624 17.3973 150.296 17.12C150.978 16.8427 151.746 16.704 152.6 16.704C153.741 16.704 154.642 16.976 155.304 17.52C155.976 18.0533 156.312 18.7893 156.312 19.728C156.312 20.304 156.184 20.8587 155.928 21.392C155.672 21.9253 155.186 22.5387 154.472 23.232L150.664 26.976H156.824ZM158.078 31.104C158.707 30.0267 159.171 28.8747 159.47 27.648C159.768 26.4107 159.918 25.0667 159.918 23.616C159.918 22.1653 159.768 20.8267 159.47 19.6C159.171 18.3627 158.707 17.2053 158.078 16.128H159.166C159.763 17.088 160.222 18.2133 160.542 19.504C160.872 20.784 161.038 22.1547 161.038 23.616C161.038 25.0773 160.878 26.448 160.558 27.728C160.238 29.008 159.774 30.1333 159.166 31.104H158.078ZM27.9876 36.8V48H27.1716V42.672H19.6836V48H18.8676V36.8H19.6836V41.952H27.1716V36.8H27.9876ZM38.8558 44.016H31.6718C31.6931 44.6667 31.8585 45.248 32.1678 45.76C32.4771 46.2613 32.8931 46.6507 33.4158 46.928C33.9491 47.2053 34.5465 47.344 35.2078 47.344C35.7518 47.344 36.2531 47.248 36.7118 47.056C37.1811 46.8533 37.5705 46.56 37.8798 46.176L38.3438 46.704C37.9811 47.1413 37.5225 47.4773 36.9678 47.712C36.4238 47.9467 35.8318 48.064 35.1918 48.064C34.3598 48.064 33.6185 47.8827 32.9678 47.52C32.3171 47.1573 31.8051 46.656 31.4318 46.016C31.0691 45.376 30.8878 44.6453 30.8878 43.824C30.8878 43.0133 31.0585 42.288 31.3998 41.648C31.7518 40.9973 32.2318 40.4907 32.8398 40.128C33.4478 39.7653 34.1305 39.584 34.8878 39.584C35.6451 39.584 36.3225 39.7653 36.9198 40.128C37.5278 40.48 38.0025 40.976 38.3438 41.616C38.6958 42.256 38.8718 42.9813 38.8718 43.792L38.8558 44.016ZM34.8878 40.288C34.3011 40.288 33.7731 40.4213 33.3038 40.688C32.8345 40.944 32.4558 41.312 32.1678 41.792C31.8905 42.2613 31.7305 42.7947 31.6878 43.392H38.0878C38.0558 42.7947 37.8958 42.2613 37.6078 41.792C37.3198 41.3227 36.9411 40.9547 36.4718 40.688C36.0025 40.4213 35.4745 40.288 34.8878 40.288ZM45.3578 39.776C46.1365 39.776 46.8245 39.952 47.4218 40.304C48.0298 40.6453 48.5045 41.1253 48.8458 41.744C49.1871 42.3627 49.3578 43.0773 49.3578 43.888C49.3578 44.6987 49.1818 45.424 48.8298 46.064C48.4885 46.6933 48.0031 47.1893 47.3738 47.552C46.7551 47.904 46.0458 48.08 45.2458 48.08C44.3285 48.08 43.5445 47.856 42.8938 47.408C42.2538 46.96 41.7631 46.3253 41.4218 45.504C41.0911 44.6827 40.9258 43.7227 40.9258 42.624C40.9258 41.376 41.0751 40.3413 41.3738 39.52C41.6831 38.6987 42.1418 38.0533 42.7498 37.584C43.3685 37.104 44.1578 36.7467 45.1178 36.512L48.8138 35.616L48.9418 36.368L45.4218 37.2C44.5578 37.4027 43.8538 37.7013 43.3098 38.096C42.7765 38.48 42.3765 39.008 42.1098 39.68C41.8431 40.352 41.7045 41.2107 41.6938 42.256C41.9711 41.488 42.4351 40.8853 43.0858 40.448C43.7365 40 44.4938 39.776 45.3578 39.776ZM45.2618 47.392C45.8911 47.392 46.4565 47.2427 46.9578 46.944C47.4591 46.6453 47.8485 46.2347 48.1258 45.712C48.4031 45.1787 48.5418 44.576 48.5418 43.904C48.5418 43.232 48.4031 42.64 48.1258 42.128C47.8485 41.6053 47.4591 41.2053 46.9578 40.928C46.4671 40.64 45.9018 40.496 45.2618 40.496C44.6218 40.496 44.0511 40.64 43.5498 40.928C43.0485 41.2053 42.6591 41.6053 42.3818 42.128C42.1045 42.64 41.9658 43.232 41.9658 43.904C41.9658 44.576 42.1045 45.1787 42.3818 45.712C42.6591 46.2347 43.0485 46.6453 43.5498 46.944C44.0511 47.2427 44.6218 47.392 45.2618 47.392ZM59.1058 44.016H51.9218C51.9431 44.6667 52.1085 45.248 52.4178 45.76C52.7271 46.2613 53.1431 46.6507 53.6658 46.928C54.1991 47.2053 54.7965 47.344 55.4578 47.344C56.0018 47.344 56.5031 47.248 56.9618 47.056C57.4311 46.8533 57.8205 46.56 58.1298 46.176L58.5938 46.704C58.2311 47.1413 57.7725 47.4773 57.2178 47.712C56.6738 47.9467 56.0818 48.064 55.4418 48.064C54.6098 48.064 53.8685 47.8827 53.2178 47.52C52.5671 47.1573 52.0551 46.656 51.6818 46.016C51.3191 45.376 51.1378 44.6453 51.1378 43.824C51.1378 43.0133 51.3085 42.288 51.6498 41.648C52.0018 40.9973 52.4818 40.4907 53.0898 40.128C53.6978 39.7653 54.3805 39.584 55.1378 39.584C55.8951 39.584 56.5725 39.7653 57.1698 40.128C57.7778 40.48 58.2525 40.976 58.5938 41.616C58.9458 42.256 59.1218 42.9813 59.1218 43.792L59.1058 44.016ZM55.1378 40.288C54.5511 40.288 54.0231 40.4213 53.5538 40.688C53.0845 40.944 52.7058 41.312 52.4178 41.792C52.1405 42.2613 51.9805 42.7947 51.9378 43.392H58.3378C58.3058 42.7947 58.1458 42.2613 57.8578 41.792C57.5698 41.3227 57.1911 40.9547 56.7218 40.688C56.2525 40.4213 55.7245 40.288 55.1378 40.288ZM65.1118 48.064C64.3011 48.064 63.5758 47.8827 62.9358 47.52C62.2958 47.1573 61.7945 46.656 61.4318 46.016C61.0691 45.3653 60.8878 44.6347 60.8878 43.824C60.8878 43.0027 61.0691 42.272 61.4318 41.632C61.7945 40.9813 62.2958 40.48 62.9358 40.128C63.5758 39.7653 64.3011 39.584 65.1118 39.584C65.7838 39.584 66.3918 39.7173 66.9358 39.984C67.4905 40.24 67.9385 40.6187 68.2798 41.12L67.6878 41.552C67.3891 41.136 67.0158 40.8267 66.5678 40.624C66.1305 40.4107 65.6451 40.304 65.1118 40.304C64.4611 40.304 63.8745 40.4533 63.3518 40.752C62.8398 41.04 62.4345 41.4507 62.1358 41.984C61.8478 42.5173 61.7038 43.1307 61.7038 43.824C61.7038 44.5173 61.8478 45.1307 62.1358 45.664C62.4345 46.1973 62.8398 46.6133 63.3518 46.912C63.8745 47.2 64.4611 47.344 65.1118 47.344C65.6451 47.344 66.1305 47.2427 66.5678 47.04C67.0158 46.8267 67.3891 46.512 67.6878 46.096L68.2798 46.528C67.9385 47.0293 67.4905 47.4133 66.9358 47.68C66.3918 47.936 65.7838 48.064 65.1118 48.064ZM70.6421 39.648H71.4421V43.456H77.1061V39.648H77.9061V48H77.1061V44.16H71.4421V48H70.6421V39.648ZM84.6888 48.064C83.8995 48.064 83.1848 47.8827 82.5448 47.52C81.9155 47.1573 81.4195 46.656 81.0568 46.016C80.6941 45.3653 80.5128 44.6347 80.5128 43.824C80.5128 43.0133 80.6941 42.288 81.0568 41.648C81.4195 40.9973 81.9155 40.4907 82.5448 40.128C83.1848 39.7653 83.8995 39.584 84.6888 39.584C85.4781 39.584 86.1875 39.7653 86.8168 40.128C87.4568 40.4907 87.9581 40.9973 88.3208 41.648C88.6835 42.288 88.8648 43.0133 88.8648 43.824C88.8648 44.6347 88.6835 45.3653 88.3208 46.016C87.9581 46.656 87.4568 47.1573 86.8168 47.52C86.1875 47.8827 85.4781 48.064 84.6888 48.064ZM84.6888 47.344C85.3288 47.344 85.8995 47.1947 86.4008 46.896C86.9128 46.5973 87.3128 46.1813 87.6008 45.648C87.8995 45.1147 88.0488 44.5067 88.0488 43.824C88.0488 43.1413 87.8995 42.5333 87.6008 42C87.3128 41.4667 86.9128 41.0507 86.4008 40.752C85.8995 40.4533 85.3288 40.304 84.6888 40.304C84.0488 40.304 83.4728 40.4533 82.9608 40.752C82.4595 41.0507 82.0595 41.4667 81.7608 42C81.4728 42.5333 81.3288 43.1413 81.3288 43.824C81.3288 44.5067 81.4728 45.1147 81.7608 45.648C82.0595 46.1813 82.4595 46.5973 82.9608 46.896C83.4728 47.1947 84.0488 47.344 84.6888 47.344ZM98.5902 44.016H91.4062C91.4275 44.6667 91.5929 45.248 91.9022 45.76C92.2115 46.2613 92.6275 46.6507 93.1502 46.928C93.6835 47.2053 94.2809 47.344 94.9422 47.344C95.4862 47.344 95.9875 47.248 96.4462 47.056C96.9155 46.8533 97.3049 46.56 97.6142 46.176L98.0782 46.704C97.7155 47.1413 97.2569 47.4773 96.7022 47.712C96.1582 47.9467 95.5662 48.064 94.9262 48.064C94.0942 48.064 93.3529 47.8827 92.7022 47.52C92.0515 47.1573 91.5395 46.656 91.1662 46.016C90.8035 45.376 90.6222 44.6453 90.6222 43.824C90.6222 43.0133 90.7929 42.288 91.1342 41.648C91.4862 40.9973 91.9662 40.4907 92.5742 40.128C93.1822 39.7653 93.8649 39.584 94.6222 39.584C95.3795 39.584 96.0569 39.7653 96.6542 40.128C97.2622 40.48 97.7369 40.976 98.0782 41.616C98.4302 42.256 98.6062 42.9813 98.6062 43.792L98.5902 44.016ZM94.6222 40.288C94.0355 40.288 93.5075 40.4213 93.0382 40.688C92.5689 40.944 92.1902 41.312 91.9022 41.792C91.6249 42.2613 91.4649 42.7947 91.4222 43.392H97.8222C97.7902 42.7947 97.6302 42.2613 97.3422 41.792C97.0542 41.3227 96.6755 40.9547 96.2062 40.688C95.7369 40.4213 95.2089 40.288 94.6222 40.288ZM110.914 40.368H107.65V48H106.85V40.368H103.586V39.648H110.914V40.368ZM119.356 44.016H112.172C112.193 44.6667 112.358 45.248 112.668 45.76C112.977 46.2613 113.393 46.6507 113.916 46.928C114.449 47.2053 115.046 47.344 115.708 47.344C116.252 47.344 116.753 47.248 117.212 47.056C117.681 46.8533 118.07 46.56 118.38 46.176L118.844 46.704C118.481 47.1413 118.022 47.4773 117.468 47.712C116.924 47.9467 116.332 48.064 115.692 48.064C114.86 48.064 114.118 47.8827 113.468 47.52C112.817 47.1573 112.305 46.656 111.932 46.016C111.569 45.376 111.388 44.6453 111.388 43.824C111.388 43.0133 111.558 42.288 111.9 41.648C112.252 40.9973 112.732 40.4907 113.34 40.128C113.948 39.7653 114.63 39.584 115.388 39.584C116.145 39.584 116.822 39.7653 117.42 40.128C118.028 40.48 118.502 40.976 118.844 41.616C119.196 42.256 119.372 42.9813 119.372 43.792L119.356 44.016ZM115.388 40.288C114.801 40.288 114.273 40.4213 113.804 40.688C113.334 40.944 112.956 41.312 112.668 41.792C112.39 42.2613 112.23 42.7947 112.188 43.392H118.588C118.556 42.7947 118.396 42.2613 118.108 41.792C117.82 41.3227 117.441 40.9547 116.972 40.688C116.502 40.4213 115.974 40.288 115.388 40.288ZM128.311 39.648V48H127.511V40.368H123.159L123.047 42.592C122.983 43.744 122.887 44.7093 122.759 45.488C122.631 46.2667 122.412 46.896 122.103 47.376C121.793 47.856 121.367 48.096 120.823 48.096C120.663 48.096 120.433 48.0587 120.135 47.984L120.215 47.296C120.385 47.3387 120.513 47.36 120.599 47.36C121.047 47.36 121.388 47.1413 121.623 46.704C121.857 46.2667 122.017 45.7227 122.103 45.072C122.188 44.4213 122.257 43.5733 122.311 42.528L122.455 39.648H128.311ZM135.095 48.064C134.306 48.064 133.591 47.8827 132.951 47.52C132.322 47.1573 131.826 46.656 131.463 46.016C131.1 45.3653 130.919 44.6347 130.919 43.824C130.919 43.0133 131.1 42.288 131.463 41.648C131.826 40.9973 132.322 40.4907 132.951 40.128C133.591 39.7653 134.306 39.584 135.095 39.584C135.884 39.584 136.594 39.7653 137.223 40.128C137.863 40.4907 138.364 40.9973 138.727 41.648C139.09 42.288 139.271 43.0133 139.271 43.824C139.271 44.6347 139.09 45.3653 138.727 46.016C138.364 46.656 137.863 47.1573 137.223 47.52C136.594 47.8827 135.884 48.064 135.095 48.064ZM135.095 47.344C135.735 47.344 136.306 47.1947 136.807 46.896C137.319 46.5973 137.719 46.1813 138.007 45.648C138.306 45.1147 138.455 44.5067 138.455 43.824C138.455 43.1413 138.306 42.5333 138.007 42C137.719 41.4667 137.319 41.0507 136.807 40.752C136.306 40.4533 135.735 40.304 135.095 40.304C134.455 40.304 133.879 40.4533 133.367 40.752C132.866 41.0507 132.466 41.4667 132.167 42C131.879 42.5333 131.735 43.1413 131.735 43.824C131.735 44.5067 131.879 45.1147 132.167 45.648C132.466 46.1813 132.866 46.5973 133.367 46.896C133.879 47.1947 134.455 47.344 135.095 47.344ZM141.748 40.944C141.567 40.944 141.407 40.88 141.268 40.752C141.14 40.6133 141.076 40.448 141.076 40.256C141.076 40.064 141.14 39.904 141.268 39.776C141.407 39.648 141.567 39.584 141.748 39.584C141.93 39.584 142.084 39.648 142.212 39.776C142.351 39.904 142.42 40.064 142.42 40.256C142.42 40.448 142.351 40.6133 142.212 40.752C142.084 40.88 141.93 40.944 141.748 40.944ZM141.748 48.064C141.567 48.064 141.407 48 141.268 47.872C141.14 47.7333 141.076 47.568 141.076 47.376C141.076 47.184 141.14 47.024 141.268 46.896C141.407 46.768 141.567 46.704 141.748 46.704C141.93 46.704 142.084 46.768 142.212 46.896C142.351 47.024 142.42 47.184 142.42 47.376C142.42 47.568 142.351 47.7333 142.212 47.872C142.084 48 141.93 48.064 141.748 48.064ZM149.413 36.8H153.845C155.008 36.8 156.037 37.04 156.933 37.52C157.84 38 158.544 38.6667 159.045 39.52C159.546 40.3627 159.797 41.3227 159.797 42.4C159.797 43.4773 159.546 44.4427 159.045 45.296C158.544 46.1387 157.84 46.8 156.933 47.28C156.037 47.76 155.008 48 153.845 48H149.413V36.8ZM153.781 47.264C154.816 47.264 155.728 47.0613 156.517 46.656C157.306 46.24 157.914 45.664 158.341 44.928C158.768 44.192 158.981 43.3493 158.981 42.4C158.981 41.4507 158.768 40.608 158.341 39.872C157.914 39.136 157.306 38.5653 156.517 38.16C155.728 37.744 154.816 37.536 153.781 37.536H150.229V47.264H153.781ZM170.408 48L167.736 44.256C167.341 44.3093 166.978 44.336 166.648 44.336H163.448V48H162.632V36.8H166.648C168.056 36.8 169.16 37.136 169.96 37.808C170.76 38.4693 171.16 39.392 171.16 40.576C171.16 41.4613 170.93 42.208 170.472 42.816C170.024 43.4133 169.378 43.8347 168.536 44.08L171.336 48H170.408ZM166.648 43.616C167.842 43.616 168.754 43.3547 169.384 42.832C170.013 42.2987 170.328 41.5467 170.328 40.576C170.328 39.6053 170.013 38.8587 169.384 38.336C168.754 37.8027 167.842 37.536 166.648 37.536H163.448V43.616H166.648ZM181.875 47.264V48H174.147V36.8H181.635V37.536H174.963V41.952H180.931V42.672H174.963V47.264H181.875ZM194.96 42.752H191.92V45.712H191.2V42.752H188.16V42.064H191.2V39.088H191.92V42.064H194.96V42.752ZM204.515 41.68C205.752 41.712 206.691 42.016 207.331 42.592C207.981 43.1573 208.307 43.9093 208.307 44.848C208.307 45.4773 208.157 46.0373 207.859 46.528C207.56 47.008 207.112 47.3867 206.515 47.664C205.928 47.9413 205.219 48.08 204.387 48.08C203.576 48.08 202.813 47.9467 202.099 47.68C201.384 47.4027 200.829 47.0347 200.435 46.576L200.851 45.952C201.213 46.3573 201.704 46.688 202.323 46.944C202.952 47.2 203.64 47.328 204.387 47.328C205.379 47.328 206.141 47.1093 206.675 46.672C207.208 46.224 207.475 45.616 207.475 44.848C207.475 44.0693 207.203 43.4613 206.659 43.024C206.115 42.5867 205.299 42.368 204.211 42.368H203.507V41.776L206.819 37.536H200.851V36.8H207.875V37.376L204.515 41.68ZM25.0856 62.24C25.9176 62.3787 26.5416 62.6827 26.9576 63.152C27.3843 63.6213 27.5976 64.2453 27.5976 65.024C27.5976 65.984 27.2616 66.72 26.5896 67.232C25.9176 67.744 24.9203 68 23.5976 68H18.7816V56.8H23.2936C24.467 56.8 25.379 57.0453 26.0296 57.536C26.691 58.0267 27.0216 58.7307 27.0216 59.648C27.0216 60.2987 26.851 60.8427 26.5096 61.28C26.1683 61.7173 25.6936 62.0373 25.0856 62.24ZM19.5976 61.984H23.2776C24.2163 61.984 24.9363 61.792 25.4376 61.408C25.939 61.024 26.1896 60.4693 26.1896 59.744C26.1896 59.008 25.939 58.448 25.4376 58.064C24.9363 57.68 24.2163 57.488 23.2776 57.488H19.5976V61.984ZM23.6136 67.312C25.7256 67.312 26.7816 66.5333 26.7816 64.976C26.7816 64.176 26.515 63.5893 25.9816 63.216C25.4483 62.8427 24.659 62.656 23.6136 62.656H19.5976V67.312H23.6136ZM34.7016 59.584C35.4803 59.584 36.1843 59.7653 36.8136 60.128C37.443 60.4907 37.9336 60.992 38.2856 61.632C38.6483 62.272 38.8296 63.0027 38.8296 63.824C38.8296 64.6453 38.6483 65.3813 38.2856 66.032C37.9336 66.672 37.443 67.1733 36.8136 67.536C36.1843 67.888 35.4803 68.064 34.7016 68.064C33.9656 68.064 33.299 67.8933 32.7016 67.552C32.1043 67.2 31.6403 66.7147 31.3096 66.096V71.104H30.5096V59.648H31.2776V61.616C31.6083 60.976 32.0723 60.48 32.6696 60.128C33.2776 59.7653 33.955 59.584 34.7016 59.584ZM34.6536 67.344C35.2936 67.344 35.8696 67.1947 36.3816 66.896C36.8936 66.5973 37.2936 66.1813 37.5816 65.648C37.8803 65.1147 38.0296 64.5067 38.0296 63.824C38.0296 63.1413 37.8803 62.5333 37.5816 62C37.2936 61.4667 36.8936 61.0507 36.3816 60.752C35.8696 60.4533 35.2936 60.304 34.6536 60.304C34.0136 60.304 33.4376 60.4533 32.9256 60.752C32.4243 61.0507 32.0243 61.4667 31.7256 62C31.4376 62.5333 31.2936 63.1413 31.2936 63.824C31.2936 64.5067 31.4376 65.1147 31.7256 65.648C32.0243 66.1813 32.4243 66.5973 32.9256 66.896C33.4376 67.1947 34.0136 67.344 34.6536 67.344ZM48.5511 64.016H41.3671C41.3885 64.6667 41.5538 65.248 41.8631 65.76C42.1725 66.2613 42.5885 66.6507 43.1111 66.928C43.6445 67.2053 44.2418 67.344 44.9031 67.344C45.4471 67.344 45.9485 67.248 46.4071 67.056C46.8765 66.8533 47.2658 66.56 47.5751 66.176L48.0391 66.704C47.6765 67.1413 47.2178 67.4773 46.6631 67.712C46.1191 67.9467 45.5271 68.064 44.8871 68.064C44.0551 68.064 43.3138 67.8827 42.6631 67.52C42.0125 67.1573 41.5005 66.656 41.1271 66.016C40.7645 65.376 40.5831 64.6453 40.5831 63.824C40.5831 63.0133 40.7538 62.288 41.0951 61.648C41.4471 60.9973 41.9271 60.4907 42.5351 60.128C43.1431 59.7653 43.8258 59.584 44.5831 59.584C45.3405 59.584 46.0178 59.7653 46.6151 60.128C47.2231 60.48 47.6978 60.976 48.0391 61.616C48.3911 62.256 48.5671 62.9813 48.5671 63.792L48.5511 64.016ZM44.5831 60.288C43.9965 60.288 43.4685 60.4213 42.9991 60.688C42.5298 60.944 42.1511 61.312 41.8631 61.792C41.5858 62.2613 41.4258 62.7947 41.3831 63.392H47.7831C47.7511 62.7947 47.5911 62.2613 47.3031 61.792C47.0151 61.3227 46.6365 60.9547 46.1671 60.688C45.6978 60.4213 45.1698 60.288 44.5831 60.288ZM60.2691 59.648V68H59.5331V60.928L55.9011 66.928H55.5331L51.9171 60.944V68H51.1811V59.648H51.9651L55.7411 65.968L59.5331 59.648H60.2691ZM69.888 59.648V68H69.152V65.12H66.368C66.176 65.12 66.0373 65.1147 65.952 65.104L63.888 68H63.008L65.168 65.008C64.4853 64.8587 63.9627 64.5653 63.6 64.128C63.2373 63.6907 63.056 63.1253 63.056 62.432C63.056 61.5147 63.36 60.8213 63.968 60.352C64.5867 59.8827 65.4293 59.648 66.496 59.648H69.888ZM63.856 62.464C63.856 63.8293 64.72 64.512 66.448 64.512H69.152V60.352H66.544C64.752 60.352 63.856 61.056 63.856 62.464ZM84.7428 59.648V68H83.9427V60.368H78.2468V68H77.4468V59.648H84.7428ZM92.4048 59.584C93.1834 59.584 93.8874 59.7653 94.5168 60.128C95.1461 60.4907 95.6368 60.992 95.9888 61.632C96.3514 62.272 96.5328 63.0027 96.5328 63.824C96.5328 64.6453 96.3514 65.3813 95.9888 66.032C95.6368 66.672 95.1461 67.1733 94.5168 67.536C93.8874 67.888 93.1834 68.064 92.4048 68.064C91.6688 68.064 91.0021 67.8933 90.4048 67.552C89.8074 67.2 89.3434 66.7147 89.0128 66.096V71.104H88.2128V59.648H88.9808V61.616C89.3114 60.976 89.7754 60.48 90.3728 60.128C90.9808 59.7653 91.6581 59.584 92.4048 59.584ZM92.3568 67.344C92.9968 67.344 93.5728 67.1947 94.0848 66.896C94.5968 66.5973 94.9968 66.1813 95.2847 65.648C95.5834 65.1147 95.7328 64.5067 95.7328 63.824C95.7328 63.1413 95.5834 62.5333 95.2847 62C94.9968 61.4667 94.5968 61.0507 94.0848 60.752C93.5728 60.4533 92.9968 60.304 92.3568 60.304C91.7168 60.304 91.1408 60.4533 90.6288 60.752C90.1274 61.0507 89.7274 61.4667 89.4288 62C89.1408 62.5333 88.9968 63.1413 88.9968 63.824C88.9968 64.5067 89.1408 65.1147 89.4288 65.648C89.7274 66.1813 90.1274 66.5973 90.6288 66.896C91.1408 67.1947 91.7168 67.344 92.3568 67.344ZM102.462 68.064C101.673 68.064 100.958 67.8827 100.318 67.52C99.6889 67.1573 99.1929 66.656 98.8303 66.016C98.4676 65.3653 98.2863 64.6347 98.2863 63.824C98.2863 63.0133 98.4676 62.288 98.8303 61.648C99.1929 60.9973 99.6889 60.4907 100.318 60.128C100.958 59.7653 101.673 59.584 102.462 59.584C103.252 59.584 103.961 59.7653 104.59 60.128C105.23 60.4907 105.732 60.9973 106.094 61.648C106.457 62.288 106.638 63.0133 106.638 63.824C106.638 64.6347 106.457 65.3653 106.094 66.016C105.732 66.656 105.23 67.1573 104.59 67.52C103.961 67.8827 103.252 68.064 102.462 68.064ZM102.462 67.344C103.102 67.344 103.673 67.1947 104.174 66.896C104.686 66.5973 105.086 66.1813 105.374 65.648C105.673 65.1147 105.822 64.5067 105.822 63.824C105.822 63.1413 105.673 62.5333 105.374 62C105.086 61.4667 104.686 61.0507 104.174 60.752C103.673 60.4533 103.102 60.304 102.462 60.304C101.822 60.304 101.246 60.4533 100.734 60.752C100.233 61.0507 99.8329 61.4667 99.5343 62C99.2463 62.5333 99.1023 63.1413 99.1023 63.824C99.1023 64.5067 99.2463 65.1147 99.5343 65.648C99.8329 66.1813 100.233 66.5973 100.734 66.896C101.246 67.1947 101.822 67.344 102.462 67.344ZM115.74 59.648V68H114.94V60.368H110.588L110.476 62.592C110.412 63.744 110.316 64.7093 110.188 65.488C110.06 66.2667 109.842 66.896 109.532 67.376C109.223 67.856 108.796 68.096 108.252 68.096C108.092 68.096 107.863 68.0587 107.564 67.984L107.644 67.296C107.815 67.3387 107.943 67.36 108.028 67.36C108.476 67.36 108.818 67.1413 109.052 66.704C109.287 66.2667 109.447 65.7227 109.532 65.072C109.618 64.4213 109.687 63.5733 109.74 62.528L109.884 59.648H115.74ZM126.317 64.016H119.133C119.154 64.6667 119.319 65.248 119.629 65.76C119.938 66.2613 120.354 66.6507 120.877 66.928C121.41 67.2053 122.007 67.344 122.669 67.344C123.213 67.344 123.714 67.248 124.173 67.056C124.642 66.8533 125.031 66.56 125.341 66.176L125.805 66.704C125.442 67.1413 124.983 67.4773 124.429 67.712C123.885 67.9467 123.293 68.064 122.653 68.064C121.821 68.064 121.079 67.8827 120.429 67.52C119.778 67.1573 119.266 66.656 118.893 66.016C118.53 65.376 118.349 64.6453 118.349 63.824C118.349 63.0133 118.519 62.288 118.861 61.648C119.213 60.9973 119.693 60.4907 120.301 60.128C120.909 59.7653 121.591 59.584 122.349 59.584C123.106 59.584 123.783 59.7653 124.381 60.128C124.989 60.48 125.463 60.976 125.805 61.616C126.157 62.256 126.333 62.9813 126.333 63.792L126.317 64.016ZM122.349 60.288C121.762 60.288 121.234 60.4213 120.765 60.688C120.295 60.944 119.917 61.312 119.629 61.792C119.351 62.2613 119.191 62.7947 119.149 63.392H125.549C125.517 62.7947 125.357 62.2613 125.069 61.792C124.781 61.3227 124.402 60.9547 123.933 60.688C123.463 60.4213 122.935 60.288 122.349 60.288ZM120.973 57.856C120.813 57.856 120.674 57.8027 120.557 57.696C120.45 57.5787 120.397 57.44 120.397 57.28C120.397 57.1093 120.45 56.9707 120.557 56.864C120.674 56.7573 120.813 56.704 120.973 56.704C121.133 56.704 121.266 56.7627 121.373 56.88C121.49 56.9867 121.549 57.12 121.549 57.28C121.549 57.44 121.49 57.5787 121.373 57.696C121.255 57.8027 121.122 57.856 120.973 57.856ZM123.725 57.856C123.575 57.856 123.442 57.8027 123.325 57.696C123.207 57.5787 123.149 57.44 123.149 57.28C123.149 57.12 123.202 56.9867 123.309 56.88C123.426 56.7627 123.565 56.704 123.725 56.704C123.885 56.704 124.018 56.7573 124.125 56.864C124.242 56.9707 124.301 57.1093 124.301 57.28C124.301 57.44 124.242 57.5787 124.125 57.696C124.018 57.8027 123.885 57.856 123.725 57.856ZM134.14 60.368H130.876V68H130.076V60.368H126.812V59.648H134.14V60.368ZM138.621 59.584C139.656 59.584 140.45 59.8507 141.005 60.384C141.56 60.9067 141.837 61.68 141.837 62.704V68H141.069V66.512C140.802 67.0027 140.413 67.3867 139.901 67.664C139.389 67.9307 138.776 68.064 138.061 68.064C137.133 68.064 136.397 67.8453 135.853 67.408C135.32 66.9707 135.053 66.3947 135.053 65.68C135.053 64.9867 135.298 64.4267 135.789 64C136.29 63.5627 137.085 63.344 138.173 63.344H141.037V62.672C141.037 61.8933 140.824 61.3013 140.397 60.896C139.981 60.4907 139.368 60.288 138.557 60.288C138.002 60.288 137.469 60.384 136.957 60.576C136.456 60.768 136.029 61.024 135.677 61.344L135.277 60.768C135.693 60.3947 136.194 60.1067 136.781 59.904C137.368 59.6907 137.981 59.584 138.621 59.584ZM138.173 67.408C138.866 67.408 139.453 67.248 139.933 66.928C140.424 66.608 140.792 66.144 141.037 65.536V63.968H138.189C137.368 63.968 136.77 64.1173 136.397 64.416C136.034 64.7147 135.853 65.1253 135.853 65.648C135.853 66.192 136.056 66.624 136.461 66.944C136.866 67.2533 137.437 67.408 138.173 67.408ZM144.959 60.944C144.778 60.944 144.618 60.88 144.479 60.752C144.351 60.6133 144.287 60.448 144.287 60.256C144.287 60.064 144.351 59.904 144.479 59.776C144.618 59.648 144.778 59.584 144.959 59.584C145.141 59.584 145.295 59.648 145.423 59.776C145.562 59.904 145.631 60.064 145.631 60.256C145.631 60.448 145.562 60.6133 145.423 60.752C145.295 60.88 145.141 60.944 144.959 60.944ZM144.959 68.064C144.778 68.064 144.618 68 144.479 67.872C144.351 67.7333 144.287 67.568 144.287 67.376C144.287 67.184 144.351 67.024 144.479 66.896C144.618 66.768 144.778 66.704 144.959 66.704C145.141 66.704 145.295 66.768 145.423 66.896C145.562 67.024 145.631 67.184 145.631 67.376C145.631 67.568 145.562 67.7333 145.423 67.872C145.295 68 145.141 68.064 144.959 68.064ZM158.477 56.8V68H157.661V57.536H154.925V56.8H158.477ZM165.686 68.08C164.833 68.08 164.07 67.8507 163.398 67.392C162.737 66.9227 162.219 66.2613 161.846 65.408C161.483 64.5547 161.302 63.552 161.302 62.4C161.302 61.248 161.483 60.2453 161.846 59.392C162.219 58.5387 162.737 57.8827 163.398 57.424C164.07 56.9547 164.833 56.72 165.686 56.72C166.539 56.72 167.297 56.9547 167.958 57.424C168.63 57.8827 169.147 58.5387 169.51 59.392C169.883 60.2453 170.07 61.248 170.07 62.4C170.07 63.552 169.883 64.5547 169.51 65.408C169.147 66.2613 168.63 66.9227 167.958 67.392C167.297 67.8507 166.539 68.08 165.686 68.08ZM165.686 67.328C166.39 67.328 167.009 67.136 167.542 66.752C168.086 66.3573 168.507 65.792 168.806 65.056C169.105 64.3093 169.254 63.424 169.254 62.4C169.254 61.376 169.105 60.496 168.806 59.76C168.507 59.0133 168.086 58.448 167.542 58.064C167.009 57.6693 166.39 57.472 165.686 57.472C164.982 57.472 164.358 57.6693 163.814 58.064C163.281 58.448 162.865 59.0133 162.566 59.76C162.267 60.496 162.118 61.376 162.118 62.4C162.118 63.424 162.267 64.3093 162.566 65.056C162.865 65.792 163.281 66.3573 163.814 66.752C164.358 67.136 164.982 67.328 165.686 67.328ZM185.879 59.648V68H185.143V60.928L181.511 66.928H181.143L177.527 60.944V68H176.791V59.648H177.575L181.351 65.968L185.143 59.648H185.879ZM189.337 59.648H190.137V66.768L196.089 59.648H196.793V68H195.993V60.88L190.041 68H189.337V59.648ZM200.244 59.648H201.044V63.456H206.708V59.648H207.508V68H206.708V64.16H201.044V68H200.244V59.648Z" fill="white"/>
</svg>
