<svg width="226" height="97" viewBox="0 0 226 97" fill="none" xmlns="http://www.w3.org/2000/svg">
<path d="M226 48.4997C226 88.367 210.534 97 116.531 97C22.5289 97 0 88.367 0 48.4997C0 8.63249 22.5289 0 116.531 0C210.534 0 226 8.63249 226 48.4997Z" fill="#0C0C0C"/>
<path d="M91.3076 17.8V29H90.1556V24.36C88.9396 24.8827 87.761 25.144 86.6196 25.144C85.3076 25.144 84.2836 24.824 83.5476 24.184C82.8223 23.544 82.4596 22.648 82.4596 21.496V17.8H83.6276V21.368C83.6276 22.232 83.8996 22.904 84.4436 23.384C84.9876 23.864 85.7503 24.104 86.7316 24.104C87.8516 24.104 88.993 23.8373 90.1556 23.304V17.8H91.3076ZM102.195 25.144H95.1548C95.2188 26.0187 95.5548 26.728 96.1628 27.272C96.7708 27.8053 97.5388 28.072 98.4668 28.072C98.9894 28.072 99.4694 27.9813 99.9068 27.8C100.344 27.608 100.723 27.3307 101.043 26.968L101.683 27.704C101.309 28.152 100.84 28.4933 100.275 28.728C99.7201 28.9627 99.1068 29.08 98.4348 29.08C97.5708 29.08 96.8028 28.8987 96.1308 28.536C95.4694 28.1627 94.9521 27.6507 94.5788 27C94.2054 26.3493 94.0188 25.6133 94.0188 24.792C94.0188 23.9707 94.1948 23.2347 94.5468 22.584C94.9094 21.9333 95.4001 21.4267 96.0188 21.064C96.6481 20.7013 97.3521 20.52 98.1308 20.52C98.9094 20.52 99.6081 20.7013 100.227 21.064C100.845 21.4267 101.331 21.9333 101.683 22.584C102.035 23.224 102.211 23.96 102.211 24.792L102.195 25.144ZM98.1308 21.496C97.3201 21.496 96.6374 21.7573 96.0828 22.28C95.5388 22.792 95.2294 23.464 95.1548 24.296H101.123C101.048 23.464 100.733 22.792 100.179 22.28C99.6348 21.7573 98.9521 21.496 98.1308 21.496ZM110.27 21.592H107.086V29H105.95V21.592H102.766V20.584H110.27V21.592ZM117.273 24.648C118.414 24.9147 118.985 25.6027 118.985 26.712C118.985 27.448 118.713 28.0133 118.169 28.408C117.625 28.8027 116.814 29 115.737 29H111.913V20.584H115.625C116.585 20.584 117.337 20.7707 117.881 21.144C118.425 21.5173 118.697 22.0507 118.697 22.744C118.697 23.2027 118.569 23.5973 118.313 23.928C118.068 24.248 117.721 24.488 117.273 24.648ZM113.017 24.328H115.545C116.196 24.328 116.692 24.2053 117.033 23.96C117.385 23.7147 117.561 23.3573 117.561 22.888C117.561 22.4187 117.385 22.0667 117.033 21.832C116.692 21.5973 116.196 21.48 115.545 21.48H113.017V24.328ZM115.689 28.104C116.414 28.104 116.958 27.9867 117.321 27.752C117.684 27.5173 117.865 27.1493 117.865 26.648C117.865 26.1467 117.7 25.7787 117.369 25.544C117.038 25.2987 116.516 25.176 115.801 25.176H113.017V28.104H115.689ZM129.007 25.144H121.967C122.031 26.0187 122.367 26.728 122.975 27.272C123.583 27.8053 124.351 28.072 125.279 28.072C125.802 28.072 126.282 27.9813 126.719 27.8C127.157 27.608 127.535 27.3307 127.855 26.968L128.495 27.704C128.122 28.152 127.653 28.4933 127.087 28.728C126.533 28.9627 125.919 29.08 125.247 29.08C124.383 29.08 123.615 28.8987 122.943 28.536C122.282 28.1627 121.765 27.6507 121.391 27C121.018 26.3493 120.831 25.6133 120.831 24.792C120.831 23.9707 121.007 23.2347 121.359 22.584C121.722 21.9333 122.213 21.4267 122.831 21.064C123.461 20.7013 124.165 20.52 124.943 20.52C125.722 20.52 126.421 20.7013 127.039 21.064C127.658 21.4267 128.143 21.9333 128.495 22.584C128.847 23.224 129.023 23.96 129.023 24.792L129.007 25.144ZM124.943 21.496C124.133 21.496 123.45 21.7573 122.895 22.28C122.351 22.792 122.042 23.464 121.967 24.296H127.935C127.861 23.464 127.546 22.792 126.991 22.28C126.447 21.7573 125.765 21.496 124.943 21.496ZM135.874 20.52C136.663 20.52 137.378 20.7013 138.018 21.064C138.658 21.416 139.159 21.9173 139.522 22.568C139.885 23.2187 140.066 23.96 140.066 24.792C140.066 25.6347 139.885 26.3813 139.522 27.032C139.159 27.6827 138.658 28.1893 138.018 28.552C137.389 28.904 136.674 29.08 135.874 29.08C135.191 29.08 134.573 28.9413 134.018 28.664C133.474 28.376 133.026 27.96 132.674 27.416V32.104H131.538V20.584H132.626V22.248C132.967 21.6933 133.415 21.2667 133.97 20.968C134.535 20.6693 135.17 20.52 135.874 20.52ZM135.794 28.072C136.381 28.072 136.914 27.9387 137.394 27.672C137.874 27.3947 138.247 27.0053 138.514 26.504C138.791 26.0027 138.93 25.432 138.93 24.792C138.93 24.152 138.791 23.5867 138.514 23.096C138.247 22.5947 137.874 22.2053 137.394 21.928C136.914 21.6507 136.381 21.512 135.794 21.512C135.197 21.512 134.658 21.6507 134.178 21.928C133.709 22.2053 133.335 22.5947 133.058 23.096C132.791 23.5867 132.658 24.152 132.658 24.792C132.658 25.432 132.791 26.0027 133.058 26.504C133.335 27.0053 133.709 27.3947 134.178 27.672C134.658 27.9387 135.197 28.072 135.794 28.072ZM148.459 21.592H143.643V29H142.507V20.584H148.459V21.592ZM35.9485 37.8V49H35.1325V43.672H27.6445V49H26.8285V37.8H27.6445V42.952H35.1325V37.8H35.9485ZM46.8168 45.016H39.6328C39.6541 45.6667 39.8194 46.248 40.1288 46.76C40.4381 47.2613 40.8541 47.6507 41.3768 47.928C41.9101 48.2053 42.5074 48.344 43.1688 48.344C43.7128 48.344 44.2141 48.248 44.6728 48.056C45.1421 47.8533 45.5314 47.56 45.8408 47.176L46.3048 47.704C45.9421 48.1413 45.4834 48.4773 44.9288 48.712C44.3848 48.9467 43.7928 49.064 43.1528 49.064C42.3208 49.064 41.5794 48.8827 40.9288 48.52C40.2781 48.1573 39.7661 47.656 39.3928 47.016C39.0301 46.376 38.8488 45.6453 38.8488 44.824C38.8488 44.0133 39.0194 43.288 39.3608 42.648C39.7128 41.9973 40.1928 41.4907 40.8008 41.128C41.4088 40.7653 42.0914 40.584 42.8488 40.584C43.6061 40.584 44.2834 40.7653 44.8808 41.128C45.4888 41.48 45.9634 41.976 46.3048 42.616C46.6568 43.256 46.8328 43.9813 46.8328 44.792L46.8168 45.016ZM42.8488 41.288C42.2621 41.288 41.7341 41.4213 41.2648 41.688C40.7954 41.944 40.4168 42.312 40.1288 42.792C39.8514 43.2613 39.6914 43.7947 39.6488 44.392H46.0487C46.0168 43.7947 45.8568 43.2613 45.5688 42.792C45.2808 42.3227 44.9021 41.9547 44.4328 41.688C43.9634 41.4213 43.4354 41.288 42.8488 41.288ZM53.3188 40.776C54.0974 40.776 54.7854 40.952 55.3828 41.304C55.9908 41.6453 56.4654 42.1253 56.8068 42.744C57.1481 43.3627 57.3188 44.0773 57.3188 44.888C57.3188 45.6987 57.1428 46.424 56.7908 47.064C56.4494 47.6933 55.9641 48.1893 55.3348 48.552C54.7161 48.904 54.0068 49.08 53.2068 49.08C52.2894 49.08 51.5054 48.856 50.8548 48.408C50.2148 47.96 49.7241 47.3253 49.3828 46.504C49.0521 45.6827 48.8868 44.7227 48.8868 43.624C48.8868 42.376 49.0361 41.3413 49.3348 40.52C49.6441 39.6987 50.1028 39.0533 50.7108 38.584C51.3294 38.104 52.1188 37.7467 53.0788 37.512L56.7748 36.616L56.9028 37.368L53.3828 38.2C52.5188 38.4027 51.8148 38.7013 51.2708 39.096C50.7374 39.48 50.3374 40.008 50.0707 40.68C49.8041 41.352 49.6654 42.2107 49.6548 43.256C49.9321 42.488 50.3961 41.8853 51.0468 41.448C51.6974 41 52.4548 40.776 53.3188 40.776ZM53.2228 48.392C53.8521 48.392 54.4174 48.2427 54.9188 47.944C55.4201 47.6453 55.8094 47.2347 56.0868 46.712C56.3641 46.1787 56.5028 45.576 56.5028 44.904C56.5028 44.232 56.3641 43.64 56.0868 43.128C55.8094 42.6053 55.4201 42.2053 54.9188 41.928C54.4281 41.64 53.8628 41.496 53.2228 41.496C52.5828 41.496 52.0121 41.64 51.5108 41.928C51.0094 42.2053 50.6201 42.6053 50.3428 43.128C50.0654 43.64 49.9268 44.232 49.9268 44.904C49.9268 45.576 50.0654 46.1787 50.3428 46.712C50.6201 47.2347 51.0094 47.6453 51.5108 47.944C52.0121 48.2427 52.5828 48.392 53.2228 48.392ZM67.0668 45.016H59.8828C59.9041 45.6667 60.0694 46.248 60.3788 46.76C60.6881 47.2613 61.1041 47.6507 61.6268 47.928C62.1601 48.2053 62.7574 48.344 63.4188 48.344C63.9628 48.344 64.4641 48.248 64.9228 48.056C65.3921 47.8533 65.7814 47.56 66.0908 47.176L66.5548 47.704C66.1921 48.1413 65.7334 48.4773 65.1788 48.712C64.6348 48.9467 64.0428 49.064 63.4028 49.064C62.5708 49.064 61.8294 48.8827 61.1788 48.52C60.5281 48.1573 60.0161 47.656 59.6428 47.016C59.2801 46.376 59.0988 45.6453 59.0988 44.824C59.0988 44.0133 59.2694 43.288 59.6108 42.648C59.9628 41.9973 60.4428 41.4907 61.0508 41.128C61.6588 40.7653 62.3414 40.584 63.0988 40.584C63.8561 40.584 64.5334 40.7653 65.1308 41.128C65.7388 41.48 66.2134 41.976 66.5548 42.616C66.9068 43.256 67.0828 43.9813 67.0828 44.792L67.0668 45.016ZM63.0988 41.288C62.5121 41.288 61.9841 41.4213 61.5148 41.688C61.0454 41.944 60.6668 42.312 60.3788 42.792C60.1014 43.2613 59.9414 43.7947 59.8988 44.392H66.2987C66.2668 43.7947 66.1068 43.2613 65.8188 42.792C65.5308 42.3227 65.1521 41.9547 64.6828 41.688C64.2134 41.4213 63.6854 41.288 63.0988 41.288ZM73.0728 49.064C72.2621 49.064 71.5368 48.8827 70.8968 48.52C70.2568 48.1573 69.7554 47.656 69.3928 47.016C69.0301 46.3653 68.8488 45.6347 68.8488 44.824C68.8488 44.0027 69.0301 43.272 69.3928 42.632C69.7554 41.9813 70.2568 41.48 70.8968 41.128C71.5368 40.7653 72.2621 40.584 73.0728 40.584C73.7448 40.584 74.3528 40.7173 74.8968 40.984C75.4514 41.24 75.8994 41.6187 76.2408 42.12L75.6488 42.552C75.3501 42.136 74.9768 41.8267 74.5288 41.624C74.0914 41.4107 73.6061 41.304 73.0728 41.304C72.4221 41.304 71.8354 41.4533 71.3128 41.752C70.8008 42.04 70.3954 42.4507 70.0968 42.984C69.8088 43.5173 69.6648 44.1307 69.6648 44.824C69.6648 45.5173 69.8088 46.1307 70.0968 46.664C70.3954 47.1973 70.8008 47.6133 71.3128 47.912C71.8354 48.2 72.4221 48.344 73.0728 48.344C73.6061 48.344 74.0914 48.2427 74.5288 48.04C74.9768 47.8267 75.3501 47.512 75.6488 47.096L76.2408 47.528C75.8994 48.0293 75.4514 48.4133 74.8968 48.68C74.3528 48.936 73.7448 49.064 73.0728 49.064ZM78.603 40.648H79.403V44.456H85.067V40.648H85.867V49H85.067V45.16H79.403V49H78.603V40.648ZM92.6498 49.064C91.8604 49.064 91.1458 48.8827 90.5058 48.52C89.8764 48.1573 89.3804 47.656 89.0178 47.016C88.6551 46.3653 88.4738 45.6347 88.4738 44.824C88.4738 44.0133 88.6551 43.288 89.0178 42.648C89.3804 41.9973 89.8764 41.4907 90.5058 41.128C91.1458 40.7653 91.8604 40.584 92.6498 40.584C93.4391 40.584 94.1484 40.7653 94.7778 41.128C95.4178 41.4907 95.9191 41.9973 96.2818 42.648C96.6444 43.288 96.8258 44.0133 96.8258 44.824C96.8258 45.6347 96.6444 46.3653 96.2818 47.016C95.9191 47.656 95.4178 48.1573 94.7778 48.52C94.1484 48.8827 93.4391 49.064 92.6498 49.064ZM92.6498 48.344C93.2898 48.344 93.8604 48.1947 94.3618 47.896C94.8738 47.5973 95.2738 47.1813 95.5618 46.648C95.8604 46.1147 96.0098 45.5067 96.0098 44.824C96.0098 44.1413 95.8604 43.5333 95.5618 43C95.2738 42.4667 94.8738 42.0507 94.3618 41.752C93.8604 41.4533 93.2898 41.304 92.6498 41.304C92.0098 41.304 91.4338 41.4533 90.9218 41.752C90.4204 42.0507 90.0204 42.4667 89.7218 43C89.4338 43.5333 89.2898 44.1413 89.2898 44.824C89.2898 45.5067 89.4338 46.1147 89.7218 46.648C90.0204 47.1813 90.4204 47.5973 90.9218 47.896C91.4338 48.1947 92.0098 48.344 92.6498 48.344ZM106.551 45.016H99.3671C99.3885 45.6667 99.5538 46.248 99.8631 46.76C100.172 47.2613 100.588 47.6507 101.111 47.928C101.644 48.2053 102.242 48.344 102.903 48.344C103.447 48.344 103.948 48.248 104.407 48.056C104.876 47.8533 105.266 47.56 105.575 47.176L106.039 47.704C105.676 48.1413 105.218 48.4773 104.663 48.712C104.119 48.9467 103.527 49.064 102.887 49.064C102.055 49.064 101.314 48.8827 100.663 48.52C100.012 48.1573 99.5005 47.656 99.1271 47.016C98.7645 46.376 98.5831 45.6453 98.5831 44.824C98.5831 44.0133 98.7538 43.288 99.0951 42.648C99.4471 41.9973 99.9271 41.4907 100.535 41.128C101.143 40.7653 101.826 40.584 102.583 40.584C103.34 40.584 104.018 40.7653 104.615 41.128C105.223 41.48 105.698 41.976 106.039 42.616C106.391 43.256 106.567 43.9813 106.567 44.792L106.551 45.016ZM102.583 41.288C101.996 41.288 101.468 41.4213 100.999 41.688C100.53 41.944 100.151 42.312 99.8631 42.792C99.5858 43.2613 99.4258 43.7947 99.3831 44.392H105.783C105.751 43.7947 105.591 43.2613 105.303 42.792C105.015 42.3227 104.636 41.9547 104.167 41.688C103.698 41.4213 103.17 41.288 102.583 41.288ZM118.875 41.368H115.611V49H114.811V41.368H111.546V40.648H118.875V41.368ZM127.317 45.016H120.133C120.154 45.6667 120.319 46.248 120.629 46.76C120.938 47.2613 121.354 47.6507 121.877 47.928C122.41 48.2053 123.007 48.344 123.669 48.344C124.213 48.344 124.714 48.248 125.173 48.056C125.642 47.8533 126.031 47.56 126.341 47.176L126.805 47.704C126.442 48.1413 125.983 48.4773 125.429 48.712C124.885 48.9467 124.293 49.064 123.653 49.064C122.821 49.064 122.079 48.8827 121.429 48.52C120.778 48.1573 120.266 47.656 119.893 47.016C119.53 46.376 119.349 45.6453 119.349 44.824C119.349 44.0133 119.519 43.288 119.861 42.648C120.213 41.9973 120.693 41.4907 121.301 41.128C121.909 40.7653 122.591 40.584 123.349 40.584C124.106 40.584 124.783 40.7653 125.381 41.128C125.989 41.48 126.463 41.976 126.805 42.616C127.157 43.256 127.333 43.9813 127.333 44.792L127.317 45.016ZM123.349 41.288C122.762 41.288 122.234 41.4213 121.765 41.688C121.295 41.944 120.917 42.312 120.629 42.792C120.351 43.2613 120.191 43.7947 120.149 44.392H126.549C126.517 43.7947 126.357 43.2613 126.069 42.792C125.781 42.3227 125.402 41.9547 124.933 41.688C124.463 41.4213 123.935 41.288 123.349 41.288ZM136.272 40.648V49H135.472V41.368H131.12L131.008 43.592C130.944 44.744 130.848 45.7093 130.72 46.488C130.592 47.2667 130.373 47.896 130.064 48.376C129.754 48.856 129.328 49.096 128.784 49.096C128.624 49.096 128.394 49.0587 128.096 48.984L128.176 48.296C128.346 48.3387 128.474 48.36 128.56 48.36C129.008 48.36 129.349 48.1413 129.584 47.704C129.818 47.2667 129.978 46.7227 130.064 46.072C130.149 45.4213 130.218 44.5733 130.272 43.528L130.416 40.648H136.272ZM143.056 49.064C142.267 49.064 141.552 48.8827 140.912 48.52C140.283 48.1573 139.787 47.656 139.424 47.016C139.061 46.3653 138.88 45.6347 138.88 44.824C138.88 44.0133 139.061 43.288 139.424 42.648C139.787 41.9973 140.283 41.4907 140.912 41.128C141.552 40.7653 142.267 40.584 143.056 40.584C143.845 40.584 144.555 40.7653 145.184 41.128C145.824 41.4907 146.325 41.9973 146.688 42.648C147.051 43.288 147.232 44.0133 147.232 44.824C147.232 45.6347 147.051 46.3653 146.688 47.016C146.325 47.656 145.824 48.1573 145.184 48.52C144.555 48.8827 143.845 49.064 143.056 49.064ZM143.056 48.344C143.696 48.344 144.267 48.1947 144.768 47.896C145.28 47.5973 145.68 47.1813 145.968 46.648C146.267 46.1147 146.416 45.5067 146.416 44.824C146.416 44.1413 146.267 43.5333 145.968 43C145.68 42.4667 145.28 42.0507 144.768 41.752C144.267 41.4533 143.696 41.304 143.056 41.304C142.416 41.304 141.84 41.4533 141.328 41.752C140.827 42.0507 140.427 42.4667 140.128 43C139.84 43.5333 139.696 44.1413 139.696 44.824C139.696 45.5067 139.84 46.1147 140.128 46.648C140.427 47.1813 140.827 47.5973 141.328 47.896C141.84 48.1947 142.416 48.344 143.056 48.344ZM149.709 41.944C149.528 41.944 149.368 41.88 149.229 41.752C149.101 41.6133 149.037 41.448 149.037 41.256C149.037 41.064 149.101 40.904 149.229 40.776C149.368 40.648 149.528 40.584 149.709 40.584C149.891 40.584 150.045 40.648 150.173 40.776C150.312 40.904 150.381 41.064 150.381 41.256C150.381 41.448 150.312 41.6133 150.173 41.752C150.045 41.88 149.891 41.944 149.709 41.944ZM149.709 49.064C149.528 49.064 149.368 49 149.229 48.872C149.101 48.7333 149.037 48.568 149.037 48.376C149.037 48.184 149.101 48.024 149.229 47.896C149.368 47.768 149.528 47.704 149.709 47.704C149.891 47.704 150.045 47.768 150.173 47.896C150.312 48.024 150.381 48.184 150.381 48.376C150.381 48.568 150.312 48.7333 150.173 48.872C150.045 49 149.891 49.064 149.709 49.064ZM164.398 49L160.542 43.816L156.702 49H155.742L160.046 43.224L156.046 37.8H157.006L160.574 42.616L164.142 37.8H165.054L161.054 43.208L165.358 49H164.398ZM168.065 38.536V43.32H174.033V44.056H168.065V49H167.249V37.8H174.737V38.536H168.065ZM184.123 37.8V38.376L179.307 49H178.411L183.179 38.536H176.891V40.68H176.091V37.8H184.123ZM191.427 43.144C192.195 43.3467 192.787 43.688 193.203 44.168C193.63 44.648 193.843 45.2347 193.843 45.928C193.843 46.9093 193.464 47.6827 192.707 48.248C191.95 48.8027 190.91 49.08 189.587 49.08C188.275 49.08 187.24 48.8027 186.483 48.248C185.736 47.6827 185.363 46.9093 185.363 45.928C185.363 45.224 185.566 44.6373 185.971 44.168C186.387 43.688 186.979 43.3467 187.747 43.144C187.107 42.9307 186.616 42.6107 186.275 42.184C185.934 41.7573 185.763 41.2347 185.763 40.616C185.763 39.72 186.11 39.016 186.803 38.504C187.496 37.9813 188.424 37.72 189.587 37.72C190.75 37.72 191.683 37.9813 192.387 38.504C193.091 39.0267 193.443 39.7307 193.443 40.616C193.443 41.224 193.267 41.7467 192.915 42.184C192.574 42.6107 192.078 42.9307 191.427 43.144ZM186.579 40.632C186.579 41.304 186.84 41.8373 187.363 42.232C187.896 42.6267 188.638 42.824 189.587 42.824C190.536 42.824 191.278 42.632 191.811 42.248C192.355 41.8533 192.627 41.32 192.627 40.648C192.627 39.9653 192.35 39.4267 191.795 39.032C191.251 38.6267 190.515 38.424 189.587 38.424C188.659 38.424 187.923 38.6213 187.379 39.016C186.846 39.4107 186.579 39.9493 186.579 40.632ZM189.587 48.376C190.664 48.376 191.507 48.1573 192.115 47.72C192.723 47.2827 193.027 46.6853 193.027 45.928C193.027 45.1813 192.723 44.5893 192.115 44.152C191.507 43.7147 190.664 43.496 189.587 43.496C188.52 43.496 187.683 43.7147 187.075 44.152C186.478 44.5893 186.179 45.1813 186.179 45.928C186.179 46.6853 186.478 47.2827 187.075 47.72C187.672 48.1573 188.51 48.376 189.587 48.376ZM199.92 49.08C199.067 49.08 198.304 48.8507 197.632 48.392C196.971 47.9227 196.454 47.2613 196.08 46.408C195.718 45.5547 195.536 44.552 195.536 43.4C195.536 42.248 195.718 41.2453 196.08 40.392C196.454 39.5387 196.971 38.8827 197.632 38.424C198.304 37.9547 199.067 37.72 199.92 37.72C200.774 37.72 201.531 37.9547 202.192 38.424C202.864 38.8827 203.382 39.5387 203.744 40.392C204.118 41.2453 204.304 42.248 204.304 43.4C204.304 44.552 204.118 45.5547 203.744 46.408C203.382 47.2613 202.864 47.9227 202.192 48.392C201.531 48.8507 200.774 49.08 199.92 49.08ZM199.92 48.328C200.624 48.328 201.243 48.136 201.776 47.752C202.32 47.3573 202.742 46.792 203.04 46.056C203.339 45.3093 203.488 44.424 203.488 43.4C203.488 42.376 203.339 41.496 203.04 40.76C202.742 40.0133 202.32 39.448 201.776 39.064C201.243 38.6693 200.624 38.472 199.92 38.472C199.216 38.472 198.592 38.6693 198.048 39.064C197.515 39.448 197.099 40.0133 196.8 40.76C196.502 41.496 196.352 42.376 196.352 43.4C196.352 44.424 196.502 45.3093 196.8 46.056C197.099 46.792 197.515 47.3573 198.048 47.752C198.592 48.136 199.216 48.328 199.92 48.328ZM29.1403 63.24C29.9723 63.3787 30.5963 63.6827 31.0123 64.152C31.439 64.6213 31.6523 65.2453 31.6523 66.024C31.6523 66.984 31.3163 67.72 30.6443 68.232C29.9723 68.744 28.975 69 27.6523 69H22.8363V57.8H27.3483C28.5216 57.8 29.4336 58.0453 30.0843 58.536C30.7456 59.0267 31.0763 59.7307 31.0763 60.648C31.0763 61.2987 30.9056 61.8427 30.5643 62.28C30.223 62.7173 29.7483 63.0373 29.1403 63.24ZM23.6523 62.984H27.3323C28.271 62.984 28.991 62.792 29.4923 62.408C29.9936 62.024 30.2443 61.4693 30.2443 60.744C30.2443 60.008 29.9936 59.448 29.4923 59.064C28.991 58.68 28.271 58.488 27.3323 58.488H23.6523V62.984ZM27.6683 68.312C29.7803 68.312 30.8363 67.5333 30.8363 65.976C30.8363 65.176 30.5696 64.5893 30.0363 64.216C29.503 63.8427 28.7136 63.656 27.6683 63.656H23.6523V68.312H27.6683ZM38.7563 60.584C39.535 60.584 40.239 60.7653 40.8683 61.128C41.4976 61.4907 41.9883 61.992 42.3403 62.632C42.703 63.272 42.8843 64.0027 42.8843 64.824C42.8843 65.6453 42.703 66.3813 42.3403 67.032C41.9883 67.672 41.4976 68.1733 40.8683 68.536C40.239 68.888 39.535 69.064 38.7563 69.064C38.0203 69.064 37.3536 68.8933 36.7563 68.552C36.159 68.2 35.695 67.7147 35.3643 67.096V72.104H34.5643V60.648H35.3323V62.616C35.663 61.976 36.127 61.48 36.7243 61.128C37.3323 60.7653 38.0096 60.584 38.7563 60.584ZM38.7083 68.344C39.3483 68.344 39.9243 68.1947 40.4363 67.896C40.9483 67.5973 41.3483 67.1813 41.6363 66.648C41.935 66.1147 42.0843 65.5067 42.0843 64.824C42.0843 64.1413 41.935 63.5333 41.6363 63C41.3483 62.4667 40.9483 62.0507 40.4363 61.752C39.9243 61.4533 39.3483 61.304 38.7083 61.304C38.0683 61.304 37.4923 61.4533 36.9803 61.752C36.479 62.0507 36.079 62.4667 35.7803 63C35.4923 63.5333 35.3483 64.1413 35.3483 64.824C35.3483 65.5067 35.4923 66.1147 35.7803 66.648C36.079 67.1813 36.479 67.5973 36.9803 67.896C37.4923 68.1947 38.0683 68.344 38.7083 68.344ZM52.6058 65.016H45.4218C45.4431 65.6667 45.6085 66.248 45.9178 66.76C46.2271 67.2613 46.6431 67.6507 47.1658 67.928C47.6991 68.2053 48.2965 68.344 48.9578 68.344C49.5018 68.344 50.0031 68.248 50.4618 68.056C50.9311 67.8533 51.3205 67.56 51.6298 67.176L52.0938 67.704C51.7311 68.1413 51.2725 68.4773 50.7178 68.712C50.1738 68.9467 49.5818 69.064 48.9418 69.064C48.1098 69.064 47.3685 68.8827 46.7178 68.52C46.0671 68.1573 45.5551 67.656 45.1818 67.016C44.8191 66.376 44.6378 65.6453 44.6378 64.824C44.6378 64.0133 44.8085 63.288 45.1498 62.648C45.5018 61.9973 45.9818 61.4907 46.5898 61.128C47.1978 60.7653 47.8805 60.584 48.6378 60.584C49.3951 60.584 50.0725 60.7653 50.6698 61.128C51.2778 61.48 51.7525 61.976 52.0938 62.616C52.4458 63.256 52.6218 63.9813 52.6218 64.792L52.6058 65.016ZM48.6378 61.288C48.0511 61.288 47.5231 61.4213 47.0538 61.688C46.5845 61.944 46.2058 62.312 45.9178 62.792C45.6405 63.2613 45.4805 63.7947 45.4378 64.392H51.8378C51.8058 63.7947 51.6458 63.2613 51.3578 62.792C51.0698 62.3227 50.6911 61.9547 50.2218 61.688C49.7525 61.4213 49.2245 61.288 48.6378 61.288ZM64.3238 60.648V69H63.5878V61.928L59.9558 67.928H59.5878L55.9718 61.944V69H55.2358V60.648H56.0198L59.7958 66.968L63.5878 60.648H64.3238ZM73.9427 60.648V69H73.2067V66.12H70.4227C70.2307 66.12 70.092 66.1147 70.0067 66.104L67.9427 69H67.0627L69.2227 66.008C68.54 65.8587 68.0174 65.5653 67.6547 65.128C67.292 64.6907 67.1107 64.1253 67.1107 63.432C67.1107 62.5147 67.4147 61.8213 68.0227 61.352C68.6414 60.8827 69.484 60.648 70.5507 60.648H73.9427ZM67.9107 63.464C67.9107 64.8293 68.7747 65.512 70.5027 65.512H73.2067V61.352H70.5987C68.8067 61.352 67.9107 62.056 67.9107 63.464ZM88.7974 60.648V69H87.9974V61.368H82.3014V69H81.5014V60.648H88.7974ZM96.4594 60.584C97.2381 60.584 97.9421 60.7653 98.5714 61.128C99.2008 61.4907 99.6914 61.992 100.043 62.632C100.406 63.272 100.587 64.0027 100.587 64.824C100.587 65.6453 100.406 66.3813 100.043 67.032C99.6914 67.672 99.2008 68.1733 98.5714 68.536C97.9421 68.888 97.2381 69.064 96.4594 69.064C95.7234 69.064 95.0568 68.8933 94.4594 68.552C93.8621 68.2 93.3981 67.7147 93.0674 67.096V72.104H92.2674V60.648H93.0354V62.616C93.3661 61.976 93.8301 61.48 94.4274 61.128C95.0354 60.7653 95.7128 60.584 96.4594 60.584ZM96.4114 68.344C97.0514 68.344 97.6274 68.1947 98.1394 67.896C98.6514 67.5973 99.0514 67.1813 99.3394 66.648C99.6381 66.1147 99.7874 65.5067 99.7874 64.824C99.7874 64.1413 99.6381 63.5333 99.3394 63C99.0514 62.4667 98.6514 62.0507 98.1394 61.752C97.6274 61.4533 97.0514 61.304 96.4114 61.304C95.7714 61.304 95.1954 61.4533 94.6834 61.752C94.1821 62.0507 93.7821 62.4667 93.4834 63C93.1954 63.5333 93.0514 64.1413 93.0514 64.824C93.0514 65.5067 93.1954 66.1147 93.4834 66.648C93.7821 67.1813 94.1821 67.5973 94.6834 67.896C95.1954 68.1947 95.7714 68.344 96.4114 68.344ZM106.517 69.064C105.728 69.064 105.013 68.8827 104.373 68.52C103.744 68.1573 103.248 67.656 102.885 67.016C102.522 66.3653 102.341 65.6347 102.341 64.824C102.341 64.0133 102.522 63.288 102.885 62.648C103.248 61.9973 103.744 61.4907 104.373 61.128C105.013 60.7653 105.728 60.584 106.517 60.584C107.306 60.584 108.016 60.7653 108.645 61.128C109.285 61.4907 109.786 61.9973 110.149 62.648C110.512 63.288 110.693 64.0133 110.693 64.824C110.693 65.6347 110.512 66.3653 110.149 67.016C109.786 67.656 109.285 68.1573 108.645 68.52C108.016 68.8827 107.306 69.064 106.517 69.064ZM106.517 68.344C107.157 68.344 107.728 68.1947 108.229 67.896C108.741 67.5973 109.141 67.1813 109.429 66.648C109.728 66.1147 109.877 65.5067 109.877 64.824C109.877 64.1413 109.728 63.5333 109.429 63C109.141 62.4667 108.741 62.0507 108.229 61.752C107.728 61.4533 107.157 61.304 106.517 61.304C105.877 61.304 105.301 61.4533 104.789 61.752C104.288 62.0507 103.888 62.4667 103.589 63C103.301 63.5333 103.157 64.1413 103.157 64.824C103.157 65.5067 103.301 66.1147 103.589 66.648C103.888 67.1813 104.288 67.5973 104.789 67.896C105.301 68.1947 105.877 68.344 106.517 68.344ZM119.795 60.648V69H118.995V61.368H114.643L114.531 63.592C114.467 64.744 114.371 65.7093 114.243 66.488C114.115 67.2667 113.896 67.896 113.587 68.376C113.278 68.856 112.851 69.096 112.307 69.096C112.147 69.096 111.918 69.0587 111.619 68.984L111.699 68.296C111.87 68.3387 111.998 68.36 112.083 68.36C112.531 68.36 112.872 68.1413 113.107 67.704C113.342 67.2667 113.502 66.7227 113.587 66.072C113.672 65.4213 113.742 64.5733 113.795 63.528L113.939 60.648H119.795ZM130.371 65.016H123.187C123.209 65.6667 123.374 66.248 123.683 66.76C123.993 67.2613 124.409 67.6507 124.931 67.928C125.465 68.2053 126.062 68.344 126.723 68.344C127.267 68.344 127.769 68.248 128.227 68.056C128.697 67.8533 129.086 67.56 129.395 67.176L129.859 67.704C129.497 68.1413 129.038 68.4773 128.483 68.712C127.939 68.9467 127.347 69.064 126.707 69.064C125.875 69.064 125.134 68.8827 124.483 68.52C123.833 68.1573 123.321 67.656 122.947 67.016C122.585 66.376 122.403 65.6453 122.403 64.824C122.403 64.0133 122.574 63.288 122.915 62.648C123.267 61.9973 123.747 61.4907 124.355 61.128C124.963 60.7653 125.646 60.584 126.403 60.584C127.161 60.584 127.838 60.7653 128.435 61.128C129.043 61.48 129.518 61.976 129.859 62.616C130.211 63.256 130.387 63.9813 130.387 64.792L130.371 65.016ZM126.403 61.288C125.817 61.288 125.289 61.4213 124.819 61.688C124.35 61.944 123.971 62.312 123.683 62.792C123.406 63.2613 123.246 63.7947 123.203 64.392H129.603C129.571 63.7947 129.411 63.2613 129.123 62.792C128.835 62.3227 128.457 61.9547 127.987 61.688C127.518 61.4213 126.99 61.288 126.403 61.288ZM125.027 58.856C124.867 58.856 124.729 58.8027 124.611 58.696C124.505 58.5787 124.451 58.44 124.451 58.28C124.451 58.1093 124.505 57.9707 124.611 57.864C124.729 57.7573 124.867 57.704 125.027 57.704C125.187 57.704 125.321 57.7627 125.427 57.88C125.545 57.9867 125.603 58.12 125.603 58.28C125.603 58.44 125.545 58.5787 125.427 58.696C125.31 58.8027 125.177 58.856 125.027 58.856ZM127.779 58.856C127.63 58.856 127.497 58.8027 127.379 58.696C127.262 58.5787 127.203 58.44 127.203 58.28C127.203 58.12 127.257 57.9867 127.363 57.88C127.481 57.7627 127.619 57.704 127.779 57.704C127.939 57.704 128.073 57.7573 128.179 57.864C128.297 57.9707 128.355 58.1093 128.355 58.28C128.355 58.44 128.297 58.5787 128.179 58.696C128.073 58.8027 127.939 58.856 127.779 58.856ZM138.195 61.368H134.931V69H134.131V61.368H130.867V60.648H138.195V61.368ZM142.676 60.584C143.71 60.584 144.505 60.8507 145.06 61.384C145.614 61.9067 145.892 62.68 145.892 63.704V69H145.124V67.512C144.857 68.0027 144.468 68.3867 143.956 68.664C143.444 68.9307 142.83 69.064 142.116 69.064C141.188 69.064 140.452 68.8453 139.908 68.408C139.374 67.9707 139.108 67.3947 139.108 66.68C139.108 65.9867 139.353 65.4267 139.844 65C140.345 64.5627 141.14 64.344 142.228 64.344H145.092V63.672C145.092 62.8933 144.878 62.3013 144.452 61.896C144.036 61.4907 143.422 61.288 142.612 61.288C142.057 61.288 141.524 61.384 141.012 61.576C140.51 61.768 140.084 62.024 139.732 62.344L139.332 61.768C139.748 61.3947 140.249 61.1067 140.836 60.904C141.422 60.6907 142.036 60.584 142.676 60.584ZM142.228 68.408C142.921 68.408 143.508 68.248 143.988 67.928C144.478 67.608 144.846 67.144 145.092 66.536V64.968H142.244C141.422 64.968 140.825 65.1173 140.452 65.416C140.089 65.7147 139.908 66.1253 139.908 66.648C139.908 67.192 140.11 67.624 140.516 67.944C140.921 68.2533 141.492 68.408 142.228 68.408ZM149.014 61.944C148.833 61.944 148.673 61.88 148.534 61.752C148.406 61.6133 148.342 61.448 148.342 61.256C148.342 61.064 148.406 60.904 148.534 60.776C148.673 60.648 148.833 60.584 149.014 60.584C149.195 60.584 149.35 60.648 149.478 60.776C149.617 60.904 149.686 61.064 149.686 61.256C149.686 61.448 149.617 61.6133 149.478 61.752C149.35 61.88 149.195 61.944 149.014 61.944ZM149.014 69.064C148.833 69.064 148.673 69 148.534 68.872C148.406 68.7333 148.342 68.568 148.342 68.376C148.342 68.184 148.406 68.024 148.534 67.896C148.673 67.768 148.833 67.704 149.014 67.704C149.195 67.704 149.35 67.768 149.478 67.896C149.617 68.024 149.686 68.184 149.686 68.376C149.686 68.568 149.617 68.7333 149.478 68.872C149.35 69 149.195 69.064 149.014 69.064ZM158.423 57.8V69H157.607V58.536H154.871V57.8H158.423ZM165.631 69.08C164.778 69.08 164.015 68.8507 163.343 68.392C162.682 67.9227 162.165 67.2613 161.791 66.408C161.429 65.5547 161.247 64.552 161.247 63.4C161.247 62.248 161.429 61.2453 161.791 60.392C162.165 59.5387 162.682 58.8827 163.343 58.424C164.015 57.9547 164.778 57.72 165.631 57.72C166.485 57.72 167.242 57.9547 167.903 58.424C168.575 58.8827 169.093 59.5387 169.455 60.392C169.829 61.2453 170.015 62.248 170.015 63.4C170.015 64.552 169.829 65.5547 169.455 66.408C169.093 67.2613 168.575 67.9227 167.903 68.392C167.242 68.8507 166.485 69.08 165.631 69.08ZM165.631 68.328C166.335 68.328 166.954 68.136 167.487 67.752C168.031 67.3573 168.453 66.792 168.751 66.056C169.05 65.3093 169.199 64.424 169.199 63.4C169.199 62.376 169.05 61.496 168.751 60.76C168.453 60.0133 168.031 59.448 167.487 59.064C166.954 58.6693 166.335 58.472 165.631 58.472C164.927 58.472 164.303 58.6693 163.759 59.064C163.226 59.448 162.81 60.0133 162.511 60.76C162.213 61.496 162.063 62.376 162.063 63.4C162.063 64.424 162.213 65.3093 162.511 66.056C162.81 66.792 163.226 67.3573 163.759 67.752C164.303 68.136 164.927 68.328 165.631 68.328ZM185.824 60.648V69H185.088V61.928L181.456 67.928H181.088L177.472 61.944V69H176.736V60.648H177.52L181.296 66.968L185.088 60.648H185.824ZM189.283 60.648H190.083V67.768L196.035 60.648H196.739V69H195.939V61.88L189.987 69H189.283V60.648ZM200.189 60.648H200.989V64.456H206.653V60.648H207.453V69H206.653V65.16H200.989V69H200.189V60.648Z" fill="white"/>
</svg>
