<svg width="1440" height="3819" viewBox="0 0 1440 3819" fill="none" xmlns="http://www.w3.org/2000/svg">
<g clip-path="url(#clip0)">
<rect width="1440" height="3819" fill="black"/>
<path d="M1092 1052C1092 1241.36 925.528 1395 720 1395C514.472 1395 348 1241.36 348 1052C348 862.641 514.472 709 720 709C925.528 709 1092 862.641 1092 1052Z" stroke="url(#paint0_linear)" stroke-width="2"/>
<path d="M1134 1830C1134 2044.23 948.708 2218 720 2218C491.292 2218 306 2044.23 306 1830C306 1615.77 491.292 1442 720 1442C948.708 1442 1134 1615.77 1134 1830Z" stroke="url(#paint1_linear)" stroke-width="2"/>
<path d="M1166 2703C1166 2944.88 966.336 3141 720 3141C473.664 3141 274 2944.88 274 2703C274 2461.12 473.664 2265 720 2265C966.336 2265 1166 2461.12 1166 2703Z" stroke="url(#paint2_linear)" stroke-width="2"/>
<path d="M962 3373C962 3499.98 853.701 3603 720 3603C586.299 3603 478 3499.98 478 3373C478 3246.02 586.299 3143 720 3143C853.701 3143 962 3246.02 962 3373Z" stroke="url(#paint3_linear)" stroke-width="2"/>
<path d="M894.523 543.661C901.642 637.855 829.408 720.145 733.136 727.421C636.864 734.696 553.083 664.197 545.965 570.003C538.846 475.81 611.08 393.52 707.352 386.244C803.624 378.968 887.404 449.468 894.523 543.661Z" stroke="url(#paint4_linear)" stroke-width="2"/>
<ellipse cx="92" cy="644.5" rx="19" ry="20.5" fill="url(#paint5_diamond)"/>
<ellipse cx="1058" cy="1483.5" rx="19" ry="20.5" fill="url(#paint6_diamond)"/>
<ellipse cx="42" cy="3237.5" rx="19" ry="20.5" fill="url(#paint7_diamond)"/>
<ellipse cx="108" cy="3152.5" rx="19" ry="20.5" fill="url(#paint8_diamond)"/>
<ellipse cx="246" cy="3193.5" rx="19" ry="20.5" fill="url(#paint9_diamond)"/>
<ellipse cx="351" cy="3121.5" rx="19" ry="20.5" fill="url(#paint10_diamond)"/>
<ellipse cx="1123" cy="1399.5" rx="19" ry="20.5" fill="url(#paint11_diamond)"/>
<ellipse cx="1262" cy="1440.5" rx="19" ry="20.5" fill="url(#paint12_diamond)"/>
<ellipse cx="1370" cy="1370.5" rx="19" ry="20.5" fill="url(#paint13_diamond)"/>
<ellipse cx="164" cy="556.5" rx="20" ry="20.5" fill="url(#paint14_diamond)"/>
<ellipse cx="315" cy="592.5" rx="17" ry="20.5" fill="url(#paint15_diamond)"/>
<path d="M92.0834 646.003L163.079 555.335L314.809 591.931L432.083 518.003" stroke="#FFFDCE"/>
<path d="M1060.08 1487L1123.06 1399.35L1264.27 1439.91L1370.48 1370.15" stroke="#FFFDCE"/>
<path d="M43.0834 3238.86L106.062 3151.21L247.271 3191.77L353.479 3122" stroke="#FFFDCE"/>
<ellipse cx="432" cy="519" rx="17" ry="21" fill="url(#paint16_diamond)"/>
<path d="M1337.19 1639.52L1342.17 1672.79L1365.28 1678.4L1345.42 1690.02L1335.61 1724.16L1330.03 1701.89L1328.03 1690.77L1308.81 1680.75L1330.58 1672.57L1337.19 1639.52Z" fill="url(#paint17_radial)"/>
<path d="M253.249 294.535L258.345 330.922L282.212 337.035L261.691 349.765L251.511 387.116L245.776 362.767L243.723 350.608L223.881 339.669L246.378 330.698L253.249 294.535Z" fill="url(#paint18_radial)"/>
<path d="M1114.25 3123.54L1119.35 3159.92L1143.21 3166.03L1122.69 3178.76L1112.51 3216.12L1106.78 3191.77L1104.72 3179.61L1084.88 3168.67L1107.38 3159.7L1114.25 3123.54Z" fill="url(#paint19_radial)"/>
<path d="M82.2492 2348.54L87.345 2384.92L111.212 2391.03L90.6906 2403.76L80.5108 2441.12L74.7756 2416.77L72.7227 2404.61L52.8807 2393.67L75.3777 2384.7L82.2492 2348.54Z" fill="url(#paint20_radial)"/>
<path d="M1284.88 3569.96C1254.33 3592.43 1220.54 3606.54 1190.66 3611.24C1160.73 3615.94 1135.08 3611.17 1120.26 3596.36C1105.44 3581.56 1103.83 3559.1 1113.8 3534.46C1123.76 3509.85 1145.15 3483.36 1175.7 3460.89C1206.25 3438.42 1240.04 3424.31 1269.92 3419.61C1299.85 3414.91 1325.5 3419.68 1340.32 3434.48C1355.14 3449.29 1356.74 3471.75 1346.77 3496.39C1336.82 3521 1315.42 3547.49 1284.88 3569.96Z" stroke="url(#paint21_angular)" stroke-width="3"/>
<path d="M1257.53 3464.24C1292.58 3487.59 1318.67 3514.85 1332.55 3539.98C1346.48 3565.21 1347.91 3587.84 1334.69 3602.42C1321.47 3617 1295.54 3621.39 1263.58 3616.04C1231.75 3610.7 1194.5 3595.75 1159.45 3572.4C1124.41 3549.04 1098.32 3521.78 1084.44 3496.65C1070.51 3471.42 1069.08 3448.79 1082.3 3434.22C1095.51 3419.64 1121.45 3415.24 1153.4 3420.6C1185.24 3425.93 1222.49 3440.88 1257.53 3464.24Z" stroke="url(#paint22_angular)" stroke-width="3"/>
<path d="M-407 3629C-377.917 3632.62 563.785 3630.51 1031 3629" stroke="white"/>
<path d="M60.916 3686.13C60.4342 3686.82 59.7604 3687.34 58.8945 3687.69C58.0352 3688.03 57.0326 3688.2 55.8867 3688.2C54.7279 3688.2 53.6992 3687.93 52.8008 3687.38C51.9023 3686.84 51.2057 3686.06 50.7109 3685.06C50.2227 3684.06 49.972 3682.9 49.959 3681.57V3680.33C49.959 3678.19 50.457 3676.53 51.4531 3675.35C52.4557 3674.18 53.862 3673.59 55.6719 3673.59C57.1562 3673.59 58.3509 3673.97 59.2559 3674.73C60.1608 3675.48 60.7142 3676.56 60.916 3677.95H59.041C58.6895 3676.07 57.5697 3675.13 55.6816 3675.13C54.4251 3675.13 53.4714 3675.57 52.8203 3676.46C52.1758 3677.34 51.8503 3678.61 51.8438 3680.29V3681.45C51.8438 3683.04 52.2083 3684.31 52.9375 3685.26C53.6667 3686.19 54.653 3686.66 55.8965 3686.66C56.5996 3686.66 57.2148 3686.58 57.7422 3686.43C58.2695 3686.27 58.7057 3686.01 59.0508 3685.64V3682.44H55.7598V3680.92H60.916V3686.13ZM71.9023 3684.29H65.9453L64.6074 3688H62.6738L68.1035 3673.78H69.7441L75.1836 3688H73.2598L71.9023 3684.29ZM66.5117 3682.75H71.3457L68.9238 3676.1L66.5117 3682.75ZM78.9824 3686.47H85.7207V3688H77.0977V3673.78H78.9824V3686.47ZM95.9062 3684.29H89.9492L88.6113 3688H86.6777L92.1074 3673.78H93.748L99.1875 3688H97.2637L95.9062 3684.29ZM90.5156 3682.75H95.3496L92.9277 3676.1L90.5156 3682.75ZM105.74 3679.23L109.148 3673.78H111.355L106.863 3680.83L111.463 3688H109.236L105.74 3682.45L102.225 3688H100.008L104.617 3680.83L100.115 3673.78H102.312L105.74 3679.23ZM117.977 3680.92L121.688 3673.78H123.816L118.914 3682.7V3688H117.039V3682.7L112.137 3673.78H114.285L117.977 3680.92ZM135.818 3683.49C135.643 3684.99 135.086 3686.15 134.148 3686.97C133.217 3687.79 131.977 3688.2 130.428 3688.2C128.748 3688.2 127.4 3687.59 126.385 3686.39C125.376 3685.18 124.871 3683.57 124.871 3681.55V3680.19C124.871 3678.87 125.105 3677.7 125.574 3676.7C126.049 3675.7 126.72 3674.93 127.586 3674.4C128.452 3673.86 129.454 3673.59 130.594 3673.59C132.104 3673.59 133.315 3674.01 134.227 3674.86C135.138 3675.7 135.669 3676.86 135.818 3678.35H133.934C133.771 3677.22 133.416 3676.4 132.869 3675.89C132.329 3675.38 131.57 3675.13 130.594 3675.13C129.396 3675.13 128.455 3675.57 127.771 3676.46C127.094 3677.34 126.756 3678.6 126.756 3680.24V3681.61C126.756 3683.16 127.078 3684.38 127.723 3685.29C128.367 3686.21 129.269 3686.66 130.428 3686.66C131.469 3686.66 132.267 3686.43 132.82 3685.96C133.38 3685.48 133.751 3684.66 133.934 3683.49H135.818ZM143.602 3682.25H140.262V3688H138.377V3673.78H143.084C144.686 3673.78 145.916 3674.15 146.775 3674.88C147.641 3675.6 148.074 3676.67 148.074 3678.06C148.074 3678.94 147.833 3679.72 147.352 3680.37C146.876 3681.03 146.212 3681.52 145.359 3681.85L148.699 3687.88V3688H146.688L143.602 3682.25ZM140.262 3680.71H143.143C144.074 3680.71 144.812 3680.47 145.359 3679.99C145.913 3679.51 146.189 3678.87 146.189 3678.06C146.189 3677.18 145.926 3676.51 145.398 3676.04C144.878 3675.57 144.122 3675.33 143.133 3675.32H140.262V3680.71ZM160.721 3673.78V3683.45C160.714 3684.79 160.291 3685.89 159.451 3686.74C158.618 3687.59 157.485 3688.07 156.053 3688.18L155.555 3688.2C153.999 3688.2 152.758 3687.78 151.834 3686.94C150.91 3686.1 150.441 3684.94 150.428 3683.47V3673.78H152.283V3683.41C152.283 3684.44 152.566 3685.24 153.133 3685.81C153.699 3686.38 154.507 3686.66 155.555 3686.66C156.616 3686.66 157.426 3686.38 157.986 3685.81C158.553 3685.25 158.836 3684.45 158.836 3683.42V3673.78H160.721ZM165.691 3688H163.816V3673.78H165.691V3688ZM173.318 3681.66C171.71 3681.2 170.538 3680.63 169.803 3679.96C169.074 3679.29 168.709 3678.45 168.709 3677.46C168.709 3676.34 169.155 3675.42 170.047 3674.69C170.945 3673.95 172.111 3673.59 173.543 3673.59C174.52 3673.59 175.389 3673.77 176.15 3674.15C176.919 3674.53 177.511 3675.05 177.928 3675.71C178.351 3676.38 178.562 3677.1 178.562 3677.89H176.678C176.678 3677.03 176.404 3676.36 175.857 3675.87C175.311 3675.38 174.539 3675.13 173.543 3675.13C172.618 3675.13 171.896 3675.33 171.375 3675.74C170.861 3676.15 170.604 3676.71 170.604 3677.43C170.604 3678.01 170.848 3678.5 171.336 3678.91C171.831 3679.31 172.667 3679.67 173.846 3680C175.031 3680.33 175.955 3680.7 176.619 3681.11C177.29 3681.5 177.785 3681.97 178.104 3682.5C178.429 3683.04 178.592 3683.66 178.592 3684.39C178.592 3685.54 178.143 3686.46 177.244 3687.16C176.346 3687.85 175.145 3688.2 173.641 3688.2C172.664 3688.2 171.753 3688.01 170.906 3687.64C170.06 3687.26 169.406 3686.75 168.943 3686.1C168.488 3685.44 168.26 3684.71 168.26 3683.88H170.145C170.145 3684.74 170.46 3685.42 171.092 3685.92C171.73 3686.41 172.579 3686.66 173.641 3686.66C174.63 3686.66 175.389 3686.46 175.916 3686.06C176.443 3685.65 176.707 3685.1 176.707 3684.41C176.707 3683.71 176.463 3683.17 175.975 3682.79C175.486 3682.41 174.601 3682.03 173.318 3681.66ZM189.041 3681.43H182.879V3686.47H190.037V3688H181.004V3673.78H189.939V3675.32H182.879V3679.89H189.041V3681.43ZM192.127 3687.05C192.127 3686.74 192.218 3686.48 192.4 3686.27C192.589 3686.06 192.869 3685.96 193.24 3685.96C193.611 3685.96 193.891 3686.06 194.08 3686.27C194.275 3686.48 194.373 3686.74 194.373 3687.05C194.373 3687.35 194.275 3687.6 194.08 3687.8C193.891 3688.01 193.611 3688.11 193.24 3688.11C192.869 3688.11 192.589 3688.01 192.4 3687.8C192.218 3687.6 192.127 3687.35 192.127 3687.05ZM208.104 3683.49C207.928 3684.99 207.371 3686.15 206.434 3686.97C205.503 3687.79 204.262 3688.2 202.713 3688.2C201.033 3688.2 199.686 3687.59 198.67 3686.39C197.661 3685.18 197.156 3683.57 197.156 3681.55V3680.19C197.156 3678.87 197.391 3677.7 197.859 3676.7C198.335 3675.7 199.005 3674.93 199.871 3674.4C200.737 3673.86 201.74 3673.59 202.879 3673.59C204.389 3673.59 205.6 3674.01 206.512 3674.86C207.423 3675.7 207.954 3676.86 208.104 3678.35H206.219C206.056 3677.22 205.701 3676.4 205.154 3675.89C204.614 3675.38 203.855 3675.13 202.879 3675.13C201.681 3675.13 200.74 3675.57 200.057 3676.46C199.38 3677.34 199.041 3678.6 199.041 3680.24V3681.61C199.041 3683.16 199.363 3684.38 200.008 3685.29C200.652 3686.21 201.554 3686.66 202.713 3686.66C203.755 3686.66 204.552 3686.43 205.105 3685.96C205.665 3685.48 206.036 3684.66 206.219 3683.49H208.104ZM221.609 3681.35C221.609 3682.74 221.375 3683.96 220.906 3685C220.438 3686.04 219.773 3686.83 218.914 3687.38C218.055 3687.92 217.052 3688.2 215.906 3688.2C214.786 3688.2 213.794 3687.92 212.928 3687.38C212.062 3686.82 211.388 3686.04 210.906 3685.02C210.431 3684 210.187 3682.82 210.174 3681.48V3680.45C210.174 3679.08 210.411 3677.88 210.887 3676.83C211.362 3675.78 212.033 3674.98 212.898 3674.43C213.771 3673.87 214.767 3673.59 215.887 3673.59C217.026 3673.59 218.029 3673.86 218.895 3674.42C219.767 3674.96 220.438 3675.76 220.906 3676.81C221.375 3677.85 221.609 3679.06 221.609 3680.45V3681.35ZM219.744 3680.43C219.744 3678.75 219.406 3677.45 218.729 3676.55C218.051 3675.65 217.104 3675.2 215.887 3675.2C214.702 3675.2 213.768 3675.65 213.084 3676.55C212.407 3677.45 212.059 3678.7 212.039 3680.3V3681.35C212.039 3682.98 212.381 3684.27 213.064 3685.21C213.755 3686.14 214.702 3686.6 215.906 3686.6C217.117 3686.6 218.055 3686.16 218.719 3685.29C219.383 3684.4 219.725 3683.13 219.744 3681.49V3680.43ZM226.844 3673.78L231.492 3685.38L236.141 3673.78H238.572V3688H236.697V3682.46L236.873 3676.49L232.205 3688H230.77L226.111 3676.52L226.297 3682.46V3688H224.422V3673.78H226.844Z" fill="white"/>
<path d="M591.561 3697H589.676V3690.43H582.508V3697H580.633V3682.78H582.508V3688.89H589.676V3682.78H591.561V3697ZM599.08 3690.66C597.472 3690.2 596.3 3689.63 595.564 3688.96C594.835 3688.29 594.471 3687.45 594.471 3686.46C594.471 3685.34 594.917 3684.42 595.809 3683.69C596.707 3682.95 597.872 3682.59 599.305 3682.59C600.281 3682.59 601.15 3682.77 601.912 3683.15C602.68 3683.53 603.273 3684.05 603.689 3684.71C604.113 3685.38 604.324 3686.1 604.324 3686.89H602.439C602.439 3686.03 602.166 3685.36 601.619 3684.87C601.072 3684.38 600.301 3684.13 599.305 3684.13C598.38 3684.13 597.658 3684.33 597.137 3684.74C596.622 3685.15 596.365 3685.71 596.365 3686.43C596.365 3687.01 596.609 3687.5 597.098 3687.91C597.592 3688.31 598.429 3688.67 599.607 3689C600.792 3689.33 601.717 3689.7 602.381 3690.11C603.051 3690.5 603.546 3690.97 603.865 3691.5C604.191 3692.04 604.354 3692.66 604.354 3693.39C604.354 3694.54 603.904 3695.46 603.006 3696.16C602.107 3696.85 600.906 3697.2 599.402 3697.2C598.426 3697.2 597.514 3697.01 596.668 3696.64C595.822 3696.26 595.167 3695.75 594.705 3695.1C594.249 3694.44 594.021 3693.71 594.021 3692.88H595.906C595.906 3693.74 596.222 3694.42 596.854 3694.92C597.492 3695.41 598.341 3695.66 599.402 3695.66C600.392 3695.66 601.15 3695.46 601.678 3695.06C602.205 3694.65 602.469 3694.1 602.469 3693.41C602.469 3692.71 602.225 3692.17 601.736 3691.79C601.248 3691.41 600.363 3691.03 599.08 3690.66ZM614.803 3690.43H608.641V3695.47H615.799V3697H606.766V3682.78H615.701V3684.32H608.641V3688.89H614.803V3690.43ZM630.945 3693.29H624.988L623.65 3697H621.717L627.146 3682.78H628.787L634.227 3697H632.303L630.945 3693.29ZM625.555 3691.75H630.389L627.967 3685.1L625.555 3691.75ZM641.355 3691.25H638.016V3697H636.131V3682.78H640.838C642.439 3682.78 643.67 3683.15 644.529 3683.88C645.395 3684.6 645.828 3685.67 645.828 3687.06C645.828 3687.94 645.587 3688.72 645.105 3689.37C644.63 3690.03 643.966 3690.52 643.113 3690.85L646.453 3696.88V3697H644.441L641.355 3691.25ZM638.016 3689.71H640.896C641.827 3689.71 642.566 3689.47 643.113 3688.99C643.667 3688.51 643.943 3687.87 643.943 3687.06C643.943 3686.18 643.68 3685.51 643.152 3685.04C642.632 3684.57 641.876 3684.33 640.887 3684.32H638.016V3689.71ZM657.508 3684.32H652.938V3697H651.072V3684.32H646.512V3682.78H657.508V3684.32ZM672.039 3693.29H666.082L664.744 3697H662.811L668.24 3682.78H669.881L675.32 3697H673.396L672.039 3693.29ZM666.648 3691.75H671.482L669.061 3685.1L666.648 3691.75ZM688.162 3697H686.277L679.119 3686.04V3697H677.234V3682.78H679.119L686.297 3693.79V3682.78H688.162V3697ZM691.492 3697V3682.78H695.506C696.743 3682.78 697.837 3683.05 698.787 3683.6C699.738 3684.15 700.47 3684.93 700.984 3685.94C701.505 3686.94 701.769 3688.1 701.775 3689.41V3690.32C701.775 3691.66 701.515 3692.84 700.994 3693.85C700.48 3694.85 699.741 3695.63 698.777 3696.17C697.82 3696.71 696.704 3696.99 695.428 3697H691.492ZM693.367 3684.32V3695.47H695.34C696.785 3695.47 697.908 3695.02 698.709 3694.12C699.516 3693.22 699.92 3691.94 699.92 3690.28V3689.45C699.92 3687.84 699.539 3686.58 698.777 3685.69C698.022 3684.79 696.948 3684.34 695.555 3684.32H693.367ZM709.578 3697V3682.78H713.592C714.829 3682.78 715.923 3683.05 716.873 3683.6C717.824 3684.15 718.556 3684.93 719.07 3685.94C719.591 3686.94 719.855 3688.1 719.861 3689.41V3690.32C719.861 3691.66 719.601 3692.84 719.08 3693.85C718.566 3694.85 717.827 3695.63 716.863 3696.17C715.906 3696.71 714.79 3696.99 713.514 3697H709.578ZM711.453 3684.32V3695.47H713.426C714.871 3695.47 715.994 3695.02 716.795 3694.12C717.602 3693.22 718.006 3691.94 718.006 3690.28V3689.45C718.006 3687.84 717.625 3686.58 716.863 3685.69C716.108 3684.79 715.034 3684.34 713.641 3684.32H711.453ZM730.74 3690.43H724.578V3695.47H731.736V3697H722.703V3682.78H731.639V3684.32H724.578V3688.89H730.74V3690.43ZM738.26 3690.66C736.652 3690.2 735.48 3689.63 734.744 3688.96C734.015 3688.29 733.65 3687.45 733.65 3686.46C733.65 3685.34 734.096 3684.42 734.988 3683.69C735.887 3682.95 737.052 3682.59 738.484 3682.59C739.461 3682.59 740.33 3682.77 741.092 3683.15C741.86 3683.53 742.452 3684.05 742.869 3684.71C743.292 3685.38 743.504 3686.1 743.504 3686.89H741.619C741.619 3686.03 741.346 3685.36 740.799 3684.87C740.252 3684.38 739.48 3684.13 738.484 3684.13C737.56 3684.13 736.837 3684.33 736.316 3684.74C735.802 3685.15 735.545 3685.71 735.545 3686.43C735.545 3687.01 735.789 3687.5 736.277 3687.91C736.772 3688.31 737.609 3688.67 738.787 3689C739.972 3689.33 740.896 3689.7 741.561 3690.11C742.231 3690.5 742.726 3690.97 743.045 3691.5C743.37 3692.04 743.533 3692.66 743.533 3693.39C743.533 3694.54 743.084 3695.46 742.186 3696.16C741.287 3696.85 740.086 3697.2 738.582 3697.2C737.605 3697.2 736.694 3697.01 735.848 3696.64C735.001 3696.26 734.347 3695.75 733.885 3695.1C733.429 3694.44 733.201 3693.71 733.201 3692.88H735.086C735.086 3693.74 735.402 3694.42 736.033 3694.92C736.671 3695.41 737.521 3695.66 738.582 3695.66C739.572 3695.66 740.33 3695.46 740.857 3695.06C741.385 3694.65 741.648 3694.1 741.648 3693.41C741.648 3692.71 741.404 3692.17 740.916 3691.79C740.428 3691.41 739.542 3691.03 738.26 3690.66ZM747.957 3697H746.082V3682.78H747.957V3697ZM761.893 3695.13C761.411 3695.82 760.737 3696.34 759.871 3696.69C759.012 3697.03 758.009 3697.2 756.863 3697.2C755.704 3697.2 754.676 3696.93 753.777 3696.38C752.879 3695.84 752.182 3695.06 751.688 3694.06C751.199 3693.06 750.949 3691.9 750.936 3690.57V3689.33C750.936 3687.19 751.434 3685.53 752.43 3684.35C753.432 3683.18 754.839 3682.59 756.648 3682.59C758.133 3682.59 759.327 3682.97 760.232 3683.73C761.137 3684.48 761.691 3685.56 761.893 3686.95H760.018C759.666 3685.07 758.546 3684.13 756.658 3684.13C755.402 3684.13 754.448 3684.57 753.797 3685.46C753.152 3686.34 752.827 3687.61 752.82 3689.29V3690.45C752.82 3692.04 753.185 3693.31 753.914 3694.26C754.643 3695.19 755.63 3695.66 756.873 3695.66C757.576 3695.66 758.191 3695.58 758.719 3695.43C759.246 3695.27 759.682 3695.01 760.027 3694.64V3691.44H756.736V3689.92H761.893V3695.13ZM775.955 3697H774.07L766.912 3686.04V3697H765.027V3682.78H766.912L774.09 3693.79V3682.78H775.955V3697ZM788.436 3690.66C786.827 3690.2 785.656 3689.63 784.92 3688.96C784.191 3688.29 783.826 3687.45 783.826 3686.46C783.826 3685.34 784.272 3684.42 785.164 3683.69C786.062 3682.95 787.228 3682.59 788.66 3682.59C789.637 3682.59 790.506 3682.77 791.268 3683.15C792.036 3683.53 792.628 3684.05 793.045 3684.71C793.468 3685.38 793.68 3686.1 793.68 3686.89H791.795C791.795 3686.03 791.521 3685.36 790.975 3684.87C790.428 3684.38 789.656 3684.13 788.66 3684.13C787.736 3684.13 787.013 3684.33 786.492 3684.74C785.978 3685.15 785.721 3685.71 785.721 3686.43C785.721 3687.01 785.965 3687.5 786.453 3687.91C786.948 3688.31 787.785 3688.67 788.963 3689C790.148 3689.33 791.072 3689.7 791.736 3690.11C792.407 3690.5 792.902 3690.97 793.221 3691.5C793.546 3692.04 793.709 3692.66 793.709 3693.39C793.709 3694.54 793.26 3695.46 792.361 3696.16C791.463 3696.85 790.262 3697.2 788.758 3697.2C787.781 3697.2 786.87 3697.01 786.023 3696.64C785.177 3696.26 784.523 3695.75 784.061 3695.1C783.605 3694.44 783.377 3693.71 783.377 3692.88H785.262C785.262 3693.74 785.577 3694.42 786.209 3694.92C786.847 3695.41 787.697 3695.66 788.758 3695.66C789.747 3695.66 790.506 3695.46 791.033 3695.06C791.561 3694.65 791.824 3694.1 791.824 3693.41C791.824 3692.71 791.58 3692.17 791.092 3691.79C790.604 3691.41 789.718 3691.03 788.436 3690.66ZM806.58 3692.49C806.404 3693.99 805.848 3695.15 804.91 3695.97C803.979 3696.79 802.739 3697.2 801.189 3697.2C799.51 3697.2 798.162 3696.59 797.146 3695.39C796.137 3694.18 795.633 3692.57 795.633 3690.55V3689.19C795.633 3687.87 795.867 3686.7 796.336 3685.7C796.811 3684.7 797.482 3683.93 798.348 3683.4C799.214 3682.86 800.216 3682.59 801.355 3682.59C802.866 3682.59 804.077 3683.01 804.988 3683.86C805.9 3684.7 806.43 3685.86 806.58 3687.35H804.695C804.533 3686.22 804.178 3685.4 803.631 3684.89C803.09 3684.38 802.332 3684.13 801.355 3684.13C800.158 3684.13 799.217 3684.57 798.533 3685.46C797.856 3686.34 797.518 3687.6 797.518 3689.24V3690.61C797.518 3692.16 797.84 3693.38 798.484 3694.29C799.129 3695.21 800.031 3695.66 801.189 3695.66C802.231 3695.66 803.029 3695.43 803.582 3694.96C804.142 3694.48 804.513 3693.66 804.695 3692.49H806.58ZM820.076 3697H818.191V3690.43H811.023V3697H809.148V3682.78H811.023V3688.89H818.191V3682.78H820.076V3697ZM834.344 3690.35C834.344 3691.74 834.109 3692.96 833.641 3694C833.172 3695.04 832.508 3695.83 831.648 3696.38C830.789 3696.92 829.786 3697.2 828.641 3697.2C827.521 3697.2 826.528 3696.92 825.662 3696.38C824.796 3695.82 824.122 3695.04 823.641 3694.02C823.165 3693 822.921 3691.82 822.908 3690.48V3689.45C822.908 3688.08 823.146 3686.88 823.621 3685.83C824.096 3684.78 824.767 3683.98 825.633 3683.43C826.505 3682.87 827.501 3682.59 828.621 3682.59C829.76 3682.59 830.763 3682.86 831.629 3683.42C832.501 3683.96 833.172 3684.76 833.641 3685.81C834.109 3686.85 834.344 3688.06 834.344 3689.45V3690.35ZM832.479 3689.43C832.479 3687.75 832.14 3686.45 831.463 3685.55C830.786 3684.65 829.839 3684.2 828.621 3684.2C827.436 3684.2 826.502 3684.65 825.818 3685.55C825.141 3686.45 824.793 3687.7 824.773 3689.3V3690.35C824.773 3691.98 825.115 3693.27 825.799 3694.21C826.489 3695.14 827.436 3695.6 828.641 3695.6C829.852 3695.6 830.789 3695.16 831.453 3694.29C832.117 3693.4 832.459 3692.13 832.479 3690.49V3689.43ZM848.094 3690.35C848.094 3691.74 847.859 3692.96 847.391 3694C846.922 3695.04 846.258 3695.83 845.398 3696.38C844.539 3696.92 843.536 3697.2 842.391 3697.2C841.271 3697.2 840.278 3696.92 839.412 3696.38C838.546 3695.82 837.872 3695.04 837.391 3694.02C836.915 3693 836.671 3691.82 836.658 3690.48V3689.45C836.658 3688.08 836.896 3686.88 837.371 3685.83C837.846 3684.78 838.517 3683.98 839.383 3683.43C840.255 3682.87 841.251 3682.59 842.371 3682.59C843.51 3682.59 844.513 3682.86 845.379 3683.42C846.251 3683.96 846.922 3684.76 847.391 3685.81C847.859 3686.85 848.094 3688.06 848.094 3689.45V3690.35ZM846.229 3689.43C846.229 3687.75 845.89 3686.45 845.213 3685.55C844.536 3684.65 843.589 3684.2 842.371 3684.2C841.186 3684.2 840.252 3684.65 839.568 3685.55C838.891 3686.45 838.543 3687.7 838.523 3689.3V3690.35C838.523 3691.98 838.865 3693.27 839.549 3694.21C840.239 3695.14 841.186 3695.6 842.391 3695.6C843.602 3695.6 844.539 3695.16 845.203 3694.29C845.867 3693.4 846.209 3692.13 846.229 3690.49V3689.43ZM852.791 3695.47H859.529V3697H850.906V3682.78H852.791V3695.47Z" fill="white"/>
</g>
<defs>
<linearGradient id="paint0_linear" x1="720" y1="1238" x2="720" y2="1396" gradientUnits="userSpaceOnUse">
<stop stop-color="#A2FFF9"/>
<stop offset="1" stop-color="#4182FF" stop-opacity="0"/>
</linearGradient>
<linearGradient id="paint1_linear" x1="720" y1="2040.33" x2="720" y2="2219" gradientUnits="userSpaceOnUse">
<stop stop-color="white"/>
<stop offset="1" stop-color="#4182FF" stop-opacity="0"/>
</linearGradient>
<linearGradient id="paint2_linear" x1="720" y1="2940.37" x2="720" y2="3142" gradientUnits="userSpaceOnUse">
<stop stop-color="#AECAFF"/>
<stop offset="1" stop-color="#4182FF" stop-opacity="0"/>
</linearGradient>
<linearGradient id="paint3_linear" x1="720" y1="3497.9" x2="720" y2="3604" gradientUnits="userSpaceOnUse">
<stop stop-color="#FFBFBF"/>
<stop offset="1" stop-color="#4182FF" stop-opacity="0"/>
</linearGradient>
<linearGradient id="paint4_linear" x1="724.815" y1="605.931" x2="733.213" y2="728.418" gradientUnits="userSpaceOnUse">
<stop stop-color="#B8A7CF"/>
<stop offset="0.318283" stop-color="#940DFF" stop-opacity="0"/>
<stop offset="1" stop-color="#41FFF4" stop-opacity="0"/>
</linearGradient>
<radialGradient id="paint5_diamond" cx="0" cy="0" r="1" gradientUnits="userSpaceOnUse" gradientTransform="translate(92 644.5) rotate(90) scale(20.5 19)">
<stop stop-color="#FFF9C3"/>
<stop offset="1" stop-color="#C4C4C4" stop-opacity="0"/>
</radialGradient>
<radialGradient id="paint6_diamond" cx="0" cy="0" r="1" gradientUnits="userSpaceOnUse" gradientTransform="translate(1058 1483.5) rotate(90) scale(20.5 19)">
<stop stop-color="#FFF9C3"/>
<stop offset="1" stop-color="#C4C4C4" stop-opacity="0"/>
</radialGradient>
<radialGradient id="paint7_diamond" cx="0" cy="0" r="1" gradientUnits="userSpaceOnUse" gradientTransform="translate(42 3237.5) rotate(90) scale(20.5 19)">
<stop stop-color="#FFF9C3"/>
<stop offset="1" stop-color="#C4C4C4" stop-opacity="0"/>
</radialGradient>
<radialGradient id="paint8_diamond" cx="0" cy="0" r="1" gradientUnits="userSpaceOnUse" gradientTransform="translate(108 3152.5) rotate(90) scale(20.5 19)">
<stop stop-color="#FFF9C3"/>
<stop offset="1" stop-color="#C4C4C4" stop-opacity="0"/>
</radialGradient>
<radialGradient id="paint9_diamond" cx="0" cy="0" r="1" gradientUnits="userSpaceOnUse" gradientTransform="translate(246 3193.5) rotate(90) scale(20.5 19)">
<stop stop-color="#FFF9C3"/>
<stop offset="1" stop-color="#C4C4C4" stop-opacity="0"/>
</radialGradient>
<radialGradient id="paint10_diamond" cx="0" cy="0" r="1" gradientUnits="userSpaceOnUse" gradientTransform="translate(351 3121.5) rotate(90) scale(20.5 19)">
<stop stop-color="#FFF9C3"/>
<stop offset="1" stop-color="#C4C4C4" stop-opacity="0"/>
</radialGradient>
<radialGradient id="paint11_diamond" cx="0" cy="0" r="1" gradientUnits="userSpaceOnUse" gradientTransform="translate(1123 1399.5) rotate(90) scale(20.5 19)">
<stop stop-color="#FFF9C3"/>
<stop offset="1" stop-color="#C4C4C4" stop-opacity="0"/>
</radialGradient>
<radialGradient id="paint12_diamond" cx="0" cy="0" r="1" gradientUnits="userSpaceOnUse" gradientTransform="translate(1262 1440.5) rotate(90) scale(20.5 19)">
<stop stop-color="#FFF9C3"/>
<stop offset="1" stop-color="#C4C4C4" stop-opacity="0"/>
</radialGradient>
<radialGradient id="paint13_diamond" cx="0" cy="0" r="1" gradientUnits="userSpaceOnUse" gradientTransform="translate(1370 1370.5) rotate(90) scale(20.5 19)">
<stop stop-color="#FFF9C3"/>
<stop offset="1" stop-color="#C4C4C4" stop-opacity="0"/>
</radialGradient>
<radialGradient id="paint14_diamond" cx="0" cy="0" r="1" gradientUnits="userSpaceOnUse" gradientTransform="translate(164 556.5) rotate(90) scale(20.5 20)">
<stop stop-color="#FFF9C3"/>
<stop offset="1" stop-color="#C4C4C4" stop-opacity="0"/>
</radialGradient>
<radialGradient id="paint15_diamond" cx="0" cy="0" r="1" gradientUnits="userSpaceOnUse" gradientTransform="translate(315 592.5) rotate(90) scale(20.5 17)">
<stop stop-color="#FFFDCE"/>
<stop offset="1" stop-color="#C4C4C4" stop-opacity="0"/>
</radialGradient>
<radialGradient id="paint16_diamond" cx="0" cy="0" r="1" gradientUnits="userSpaceOnUse" gradientTransform="translate(432 519) rotate(90) scale(21 17)">
<stop stop-color="#FFF9C3"/>
<stop offset="0.0946144" stop-color="#F8F3C4" stop-opacity="0.884552"/>
<stop offset="1" stop-color="#C4C4C4" stop-opacity="0"/>
</radialGradient>
<radialGradient id="paint17_radial" cx="0" cy="0" r="1" gradientUnits="userSpaceOnUse" gradientTransform="translate(1336.1 1681.83) rotate(91.0758) scale(42.3272 27.9102)">
<stop stop-color="#FFF50D"/>
<stop offset="1" stop-color="white" stop-opacity="0"/>
</radialGradient>
<radialGradient id="paint18_radial" cx="0" cy="0" r="1" gradientUnits="userSpaceOnUse" gradientTransform="translate(252.07 340.82) rotate(91.0758) scale(46.2983 28.8259)">
<stop stop-color="#FFF50D"/>
<stop offset="1" stop-color="white" stop-opacity="0"/>
</radialGradient>
<radialGradient id="paint19_radial" cx="0" cy="0" r="1" gradientUnits="userSpaceOnUse" gradientTransform="translate(1113.07 3169.82) rotate(91.0758) scale(46.2983 28.8259)">
<stop stop-color="#FFF50D"/>
<stop offset="1" stop-color="white" stop-opacity="0"/>
</radialGradient>
<radialGradient id="paint20_radial" cx="0" cy="0" r="1" gradientUnits="userSpaceOnUse" gradientTransform="translate(81.0701 2394.82) rotate(91.0758) scale(46.2983 28.8259)">
<stop stop-color="#FFF50D"/>
<stop offset="1" stop-color="white" stop-opacity="0"/>
</radialGradient>
<radialGradient id="paint21_angular" cx="0" cy="0" r="1" gradientUnits="userSpaceOnUse" gradientTransform="translate(1230.29 3515.42) rotate(143.661) scale(138.092 77.7602)">
<stop stop-color="#35E7FF" stop-opacity="0.909708"/>
<stop offset="0.492009" stop-color="#35E7FF" stop-opacity="0.909708"/>
<stop offset="1" stop-color="#35E7FF" stop-opacity="0"/>
</radialGradient>
<radialGradient id="paint22_angular" cx="0" cy="0" r="1" gradientUnits="userSpaceOnUse" gradientTransform="translate(1208.49 3518.32) rotate(33.6805) scale(153.155 73.6812)">
<stop stop-color="#00FFF0"/>
<stop offset="0.492009" stop-color="#35E7FF" stop-opacity="0.909708"/>
<stop offset="1" stop-color="#00FFF0" stop-opacity="0"/>
</radialGradient>
<clipPath id="clip0">
<rect width="1440" height="3819" fill="white"/>
</clipPath>
</defs>
</svg>
