<svg width="498" height="306" viewBox="0 0 498 306" fill="none" xmlns="http://www.w3.org/2000/svg">
<path d="M140.266 1C140.266 1 16.879 33.3899 2.77089 92.0941C-12.508 155.67 75.2761 171.581 105.011 230.854C118.112 256.97 120.817 277.476 129.689 305H380" stroke="white"/>
<path d="M130.152 98.4297C129.078 99.9141 127.193 101.145 124.498 102.121C121.803 103.098 118.834 103.586 115.592 103.586C112.428 103.586 109.605 102.814 107.125 101.271C104.645 99.7285 102.701 97.5508 101.295 94.7383C99.9082 91.9258 99.1953 88.7422 99.1562 85.1875V77.8633C99.1562 74.3672 99.8301 71.2324 101.178 68.459C102.525 65.6855 104.42 63.5469 106.861 62.043C109.303 60.5195 112.047 59.7578 115.094 59.7578C119.332 59.7578 122.779 60.8418 125.436 63.0098C128.111 65.1777 129.664 68.1367 130.094 71.8867H128.512C127.984 68.4883 126.568 65.8809 124.264 64.0645C121.959 62.248 118.902 61.3398 115.094 61.3398C110.797 61.3398 107.33 62.873 104.693 65.9395C102.057 69.0059 100.738 73.0391 100.738 78.0391V84.8359C100.738 88.1758 101.354 91.1543 102.584 93.7715C103.834 96.3887 105.582 98.4199 107.828 99.8652C110.094 101.291 112.682 102.004 115.592 102.004C118.443 102.004 121.09 101.584 123.531 100.744C125.973 99.9043 127.652 98.8887 128.57 97.6973V85.2754H115.533V83.6641H130.152V98.4297ZM160.943 103C160.553 101.652 160.357 99.7188 160.357 97.1992C159.107 99.2305 157.398 100.803 155.23 101.916C153.062 103.029 150.611 103.586 147.877 103.586C144.947 103.586 142.584 102.795 140.787 101.213C139.01 99.6113 138.121 97.5312 138.121 94.9727C138.121 92.0625 139.43 89.7383 142.047 88C144.684 86.2422 148.18 85.3438 152.535 85.3047H160.357V80.6758C160.357 78.0195 159.518 75.959 157.838 74.4941C156.178 73.0293 153.795 72.2969 150.689 72.2969C147.799 72.2969 145.387 73.0391 143.453 74.5234C141.52 76.0078 140.553 77.8438 140.553 80.0312L138.971 79.9727C138.971 77.3945 140.104 75.207 142.369 73.4102C144.635 71.6133 147.408 70.7148 150.689 70.7148C154.107 70.7148 156.822 71.5742 158.834 73.293C160.846 74.9922 161.881 77.3945 161.939 80.5V95.6465C161.939 99.123 162.213 101.486 162.76 102.736V103H160.943ZM147.877 102.033C150.846 102.033 153.395 101.369 155.523 100.041C157.672 98.7129 159.283 96.8477 160.357 94.4453V86.916H153.033C148.502 86.916 145.035 87.8145 142.633 89.6113C140.68 91.0762 139.703 92.9023 139.703 95.0898C139.703 97.0234 140.475 98.6641 142.018 100.012C143.561 101.359 145.514 102.033 147.877 102.033ZM174.127 103H172.545V58H174.127V103ZM205.006 103C204.615 101.652 204.42 99.7188 204.42 97.1992C203.17 99.2305 201.461 100.803 199.293 101.916C197.125 103.029 194.674 103.586 191.939 103.586C189.01 103.586 186.646 102.795 184.85 101.213C183.072 99.6113 182.184 97.5312 182.184 94.9727C182.184 92.0625 183.492 89.7383 186.109 88C188.746 86.2422 192.242 85.3438 196.598 85.3047H204.42V80.6758C204.42 78.0195 203.58 75.959 201.9 74.4941C200.24 73.0293 197.857 72.2969 194.752 72.2969C191.861 72.2969 189.449 73.0391 187.516 74.5234C185.582 76.0078 184.615 77.8438 184.615 80.0312L183.033 79.9727C183.033 77.3945 184.166 75.207 186.432 73.4102C188.697 71.6133 191.471 70.7148 194.752 70.7148C198.17 70.7148 200.885 71.5742 202.896 73.293C204.908 74.9922 205.943 77.3945 206.002 80.5V95.6465C206.002 99.123 206.275 101.486 206.822 102.736V103H205.006ZM191.939 102.033C194.908 102.033 197.457 101.369 199.586 100.041C201.734 98.7129 203.346 96.8477 204.42 94.4453V86.916H197.096C192.564 86.916 189.098 87.8145 186.695 89.6113C184.742 91.0762 183.766 92.9023 183.766 95.0898C183.766 97.0234 184.537 98.6641 186.08 100.012C187.623 101.359 189.576 102.033 191.939 102.033ZM225.514 85.3633L235.621 71.3008H237.613L226.48 86.7402L238.199 103H236.236L225.484 88.1172L214.762 103H212.799L224.518 86.7402L213.385 71.3008H215.377L225.514 85.3633ZM254.576 100.539L254.781 99.9531L265.738 71.3008H267.496L253.316 108.508L252.613 110.266C251.09 113.957 248.57 115.803 245.055 115.803C243.922 115.803 243.141 115.695 242.711 115.48L242.682 113.986C243.307 114.162 244.02 114.25 244.82 114.25C246.48 114.25 247.857 113.762 248.951 112.785C250.045 111.828 250.992 110.256 251.793 108.068L253.727 102.824L241.1 71.3008H242.828L254.576 100.539ZM298.639 102.004C301.51 102.004 303.873 101.242 305.729 99.7188C307.604 98.1953 308.629 96.0859 308.805 93.3906H310.387C310.23 96.457 309.049 98.9277 306.842 100.803C304.635 102.658 301.9 103.586 298.639 103.586C294.674 103.586 291.52 102.15 289.176 99.2793C286.852 96.4082 285.689 92.5117 285.689 87.5898V86.5352C285.689 81.7305 286.852 77.8926 289.176 75.0215C291.52 72.1504 294.654 70.7148 298.58 70.7148C301.939 70.7148 304.713 71.7207 306.9 73.7324C309.088 75.7441 310.25 78.4199 310.387 81.7598H308.805C308.668 78.9082 307.662 76.623 305.787 74.9043C303.932 73.166 301.529 72.2969 298.58 72.2969C295.045 72.2969 292.271 73.5762 290.26 76.1348C288.268 78.6738 287.271 82.209 287.271 86.7402V87.7656C287.271 92.1992 288.277 95.6855 290.289 98.2246C292.32 100.744 295.104 102.004 298.639 102.004ZM332.33 72.4434L330.279 72.2676C327.584 72.2676 325.328 73.1465 323.512 74.9043C321.695 76.6426 320.504 79.084 319.938 82.2285V103H318.355V71.3008H319.938V77.8926C320.797 75.6855 322.086 73.9375 323.805 72.6484C325.523 71.3594 327.682 70.7148 330.279 70.7148C331.197 70.7148 331.939 70.8223 332.506 71.0371L332.33 72.4434ZM359.693 103V97.873C358.756 99.6309 357.389 101.027 355.592 102.062C353.795 103.078 351.52 103.586 348.766 103.586C345.309 103.586 342.711 102.58 340.973 100.568C339.254 98.5371 338.375 95.5879 338.336 91.7207V71.3008H339.918V91.7793C339.957 95.1387 340.719 97.6875 342.203 99.4258C343.688 101.145 345.855 102.004 348.707 102.004C351.734 102.004 354.195 101.291 356.09 99.8652C357.984 98.4395 359.186 96.3496 359.693 93.5957V71.3008H361.305V103H359.693ZM373.287 103H371.705V71.3008H373.287V103ZM370.885 61.3984C370.885 60.9492 371.041 60.5684 371.354 60.2559C371.666 59.9238 372.047 59.7578 372.496 59.7578C372.945 59.7578 373.326 59.9238 373.639 60.2559C373.971 60.5684 374.137 60.9492 374.137 61.3984C374.137 61.8477 373.971 62.2285 373.639 62.541C373.326 62.8535 372.945 63.0098 372.496 63.0098C372.047 63.0098 371.666 62.8535 371.354 62.541C371.041 62.2285 370.885 61.8477 370.885 61.3984ZM403.229 95.2363C403.229 91.3887 399.947 88.7715 393.385 87.3848C389.439 86.5449 386.695 85.4707 385.152 84.1621C383.609 82.834 382.838 81.0176 382.838 78.7129C382.838 76.3887 383.814 74.4746 385.768 72.9707C387.74 71.4668 390.299 70.7148 393.443 70.7148C396.861 70.7148 399.605 71.5352 401.676 73.1758C403.746 74.7969 404.781 76.9941 404.781 79.7676H403.17C403.17 77.6387 402.271 75.8613 400.475 74.4355C398.678 73.0098 396.334 72.2969 393.443 72.2969C390.67 72.2969 388.473 72.9023 386.852 74.1133C385.23 75.3242 384.42 76.8379 384.42 78.6543C384.42 80.0801 384.723 81.2031 385.328 82.0234C385.934 82.8242 386.92 83.5566 388.287 84.2207C389.654 84.8652 391.646 85.4902 394.264 86.0957C396.881 86.7012 398.951 87.4141 400.475 88.2344C401.998 89.0547 403.102 90.0312 403.785 91.1641C404.469 92.2773 404.811 93.6445 404.811 95.2656C404.811 97.7656 403.785 99.7773 401.734 101.301C399.684 102.824 396.998 103.586 393.678 103.586C390.123 103.586 387.252 102.785 385.064 101.184C382.896 99.5625 381.812 97.4824 381.812 94.9434H383.395C383.551 97.1699 384.527 98.9082 386.324 100.158C388.141 101.389 390.592 102.004 393.678 102.004C396.51 102.004 398.805 101.35 400.562 100.041C402.34 98.7129 403.229 97.1113 403.229 95.2363ZM424.967 103.586C422.408 103.586 420.055 102.902 417.906 101.535C415.777 100.148 414.107 98.2539 412.896 95.8516C411.686 93.4492 411.08 90.7832 411.08 87.8535V86.5352C411.08 83.6055 411.666 80.9199 412.838 78.4785C414.01 76.0371 415.621 74.1328 417.672 72.7656C419.723 71.3984 421.959 70.7148 424.381 70.7148C427.916 70.7148 430.807 71.9746 433.053 74.4941C435.299 77.0137 436.422 80.3242 436.422 84.4258V86.0957H412.662V87.8242C412.662 90.4023 413.199 92.7949 414.273 95.002C415.367 97.1895 416.861 98.9082 418.756 100.158C420.67 101.408 422.74 102.033 424.967 102.033C427.096 102.033 428.902 101.682 430.387 100.979C431.891 100.256 433.219 99.1523 434.371 97.668L435.484 98.459C433.121 101.877 429.615 103.586 424.967 103.586ZM424.381 72.2969C421.295 72.2969 418.678 73.4492 416.529 75.7539C414.381 78.0391 413.121 80.959 412.75 84.5137H434.84V84.1328C434.84 81.9844 434.381 79.9922 433.463 78.1562C432.564 76.3008 431.314 74.8652 429.713 73.8496C428.131 72.8145 426.354 72.2969 424.381 72.2969Z" fill="white"/>
<path d="M161.215 169.113H156.859V183H155.805V154.562H156.859V168.078H161.508L173.578 154.562H174.965L162.387 168.742L175.863 183H174.477L161.215 169.113ZM196.332 172.629C196.332 175.923 195.622 178.54 194.203 180.48C192.784 182.421 190.85 183.391 188.402 183.391C186.801 183.391 185.375 183.065 184.125 182.414C182.875 181.763 181.898 180.865 181.195 179.719V191.125H180.141V161.867H181.195V165.637C181.924 164.296 182.908 163.267 184.145 162.551C185.382 161.835 186.788 161.477 188.363 161.477C190.837 161.477 192.784 162.427 194.203 164.328C195.622 166.216 196.332 168.872 196.332 172.297V172.629ZM195.258 172.219C195.258 169.185 194.652 166.815 193.441 165.109C192.243 163.391 190.557 162.531 188.383 162.531C186.612 162.531 185.108 162.993 183.871 163.918C182.634 164.829 181.742 166.145 181.195 167.863V177.746C181.742 179.204 182.634 180.337 183.871 181.145C185.121 181.939 186.638 182.336 188.422 182.336C190.583 182.336 192.263 181.477 193.461 179.758C194.659 178.039 195.258 175.526 195.258 172.219ZM208.324 181.359L208.461 180.969L215.766 161.867H216.938L207.484 186.672L207.016 187.844C206 190.305 204.32 191.535 201.977 191.535C201.221 191.535 200.701 191.464 200.414 191.32L200.395 190.324C200.811 190.441 201.286 190.5 201.82 190.5C202.927 190.5 203.845 190.174 204.574 189.523C205.303 188.885 205.935 187.837 206.469 186.379L207.758 182.883L199.34 161.867H200.492L208.324 181.359ZM235.082 161.867H236.156V183H235.082V163.742L222.016 183H220.961V161.867H222.016V181.125L235.082 161.867ZM256.039 167.277C256.039 165.78 255.486 164.615 254.379 163.781C253.285 162.948 251.684 162.531 249.574 162.531C247.751 162.531 246.208 162.993 244.945 163.918C243.695 164.842 243.07 166.001 243.07 167.395H241.996C241.996 165.689 242.732 164.276 244.203 163.156C245.688 162.036 247.478 161.477 249.574 161.477C251.97 161.477 253.826 161.997 255.141 163.039C256.456 164.068 257.113 165.5 257.113 167.336C257.113 168.443 256.755 169.426 256.039 170.285C255.323 171.145 254.314 171.776 253.012 172.18C255.993 172.857 257.484 174.576 257.484 177.336C257.484 179.185 256.768 180.656 255.336 181.75C253.917 182.831 252.003 183.371 249.594 183.371C248.188 183.371 246.866 183.111 245.629 182.59C244.392 182.069 243.415 181.34 242.699 180.402C241.996 179.465 241.645 178.371 241.645 177.121H242.719C242.719 178.579 243.37 179.81 244.672 180.812C245.974 181.802 247.615 182.297 249.594 182.297C251.833 182.297 253.526 181.861 254.672 180.988C255.831 180.103 256.41 178.905 256.41 177.395C256.41 175.767 255.844 174.589 254.711 173.859C253.591 173.13 251.905 172.759 249.652 172.746H246.703V171.672H249.867C253.982 171.607 256.039 170.142 256.039 167.277ZM306.84 174.152H295.512V173.098H306.84V174.152ZM294.965 160.793C294.965 158.84 295.505 157.264 296.586 156.066C297.68 154.855 299.118 154.25 300.902 154.25C302.686 154.25 304.125 154.849 305.219 156.047C306.312 157.245 306.859 158.859 306.859 160.891V163.078C306.859 165.044 306.312 166.626 305.219 167.824C304.138 169.009 302.712 169.602 300.941 169.602C299.158 169.602 297.712 169.009 296.605 167.824C295.512 166.639 294.965 165.025 294.965 162.98V160.793ZM296.02 163.078C296.02 164.784 296.449 166.125 297.309 167.102C298.181 168.065 299.392 168.547 300.941 168.547C302.452 168.547 303.643 168.052 304.516 167.062C305.388 166.06 305.824 164.706 305.824 163V160.793C305.824 159.126 305.375 157.798 304.477 156.809C303.591 155.806 302.4 155.305 300.902 155.305C299.418 155.305 298.233 155.799 297.348 156.789C296.462 157.779 296.02 159.152 296.02 160.91V163.078ZM290.629 183H289.574L274.145 156.555V183H273.07V154.562H274.145L289.574 180.949V154.562H290.629V183ZM332.23 183H331.176V155.891L323.012 158.957V157.805L332.016 154.484H332.23V183ZM354.145 183H353.09V155.891L344.926 158.957V157.805L353.93 154.484H354.145V183ZM367.699 168.117L369.027 154.562H382.895V155.598H369.984L368.832 167.004C369.509 166.444 370.401 165.988 371.508 165.637C372.628 165.285 373.721 165.109 374.789 165.109C377.341 165.109 379.379 165.917 380.902 167.531C382.426 169.146 383.188 171.281 383.188 173.938C383.188 177.023 382.497 179.374 381.117 180.988C379.737 182.59 377.758 183.391 375.18 183.391C372.745 183.391 370.779 182.694 369.281 181.301C367.784 179.908 366.938 177.98 366.742 175.52H367.816C368.025 177.746 368.754 179.439 370.004 180.598C371.254 181.757 372.979 182.336 375.18 182.336C377.523 182.336 379.262 181.633 380.395 180.227C381.54 178.807 382.113 176.724 382.113 173.977C382.113 171.607 381.449 169.712 380.121 168.293C378.806 166.874 377.035 166.164 374.809 166.164C373.441 166.164 372.25 166.346 371.234 166.711C370.219 167.076 369.307 167.648 368.5 168.43L367.699 168.117Z" fill="white"/>
<path d="M189.777 222.562L200.266 247.66L210.793 222.562H213.996V251H211.594V238.617L211.789 225.922L201.203 251H199.348L188.801 226.02L188.996 238.539V251H186.594V222.562H189.777ZM233.996 251C233.762 250.336 233.612 249.353 233.547 248.051C232.727 249.118 231.678 249.945 230.402 250.531C229.139 251.104 227.798 251.391 226.379 251.391C224.348 251.391 222.701 250.824 221.438 249.691C220.188 248.559 219.562 247.126 219.562 245.395C219.562 243.337 220.415 241.71 222.121 240.512C223.84 239.314 226.229 238.715 229.289 238.715H233.527V236.312C233.527 234.802 233.059 233.617 232.121 232.758C231.197 231.885 229.842 231.449 228.059 231.449C226.431 231.449 225.083 231.866 224.016 232.699C222.948 233.533 222.414 234.535 222.414 235.707L220.07 235.688C220.07 234.008 220.852 232.556 222.414 231.332C223.977 230.095 225.897 229.477 228.176 229.477C230.533 229.477 232.388 230.069 233.742 231.254C235.109 232.426 235.812 234.066 235.852 236.176V246.176C235.852 248.22 236.066 249.75 236.496 250.766V251H233.996ZM226.652 249.32C228.215 249.32 229.608 248.943 230.832 248.188C232.069 247.432 232.967 246.423 233.527 245.16V240.512H229.348C227.017 240.538 225.194 240.967 223.879 241.801C222.564 242.621 221.906 243.754 221.906 245.199C221.906 246.384 222.342 247.367 223.215 248.148C224.1 248.93 225.246 249.32 226.652 249.32ZM259.094 240.648C259.094 243.943 258.365 246.56 256.906 248.5C255.448 250.427 253.495 251.391 251.047 251.391C248.156 251.391 245.943 250.375 244.406 248.344V259.125H242.082V229.867H244.25L244.367 232.855C245.891 230.603 248.098 229.477 250.988 229.477C253.514 229.477 255.493 230.434 256.926 232.348C258.371 234.262 259.094 236.918 259.094 240.316V240.648ZM256.75 240.238C256.75 237.543 256.197 235.414 255.09 233.852C253.983 232.289 252.44 231.508 250.461 231.508C249.029 231.508 247.798 231.853 246.77 232.543C245.741 233.233 244.953 234.236 244.406 235.551V245.688C244.966 246.898 245.767 247.823 246.809 248.461C247.85 249.099 249.081 249.418 250.5 249.418C252.466 249.418 253.996 248.637 255.09 247.074C256.197 245.499 256.75 243.22 256.75 240.238ZM266.789 229.867V249.027H276.184V229.867H278.527V249.027H287.844V229.867H290.188V251H264.445V229.867H266.789ZM313.039 240.648C313.039 243.943 312.31 246.56 310.852 248.5C309.393 250.427 307.44 251.391 304.992 251.391C302.102 251.391 299.888 250.375 298.352 248.344V259.125H296.027V229.867H298.195L298.312 232.855C299.836 230.603 302.043 229.477 304.934 229.477C307.46 229.477 309.439 230.434 310.871 232.348C312.316 234.262 313.039 236.918 313.039 240.316V240.648ZM310.695 240.238C310.695 237.543 310.142 235.414 309.035 233.852C307.928 232.289 306.385 231.508 304.406 231.508C302.974 231.508 301.743 231.853 300.715 232.543C299.686 233.233 298.898 234.236 298.352 235.551V245.688C298.911 246.898 299.712 247.823 300.754 248.461C301.796 249.099 303.026 249.418 304.445 249.418C306.411 249.418 307.941 248.637 309.035 247.074C310.142 245.499 310.695 243.22 310.695 240.238ZM324.699 247.641L330.871 229.867H333.391L324.367 254.594L323.898 255.688C322.74 258.253 320.949 259.535 318.527 259.535C317.967 259.535 317.368 259.444 316.73 259.262L316.711 257.328L317.922 257.445C319.068 257.445 319.992 257.159 320.695 256.586C321.411 256.026 322.017 255.056 322.512 253.676L323.547 250.824L315.578 229.867H318.137L324.699 247.641ZM352.199 231.859H344.504V251H342.16V231.859H334.758V229.867H352.199V231.859Z" fill="white"/>
</svg>
